<svg width="259" height="362" viewBox="0 0 259 362" fill="none" xmlns="http://www.w3.org/2000/svg">
<path fill-rule="evenodd" clip-rule="evenodd" d="M212.706 38.4318C212.706 38.4318 213.723 33.8537 214.232 32.8364C214.741 31.819 217.284 34.8711 219.319 28.2583C221.353 21.6455 219.319 20.6282 218.301 21.6455C217.701 22.2502 217.015 22.7643 216.267 23.1716C216.267 23.1716 220.845 9.94598 214.741 4.85922C208.637 -0.227534 194.902 -3.27959 189.816 5.87657C184.729 15.0327 187.781 20.6282 187.781 20.6282C187.781 20.6282 186.255 17.5761 185.237 19.1021C184.22 20.6282 184.22 25.7149 185.237 28.2583C186.255 30.8017 188.289 29.2757 188.289 29.2757C188.289 29.2757 188.798 36.9058 188.798 39.9579C188.798 43.0099 189.816 46.5706 185.237 49.114C180.659 51.6574 176.081 52.6747 174.555 54.2008C171.503 54.7094 160.312 54.7094 155.734 59.2875C151.156 63.8656 147.087 74.5478 150.647 81.6693C148.104 87.7734 146.069 90.8254 146.578 97.4382C145.561 104.051 145.052 104.56 145.052 106.594C144.035 109.138 142 111.172 142 114.225C142 117.277 143.017 120.329 143.017 121.855C143.017 123.381 142 132.028 143.017 136.098C144.035 140.167 145.052 142.202 144.543 144.236C144.035 146.271 143.017 149.323 144.035 151.358C145.052 153.393 147.595 162.04 147.087 163.566C146.578 165.092 147.087 169.161 148.613 170.688C150.139 172.214 151.156 175.266 152.682 175.266C154.208 175.266 158.278 176.792 159.295 175.266C160.821 175.266 164.89 175.774 165.399 174.757C166.925 174.248 169.977 174.248 169.468 172.722C168.96 171.196 167.434 170.179 166.416 169.67C165.399 169.161 161.33 164.075 160.821 162.549C160.312 161.023 160.821 158.988 160.821 158.988C160.821 158.988 162.347 157.462 163.364 157.971C164.382 158.479 165.908 158.988 165.908 160.514C165.908 162.04 165.908 164.075 167.434 164.583C168.96 165.092 170.486 161.531 169.977 159.497C169.468 157.462 167.942 153.901 166.925 153.393C165.908 152.884 164.89 149.832 160.312 149.323C155.734 148.814 154.717 148.814 155.226 147.288C155.734 145.762 159.295 137.115 160.312 135.08C161.33 133.046 163.364 126.941 162.347 120.329C161.33 113.716 161.838 111.172 162.856 108.629C163.873 106.086 165.399 99.9816 165.399 100.49C165.399 100.999 168.96 107.612 169.468 108.12C169.977 109.138 169.468 113.716 170.486 115.242C171.503 116.768 171.503 125.415 170.995 131.011C170.486 137.115 173.029 143.219 173.538 143.728C172.012 146.78 170.486 158.479 169.977 165.601C169.468 172.722 168.451 184.93 167.434 189C166.416 193.069 165.399 214.942 168.96 221.046C172.521 227.151 178.116 233.255 179.133 236.815C180.151 240.376 182.694 250.55 182.694 253.602C182.694 256.654 181.677 267.336 182.694 269.879C183.711 272.423 195.411 304.978 195.411 308.03C195.411 311.082 197.954 316.677 196.428 320.238C194.902 323.799 192.359 330.92 191.342 332.446C190.324 333.972 190.324 334.481 189.816 338.042C189.307 341.603 189.307 344.655 192.359 346.689C194.612 348.104 196.997 349.296 199.48 350.25C199.48 350.25 198.972 354.319 200.498 355.845C202.024 357.372 203.041 360.424 204.058 360.932C205.076 361.441 208.637 361.441 210.671 360.932C212.706 360.424 217.793 358.898 217.793 358.898C217.793 358.898 220.336 355.337 215.758 348.215C211.18 341.094 210.163 338.551 210.163 336.007C210.163 333.464 209.654 331.938 209.654 330.92C209.654 329.903 210.671 321.256 211.689 317.695C212.706 314.134 217.793 290.735 218.81 288.192C219.827 285.648 222.371 276.492 221.862 262.758C221.353 249.024 220.845 240.885 225.423 232.237C230.001 223.59 235.596 211.382 235.088 197.647C234.579 183.913 233.562 167.635 233.562 167.635C233.562 167.635 232.544 160.005 232.544 158.988C232.544 157.971 231.527 144.745 229.492 142.202C227.458 139.658 228.475 135.08 228.475 135.08C228.475 135.08 230.001 131.011 228.475 126.941C226.949 122.872 225.932 118.803 226.949 115.751C227.966 112.698 229.492 107.612 229.492 107.612L231.527 113.207C231.527 113.207 231.018 125.415 232.036 128.467C233.053 131.519 237.631 146.271 240.174 149.832C242.718 153.393 248.313 164.075 248.822 165.092C247.296 166.618 244.244 167.635 244.244 170.179C244.244 172.722 244.244 176.283 243.735 178.318C243.226 180.352 242.718 182.387 243.226 183.404C243.735 184.422 243.226 184.422 241.7 184.422C240.174 184.422 239.157 185.948 240.174 186.965C241.192 187.982 239.666 190.017 241.7 190.526C243.735 191.035 245.261 192.561 249.839 190.526C254.417 188.491 258.487 182.896 258.487 182.896C258.487 182.896 258.487 174.757 257.978 170.179C257.511 166.077 256.832 162.002 255.943 157.971C255.435 155.936 253.4 141.184 253.4 134.063C253.4 126.941 250.857 113.207 248.313 109.646C248.313 104.56 247.296 91.3341 246.279 89.8081C246.787 85.23 248.313 82.1779 248.313 78.1085C248.313 74.0391 245.77 59.7962 236.614 58.2702C227.458 56.7441 225.931 56.7441 225.931 56.7441C225.931 56.7441 212.706 49.114 212.706 47.0793V38.4318Z" fill="url(#paint0_linear)"/>
<path fill-rule="evenodd" clip-rule="evenodd" d="M164.067 126.487C163.11 124.098 157.371 115.965 155.458 114.052C153.545 112.139 147.329 106.399 147.329 106.399C147.329 106.399 142.785 98.0282 139.677 96.8337C139.533 96.6182 139.264 96.0722 138.883 95.2977L138.882 95.2972C136.728 90.9245 130.986 79.2696 123.896 78.6591C117.156 78.0792 113.374 77.7025 113.374 77.7025C113.374 77.7025 109.052 76.2702 106.197 74.3571C103.343 72.4439 95.9132 67.9139 95.9132 67.9139C95.9132 67.9139 101.653 60.2317 101.177 50.2052C100.701 40.1787 98.3071 28.6851 86.3477 30.1224C74.3882 31.5597 72.9658 38.2507 72.4701 41.6011C71.9745 44.9516 72.4701 49.7294 72.4701 49.7294C71.0378 48.7728 68.6439 49.7294 69.6004 52.5991C69.746 53.0356 69.8915 53.4942 70.0387 53.9582L70.039 53.9595C70.8593 56.5452 71.7317 59.295 72.9459 59.295C74.3783 59.295 74.859 59.7906 74.859 59.7906C74.859 59.7906 76.7722 68.8754 76.7722 70.7885C76.7722 72.7017 75.8453 76.9888 71.5235 78.9019C67.2016 80.8151 65.3083 80.8151 65.3083 80.8151C65.3083 80.8151 57.1801 80.3194 53.8296 85.1171C50.4792 89.9148 47.5946 94.6827 47.1337 97.5524C46.8471 99.2935 46.8471 101.07 47.1337 102.811C47.1337 102.811 41.3944 108.07 39.4812 112.377C37.5681 116.684 35.1792 120.986 33.7419 121.942C32.3046 122.899 28.9591 127.681 30.8722 131.508C32.7853 135.334 36.3737 142.268 41.1515 147.051C45.9293 151.833 50.7171 157.573 50.7171 157.573C50.7171 157.573 53.106 161.399 53.5868 163.312C54.0675 165.225 56.4564 172.397 58.8454 174.31C61.2343 176.223 63.6282 174.31 63.6282 174.31C63.6282 174.31 63.6282 182.919 61.715 185.789C60.5221 187.578 59.0497 191.135 57.1826 195.645L57.1824 195.645C56.0553 198.368 54.7842 201.438 53.3439 204.677C49.5177 213.281 48.5611 218.059 46.648 234.325C45.1958 246.676 45.4535 253.694 45.4535 253.694C45.4535 253.694 44.0212 257.521 44.0212 260.39C44.0212 260.9 44.0368 261.516 44.0544 262.208C44.1358 265.409 44.2587 270.239 43.0646 273.772C41.6124 278.069 36.8495 306.771 36.8495 308.203C36.8495 309.636 35.4171 328.767 32.0667 334.03C29.9946 337.286 27.7425 339.263 25.5342 341.202C24.1717 342.399 22.826 343.58 21.5495 345.038C18.6826 348.313 12.6527 350.892 10.3843 351.863C10.0057 352.025 9.73182 352.142 9.59499 352.21C9.2656 352.374 8.70936 352.484 8.04344 352.615L8.04301 352.615C6.77514 352.865 5.10983 353.194 3.85563 354.123C2.70163 354.989 1.40024 355.639 0.0145321 356.041C0.0145321 356.041 -0.481094 361.3 4.31657 359.867C5.48427 359.519 6.3384 359.255 6.96243 359.062C8.24723 358.666 8.55665 358.57 8.61911 358.655C8.63892 358.682 8.63389 358.728 8.62725 358.787C8.62322 358.823 8.6186 358.865 8.6186 358.911C10.051 360.343 17.7034 359.407 21.0539 357.479C24.4043 355.551 30.1387 356.522 30.1387 356.522C30.1387 356.522 44.4871 361.305 44.9629 353.177C45.105 350.748 45.118 348.277 45.1305 345.89C45.1599 340.288 45.1869 335.152 46.876 332.132C47.8464 330.397 49.2769 327.421 50.733 324.391L50.7333 324.391C52.8914 319.9 55.1055 315.294 55.9608 314.438C57.3932 313.006 65.0456 300.09 64.0891 286.222C63.1325 272.355 62.6567 268.529 62.6567 268.529C62.6567 268.529 66.9588 258.006 68.8719 255.147C70.0332 253.411 70.8421 251.844 71.7264 250.132C72.2989 249.024 72.9029 247.854 73.6547 246.538C74.1339 245.698 74.8532 244.619 75.6924 243.36L75.6925 243.36C78.2032 239.594 81.7864 234.219 83.2203 228.844C84.238 225.028 85.6612 220.536 86.8427 216.806L86.8428 216.805C87.8822 213.524 88.7346 210.833 88.9596 209.713C89.4404 207.319 90.392 206.367 90.392 206.367L92.3051 204.454C92.3051 204.454 89.9162 219.278 88.4789 226.931C88.1006 228.944 87.6235 231.024 87.1432 233.118C85.7984 238.982 84.4285 244.954 85.1334 249.888C85.5703 252.947 85.9069 254.707 86.1437 255.946C86.4253 257.419 86.5657 258.153 86.5657 259.454C86.5657 260.237 86.8729 261.685 87.2359 263.396C87.9824 266.915 88.9652 271.548 87.9981 273.802C86.5608 277.152 83.6961 286.713 82.7395 291.02C81.7829 295.327 81.7829 304.402 82.2439 306.801C82.7048 309.2 83.2004 323.062 82.7395 326.408C82.4694 328.368 81.8591 330.165 81.3042 331.798C80.912 332.953 80.5476 334.026 80.3506 335.017C80.0527 336.516 80.3221 338.199 80.5653 339.718C80.7104 340.625 80.8462 341.473 80.8462 342.188C80.8462 342.768 80.8008 343.522 80.7512 344.346C80.6369 346.243 80.5006 348.507 80.8462 349.841C81.094 350.797 81.4546 352.467 81.8152 354.136C82.1757 355.805 82.5363 357.474 82.7841 358.43C83.2797 360.343 93.3062 362.256 96.166 358.43C98.2781 355.604 96.4891 353.562 95.2156 352.109C94.7648 351.594 94.3786 351.153 94.2529 350.778C93.7721 349.34 90.9074 342.649 90.9074 342.649C90.9074 342.649 92.3398 341.217 91.864 338.347C91.3882 335.478 91.864 327.825 93.7771 325.436C95.6902 323.047 103.818 302.96 104.299 300.09C104.78 297.22 106.688 280.483 105.732 275.219C104.775 269.956 104.76 258.482 106.673 255.608C112.566 246.478 116.476 236.214 118.152 225.478C118.654 222.166 119.113 219.422 119.517 217.008L119.518 217.007C121.039 207.923 121.777 203.515 121.022 191.047C120.065 175.267 113.85 160.442 113.85 160.442C113.85 160.442 119.589 157.097 120.546 157.097C121.502 157.097 125.804 154.227 127.242 152.795C128.679 151.362 140.153 145.142 141.59 144.667C143.027 144.191 157.852 134.625 159.284 132.712C159.755 132.083 160.536 131.453 161.339 130.805C162.978 129.484 164.705 128.09 164.067 126.487ZM64.1139 152.79C64.1139 152.79 58.8553 151.358 57.8987 151.358C56.9422 151.358 54.0725 146.099 54.0725 146.099C54.0725 146.099 46.9008 129.837 44.9877 129.362C47.3766 127.929 54.0725 122.666 55.029 117.883C55.029 117.883 57.8987 122.666 58.8553 123.142C59.4792 123.765 61.2226 129.578 62.4918 133.81L62.4919 133.81C63.1686 136.066 63.7105 137.873 63.876 138.204C63.876 138.624 63.8645 139.194 63.8516 139.834V139.834C63.8059 142.106 63.7426 145.251 64.1139 145.638C64.5897 146.134 64.1139 152.79 64.1139 152.79ZM120.065 146.57C121.022 146.57 125.804 143.224 126.761 142.268C127.039 141.99 128.165 140.581 129.67 138.698C133.342 134.102 139.271 126.683 140.629 126.001C140.165 125.603 139.623 125.146 139.028 124.643C135.333 121.523 129.603 116.686 127.955 113.804C127.097 112.302 126.48 110.559 125.93 109.007C125.256 107.101 124.683 105.484 123.891 104.957C122.454 104 119.109 101.612 119.109 101.612C119.109 101.612 117.914 124.326 107.63 136.999C106.031 138.93 105.412 141.491 105.955 143.938C106.086 144.46 106.145 145.019 106.202 145.546C106.351 146.949 106.477 148.125 107.868 147.764C110.371 147.14 119.109 146.57 120.065 146.57Z" fill="url(#paint1_linear)"/>
<defs>
<linearGradient id="paint0_linear" x1="226.259" y1="250.229" x2="226.259" y2="88.8416" gradientUnits="userSpaceOnUse">
<stop stop-color="#65E9B0"/>
<stop offset="1" stop-color="#A8E373"/>
</linearGradient>
<linearGradient id="paint1_linear" x1="51.7895" y1="112.66" x2="163.618" y2="153.668" gradientUnits="userSpaceOnUse">
<stop stop-color="#A8E373"/>
<stop offset="1" stop-color="#65E9B0"/>
</linearGradient>
</defs>
</svg>
