<svg width="261" height="366" viewBox="0 0 261 366" fill="none" xmlns="http://www.w3.org/2000/svg">
<path fill-rule="evenodd" clip-rule="evenodd" d="M183.873 91.9828C180.826 88.7504 177.885 85.8938 175.373 83.454L175.373 83.4538C171.309 79.5062 168.368 76.6497 167.92 75.0579C167.195 72.4824 162.663 67.1474 156.681 66.9634C152.692 66.842 152.692 66.9634 152.692 66.9634C152.692 66.9634 146.348 53.534 135.108 52.4302C127.161 51.6502 127.494 52.7981 127.494 52.7981C127.494 52.7981 114.986 50.0386 112.085 49.3028C109.185 48.5669 106.647 46.7272 106.284 44.1517L105.559 35.6893L106.284 33.1138C108.097 33.4817 112.085 23.5476 110.273 22.8117C108.46 22.0759 107.735 23.5476 107.735 23.5476C107.735 23.2033 107.794 22.6173 107.872 21.8509C108.46 16.0656 110.092 0 95.0449 0C78.3345 0 78.3595 16.6295 78.3668 21.4371L78.367 21.7079C75.4665 20.9721 74.3789 23.9155 75.4665 27.5948C76.5542 31.2741 77.2794 33.4817 78.7296 32.01C79.4547 35.3214 79.4547 39.7365 79.0922 41.9441C78.7296 44.1517 78.0045 47.4631 73.6537 48.5669C71.6689 49.0705 68.9295 49.6506 66.1584 50.2374C62.8553 50.9369 59.5072 51.646 57.3384 52.2462C51.3561 52.0622 46.099 52.2462 39.2103 59.6048C34.0918 65.0725 33.9775 65.665 33.9593 65.7594C33.958 65.7663 33.9571 65.7705 33.9549 65.7738C33.9514 65.7791 33.9443 65.7819 33.9259 65.7892C33.9012 65.799 33.8561 65.8169 33.7719 65.8597C33.5322 66.0218 33.0639 66.0232 32.3977 66.0252H32.3976C30.0401 66.0322 25.2057 66.0465 19.2694 73.2183C11.6556 82.4165 6.57968 87.1997 6.57968 87.1997C6.57968 87.1997 -5.38488 96.3979 2.95405 103.021C9.29205 108.054 12.7439 111.358 14.7965 113.322L14.7965 113.322C15.4445 113.942 15.953 114.429 16.3689 114.794C18.9005 117.021 23.6319 118.61 26.9059 119.709L26.906 119.709C27.1486 119.791 27.3832 119.869 27.6083 119.946C28.4506 120.23 29.7519 120.638 31.2627 121.111L31.2629 121.111L31.2633 121.111C35.6055 122.471 41.6783 124.373 43.5611 125.464C45.1487 126.385 46.8782 127.882 48.1283 128.963C48.8766 129.611 49.4531 130.11 49.7246 130.248C49.9032 130.338 50.3456 130.697 50.9489 131.185C52.7957 132.681 56.1506 135.399 58.0635 135.399C60.6015 135.399 57.3384 137.238 57.3384 137.238C57.3384 137.238 57.3384 139.446 58.0635 140.182C58.7887 140.918 62.0517 143.861 63.1394 142.757L64.2271 141.653C64.2271 141.653 65.6774 145.701 64.5897 146.804C63.502 147.908 59.5138 158.578 59.8764 161.89C60.2389 165.201 57.3384 170.72 57.3384 170.72C57.3384 170.72 45.0113 198.315 49.362 217.815C50.8345 224.415 52.5976 230.424 54.1876 235.844C57.2958 246.438 59.7426 254.778 58.0635 260.863C55.5256 270.061 51.9 283.675 54.0754 299.128C56.2507 314.581 57.3384 334.081 56.9759 334.449C56.6133 334.817 50.8123 342.912 49.7246 344.751C49.3621 345.365 48.1939 346.55 46.8109 347.953L46.8107 347.954L46.8105 347.954C44.0443 350.761 40.4188 354.44 40.6605 356.157C41.0231 358.733 46.4615 360.572 47.1867 360.204C47.6506 359.969 48.4114 360.637 48.9942 361.149C49.3223 361.438 49.594 361.676 49.7246 361.676C49.766 361.676 49.8498 361.686 49.9697 361.699C50.9003 361.806 54.0023 362.16 56.2507 360.204C56.8131 359.715 57.3932 359.298 57.9675 358.886C59.985 357.436 61.9302 356.038 62.7769 351.742C66.4025 351.374 72.9286 350.638 71.8409 343.28C71.0096 337.655 71.0255 337.619 71.4029 336.765C71.5193 336.501 71.67 336.16 71.8409 335.553C72.3462 333.758 71.9713 331.071 71.6975 329.108C71.5783 328.254 71.4784 327.537 71.4784 327.091C71.4784 325.619 74.7414 314.581 75.8291 311.638C76.3097 310.337 76.5072 308.102 76.703 305.886C76.9503 303.087 77.1951 300.317 78.0045 299.496C79.4547 298.024 85.6183 290.666 82.3552 273.741C81.9832 271.811 81.663 270.168 81.3899 268.767C80.0275 261.778 79.8342 260.786 80.21 260.111C80.2722 259.999 80.35 259.896 80.4406 259.776C80.6558 259.491 80.9436 259.11 81.2675 258.288C82.3864 255.449 83.7211 247.135 84.6057 241.625C84.8676 239.994 85.09 238.608 85.2557 237.683C85.9809 233.636 91.4193 217.447 91.4193 217.447C91.4193 217.447 96.8577 239.155 96.4952 243.57C96.2623 246.406 97.3756 251.064 98.2019 254.52C98.662 256.445 99.0331 257.997 99.0331 258.656C99.0331 259.213 98.3349 261.221 97.3916 263.933C95.2198 270.179 91.7487 280.161 92.507 284.779C93.1531 288.713 95.3343 292.517 96.999 295.42C98.1367 297.404 99.0331 298.968 99.0331 299.864C99.0331 302.071 101.571 318.628 102.296 320.836C103.021 323.043 104.834 330.034 103.746 334.449L103.703 334.624C102.594 339.12 100.205 348.808 106.647 349.534C113.173 350.27 114.623 350.638 114.623 350.638C114.623 350.638 118.611 357.997 122.237 357.997C125.138 359.469 128.401 360.572 130.213 359.469C130.667 359.193 131.391 358.917 132.207 358.606L132.208 358.606C134.655 357.675 137.918 356.433 137.102 353.95C136.294 351.49 132.687 348.828 130.438 347.169C129.659 346.594 129.043 346.139 128.763 345.855C128.054 345.135 125.492 341.909 123.294 339.141L123.293 339.139C122.122 337.665 121.054 336.32 120.424 335.553C120.084 335.138 119.756 334.827 119.455 334.542C118.156 333.31 117.366 332.561 118.249 325.987C119.337 317.892 121.875 301.703 122.962 295.817C123.024 295.485 123.087 295.145 123.152 294.797L123.153 294.793C124.242 288.971 125.74 280.968 123.687 272.637C123.512 271.926 123.335 271.22 123.159 270.519C121.143 262.501 119.266 255.031 122.6 247.25C123.27 245.684 124.325 243.842 125.563 241.681C131.017 232.159 140.017 216.446 135.289 190.956C130.325 164.193 128.016 161.68 127.226 160.82C127.093 160.675 127.003 160.577 126.95 160.418C126.871 160.177 126.736 159.586 126.551 158.779L126.551 158.779C125.889 155.889 124.592 150.226 122.962 147.908C123.106 146.59 123.364 145.448 123.579 144.503L123.579 144.503C123.738 143.799 123.872 143.206 123.916 142.731C124.467 143.718 125.54 144.965 126.95 144.965C129.488 144.965 132.026 140.55 132.026 140.55C132.026 140.55 138.915 136.134 143.266 132.823C147.616 129.512 161.756 122.153 164.657 121.049C167.557 119.946 173.358 115.898 178.434 110.747C179.15 110.021 179.931 109.294 180.722 108.559C185.538 104.077 190.724 99.2517 183.873 91.9828ZM50.9936 114.243C49.1592 112.148 45.5848 109.466 42.8381 107.404C41.2416 106.206 39.9247 105.217 39.3916 104.676C37.9413 103.205 35.4034 100.261 35.4034 100.261C37.4323 99.4007 39.2788 98.1515 40.8418 96.5819C43.3798 94.0064 48.0931 86.6478 48.0931 86.6478C48.0931 86.6478 47.0054 92.1667 48.0931 96.5819C48.7124 99.0987 55.0144 107.202 57.9814 111.017L57.9815 111.017C58.6101 111.826 59.0891 112.441 59.3325 112.771C60.4202 114.243 62.5956 119.026 62.5956 119.026C62.5956 119.026 53.8941 117.554 50.9936 114.243ZM135.833 119.762C136.921 119.394 146.348 112.035 148.16 110.195C149.973 108.356 155.049 102.837 155.049 102.837C155.049 102.837 152.874 101.733 150.336 100.629C147.798 99.5253 142.722 93.2705 141.634 91.4309C140.547 89.5912 136.921 84.8081 136.921 84.8081V91.7988C136.921 96.5819 134.383 102.101 132.933 103.941C131.482 105.78 124.594 116.082 124.231 117.186C124.09 117.615 124.004 118.434 123.909 119.339C123.759 120.761 123.587 122.398 123.144 123.073C123.144 123.073 127.494 121.969 128.945 121.233C129.838 120.78 131.834 120.466 133.488 120.206C134.518 120.044 135.416 119.903 135.833 119.762Z" fill="url(#paint0_linear)"/>
<path fill-rule="evenodd" clip-rule="evenodd" d="M256.656 181.37C257.495 183.028 259.866 188.273 260.244 189.508C260.621 190.746 261.058 193.319 259.988 194.557C259.701 194.89 259.439 195.174 259.207 195.425C258.575 196.11 258.167 196.552 258.083 197.073C258.064 197.186 258.047 197.309 258.028 197.438C257.93 198.131 257.806 199.001 257.429 199.309C256.981 199.675 255.603 201.012 255.449 201.963C255.296 202.914 253.372 206.112 253.051 203.954C252.82 202.407 253.013 201.307 253.161 200.47C253.219 200.139 253.27 199.849 253.285 199.589C253.337 198.67 251.62 192.045 251.085 192.024C250.872 192.015 250.713 192.912 250.52 193.999C250.228 195.643 249.859 197.723 249.109 197.762C248.03 197.819 248.084 194.936 248.133 192.322C248.16 190.862 248.186 189.485 248.011 188.752C247.731 187.568 248.104 186.539 248.505 185.433C248.797 184.626 249.105 183.778 249.183 182.8C249.272 181.935 249.246 181.061 249.106 180.203L249.137 180.174C248.295 179.089 247.705 177.825 247.41 176.477C246.711 172.218 242.514 163.701 240.766 161.217C239.017 158.733 234.122 148.442 234.122 144.538C234.122 140.635 232.723 132.118 232.723 132.118C232.723 132.118 230.974 139.57 230.275 141.345C230.198 141.541 230.112 141.754 230.021 141.98C229.288 143.803 228.216 146.47 228.527 147.732C228.546 147.81 228.568 147.901 228.593 148.001C229.024 149.729 230.237 154.592 229.576 156.604C229.112 158.015 229.724 159.427 230.291 160.735C230.58 161.4 230.857 162.039 230.975 162.637C231.081 163.178 231.383 163.918 231.742 164.796C232.558 166.794 233.665 169.506 233.422 172.218C233.073 176.122 234.122 185.348 234.471 186.768C234.507 186.911 234.613 187.223 234.771 187.689C236.187 191.852 241.777 208.288 238.318 226.158C235.338 241.554 231.938 248.856 230.232 252.52C229.736 253.585 229.384 254.343 229.226 254.903C228.637 257.105 228.286 259.366 228.177 261.645C228.177 261.952 228.379 263.021 228.651 264.456C229.325 268.013 230.424 273.818 229.925 275.84C229.702 276.746 229.586 278.231 229.451 279.948C229.164 283.61 228.794 288.329 227.128 290.745C224.68 294.293 220.833 303.165 220.484 304.23C220.396 304.496 220.265 304.829 220.123 305.189C219.697 306.27 219.172 307.601 219.435 308.133C219.527 308.321 219.644 308.36 219.765 308.4C220.105 308.514 220.484 308.641 220.484 312.037C220.484 316.65 219.784 330.845 219.435 332.264C219.347 332.622 219.414 333.25 219.497 334.023C219.743 336.319 220.126 339.898 216.987 341.491C212.791 343.62 209.993 345.395 209.993 345.395C209.993 346.552 210.342 348.654 210.708 350.858C211.239 354.058 211.806 357.474 211.392 358.525C211.224 358.951 211.298 359.683 211.381 360.511C211.646 363.134 212.007 366.715 205.097 364.557C196.005 361.719 196.005 361.364 196.705 357.46C197.054 355.508 197.054 353.645 197.054 351.827C197.054 350.008 197.054 348.233 197.404 346.459C198.104 342.91 199.852 335.813 199.852 335.813C199.852 335.813 198.104 330.49 198.453 326.586C198.803 322.683 190.76 302.1 189.361 298.907C187.962 295.713 184.815 279.034 186.913 271.937C189.012 264.839 189.012 259.161 188.662 256.677C188.312 254.193 180.269 236.095 178.521 232.901C176.772 229.707 174.325 216.932 173.975 213.738C173.653 210.793 173.031 194.877 173.758 186.85C172.842 189.745 172.212 191.796 172.212 191.796C172.796 192.62 171.905 195.799 171.209 197.034C170.513 198.269 170.765 200.753 170.765 200.753C170.765 200.753 170.974 201.928 170.356 205.115C169.784 208.057 168.163 206.129 167.764 205.654C167.731 205.614 167.706 205.585 167.691 205.569C167.495 205.363 167.292 200.31 167.432 199.717C167.572 199.124 166.383 197.68 166.383 197.68C166.383 197.68 164.806 198.819 164.208 199.614C163.61 200.409 163.078 202.538 163.078 202.538L163.239 207.57C163.239 207.57 163.729 207.865 164.428 210.179C164.946 211.903 162.662 211.85 161.379 209.614C160.456 211.169 159.393 206.793 159.057 202.652C158.721 198.511 159.935 195.735 160.977 194.941C162.019 194.146 166.96 187.708 167.422 187.102C167.638 186.116 167.786 185.117 167.862 184.11C167.862 183.57 167.253 176.176 166.647 168.83C166.389 165.691 166.131 162.561 165.921 159.979L165.764 159.269C165.764 159.269 165.547 156.959 165.477 153.946C165.386 149.819 165.572 144.365 166.988 141.7C169.436 137.086 170.135 134.957 170.485 133.538C170.835 132.118 171.534 118.988 171.184 117.214C171.101 116.79 170.799 116.024 170.401 115.016C169.131 111.796 166.888 106.109 167.687 101.244C167.806 100.521 167.916 99.8204 168.022 99.1446C168.852 93.8528 169.443 90.0827 172.233 88.824C175.381 87.4045 180.801 86.5173 180.801 86.5173C180.892 86.4246 181.317 86.2351 181.946 85.955C183.724 85.1629 187.127 83.6466 189.193 81.5492C189.799 80.9343 190.438 80.4028 191.063 79.8823C193.325 77.9995 195.412 76.2623 195.138 71.2579C194.788 64.8703 193.39 62.3862 193.39 62.3862C193.39 62.3862 191.292 62.7411 190.942 61.6765C190.893 61.5264 190.788 61.2564 190.65 60.9012C189.809 58.7376 187.741 53.4144 189.543 52.8047C191.26 52.2299 191.578 53.2874 191.641 53.7097C190.942 46.2681 191.354 36.1259 200.383 34.3515C209.475 32.5772 215.77 37.9002 216.469 41.8038C217.169 45.7074 217.868 52.8047 217.868 52.8047C217.868 52.8047 220.666 51.0304 219.617 55.6437C218.567 60.257 217.868 62.0313 217.169 62.0313C216.809 62.0313 216.356 63.5353 215.859 65.1887C215.389 66.7478 214.88 68.4398 214.371 69.1287C213.322 70.5482 213.672 72.6774 213.672 72.6774C213.672 72.6774 215.42 75.1615 219.966 76.2261C223.136 76.9684 224.945 77.7107 226.462 78.3327C227.12 78.6028 227.724 78.8502 228.359 79.0651C228.914 79.253 229.935 79.2916 231.188 79.3391C234.669 79.4709 239.94 79.6705 241.997 83.3235C244.794 88.2917 246.543 93.2598 246.193 97.8731C245.985 100.621 244.784 103.243 243.847 105.289C243.211 106.678 242.696 107.802 242.696 108.519C242.696 110.294 245.494 126.263 246.193 127.682C246.892 129.102 253.012 142.764 252.313 147.732C251.613 152.7 254.061 172.928 254.061 172.928C254.061 172.928 256.138 180.345 256.656 181.37ZM185.905 149.928C186.157 148.085 186.433 146.068 187.27 144.538C189.019 141.345 189.711 138.151 189.012 136.376C188.312 134.602 185.165 129.279 185.165 129.279C185.165 129.279 183.416 135.667 183.067 136.376C182.918 136.676 182.615 139.596 182.262 143.006C182.093 144.638 181.912 146.383 181.731 148.006C181.804 148.162 181.818 153.921 181.381 159.599C182.567 157.175 183.735 155.071 184.473 154.475C185.384 153.735 185.63 151.935 185.905 149.928Z" fill="url(#paint1_radial)"/>
<defs>
<linearGradient id="paint0_linear" x1="19.9257" y1="48.6074" x2="19.9257" y2="333.371" gradientUnits="userSpaceOnUse">
<stop stop-color="#E94295"/>
<stop offset="1" stop-color="#6407CE"/>
</linearGradient>
<radialGradient id="paint1_radial" cx="0" cy="0" r="1" gradientUnits="userSpaceOnUse" gradientTransform="translate(219.68 91.2489) rotate(99.0462) scale(206.655 78.5053)">
<stop stop-color="#E94295"/>
<stop offset="1" stop-color="#6407CE"/>
</radialGradient>
</defs>
</svg>
