<svg width="243" height="363" viewBox="0 0 243 363" fill="none" xmlns="http://www.w3.org/2000/svg">
<path d="M240.404 186.361C239.87 183.309 240.404 177.021 240.404 177.021H240.342C240.565 171.127 241.158 155.27 241.158 153.619C241.158 151.583 239.468 133.824 237.668 130.996C235.867 128.167 233.84 117.874 233.84 117.082C233.84 116.29 232.948 85.6374 230.011 78.8527C227.074 72.0679 224.494 65.2787 216.605 63.0186C208.717 60.7585 203.435 59.4114 203.435 59.4114C203.435 59.4114 192.623 55.9072 191.607 47.9857C190.591 40.0642 192.739 35.3024 192.739 35.3024C193.416 36.4347 197.583 24.6688 195.556 23.6663C193.528 22.6638 193.305 24.2302 193.305 24.2302C193.63 21.1645 197.682 0.577629 180.22 0.0137264C162.758 -0.550176 162.985 16.4161 162.985 22.1849C161.648 23.3172 160.958 23.08 161.858 28.0656C162.758 33.0512 163.097 35.5306 164.336 35.9826C165.575 36.8777 166.475 37.5669 166.702 45.0319C166.93 52.4969 167.594 54.5332 165.365 56.1175C163.137 57.7018 155.115 62.7904 153.426 64.4866C151.736 66.1828 139.235 64.9341 139.569 80.5488C139.904 96.1636 140.906 97.8553 140.015 106.336C139.124 114.817 136.748 116.63 135.509 119.458C134.27 122.287 130.999 130.539 129.421 150.11C127.844 169.681 126.832 169.802 126.832 172.165C126.832 174.528 127.171 182.906 126.832 186.755C126.493 190.604 125.143 192.712 126.832 199.461C128.521 206.21 135.393 211.544 136.191 212.439C136.989 213.334 137.974 209.159 135.745 207.691C138.785 209.275 138.901 202.034 137.212 200.566C135.523 199.098 134.961 198.776 134.961 195.93C134.961 193.083 136.089 191.454 136.298 194.318C136.508 197.183 136.525 199.058 138.549 199.474C140.126 197.742 138.887 191.973 138.994 190.613C139.101 189.252 138.317 183.488 135.728 179.872C133.138 176.256 138.544 161.773 138.544 161.773L146.317 141.867C148.144 138.7 149.151 135.124 149.245 131.466C149.356 125.473 152.285 119.252 153.073 119.252C153.862 119.252 151.736 135.314 151.157 138.367C150.578 141.419 148.229 157.933 147.89 160.874C147.551 163.814 144.735 179.876 144.285 190.962C143.834 202.047 144.606 227.24 147.106 234.848C149.606 242.456 149.922 244.577 149.922 246.609C149.922 248.641 149.695 256.008 151.389 259.955C153.082 263.902 153.755 273.417 153.755 277.261C153.755 281.106 157.918 318.538 158.257 324.41C158.595 330.282 160.962 334.256 155.779 339.228C150.595 344.2 142.489 350.537 141.7 351.446C140.911 352.354 130.21 354.834 134.266 357.098C138.321 359.363 149.361 356.418 156.006 355.402C161.534 354.658 167.098 354.21 172.674 354.059C173.686 354.059 178.981 354.059 175.714 342.522C173.56 334.683 172.648 326.554 173.009 318.431C173.12 316.394 178.753 278.957 175.937 270.132C173.12 261.306 171.431 256.898 172.108 251.921C172.786 246.945 175.714 228.282 175.714 228.282L178.081 210.412C178.081 210.412 184.614 236.316 185.287 239.14C185.96 241.964 190.132 248.091 190.132 250.328C190.132 252.566 191.143 258.021 193.96 261.866C196.777 265.71 195.743 269.219 195.988 274.307C196.233 279.396 198.127 292.746 198.805 302.243C199.482 311.74 201.171 316.721 200.142 328.371C199.112 340.02 198.675 337.984 199.13 340.7C199.585 343.417 196.09 351.441 193.835 353.482C191.58 355.523 185.724 359.363 190.007 360.947C194.29 362.531 209.042 361.511 212.42 360.947C215.798 360.383 217.488 358.799 216.587 350.313C215.687 341.828 215.576 342.285 215.798 340.468C216.021 338.651 216.476 336.171 215.121 333.231C213.766 330.29 214.23 321.469 216.133 305.747C218.036 290.025 218.049 276.339 215.241 268.986L212.991 263.106C212.429 261.633 213.668 258.581 211.979 254.96C210.29 251.34 211.533 243.324 211.533 241.726C211.533 240.129 211.645 207.454 210.744 196.937C209.844 186.419 208.828 173.297 208.266 170.809C207.705 168.321 206.689 155.991 205.9 153.279C205.111 150.567 206.239 139.029 205.673 134.616C205.107 130.204 205.784 129.64 206.564 124.435C207.344 119.23 210.169 106.453 210.169 106.453C210.169 106.453 218.165 123.871 218.637 125.249C219.11 126.628 221.565 131.13 221.115 135.767C220.665 140.403 221.454 146.624 223.705 152.053C225.955 157.481 228.099 164.266 228.322 168.791C228.491 172.179 228.661 176.13 229.16 178.431C229.14 178.505 229.14 178.584 229.16 178.659C229.516 180.637 229.16 181.344 227.729 184.924C226.299 188.505 223.936 190.675 223.045 192.828C222.154 194.981 222.51 196.959 220.371 203.788C218.232 210.618 221.797 208.443 221.797 208.443C221.797 208.443 223.767 203.412 225.363 201.434C226.958 199.456 226.615 200.539 226.972 204.308C227.328 208.076 226.615 212.211 226.08 213.648C225.545 215.084 224.11 216.883 223.576 220.473C223.041 224.062 227.689 219.936 228.407 218.495C229.124 217.053 231.972 215.621 232.863 215.259C233.755 214.896 234.472 213.102 235.012 212.023C235.551 210.945 236.982 210.408 239.304 208.971C241.626 207.534 242.209 203.251 242.209 201.094C242.209 198.937 240.939 189.418 240.404 186.361Z" fill="url(#paint0_linear)"/>
<path d="M125.953 199.029C125.54 197.681 122.939 191.957 122.018 190.164C121.097 188.371 119.953 183.28 119.953 183.28C119.953 183.28 117.703 166.287 117.187 163.408C116.328 158.637 111.794 147.743 111.612 143.441C111.373 137.838 108.969 122.934 108.779 121.515C108.639 120.471 109.56 115.234 109.56 103.32C109.56 91.4065 102.903 89.5928 100.983 89.1768C95.5906 87.9663 88.3809 81.8473 85.3914 77.7873C82.4018 73.7273 81.2415 61.6723 82.1375 57.4833C83.0336 53.2944 84.0865 45.1787 79.5402 39.5505C74.9939 33.9223 66.7891 33.6519 55.7599 37.9822C44.7307 42.3126 49.0045 58.2737 49.0045 58.2737C49.0045 58.2737 50.8214 66.9302 53.1626 72.9328C55.5039 78.9354 57.8411 77.9246 62.3874 76.0735C66.9337 74.2224 64.452 81.0902 64.452 81.0902C64.452 81.0902 54.707 83.6651 47.8194 84.834C40.9318 86.0029 39.1232 90.8199 38.38 93.6652C37.5954 96.6062 35.9024 113.611 33.9328 117.176C32.0457 120.592 29.9398 132.925 24.9558 140.975C19.8603 149.207 12.9067 176.133 9.42574 181.961C9.42574 181.961 3.4177 189.761 2.2037 190.697C0.989702 191.633 -0.306879 194.636 0.0647523 199.212C0.436384 203.787 1.63386 208.617 2.65379 206.907C4.08663 209.382 6.62611 209.441 6.05215 207.531C5.27998 204.973 4.73079 204.649 4.73079 204.649L4.55324 199.087C4.55324 199.087 5.14372 196.716 5.79201 195.851C6.52538 195.056 7.33758 194.34 8.21587 193.712C8.21587 193.712 9.53723 195.31 9.38858 195.963C9.23992 196.616 9.45877 202.203 9.67762 202.436C9.89647 202.668 11.957 205.456 12.6465 201.932C13.3361 198.409 13.109 197.132 13.109 197.132C13.109 197.132 12.8282 194.37 13.6045 193.018C14.3808 191.666 15.3718 188.138 14.7236 187.227C14.0753 186.316 27.0741 168.629 29.6755 164.569C32.277 160.509 38.0868 144.423 39.2595 140.101C40.4322 135.779 44.7183 127.796 44.7183 127.796C44.7183 127.796 44.516 149.693 42.7322 157.605C40.7212 166.532 42.2078 172.127 41.8609 176.886C41.2787 184.79 36.6209 202.261 37.4426 210.135C38.9457 224.586 43.6654 266.48 43.0047 271.713C42.344 276.946 40.0399 290.228 40.0399 299.521C40.0399 308.814 44.5821 327.392 44.995 329.758C45.4079 332.125 44.0866 339.326 43.6943 341.148C43.302 342.97 41.4852 345.724 41.6297 352.538C41.7742 359.351 46.8284 360.524 53.972 362.105C61.1156 363.686 58.9271 361.452 59.1707 360.142C59.4143 358.831 55.2727 345.611 56.5734 341.16C57.8741 336.709 54.8845 331.343 54.7524 330.033C54.6203 328.723 56.3133 311.185 58.7825 300.973C61.2518 290.76 60.0833 281.863 59.9511 279.242C59.819 276.621 62.0157 273.381 62.6805 270.34C63.238 267.703 63.461 255.548 63.0687 246.779C62.6764 238.01 64.4768 227.602 65.8064 221.6C66.4258 218.808 68.3582 200.031 70.1338 200.114C72.2645 200.214 68.8951 225.834 67.7471 232.773C66.5992 239.711 65.538 260.523 66.0583 264.583C66.5785 268.643 66.0583 272.046 65.538 273.614C65.0177 275.182 62.5856 281.484 62.4204 287.882C62.2841 293.173 63.461 319.43 62.0323 325.973C61.1772 329.618 61.0008 333.391 61.512 337.1C61.512 337.887 60.7315 343.124 60.9917 344.825C61.2518 346.527 64.1093 346.905 64.2414 348.361C64.3735 349.817 66.7189 354.904 66.7189 354.904C67.9683 356.342 69.4651 357.539 71.1372 358.44C73.9947 360.013 80.8822 355.3 81.1424 354.122C81.4025 352.945 80.1018 350.458 78.0248 348.494C75.9478 346.531 71.7896 335.141 71.7896 335.141C71.7896 335.141 71.9177 329.775 72.0498 327.679C72.1819 325.582 74.6306 314.297 78.3015 304.188C82.1593 293.354 83.707 281.822 82.8436 270.344C82.5835 266.941 83.4919 261.313 84.0122 258.697C84.5325 256.08 94.2775 227.02 97.9153 213.609C101.553 200.198 101.293 186.308 100.252 177.148C99.2119 167.988 87.9845 153.038 87.9845 153.038C87.9845 153.038 87.3404 149.182 88.1125 146.382C89.3018 142.056 94.6615 122.343 95.3098 122.343C95.9581 122.343 98.5017 138.911 98.7618 143.362C99.022 147.813 100.372 159.823 103.06 165.409C104.712 168.841 112.822 184.382 113.739 188.908C113.893 189.843 113.922 190.794 113.825 191.737C113.623 194.262 112.004 195.984 112.541 198.213C113.078 200.443 111.897 208.122 113.747 208.026C115.114 207.956 115.324 201.753 115.915 201.787C116.505 201.82 118.392 209.025 118.326 210.027C118.26 211.03 117.719 212.432 118.07 214.782C118.421 217.132 120.548 213.646 120.7 212.61C120.853 211.575 122.381 210.114 122.868 209.723C123.356 209.332 123.459 208.06 123.587 207.286C123.715 206.512 124.504 205.892 125.676 204.545C126.849 203.197 126.366 200.376 125.953 199.029Z" fill="url(#paint1_linear)"/>
<defs>
<linearGradient id="paint0_linear" x1="150.335" y1="-55.255" x2="-36.6476" y2="213.68" gradientUnits="userSpaceOnUse">
<stop stop-color="#00FFFF"/>
<stop offset="1" stop-color="#067EF1"/>
</linearGradient>
<linearGradient id="paint1_linear" x1="26.4719" y1="-15.0403" x2="-130.172" y2="255.577" gradientUnits="userSpaceOnUse">
<stop stop-color="#00FFFF"/>
<stop offset="1" stop-color="#067EF1"/>
</linearGradient>
</defs>
</svg>
