<svg width="18" height="18" viewBox="0 0 18 18" fill="none" xmlns="http://www.w3.org/2000/svg">
<path fill-rule="evenodd" clip-rule="evenodd" d="M15.4275 11.145L16.5 10.0725L15.4275 9L12.75 11.6775L6.3225 5.25L9 2.5725L7.9275 1.5L6.855 2.5725L5.7825 1.5L4.1775 3.105L3.105 2.0325L2.0325 3.105L3.105 4.1775L1.5 5.7825L2.5725 6.855L1.5 7.9275L2.5725 9L5.25 6.3225L11.6775 12.75L9 15.4275L10.0725 16.5L11.145 15.4275L12.2175 16.5L13.8225 14.895L14.895 15.9675L15.9675 14.895L14.895 13.8225L16.5 12.2175L15.4275 11.145Z" fill="white"/>
<mask id="mask0" mask-type="alpha" maskUnits="userSpaceOnUse" x="1" y="1" width="16" height="16">
<path fill-rule="evenodd" clip-rule="evenodd" d="M15.4275 11.145L16.5 10.0725L15.4275 9L12.75 11.6775L6.3225 5.25L9 2.5725L7.9275 1.5L6.855 2.5725L5.7825 1.5L4.1775 3.105L3.105 2.0325L2.0325 3.105L3.105 4.1775L1.5 5.7825L2.5725 6.855L1.5 7.9275L2.5725 9L5.25 6.3225L11.6775 12.75L9 15.4275L10.0725 16.5L11.145 15.4275L12.2175 16.5L13.8225 14.895L14.895 15.9675L15.9675 14.895L14.895 13.8225L16.5 12.2175L15.4275 11.145Z" fill="white"/>
</mask>
<g mask="url(#mask0)">
</g>
</svg>
