<svg width="19" height="19" viewBox="0 0 19 19" fill="none" xmlns="http://www.w3.org/2000/svg">
<path fill-rule="evenodd" clip-rule="evenodd" d="M15.9275 11.645L17 10.5725L15.9275 9.5L13.25 12.1775L6.8225 5.75L9.5 3.0725L8.4275 2L7.355 3.0725L6.2825 2L4.6775 3.605L3.605 2.5325L2.5325 3.605L3.605 4.6775L2 6.2825L3.0725 7.355L2 8.4275L3.0725 9.5L5.75 6.8225L12.1775 13.25L9.5 15.9275L10.5725 17L11.645 15.9275L12.7175 17L14.3225 15.395L15.395 16.4675L16.4675 15.395L15.395 14.3225L17 12.7175L15.9275 11.645Z" fill="#2A5EFE"/>
</svg>
