<svg width="156" height="122" viewBox="0 0 156 122" fill="none" xmlns="http://www.w3.org/2000/svg">
<path fill-rule="evenodd" clip-rule="evenodd" d="M53.508 72.9492C53.508 82.4501 52.4797 90.604 50.4231 97.4111C48.3665 104.218 45.4699 109.823 41.7333 114.226C37.9966 118.629 33.5069 121.859 28.264 123.915C23.0211 125.972 17.2135 127 10.8409 127C4.46833 127 -1.33932 125.972 -6.58222 123.915C-11.8251 121.859 -16.3293 118.629 -20.0949 114.226C-23.8605 109.823 -26.7861 104.218 -28.8717 97.4111C-30.9572 90.604 -32 82.4501 -32 72.9492V50.9639C-32 41.463 -30.9717 33.3091 -28.9151 26.502C-26.8585 19.6949 -23.9474 14.1045 -20.1818 9.73061C-16.4162 5.35671 -11.9265 2.1415 -6.71257 0.084893C-1.49864 -1.97171 4.29453 -3 10.6671 -3C17.0397 -3 22.8473 -1.97171 28.0902 0.084893C33.3331 2.1415 37.8373 5.35671 41.6029 9.73061C45.3686 14.1045 48.2941 19.6949 50.3797 26.502C52.4652 33.3091 53.508 41.463 53.508 50.9639V72.9492ZM28.3944 47.4011C28.3944 41.7816 28.0033 37.0602 27.2213 33.2366C26.4392 29.4131 25.2805 26.3282 23.7453 23.982C22.2101 21.6357 20.3418 19.9412 18.1404 18.8984C15.9389 17.8556 13.4479 17.3342 10.6671 17.3342C7.88635 17.3342 5.40977 17.8556 3.2373 18.8984C1.06483 19.9412 -0.774502 21.6357 -2.28075 23.982C-3.78699 26.3282 -4.93115 29.4131 -5.71324 33.2366C-6.49533 37.0602 -6.88636 41.7816 -6.88636 47.4011V76.2513C-6.88636 81.9287 -6.48084 86.7081 -5.66979 90.5896C-4.85873 94.4711 -3.7001 97.6138 -2.19385 100.018C-0.687605 102.422 1.16621 104.146 3.36765 105.189C5.56908 106.231 8.06015 106.753 10.8409 106.753C13.6217 106.753 16.1127 106.231 18.3142 105.189C20.5156 104.146 22.3549 102.422 23.8322 100.018C25.3095 97.6138 26.4392 94.4711 27.2213 90.5896C28.0033 86.7081 28.3944 81.9287 28.3944 76.2513V47.4011ZM96.0013 50.877H109.384C115.756 50.877 120.478 49.2839 123.548 46.0976C126.619 42.9113 128.154 38.6823 128.154 33.4104C128.154 31.0931 127.806 28.9352 127.111 26.9365C126.416 24.9378 125.359 23.2288 123.939 21.8095C122.52 20.3901 120.738 19.275 118.595 18.4639C116.451 17.6528 113.931 17.2473 111.035 17.2473C108.717 17.2473 106.531 17.5804 104.474 18.2467C102.417 18.9129 100.621 19.8543 99.0862 21.0709C97.551 22.2874 96.3345 23.7792 95.4365 25.5461C94.5385 27.3131 94.0896 29.2972 94.0896 31.4987H68.9759C68.9759 26.2847 70.0622 21.5488 72.2346 17.2908C74.4071 13.0327 77.3616 9.412 81.0983 6.42848C84.8349 3.44495 89.2232 1.12768 94.2634 -0.523396C99.3035 -2.17447 104.691 -3 110.426 -3C116.799 -3 122.607 -2.23241 127.85 -0.697192C133.092 0.83802 137.597 3.12632 141.362 6.16778C145.128 9.20924 148.053 12.9748 150.139 17.4646C152.225 21.9543 153.267 27.1537 153.267 33.0628C153.267 35.7857 152.847 38.4795 152.007 41.1444C151.167 43.8093 149.922 46.3148 148.271 48.6611C146.62 51.0074 144.607 53.1798 142.231 55.1785C139.856 57.1771 137.133 58.8717 134.063 60.262C141.189 62.8111 146.504 66.6346 150.009 71.7326C153.514 76.8307 155.266 82.8556 155.266 89.8075C155.266 95.7166 154.122 100.988 151.834 105.623C149.545 110.258 146.402 114.154 142.405 117.311C138.408 120.468 133.672 122.872 128.197 124.523C122.723 126.174 116.799 127 110.426 127C105.039 127 99.767 126.276 94.611 124.828C89.455 123.379 84.8639 121.149 80.8376 118.136C76.8113 115.124 73.5671 111.344 71.1049 106.796C68.6428 102.248 67.4118 96.8463 67.4118 90.5896H92.5254C92.5254 92.9648 92.9889 95.1372 93.9158 97.1069C94.8427 99.0767 96.1317 100.771 97.7828 102.191C99.4338 103.61 101.389 104.725 103.648 105.536C105.908 106.347 108.37 106.753 111.035 106.753C113.989 106.753 116.654 106.347 119.029 105.536C121.405 104.725 123.418 103.552 125.069 102.017C126.72 100.481 127.98 98.6567 128.849 96.5421C129.718 94.4276 130.152 92.0669 130.152 89.4599C130.152 86.0998 129.674 83.2177 128.719 80.8135C127.763 78.4093 126.387 76.4541 124.591 74.9479C122.795 73.4416 120.608 72.3264 118.03 71.6023C115.452 70.8781 112.57 70.516 109.384 70.516H96.0013V50.877Z" fill="white"/>
</svg>
