<svg width="35" height="35" viewBox="0 0 35 35" fill="none" xmlns="http://www.w3.org/2000/svg">
<g filter="url(#filter0_d)">
<path d="M19.5 27C25.299 27 30 22.299 30 16.5C30 10.701 25.299 6 19.5 6C13.701 6 9 10.701 9 16.5C9 22.299 13.701 27 19.5 27Z" fill="url(#paint0_linear)"/>
<path d="M19.5 27C25.299 27 30 22.299 30 16.5C30 10.701 25.299 6 19.5 6C13.701 6 9 10.701 9 16.5C9 22.299 13.701 27 19.5 27Z" stroke="url(#paint1_linear)" stroke-width="5" stroke-linecap="round" stroke-linejoin="round"/>
</g>
<defs>
<filter id="filter0_d" x="0.5" y="0.5" width="34" height="34" filterUnits="userSpaceOnUse" color-interpolation-filters="sRGB">
<feFlood flood-opacity="0" result="BackgroundImageFix"/>
<feColorMatrix in="SourceAlpha" type="matrix" values="0 0 0 0 0 0 0 0 0 0 0 0 0 0 0 0 0 0 127 0"/>
<feOffset dx="-2" dy="1"/>
<feGaussianBlur stdDeviation="2"/>
<feColorMatrix type="matrix" values="0 0 0 0 0.806336 0 0 0 0 0.04365 0 0 0 0 0.91276 0 0 0 0.658967 0"/>
<feBlend mode="normal" in2="BackgroundImageFix" result="effect1_dropShadow"/>
<feBlend mode="normal" in="SourceGraphic" in2="effect1_dropShadow" result="shape"/>
</filter>
<linearGradient id="paint0_linear" x1="9" y1="6" x2="9" y2="27" gradientUnits="userSpaceOnUse">
<stop stop-color="#E94295"/>
<stop offset="1" stop-color="#6407CE"/>
</linearGradient>
<linearGradient id="paint1_linear" x1="9" y1="6" x2="9" y2="27" gradientUnits="userSpaceOnUse">
<stop stop-color="#E94295"/>
<stop offset="1" stop-color="#6407CE"/>
</linearGradient>
</defs>
</svg>
