<svg width="48" height="48" viewBox="0 0 48 48" fill="none" xmlns="http://www.w3.org/2000/svg">
<path d="M48 24C48 22.7525 46.9887 21.7412 45.7412 21.7412C44.4937 21.7412 43.4824 22.7525 43.4824 24C43.4824 34.7598 34.7598 43.4824 24 43.4824C13.2402 43.4824 4.51765 34.7598 4.51765 24C4.51765 13.2402 13.2402 4.51765 24 4.51765C25.2475 4.51765 26.2588 3.50634 26.2588 2.25882C26.2588 1.01131 25.2475 0 24 0C10.7452 0 0 10.7452 0 24C0 37.2548 10.7452 48 24 48C37.2548 48 48 37.2548 48 24Z" fill="url(#paint0_linear)"/>
<path fill-rule="evenodd" clip-rule="evenodd" d="M16.2056 23.2945L15.1042 21.1559H15.0046L15.3242 23.2945V30.4899H12.7229V16.7711H14.7246L20.0267 23.9373L21.0886 26.0174H21.1882L20.8687 23.9373V16.7711H23.47V30.4899H21.4683L16.2056 23.2945Z" fill="white"/>
<path fill-rule="evenodd" clip-rule="evenodd" d="M32.3752 23.3748L32.6759 20.6519H32.5556L31.6948 22.847L28.7139 27.9605H27.8324L24.6898 22.8269L23.8102 20.6519H23.7106L24.1109 23.3566V30.4899H21.5078V16.7711H24.0095L27.7516 23.0424L28.4132 24.6094H28.4921L29.0935 23.0041L32.6346 16.7711H35.1174V30.4899H32.3752V23.3748Z" fill="white"/>
<defs>
<linearGradient id="paint0_linear" x1="0" y1="0" x2="48" y2="0" gradientUnits="userSpaceOnUse">
<stop stop-color="#00FFFF"/>
<stop offset="1" stop-color="#067EF1"/>
</linearGradient>
</defs>
</svg>
