<svg width="56" height="56" viewBox="0 0 56 56" fill="none" xmlns="http://www.w3.org/2000/svg">
<g filter="url(#filter0_d)">
<path d="M4 26C4 12.7452 14.7452 2 28 2C41.2548 2 52 12.7452 52 26C52 39.2548 41.2548 50 28 50C14.7452 50 4 39.2548 4 26Z" fill="white"/>
</g>
<path d="M20.01 35L41 26L20.01 17L20 24L35 26L20 28L20.01 35Z" fill="#2A5EFE"/>
<mask id="mask0" mask-type="alpha" maskUnits="userSpaceOnUse" x="20" y="17" width="21" height="18">
<path d="M20.01 35L41 26L20.01 17L20 24L35 26L20 28L20.01 35Z" fill="white"/>
</mask>
<g mask="url(#mask0)">
<rect x="18" y="14" width="24" height="24" fill="black" fill-opacity="0.54"/>
</g>
<defs>
<filter id="filter0_d" x="0" y="0" width="56" height="56" filterUnits="userSpaceOnUse" color-interpolation-filters="sRGB">
<feFlood flood-opacity="0" result="BackgroundImageFix"/>
<feColorMatrix in="SourceAlpha" type="matrix" values="0 0 0 0 0 0 0 0 0 0 0 0 0 0 0 0 0 0 127 0"/>
<feOffset dy="2"/>
<feGaussianBlur stdDeviation="2"/>
<feColorMatrix type="matrix" values="0 0 0 0 0.0431373 0 0 0 0 0 0 0 0 0 0.168627 0 0 0 0.12 0"/>
<feBlend mode="normal" in2="BackgroundImageFix" result="effect1_dropShadow"/>
<feBlend mode="normal" in="SourceGraphic" in2="effect1_dropShadow" result="shape"/>
</filter>
</defs>
</svg>
