<svg width="45" height="45" viewBox="0 0 45 45" fill="none" xmlns="http://www.w3.org/2000/svg">
<path fill-rule="evenodd" clip-rule="evenodd" d="M0 22.4375C0 10.0456 10.0456 0 22.4375 0C28.3883 0 34.0954 2.36394 38.3032 6.57179C42.5111 10.7796 44.875 16.4867 44.875 22.4375C44.875 34.8294 34.8294 44.875 22.4375 44.875C10.0456 44.875 0 34.8294 0 22.4375ZM25.3625 13.75H28.625V8.70625H24.1313C19.1437 8.70625 18.0125 12.4375 18.0125 14.825V18.1625H15.125V23.3188H18.0125V37.9875H24.075V23.3438H28.0812L28.6125 18.1938H24.075V15.1562C24.0288 14.792 24.1452 14.4258 24.3931 14.155C24.6411 13.8842 24.9956 13.7361 25.3625 13.75Z" fill="#142352"/>
</svg>
