<svg width="174" height="264" viewBox="0 0 174 264" fill="none" xmlns="http://www.w3.org/2000/svg">
<path d="M172.604 130.3C172.227 128.167 172.604 123.774 172.604 123.774H172.56C172.717 119.656 173.134 108.577 173.134 107.423C173.134 106 171.945 93.5928 170.678 91.6166C169.411 89.6403 167.984 82.4484 167.984 81.895C167.984 81.3415 167.357 59.9252 165.29 55.1848C163.223 50.4444 161.407 45.7008 155.855 44.1217C150.304 42.5426 146.587 41.6014 146.587 41.6014C146.587 41.6014 138.978 39.153 138.263 33.6184C137.548 28.0837 139.06 24.7567 139.06 24.7567C139.537 25.5478 142.469 17.3271 141.042 16.6267C139.615 15.9263 139.458 17.0207 139.458 17.0207C139.687 14.8787 142.538 0.494891 130.25 0.100899C117.961 -0.293093 118.121 11.5611 118.121 15.5917C117.18 16.3828 116.694 16.2171 117.328 19.7005C117.961 23.1838 118.199 24.9162 119.071 25.232C119.943 25.8574 120.577 26.3389 120.737 31.5546C120.897 36.7703 121.364 38.1931 119.796 39.3C118.228 40.4069 112.582 43.9622 111.393 45.1474C110.205 46.3325 101.407 45.46 101.642 56.3699C101.878 67.2797 102.583 68.4617 101.956 74.3872C101.329 80.3127 99.657 81.5791 98.7851 83.5554C97.9132 85.5316 95.611 91.2976 94.5007 104.972C93.3905 118.646 92.6785 118.73 92.6785 120.381C92.6785 122.032 92.9169 127.886 92.6785 130.575C92.4401 133.264 91.4898 134.737 92.6785 139.452C93.8672 144.168 98.7035 147.895 99.265 148.52C99.8264 149.146 100.52 146.228 98.9513 145.203C101.09 146.31 101.172 141.25 99.9832 140.225C98.7945 139.199 98.3993 138.974 98.3993 136.985C98.3993 134.996 99.1928 133.858 99.3402 135.859C99.4876 137.861 99.5002 139.171 100.924 139.462C102.034 138.251 101.162 134.221 101.238 133.27C101.313 132.32 100.761 128.292 98.9388 125.766C97.1165 123.239 100.921 113.12 100.921 113.12L106.391 99.2119C107.677 96.9996 108.385 94.501 108.452 91.9449C108.53 87.7579 110.591 83.4115 111.146 83.4115C111.701 83.4115 110.205 94.634 109.797 96.7666C109.389 98.8992 107.736 110.438 107.498 112.492C107.26 114.546 105.277 125.769 104.961 133.514C104.644 141.26 105.187 158.861 106.946 164.177C108.706 169.493 108.928 170.975 108.928 172.394C108.928 173.814 108.768 178.961 109.96 181.719C111.152 184.477 111.626 191.125 111.626 193.811C111.626 196.497 114.555 222.65 114.793 226.753C115.032 230.855 116.697 233.632 113.05 237.106C109.402 240.58 103.697 245.008 103.142 245.643C102.586 246.277 95.0559 248.01 97.91 249.592C100.764 251.174 108.533 249.117 113.209 248.407C117.1 247.887 121.016 247.574 124.94 247.469C125.652 247.469 129.378 247.469 127.079 239.407C125.563 233.931 124.921 228.251 125.175 222.575C125.253 221.152 129.218 194.996 127.236 188.829C125.253 182.663 124.065 179.583 124.541 176.106C125.018 172.629 127.079 159.59 127.079 159.59L128.744 147.104C128.744 147.104 133.342 165.202 133.816 167.176C134.289 169.149 137.225 173.429 137.225 174.993C137.225 176.556 137.937 180.368 139.919 183.054C141.901 185.74 141.174 188.192 141.346 191.747C141.519 195.302 142.852 204.63 143.328 211.265C143.805 217.9 144.994 221.381 144.269 229.52C143.545 237.66 143.237 236.237 143.557 238.135C143.877 240.033 141.418 245.639 139.831 247.065C138.244 248.491 134.123 251.174 137.137 252.281C140.151 253.388 150.533 252.675 152.91 252.281C155.288 251.887 156.476 250.78 155.843 244.851C155.209 238.923 155.131 239.242 155.288 237.972C155.444 236.703 155.764 234.97 154.811 232.916C153.857 230.862 154.184 224.698 155.523 213.714C156.862 202.729 156.871 193.167 154.896 188.029L153.312 183.92C152.916 182.891 153.788 180.759 152.6 178.229C151.411 175.7 152.286 170.099 152.286 168.983C152.286 167.867 152.364 145.037 151.731 137.689C151.097 130.34 150.382 121.172 149.987 119.434C149.592 117.695 148.877 109.08 148.322 107.186C147.766 105.291 148.56 97.2294 148.162 94.1462C147.763 91.0631 148.24 90.6691 148.789 87.0325C149.338 83.3959 151.326 74.4685 151.326 74.4685C151.326 74.4685 156.953 86.6385 157.285 87.6016C157.618 88.5647 159.346 91.7104 159.029 94.9499C158.713 98.1894 159.268 102.536 160.852 106.329C162.435 110.122 163.944 114.862 164.101 118.023C164.22 120.391 164.339 123.152 164.691 124.759C164.677 124.811 164.677 124.866 164.691 124.918C164.941 126.3 164.691 126.794 163.684 129.296C162.677 131.798 161.015 133.314 160.387 134.818C159.76 136.322 160.011 137.704 158.506 142.476C157 147.248 159.509 145.728 159.509 145.728C159.509 145.728 160.896 142.213 162.018 140.831C163.141 139.449 162.9 140.206 163.151 142.839C163.402 145.472 162.9 148.361 162.523 149.365C162.147 150.368 161.137 151.625 160.761 154.133C160.384 156.641 163.656 153.758 164.161 152.751C164.665 151.744 166.67 150.744 167.297 150.49C167.924 150.237 168.429 148.983 168.809 148.23C169.188 147.476 170.195 147.101 171.829 146.097C173.463 145.093 173.874 142.101 173.874 140.594C173.874 139.086 172.98 132.435 172.604 130.3Z" fill="url(#paint0_linear)"/>
<g filter="url(#filter0_d)">
<path d="M97.6806 138.642C97.3932 137.7 95.5823 133.7 94.9412 132.447C94.3002 131.194 93.504 127.635 93.504 127.635C93.504 127.635 91.9374 115.759 91.578 113.747C90.9801 110.412 87.8239 102.798 87.6974 99.7915C87.5307 95.8753 85.8577 85.4583 85.7255 84.4669C85.6278 83.7371 86.2688 80.0768 86.2688 71.7501C86.2688 63.4235 81.6351 62.1558 80.2984 61.8651C76.5443 61.0191 71.5254 56.7424 69.4442 53.9048C67.3631 51.0672 66.5553 42.6417 67.1791 39.714C67.8029 36.7863 68.5359 31.1141 65.371 27.1804C62.2062 23.2468 56.4945 23.0578 48.8166 26.0843C41.1388 29.1109 44.1139 40.2664 44.1139 40.2664C44.1139 40.2664 45.3787 46.3166 47.0086 50.5119C48.6384 54.7072 50.2654 54.0007 53.4302 52.707C56.5951 51.4132 54.8675 56.2132 54.8675 56.2132C54.8675 56.2132 48.0836 58.0129 43.2889 58.8298C38.4942 59.6468 37.2352 63.0135 36.7178 65.0021C36.1716 67.0576 34.9931 78.9429 33.6219 81.4345C32.3083 83.8214 30.8422 92.4417 27.3727 98.0675C23.8255 103.821 18.9848 122.64 16.5616 126.714C16.5616 126.714 12.3792 132.165 11.5341 132.819C10.689 133.473 9.78637 135.572 10.0451 138.77C10.3038 141.968 11.1374 145.344 11.8474 144.149C12.8449 145.879 14.6127 145.92 14.2131 144.585C13.6756 142.797 13.2933 142.57 13.2933 142.57L13.1697 138.683C13.1697 138.683 13.5807 137.026 14.032 136.421C14.5426 135.866 15.108 135.365 15.7194 134.927C15.7194 134.927 16.6392 136.043 16.5357 136.5C16.4323 136.956 16.5846 140.861 16.737 141.024C16.8893 141.186 18.3237 143.134 18.8037 140.672C19.2838 138.209 19.1257 137.317 19.1257 137.317C19.1257 137.317 18.9302 135.386 19.4706 134.441C20.011 133.496 20.7009 131.031 20.2496 130.394C19.7983 129.758 28.8473 117.396 30.6583 114.558C32.4692 111.72 36.5137 100.478 37.33 97.4569C38.1464 94.4362 41.1302 88.857 41.1302 88.857C41.1302 88.857 40.9893 104.161 39.7475 109.691C38.3476 115.93 39.3825 119.841 39.141 123.167C38.7357 128.691 35.4932 140.901 36.0653 146.405C37.1116 156.505 40.3972 185.785 39.9372 189.443C39.4773 193.1 37.8733 202.383 37.8733 208.878C37.8733 215.373 41.0353 228.358 41.3228 230.012C41.6102 231.666 40.6904 236.699 40.4173 237.972C40.1442 239.246 38.8794 241.17 38.98 245.932C39.0806 250.695 42.599 251.515 47.572 252.619C52.5449 253.724 51.0214 252.163 51.191 251.247C51.3606 250.331 48.4774 241.092 49.3829 237.981C50.2884 234.87 48.2072 231.119 48.1153 230.204C48.0233 229.288 49.2018 217.03 50.9208 209.893C52.6398 202.755 51.8263 196.537 51.7343 194.705C51.6423 192.873 53.1715 190.608 53.6343 188.483C54.0224 186.64 54.1776 178.145 53.9045 172.016C53.6315 165.887 54.8848 158.613 55.8104 154.418C56.2415 152.467 57.5868 139.343 58.8229 139.401C60.3061 139.471 57.9605 157.377 57.1614 162.227C56.3623 167.076 55.6235 181.622 55.9857 184.459C56.3479 187.297 55.9857 189.675 55.6235 190.771C55.2613 191.867 53.5682 196.272 53.4532 200.743C53.3584 204.442 54.1776 222.793 53.183 227.366C52.5878 229.914 52.465 232.551 52.8209 235.143C52.8209 235.693 52.2776 239.353 52.4587 240.542C52.6398 241.731 54.6289 241.996 54.7209 243.013C54.8129 244.031 56.4456 247.587 56.4456 247.587C57.3153 248.591 58.3573 249.428 59.5214 250.058C61.5105 251.157 66.3052 247.863 66.4863 247.04C66.6674 246.217 65.762 244.479 64.3161 243.107C62.8702 241.734 59.9755 233.774 59.9755 233.774C59.9755 233.774 60.0646 230.023 60.1566 228.558C60.2486 227.093 61.9532 219.205 64.5087 212.14C67.1943 204.568 68.2717 196.508 67.6706 188.486C67.4895 186.108 68.1219 182.174 68.4841 180.346C68.8463 178.517 75.6302 158.206 78.1626 148.833C80.6951 139.459 80.514 129.752 79.7896 123.35C79.0652 116.948 71.2494 106.499 71.2494 106.499C71.2494 106.499 70.801 103.804 71.3385 101.847C72.1664 98.8234 75.8975 85.0454 76.3488 85.0454C76.8001 85.0454 78.5708 96.6254 78.7519 99.7363C78.933 102.847 79.873 111.241 81.7443 115.145C82.8941 117.544 88.5397 128.406 89.1778 131.569C89.2853 132.222 89.3056 132.887 89.2382 133.546C89.0973 135.311 87.9705 136.514 88.3442 138.073C88.7179 139.631 87.8958 144.998 89.1836 144.931C90.135 144.882 90.2816 140.547 90.6927 140.57C91.1037 140.593 92.4174 145.629 92.3714 146.329C92.3254 147.03 91.9489 148.01 92.1932 149.653C92.4375 151.295 93.9179 148.859 94.0243 148.135C94.1306 147.411 95.1942 146.391 95.5334 146.117C95.8726 145.844 95.9444 144.954 96.0335 144.414C96.1227 143.873 96.6717 143.44 97.4881 142.498C98.3044 141.556 97.9681 139.584 97.6806 138.642Z" fill="url(#paint1_linear)"/>
</g>
<defs>
<filter id="filter0_d" x="0" y="15" width="108" height="249" filterUnits="userSpaceOnUse" color-interpolation-filters="sRGB">
<feFlood flood-opacity="0" result="BackgroundImageFix"/>
<feColorMatrix in="SourceAlpha" type="matrix" values="0 0 0 0 0 0 0 0 0 0 0 0 0 0 0 0 0 0 127 0"/>
<feOffset dy="1"/>
<feGaussianBlur stdDeviation="5"/>
<feColorMatrix type="matrix" values="0 0 0 0 0 0 0 0 0 0 0 0 0 0 0 0 0 0 0.33557 0"/>
<feBlend mode="normal" in2="BackgroundImageFix" result="effect1_dropShadow"/>
<feBlend mode="normal" in="SourceGraphic" in2="effect1_dropShadow" result="shape"/>
</filter>
<linearGradient id="paint0_linear" x1="109.219" y1="-38.5148" x2="-21.094" y2="150.267" gradientUnits="userSpaceOnUse">
<stop stop-color="#00FFFF"/>
<stop offset="1" stop-color="#067EF1"/>
</linearGradient>
<linearGradient id="paint1_linear" x1="28.4281" y1="-10.9741" x2="-81.2699" y2="177.786" gradientUnits="userSpaceOnUse">
<stop stop-color="#00FFFF"/>
<stop offset="1" stop-color="#067EF1"/>
</linearGradient>
</defs>
</svg>
