<svg width="1251" height="543" viewBox="0 0 1251 543" fill="none" xmlns="http://www.w3.org/2000/svg">
<mask id="mask0" mask-type="alpha" maskUnits="userSpaceOnUse" x="0" y="0" width="1251" height="543">
<rect width="1251" height="543" fill="white"/>
</mask>
<g mask="url(#mask0)">
<path d="M-203 567.841C-185.014 535.193 -14.2663 234.035 43.3925 459.993C83.3983 616.767 508.899 87.2663 505.542 179.84C503.225 243.712 733.005 304.753 918.228 311.489C1038.66 315.87 1107.87 562.409 1251.45 692.492C1305.43 741.406 1674.79 822.751 1708.1 832.093" stroke="#00FFFF" stroke-width="2" stroke-linecap="round" stroke-dasharray="0 4"/>
<path d="M-199.786 545.64C-182.657 514.547 1.33983 223.488 55.9258 447.737C93.8662 601.476 526.24 85.4892 530.39 182.404C533.202 248.075 771.831 303.07 948.468 301.738C1063.39 300.871 1114.52 535.676 1252.26 652.877C1303.5 696.477 1663.99 772.944 1695.71 781.841" stroke="#0CF3FF" stroke-width="1.952" stroke-linecap="round" stroke-dasharray="0.19 3.81"/>
<path d="M-196.786 523.269C-180.514 493.731 16.0392 212.935 68.2448 435.313C103.65 586.127 543.24 83.4446 555.024 184.798C562.862 252.208 810.543 301.206 978.497 291.817C1087.97 285.696 1120.96 508.891 1252.87 613.093C1301.38 651.417 1652.97 722.968 1683.1 731.422" stroke="#18E7FF" stroke-width="1.905" stroke-linecap="round" stroke-dasharray="0.38 3.62"/>
<path d="M-193.786 501.02C-178.371 473.036 31.1161 202.403 80.563 423.01C113.697 570.83 560.109 81.4627 579.658 187.314C592.423 256.429 849.367 299.43 1008.52 282.017C1112.64 270.626 1127.42 482.368 1253.47 573.43C1299.28 606.527 1641.95 673.114 1670.5 681.122" stroke="#24DBFF" stroke-width="1.857" stroke-linecap="round" stroke-dasharray="0.57 3.43"/>
<path d="M-190.786 478.892C-176.226 452.462 46.2147 191.98 92.8828 410.827C123.764 555.644 576.854 79.5778 604.293 189.951C621.895 260.758 888.313 297.714 1038.55 272.339C1137.4 255.643 1133.95 456.141 1254.07 533.889C1297.22 561.818 1630.93 623.382 1657.89 630.944" stroke="#31CEFF" stroke-width="1.81" stroke-linecap="round" stroke-dasharray="0.76 3.24"/>
<path d="M-186.786 455.886C-173.084 431.011 62.3383 180.668 106.202 397.767C134.853 539.573 594.486 76.8146 629.927 191.709C652.291 264.21 928.386 295.022 1069.58 261.782C1163.26 239.726 1141.58 429.24 1255.67 493.47C1296.23 516.301 1620.91 572.769 1646.29 579.888" stroke="#3DC2FF" stroke-width="1.762" stroke-linecap="round" stroke-dasharray="0.95 3.05"/>
<path d="M-183.786 434.004C-170.94 410.684 77.4883 170.466 118.521 385.831C144.963 524.618 611.021 75.1939 654.561 194.591C681.622 268.799 967.581 293.315 1099.6 252.349C1188.22 224.853 1148.41 403.687 1256.28 454.174C1294.34 471.991 1609.89 523.283 1633.68 529.956" stroke="#49B6FF" stroke-width="1.714" stroke-linecap="round" stroke-dasharray="1.14 2.86"/>
<path d="M-180.786 412.249C-168.796 390.484 92.6665 160.381 130.841 374.022C155.098 509.782 627.472 73.7294 679.196 197.602C710.901 273.533 1006.88 291.549 1129.63 243.045C1213.27 209.998 1155.56 378.472 1256.88 415.007C1292.61 427.892 1598.88 473.923 1621.08 480.151" stroke="#55AAFF" stroke-width="1.667" stroke-linecap="round" stroke-dasharray="1.33 2.66"/>
<path d="M-177.786 389.652C-166.653 369.442 103.46 150.228 143.159 361.371C168.021 493.604 643.853 71.4577 703.83 199.77C740.138 277.447 1046.25 288.708 1159.66 232.898C1238.38 194.16 1163.23 352.518 1257.48 374.996C1291.12 383.018 1587.86 423.721 1608.47 429.504" stroke="#619EFF" stroke-width="1.619" stroke-linecap="round" stroke-dasharray="1.52 2.47"/>
<path d="M-174.786 367.175C-164.509 348.519 118.409 139.396 155.479 348.839C178.345 478.04 660.176 69.3446 728.464 202.058C769.343 281.501 1085.63 285.719 1189.69 222.87C1263.52 178.273 1171.61 326.522 1258.08 335.105C1289.93 338.267 1576.84 373.639 1595.87 378.977" stroke="#6D92FF" stroke-width="1.571" stroke-linecap="round" stroke-dasharray="1.71 2.29"/>
<path d="M-171.786 344.82C-162.365 327.719 138.404 127.897 167.798 336.43C185.647 463.065 676.453 67.3929 753.099 204.468C798.521 285.703 1124.97 282.568 1219.71 212.964C1288.64 162.322 1181.4 284.702 1258.69 295.338C1288.18 287.593 1565.82 323.678 1583.26 328.572" stroke="#7986FF" stroke-width="1.524" stroke-linecap="round" stroke-dasharray="1.9 2.09"/>
<path d="M-168.786 322.65C-160.222 307.103 153.727 117.356 180.117 324.205C195.883 447.787 692.692 65.6649 777.733 207.062C827.68 290.109 1164.19 279.328 1249.74 203.242C1313.69 146.367 1188.63 257.063 1259.29 255.754C1286.33 242.343 1554.8 273.903 1570.66 278.352" stroke="#8679FF" stroke-width="1.476" stroke-linecap="round" stroke-dasharray="2.09 1.9"/>
<path d="M-165.786 300.437C-158.078 286.445 169.095 106.766 192.436 311.939C206.147 432.463 708.901 63.9314 802.367 209.614C856.823 294.495 1203.23 275.815 1279.77 193.48C1338.6 130.2 1195.86 229.382 1259.89 216.128C1284.48 197.052 1543.78 224.086 1558.05 228.089" stroke="#926DFF" stroke-width="1.429" stroke-linecap="round" stroke-dasharray="2.29 1.71"/>
<path d="M-162.786 278.276C-155.935 265.839 184.511 96.2217 204.755 299.725C216.439 417.186 725.087 62.2839 827.002 212.218C885.956 298.951 1242.02 272.19 1309.8 183.769C1363.31 113.95 1203.09 201.753 1260.49 176.554C1282.63 151.812 1532.76 174.32 1545.45 177.879" stroke="#9E61FF" stroke-width="1.381" stroke-linecap="round" stroke-dasharray="2.47 1.52"/>
<path d="M-158.786 255.74C-152.792 244.857 200.98 85.2961 218.074 287.134C227.763 401.53 742.253 60.2919 852.636 214.446C916.08 303.05 1281.55 268.106 1340.82 173.682C1388.81 97.2459 1211.32 173.747 1262.1 136.604C1281.79 106.196 1522.74 124.179 1533.84 127.292" stroke="#AA55FF" stroke-width="1.333" stroke-linecap="round" stroke-dasharray="2.66 1.33"/>
<path d="M-155.786 234.414C-150.648 225.086 216.507 75.5795 230.393 275.753C238.116 387.084 758.405 59.5411 877.27 217.885C945.198 308.374 1319.81 265.234 1370.85 164.805C1413.07 81.7302 1226.01 152.768 1262.7 97.8644C1284.91 64.6274 1511.72 75.2473 1521.24 77.9159" stroke="#B649FF" stroke-width="1.286" stroke-linecap="round" stroke-dasharray="2.86 1.14"/>
<path d="M-152.786 211.671C-148.504 203.897 232.097 64.445 242.712 262.956C248.502 371.222 774.545 57.3989 901.905 219.907C974.312 312.297 1357.84 261.018 1400.88 154.512C1437.11 64.8336 1232.4 122.356 1263.3 57.7078C1282.4 17.7585 1500.7 24.8988 1508.63 27.1233" stroke="#C23DFF" stroke-width="1.238" stroke-linecap="round" stroke-dasharray="3.05 0.95"/>
<path d="M-149.786 189.639C-146.361 183.42 247.755 54.0257 255.031 250.87C258.92 356.073 790.677 55.9928 926.539 222.64C1003.42 316.944 1395.68 257.637 1430.9 144.93C1460.97 48.727 1238.41 93.3016 1263.91 18.2624C1279.66 -28.116 1489.69 -24.7378 1496.03 -22.9589" stroke="#CE31FF" stroke-width="1.19" stroke-linecap="round" stroke-dasharray="3.24 0.76"/>
<path d="M-146.786 167.14C-144.217 162.476 263.488 43.1458 267.35 238.316C269.372 340.461 806.801 54.1415 951.173 224.905C1032.53 321.135 1433.36 253.944 1460.93 134.88C1484.69 32.2596 1244.26 64.3221 1264.51 -21.65C1276.88 -74.1968 1478.67 -74.842 1483.42 -73.5081" stroke="#DB24FF" stroke-width="1.143" stroke-linecap="round" stroke-dasharray="3.43 0.57"/>
<path d="M-153.786 144.967C-152.074 141.858 269.301 32.6021 269.669 226.09C269.857 325.182 812.921 52.6375 965.807 227.498C1051.64 325.664 1460.95 250.744 1480.96 125.157C1498.31 16.2386 1240.1 36.0737 1255.11 -61.2359C1264.14 -119.751 1457.65 -124.62 1460.82 -123.731" stroke="#E718FF" stroke-width="1.095" stroke-linecap="round" stroke-dasharray="3.62 0.38"/>
<path d="M-171.786 122.944C-170.93 121.389 264.204 22.2245 260.989 214.013C259.378 310.062 807.767 51.5451 969.441 230.239C1059.59 330.489 1477.47 247.855 1489.99 115.584C1500.88 0.486702 1224.98 8.26174 1234.71 -100.672C1240.46 -165.013 1425.63 -174.248 1427.22 -173.804" stroke="#F30CFF" stroke-width="1.048" stroke-linecap="round" stroke-dasharray="3.81 0.19"/>
<mask id="mask1" mask-type="alpha" maskUnits="userSpaceOnUse" x="-195" y="-301" width="1540" height="582">
<path fill-rule="evenodd" clip-rule="evenodd" d="M-175.672 -300.936L-194.77 225.672L1325.39 280.963L1344.49 -245.644" fill="white"/>
</mask>
<g mask="url(#mask1)">
<path d="M-189.77 100.862C-189.77 100.862 259.218 11.8085 252.325 201.876C248.951 294.894 803.167 49.9218 973.093 232.923C1067.87 334.99 1493.99 245.058 1499.03 105.951C1503.43 -15.2119 1209.95 -19.4108 1214.33 -140.167C1216.87 -210.237 1393.63 -223.936 1393.63 -223.936" stroke="#FF00FF" stroke-linecap="round"/>
</g>
</g>
</svg>
