<svg width="1599" height="512" viewBox="0 0 1599 512" fill="none" xmlns="http://www.w3.org/2000/svg">
<mask id="mask0" mask-type="alpha" maskUnits="userSpaceOnUse" x="0" y="0" width="1600" height="693">
<rect width="1600" height="693" fill="white"/>
</mask>
<g mask="url(#mask0)">
<path d="M-258.77 724.433C-235.77 682.745 -17.4234 298.197 56.3088 586.722C107.467 786.907 651.583 110.789 647.29 228.996C644.327 310.554 938.162 388.497 1175.02 397.099C1329.03 402.692 1417.53 717.497 1601.13 883.599C1670.16 946.058 2142.49 1049.93 2185.08 1061.86" stroke="#00FFFF" stroke-width="2" stroke-linecap="round" stroke-dasharray="0 4"/>
<path d="M-254.784 696.047C-232.879 656.345 2.40977 284.694 72.2125 571.036C120.729 767.345 673.634 108.483 678.941 232.233C682.537 316.088 987.687 386.311 1213.57 384.61C1360.52 383.503 1425.91 683.325 1602.05 832.978C1667.57 888.651 2128.55 986.291 2169.11 997.652" stroke="#0CF3FF" stroke-width="1.952" stroke-linecap="round" stroke-dasharray="0.19 3.81"/>
<path d="M-250.797 667.662C-229.989 629.944 21.3568 271.397 88.1156 555.351C133.39 747.925 695.523 106.051 710.592 235.469C720.614 321.544 1037.34 384.11 1252.11 372.121C1392.11 364.306 1434.29 649.302 1602.97 782.357C1665.01 831.293 2114.61 922.657 2153.14 933.451" stroke="#18E7FF" stroke-width="1.905" stroke-linecap="round" stroke-dasharray="0.38 3.62"/>
<path d="M-246.811 639.276C-227.098 603.544 40.7867 257.974 104.018 539.665C146.388 728.416 717.245 103.545 742.244 238.706C758.567 326.959 1087.14 381.866 1290.66 359.632C1423.8 345.088 1442.71 615.459 1603.89 731.737C1662.47 773.998 2100.67 859.022 2137.17 869.247" stroke="#24DBFF" stroke-width="1.857" stroke-linecap="round" stroke-dasharray="0.57 3.43"/>
<path d="M-242.825 610.891C-224.206 577.142 60.2439 244.533 119.921 523.978C159.411 708.895 738.807 101.007 773.895 241.942C796.405 332.356 1137.09 379.544 1329.21 347.143C1455.62 325.824 1451.2 581.839 1604.81 681.116C1659.99 716.778 2086.73 795.388 2121.2 805.045" stroke="#31CEFF" stroke-width="1.81" stroke-linecap="round" stroke-dasharray="0.76 3.24"/>
<path d="M-238.839 582.505C-221.316 550.742 79.7333 231.08 135.825 508.293C172.463 689.365 760.226 98.4703 805.547 245.179C834.144 337.755 1187.21 377.099 1367.76 334.654C1487.56 306.492 1459.83 548.481 1605.73 630.496C1657.59 659.649 2072.79 731.753 2105.23 740.843" stroke="#3DC2FF" stroke-width="1.762" stroke-linecap="round" stroke-dasharray="0.95 3.05"/>
<path d="M-234.853 554.12C-218.425 524.342 99.2567 217.609 151.728 492.607C185.542 669.824 781.52 95.9565 837.198 248.415C871.802 343.17 1237.48 374.474 1406.3 322.165C1519.62 287.056 1468.71 515.408 1606.65 579.874C1655.33 602.625 2058.85 668.119 2089.26 676.64" stroke="#49B6FF" stroke-width="1.714" stroke-linecap="round" stroke-dasharray="1.14 2.86"/>
<path d="M-230.867 525.733C-215.534 497.942 118.816 204.124 167.631 476.922C198.651 650.272 802.707 93.4789 868.849 251.652C909.393 348.608 1287.88 371.612 1444.85 309.678C1551.8 267.48 1478.01 482.604 1607.57 529.255C1653.27 545.707 2044.9 604.485 2073.3 612.437" stroke="#55AAFF" stroke-width="1.667" stroke-linecap="round" stroke-dasharray="1.33 2.66"/>
<path d="M-226.88 497.348C-212.643 471.541 132.768 191.629 183.533 461.236C215.327 630.084 823.804 91.0466 900.501 254.888C946.93 354.073 1338.37 368.452 1483.4 297.189C1584.06 247.725 1487.97 449.931 1608.49 478.634C1651.5 488.877 2030.96 540.851 2057.33 548.235" stroke="#619EFF" stroke-width="1.619" stroke-linecap="round" stroke-dasharray="1.52 2.47"/>
<path d="M-222.894 468.962C-209.752 445.141 152.034 178.112 199.438 445.55C228.679 610.526 844.827 88.6643 932.152 258.125C984.426 359.566 1388.89 364.951 1521.95 284.7C1616.36 227.754 1498.84 417.053 1609.41 428.013C1650.14 432.05 2017.02 477.216 2041.36 484.033" stroke="#6D92FF" stroke-width="1.571" stroke-linecap="round" stroke-dasharray="1.71 2.29"/>
<path d="M-218.908 440.577C-206.861 418.74 177.753 163.589 215.34 429.864C238.166 591.564 865.791 86.3313 963.804 261.361C1021.89 365.09 1439.34 361.088 1560.5 272.211C1648.64 207.546 1511.5 363.812 1610.33 377.393C1648.04 367.504 2003.08 413.581 2025.39 419.83" stroke="#7986FF" stroke-width="1.524" stroke-linecap="round" stroke-dasharray="1.9 2.09"/>
<path d="M-214.922 412.191C-203.97 392.34 197.497 150.053 231.243 414.178C251.405 571.979 886.708 84.0486 995.455 264.598C1059.33 370.641 1489.65 356.875 1599.04 259.721C1680.82 187.097 1520.89 328.444 1611.25 326.772C1645.83 309.648 1989.14 349.948 2009.42 355.628" stroke="#8679FF" stroke-width="1.476" stroke-linecap="round" stroke-dasharray="2.09 1.9"/>
<path d="M-210.936 383.806C-201.078 365.939 217.299 136.507 247.147 398.492C264.68 552.389 907.585 81.8123 1027.11 267.834C1096.74 376.218 1539.71 352.366 1637.59 247.233C1712.82 166.43 1530.29 293.076 1612.17 276.152C1643.62 251.793 1975.2 286.313 1993.45 291.425" stroke="#926DFF" stroke-width="1.429" stroke-linecap="round" stroke-dasharray="2.29 1.71"/>
<path d="M-206.95 355.42C-198.188 339.539 237.163 122.955 263.049 382.807C277.991 532.793 928.432 79.6199 1058.76 271.071C1134.15 381.82 1589.47 347.648 1676.14 234.744C1744.58 145.593 1539.69 257.707 1613.09 225.531C1641.41 193.938 1961.26 222.678 1977.48 227.223" stroke="#9E61FF" stroke-width="1.381" stroke-linecap="round" stroke-dasharray="2.47 1.52"/>
<path d="M-202.963 327.034C-195.298 313.138 257.094 109.395 278.952 367.121C291.343 513.193 949.255 77.4675 1090.41 274.306C1171.54 387.444 1638.89 342.824 1714.69 222.255C1776.05 124.654 1549.08 222.338 1614.01 174.91C1639.19 136.082 1947.32 159.044 1961.51 163.02" stroke="#AA55FF" stroke-width="1.333" stroke-linecap="round" stroke-dasharray="2.66 1.33"/>
<path d="M-198.977 298.649C-192.406 286.738 277.1 95.8343 294.857 351.435C304.732 493.594 970.06 75.3548 1122.06 277.544C1208.93 393.089 1687.97 338.003 1753.23 209.766C1807.22 103.688 1568.02 194.396 1614.94 124.29C1643.34 81.8495 1933.38 95.41 1945.55 98.8176" stroke="#B649FF" stroke-width="1.286" stroke-linecap="round" stroke-dasharray="2.86 1.14"/>
<path d="M-194.991 270.263C-189.515 260.337 297.184 82.2715 310.759 335.749C318.163 473.993 990.848 73.2743 1153.71 280.78C1246.3 398.752 1736.75 333.274 1791.78 197.278C1838.12 82.7677 1576.34 156.217 1615.86 73.6688C1640.27 22.6577 1919.44 31.7751 1929.58 34.6156" stroke="#C23DFF" stroke-width="1.238" stroke-linecap="round" stroke-dasharray="3.05 0.95"/>
<path d="M-191.004 241.878C-186.624 233.938 317.358 68.7142 326.663 320.063C331.636 454.397 1011.63 71.226 1185.36 284.017C1283.68 404.433 1785.28 328.705 1830.33 184.789C1868.78 61.9483 1584.17 118.865 1616.78 23.0481C1636.93 -36.1722 1905.5 -31.8586 1913.61 -29.5872" stroke="#CE31FF" stroke-width="1.19" stroke-linecap="round" stroke-dasharray="3.24 0.76"/>
<path d="M-187.018 213.492C-183.733 207.536 337.627 55.1646 342.566 304.377C345.151 434.805 1032.4 69.2048 1217.02 287.253C1321.05 410.128 1833.62 324.332 1868.88 172.3C1899.26 41.2641 1591.81 82.2044 1617.7 -27.573C1633.52 -94.6697 1891.56 -95.4936 1897.64 -93.7904" stroke="#DB24FF" stroke-width="1.143" stroke-linecap="round" stroke-dasharray="3.43 0.57"/>
<path d="M-196.445 185.107C-194.255 181.136 344.585 41.6282 345.055 288.692C345.296 415.222 1039.75 67.2113 1235.25 290.49C1345.01 415.837 1868.42 320.172 1894.01 159.811C1916.2 20.7337 1586.01 46.061 1605.2 -78.1932C1616.75 -152.911 1864.2 -159.128 1868.26 -157.993" stroke="#E718FF" stroke-width="1.095" stroke-linecap="round" stroke-dasharray="3.62 0.38"/>
<path d="M-219.382 156.72C-218.287 154.736 338.148 28.1125 334.036 273.006C331.976 395.65 1033.24 65.5518 1239.98 293.726C1355.26 421.734 1889.64 316.219 1905.64 147.323C1919.56 0.35553 1566.76 10.2835 1579.2 -128.813C1586.55 -210.971 1823.34 -222.763 1825.37 -222.195" stroke="#F30CFF" stroke-width="1.048" stroke-linecap="round" stroke-dasharray="3.81 0.19"/>
<mask id="mask1" mask-type="alpha" maskUnits="userSpaceOnUse" x="-249" y="-384" width="1969" height="744">
<path fill-rule="evenodd" clip-rule="evenodd" d="M-224.393 -383.974L-248.814 288.45L1695.11 359.051L1719.53 -313.373" fill="white"/>
</mask>
<g mask="url(#mask1)">
<path d="M-242.485 128.335C-242.485 128.335 331.665 14.6231 322.851 257.32C318.536 376.094 1027.25 63.2899 1244.54 296.963C1365.74 427.293 1910.64 312.458 1917.1 134.834C1922.72 -19.8791 1547.43 -25.2406 1553.03 -179.434C1556.28 -268.906 1782.31 -286.397 1782.31 -286.397" stroke="#FF00FF" stroke-linecap="round"/>
</g>
</g>
</svg>
