<svg width="375" height="196" viewBox="0 0 375 196" fill="none" xmlns="http://www.w3.org/2000/svg">
<mask id="mask0" mask-type="alpha" maskUnits="userSpaceOnUse" x="-37" y="0" width="452" height="196">
<rect x="-37" width="452" height="196" fill="white"/>
</mask>
<g mask="url(#mask0)">
<path d="M-109.935 204.085C-103.435 192.283 -41.7262 83.4161 -20.8881 165.099C-6.42999 221.772 147.347 30.36 146.134 63.8248C145.296 86.9143 228.339 108.98 295.279 111.415C338.804 112.999 363.817 202.122 415.705 249.146C435.216 266.828 568.703 296.234 580.739 299.611" stroke="#00FFFF" stroke-width="2" stroke-linecap="round" stroke-dasharray="0 4"/>
<path d="M-108.808 196.049C-102.618 184.809 -36.1209 79.5933 -16.3935 160.658C-2.68177 216.234 153.579 29.7074 155.079 64.7415C156.095 88.4813 242.336 108.362 306.173 107.88C347.704 107.567 366.184 192.448 415.965 234.815C434.484 250.576 564.763 278.219 576.226 281.435" stroke="#0CF3FF" stroke-width="1.952" stroke-linecap="round" stroke-dasharray="0.19 3.81"/>
<path d="M-107.682 188.013C-101.801 177.335 -30.7662 75.8289 -11.899 156.217C0.89644 210.736 159.765 29.0189 164.024 65.6575C166.856 90.0258 256.369 107.738 317.068 104.344C356.632 102.132 368.553 182.815 416.225 220.484C433.758 234.338 560.823 260.203 571.713 263.259" stroke="#18E7FF" stroke-width="1.905" stroke-linecap="round" stroke-dasharray="0.38 3.62"/>
<path d="M-106.555 179.977C-100.984 169.861 -25.2749 72.0289 -7.40473 151.777C4.56989 205.213 165.904 28.3096 172.969 66.5743C177.582 91.5589 270.442 107.103 327.962 100.809C365.59 96.6913 370.933 173.235 416.485 206.153C433.041 218.118 556.884 242.188 567.2 245.083" stroke="#24DBFF" stroke-width="1.857" stroke-linecap="round" stroke-dasharray="0.57 3.43"/>
<path d="M-105.429 171.941C-100.167 162.387 -19.776 68.2236 -2.9101 147.336C8.25043 199.687 171.998 27.5909 181.914 67.4902C188.276 93.0866 284.56 106.446 338.856 97.2729C374.581 91.2375 373.332 163.716 416.745 191.822C432.34 201.918 552.944 224.173 562.687 226.907" stroke="#31CEFF" stroke-width="1.81" stroke-linecap="round" stroke-dasharray="0.76 3.24"/>
<path d="M-104.302 163.905C-99.3498 154.913 -14.2679 64.4151 1.58443 142.895C11.939 194.158 178.051 26.8728 190.86 68.4065C198.942 94.6152 298.723 105.754 349.75 93.7375C383.608 85.7645 375.772 154.273 417.006 177.492C431.663 185.745 549.004 206.158 558.174 208.731" stroke="#3DC2FF" stroke-width="1.762" stroke-linecap="round" stroke-dasharray="0.95 3.05"/>
<path d="M-103.175 155.869C-98.5326 147.439 -8.75027 60.6015 6.07894 138.455C15.6354 188.626 184.069 26.1613 199.805 69.3228C209.585 96.1484 312.931 105.011 360.644 90.202C392.67 80.2623 378.281 144.91 417.266 163.161C431.023 169.601 545.064 188.143 553.661 190.555" stroke="#49B6FF" stroke-width="1.714" stroke-linecap="round" stroke-dasharray="1.14 2.86"/>
<path d="M-102.049 147.833C-97.7157 139.965 -3.22258 56.784 10.5736 134.014C19.3403 183.09 190.057 25.4598 208.75 70.2393C220.208 97.6878 327.175 104.2 371.539 86.6666C401.764 74.7202 380.91 135.623 417.526 148.83C430.44 153.488 541.124 170.128 549.148 172.379" stroke="#55AAFF" stroke-width="1.667" stroke-linecap="round" stroke-dasharray="1.33 2.66"/>
<path d="M-100.922 139.797C-96.8986 132.491 0.72056 53.2461 15.0678 129.573C24.0531 177.375 196.02 24.771 217.695 71.1552C230.817 99.2349 341.445 103.306 382.433 83.1307C410.882 69.1272 383.723 126.373 417.786 134.498C429.942 137.398 537.184 152.112 544.635 154.203" stroke="#619EFF" stroke-width="1.619" stroke-linecap="round" stroke-dasharray="1.52 2.47"/>
<path d="M-99.7957 131.76C-96.0815 125.017 6.16563 49.4195 19.5626 125.132C27.8267 171.838 201.961 24.0964 226.641 72.0716C241.414 100.79 355.722 102.314 393.327 79.595C420.011 63.4733 386.795 117.065 418.046 120.167C429.557 121.31 533.244 134.097 540.122 136.027" stroke="#6D92FF" stroke-width="1.571" stroke-linecap="round" stroke-dasharray="1.71 2.29"/>
<path d="M-98.6693 123.725C-95.2645 117.543 13.4342 45.3083 24.057 120.692C30.508 166.47 207.886 23.4363 235.586 72.9881C252.002 102.354 369.982 101.221 404.222 76.0596C429.133 57.7526 390.373 101.992 418.306 105.837C428.964 103.038 529.304 116.082 535.609 117.851" stroke="#7986FF" stroke-width="1.524" stroke-linecap="round" stroke-dasharray="1.9 2.09"/>
<path d="M-97.5426 115.689C-94.4474 110.069 19.0143 41.4764 28.5515 116.251C34.2497 160.925 213.797 22.7902 244.531 73.9043C262.582 103.926 384.199 100.028 415.116 72.5237C438.227 51.9636 393.029 91.9795 418.566 91.5063C428.339 86.6583 525.364 98.0673 531.095 99.6753" stroke="#8679FF" stroke-width="1.476" stroke-linecap="round" stroke-dasharray="2.09 1.9"/>
<path d="M-96.416 107.652C-93.6303 102.594 24.6106 37.6411 33.046 111.81C38.0012 155.379 219.698 22.1567 253.476 74.8201C273.157 105.504 398.347 98.7516 426.01 68.988C447.271 46.1123 395.685 81.9663 418.827 77.175C427.713 70.279 521.425 80.0517 526.583 81.4989" stroke="#926DFF" stroke-width="1.429" stroke-linecap="round" stroke-dasharray="2.29 1.71"/>
<path d="M-95.2896 99.6161C-92.8133 95.1201 30.2245 33.8043 37.5404 107.37C41.7633 149.831 225.589 21.5359 262.422 75.7365C283.728 107.09 412.41 97.416 436.904 65.4522C456.246 40.2131 398.341 71.9533 419.087 62.844C427.088 53.8999 517.484 62.0363 522.07 63.323" stroke="#9E61FF" stroke-width="1.381" stroke-linecap="round" stroke-dasharray="2.47 1.52"/>
<path d="M-94.1629 91.5804C-91.9965 87.6463 35.8574 29.9659 42.0349 102.929C45.5366 144.283 231.474 20.927 271.367 76.6529C294.295 108.683 426.376 96.0505 447.799 61.9169C465.14 34.2857 400.996 61.9404 419.347 48.5134C426.463 37.5209 513.545 44.0217 517.556 45.1473" stroke="#AA55FF" stroke-width="1.333" stroke-linecap="round" stroke-dasharray="2.66 1.33"/>
<path d="M-93.0363 83.5442C-91.1793 80.1722 41.5112 26.1264 46.5297 98.4882C49.3207 138.734 237.354 20.3286 280.312 77.5692C304.861 110.28 440.248 94.6855 458.693 58.381C473.95 28.3499 406.347 54.0295 419.607 34.1823C427.634 22.1673 509.605 26.0063 513.044 26.971" stroke="#B649FF" stroke-width="1.286" stroke-linecap="round" stroke-dasharray="2.86 1.14"/>
<path d="M-91.9099 75.508C-90.3621 72.698 47.1875 22.2868 51.024 94.0474C53.1165 133.185 243.229 19.7396 289.257 78.4853C315.425 111.884 454.034 93.3468 469.587 54.8456C482.683 22.4272 408.7 43.2212 419.867 19.8513C426.768 5.40984 505.665 7.99101 508.53 8.79517" stroke="#C23DFF" stroke-width="1.238" stroke-linecap="round" stroke-dasharray="3.05 0.95"/>
<path d="M-90.7833 67.4721C-89.5453 65.2243 52.889 18.4488 55.5186 89.6068C56.9241 127.637 249.102 19.1599 298.202 79.4019C325.988 113.492 467.75 92.0533 480.481 51.3101C491.349 16.5334 410.913 32.6468 420.127 5.52055C425.823 -11.245 501.725 -10.0238 504.017 -9.38073" stroke="#CE31FF" stroke-width="1.19" stroke-linecap="round" stroke-dasharray="3.24 0.76"/>
<path d="M-89.6566 59.4361C-88.7281 57.7501 58.6171 14.613 60.0131 85.166C60.7436 122.091 254.971 18.5878 307.148 80.3181C336.55 115.105 481.412 90.8155 491.376 47.7744C499.963 10.6777 413.071 22.2681 420.388 -8.81037C424.86 -27.8057 497.785 -28.039 499.504 -27.5568" stroke="#DB24FF" stroke-width="1.143" stroke-linecap="round" stroke-dasharray="3.43 0.57"/>
<path d="M-92.3208 51.3999C-91.7018 50.2758 60.5838 10.7805 60.7168 80.7254C60.7847 116.547 257.049 18.0232 312.302 81.2344C343.321 116.721 491.248 89.6375 498.479 44.2386C504.751 4.86521 411.432 12.0355 416.857 -23.1414C420.119 -44.2942 490.054 -46.0544 491.201 -45.733" stroke="#E718FF" stroke-width="1.095" stroke-linecap="round" stroke-dasharray="3.62 0.38"/>
<path d="M-98.8034 43.3634C-98.4939 42.8015 58.7644 6.95389 57.6025 76.2843C57.0203 111.005 255.209 17.5531 313.638 82.1501C346.219 118.39 497.242 88.518 501.765 40.7028C505.699 -0.904209 405.992 1.90644 409.508 -37.4725C411.585 -60.7315 478.505 -64.07 479.078 -63.9092" stroke="#F30CFF" stroke-width="1.048" stroke-linecap="round" stroke-dasharray="3.81 0.19"/>
<mask id="mask1" mask-type="alpha" maskUnits="userSpaceOnUse" x="-108" y="-110" width="558" height="211">
<path fill-rule="evenodd" clip-rule="evenodd" d="M-100.219 -109.709L-107.121 80.6564L442.267 100.644L449.169 -89.7221" fill="white"/>
</mask>
<g mask="url(#mask1)">
<path d="M-105.333 35.3276C-105.333 35.3276 56.9323 3.13525 54.4412 71.8438C53.2218 105.469 253.517 16.913 314.928 83.0669C349.18 119.964 503.18 87.4536 505.003 37.1674C506.591 -6.63248 400.53 -8.15035 402.113 -51.8031C403.031 -77.1332 466.91 -82.085 466.91 -82.085" stroke="#FF00FF" stroke-linecap="round"/>
</g>
</g>
</svg>
