<svg width="470" height="271" viewBox="0 0 470 271" fill="none" xmlns="http://www.w3.org/2000/svg">
<path d="M231.308 270V271L469.119 1H38.4C31.6629 1 26.6702 1.00078 22.7183 1.32366C18.7781 1.64559 15.9607 2.28273 13.5582 3.50685C9.2305 5.71194 5.71194 9.23049 3.50684 13.5582C2.28271 15.9607 1.6456 18.7781 1.32367 22.7183C1.00076 26.6702 1 31.6629 1 38.4V232.6C1 239.337 1.00076 244.33 1.32367 248.282C1.6456 252.222 2.28271 255.039 3.50687 257.442C5.71194 261.77 9.2305 265.288 13.5582 267.493C15.9607 268.717 18.7781 269.354 22.7183 269.676C26.6702 269.999 31.6629 270 38.4 270H231.308Z" stroke="url(#paint0_linear)" stroke-width="2"/>
<defs>
<linearGradient id="paint0_linear" x1="231.093" y1="377.586" x2="27.2759" y2="17.1811" gradientUnits="userSpaceOnUse">
<stop stop-color="#3264F0"/>
<stop offset="1" stop-color="#29ABFF"/>
</linearGradient>
</defs>
</svg>
