<svg width="769" height="810" viewBox="0 0 769 810" fill="none" xmlns="http://www.w3.org/2000/svg">
<g clip-path="url(#clip0)">
<path d="M206.403 443.073C206.265 440.246 205.819 372.167 239.09 356.369C272.361 340.571 261.466 349.607 277.909 337.467C294.352 325.326 329.775 295.236 329.775 295.236C329.775 295.236 341.239 297.526 339.733 266.376C338.62 246.438 335.766 226.635 331.204 207.195C331.204 207.195 324.581 187.647 321.476 182.13C318.372 176.613 305.955 154.468 305.264 140.345C304.572 126.222 312.947 122.949 312.947 122.949C311.58 94.6415 308.06 80.6262 310.074 63.5066C312.087 46.3869 327.823 20.0774 347.217 10.6263C366.611 1.17518 414.343 -9.64369 447.107 22.8129C479.871 55.2695 473.232 92.49 473.232 92.49L474.324 115.142C482.684 111.899 481.762 151.671 476.782 166.101C471.803 180.532 466.148 180.808 466.148 180.808C466.563 189.307 465.364 223.407 465.641 229.063C465.917 234.718 481.931 297.664 548.734 304.487C563.118 306.024 656.723 307.776 675.256 397.677C693.79 487.578 704.101 583.626 704.101 583.626C704.101 583.626 709.265 631.62 715.335 639.826C721.405 648.032 743.827 700.867 748.852 746.032C753.877 791.198 757.181 918.673 757.181 918.673C757.181 918.673 766.125 986.291 766.817 1000.49L768.999 1045.79C769.276 1051.45 693.698 1131.73 693.698 1131.73C693.698 1131.73 666.343 1152.92 676.163 1121.23C685.983 1089.55 693.79 1074.98 693.375 1066.49C692.96 1058.01 685.799 1027.14 685.799 1027.14C685.799 1027.14 675.302 1044.67 672.736 1050.47C670.17 1056.26 670.584 1064.76 665.206 1070.69C659.827 1076.62 651.375 1077.04 651.375 1077.04C651.375 1077.04 660.503 1031.2 660.227 1025.54C659.95 1019.88 674.58 970.908 679.867 962.148C685.153 953.389 693.067 941.648 693.067 941.648C693.067 941.648 695.48 933.011 695.219 927.356C694.958 921.7 688.964 856.664 682.202 834.35C675.441 812.036 646.857 748.092 645.581 722.627C644.868 707.486 643.189 692.405 640.556 677.477C640.556 677.477 633.395 646.603 621.1 627.347C608.806 608.092 586.124 549.633 583.127 546.867L580.161 544.178C580.161 544.178 564.609 632.88 562.304 644.344C559.999 655.808 561.704 749.367 562.304 760.678C562.903 771.988 589.197 906.932 593.116 929.446C597.035 951.959 620.87 1092.68 619.933 1132.45C618.995 1172.22 620.301 1257.28 620.701 1265.78C621.1 1274.28 622.899 1311.07 626.126 1319.43C629.353 1327.79 636.668 1361.48 643.153 1378.2C649.638 1394.92 666.205 1445.19 665.067 1479.29C663.93 1513.39 656.661 1598.86 655.847 1641.46C655.032 1684.06 658.92 1703.75 658.92 1703.75C658.92 1703.75 666.358 1740.28 667.327 1760.09C668.295 1779.89 672.751 1813.73 672.751 1813.73C672.751 1813.73 697.878 1863.57 655.417 1865.65L542.187 1871.12C542.187 1871.12 513.603 1866.83 546.075 1834.03C578.547 1801.24 579.731 1767.14 579.731 1767.14C579.298 1756.7 579.74 1746.24 581.052 1735.87C583.204 1721.57 583.019 1659.15 574.075 1591.49C565.131 1523.82 547.274 1448.07 545.768 1416.92C544.262 1385.77 540.466 1366.1 528.187 1346.83C515.909 1327.56 514.94 1307.75 511.713 1299.39C508.486 1291.03 490.122 1263.55 479.841 1227.16C469.56 1190.77 439.162 1090.1 439.162 1090.1C439.162 1090.1 417.202 1281.27 417.878 1295.43C418.554 1309.58 420.076 1340.72 426.684 1360.26C433.292 1379.81 453.439 1444.11 447.814 1503.97C442.19 1563.82 439.27 1620.76 440.499 1646.2C441.729 1671.63 441.498 1725.6 451.257 1750.7C461.015 1775.79 477.182 1817.55 460.754 1829.69C444.326 1841.83 407.382 1840.78 398.884 1841.2C390.385 1841.61 337.29 1858.36 326.102 1861.74C314.914 1865.12 272.868 1875.67 258.484 1870.69C244.1 1865.71 234.879 1851.97 257.255 1845.21L279.63 1838.45L317.757 1805.39L352.919 1769.64C352.919 1769.64 377.707 1754.28 366.488 1698.05C355.27 1641.82 334.8 1512.3 334.8 1512.3C334.8 1512.3 326.133 1450.29 324.35 1413.48C322.568 1376.68 313.393 1362.94 312.978 1354.44C312.563 1345.94 299.608 1312.52 298.917 1298.36L297.211 1264.4C297.211 1264.4 266.122 1149.57 265.43 1135.4C264.739 1121.23 254.566 1028.11 257.086 962.717C259.606 897.327 271.654 794.594 271.654 794.594L286.208 626.472C286.208 626.472 265.338 664.368 268.443 669.901C271.547 675.433 268.074 720.998 262.956 732.585C257.839 744.173 224.537 819.567 217.606 851.117C210.675 882.666 206.465 914.124 206.465 914.124L207.694 939.604C207.694 939.604 229.009 969.786 229.562 981.097C230.116 992.407 235.125 1037.57 235.125 1037.57C235.125 1037.57 235.54 1046.07 229.87 1046.33C224.199 1046.59 217.867 1032.73 217.729 1029.89L216.776 1010.08C216.776 1010.08 210.983 1007.53 211.382 1016.01L212.75 1044.32L230.285 1054.82C230.285 1054.82 219.143 1117.82 213.073 1109.56C207.002 1101.29 165.725 1069.28 164.357 1040.97C162.989 1012.66 163.22 958.736 162.129 936.084C161.038 913.432 162.913 893.485 164.511 867.867C166.109 842.249 170.996 708.658 175.837 691.4C180.678 674.142 203.145 610.627 208.263 599.025C213.38 587.422 212.642 513.688 211.828 496.707C211.013 479.725 206.403 443.073 206.403 443.073Z" stroke="#10EFFF" stroke-width="1.94" stroke-miterlimit="10" stroke-linecap="round" stroke-dasharray="0.25 3.75"/>
<path d="M695.234 636.799C689.502 628.346 684.723 581.721 684.723 581.721C684.723 581.721 674.78 488.623 655.878 403.794C636.975 318.964 549.702 317.458 535.41 315.767C472.08 308.253 455.314 248.733 455.053 243.416C454.791 238.099 455.421 206.288 454.96 196.944C454.96 195.577 460.385 194.055 465.057 180.532C469.729 167.008 470.866 128.85 463.105 131.632C463.213 131.37 462.644 109.118 462.613 108.503C462.583 107.888 468.499 72.8809 437.764 42.4221C407.028 10.7339 362.339 20.2465 344.021 28.376C325.703 36.5055 310.089 60.0642 307.323 75.7853C304.557 91.5065 305.709 104.369 305.694 132.477C304.388 134.014 297.011 138.624 297.657 151.948C298.302 165.271 309.951 186.94 312.901 192.119C315.437 197.19 321.845 217.26 322.122 217.86C326.788 236.229 329.644 255.011 330.651 273.936C332.08 303.504 321.538 302.858 321.553 303.135C321.569 303.412 287.652 334.024 269.595 346.395C253.305 357.552 259.698 349.914 228.102 368.74C196.506 387.565 196.844 455.644 196.983 458.303C196.983 458.303 201.286 494.801 201.824 511.106C202.361 527.411 202.285 598.963 197.459 611.841C192.634 624.72 171.964 689.863 167.431 706.045C162.897 722.228 158.21 850.502 156.673 875.09C155.137 899.679 153.508 919.564 154.537 941.033C155.567 962.502 159.009 1016.33 160.3 1042.81C161.591 1069.29 201.562 1100.21 206.695 1106.57C211.828 1112.94 221.863 1053.29 221.848 1052.93C221.832 1052.56 205.543 1041.4 205.543 1041.4C205.543 1041.4 205.174 1023.54 204.928 1015.83C204.682 1008.11 210.138 1010.88 210.399 1011.13C210.66 1011.37 211.797 1027.26 211.936 1029.92C212.074 1032.58 217.422 1043.61 222.693 1043.11C227.964 1042.6 226.75 1032.55 226.489 1032.19C226.228 1031.84 221.11 989.011 220.603 978.407C220.096 967.803 199.964 939.127 199.949 938.881C199.933 938.636 198.765 911.865 198.965 910.866C199.165 909.867 204.052 877.487 210.537 846.783C217.022 816.078 248.28 744.526 253.075 733.661C257.87 722.796 261.312 678.691 258.853 672.605C256.394 666.52 276.71 628.331 276.833 628.208C276.956 628.085 263.294 785.681 263.294 785.681C263.294 785.681 253.044 885.817 250.847 947.61C248.649 1009.4 258.53 1100.84 259.176 1114.61C259.821 1128.38 288.374 1242.07 288.374 1243.07C288.374 1244.07 288.743 1268.92 289.604 1283.93C290.464 1298.95 302.912 1334.02 303.327 1342.33C303.742 1350.64 312.41 1365.17 313.977 1400.05C315.545 1434.94 323.49 1494.58 323.275 1495.33C323.059 1496.08 341.716 1619.81 352.473 1674C363.231 1728.18 340.64 1746.32 340.855 1748.19C341.07 1750.07 308.03 1784.46 308.03 1784.46C308.03 1784.46 272.115 1817.08 272.162 1817.96C272.208 1818.84 272.162 1820.34 251.169 1826.67C230.177 1833 237.907 1848.19 253.305 1852.8C268.704 1857.41 311.242 1847.34 321.738 1844.16C332.234 1840.98 383.209 1824.98 389.648 1823.29C396.087 1821.6 430.48 1821.09 445.893 1809.72C461.307 1798.35 446.078 1758.43 436.796 1734.3C427.514 1710.17 427.483 1656.89 426.438 1630C425.393 1603.1 428.589 1546.37 433.784 1488.88C438.978 1431.39 420.183 1370.24 414.436 1351.01C408.688 1331.79 407.228 1301.73 406.752 1288C406.275 1274.28 427.36 1093.8 427.652 1092.11C427.944 1090.42 457.358 1180.32 466.993 1214.44C476.629 1248.56 495.608 1282.67 498.681 1291.12C501.755 1299.58 502.708 1319.52 514.049 1338.49C525.39 1357.45 528.295 1378.8 530.216 1410.59C532.137 1442.39 549.241 1515.86 557.647 1580.42C566.053 1644.98 566.499 1705.87 564.163 1720.41C561.827 1734.94 562.073 1752.77 562.842 1753.23C563.61 1753.69 564.117 1785.5 534.058 1816.24C503.999 1846.97 533.197 1851.49 533.704 1851.58C534.212 1851.68 602.444 1848.76 642.815 1846.56C683.186 1844.36 660.042 1796.97 659.028 1796.77C658.014 1796.57 653.818 1764.85 652.881 1746.27C651.943 1727.69 643.199 1692.16 643.199 1692.16C643.199 1692.16 637.959 1672.29 638.681 1632.35C639.403 1592.41 645.028 1511.71 646.365 1477.23C647.702 1442.74 632.534 1389.85 626.387 1374.17C620.24 1358.5 613.785 1324.17 610.604 1314.65C607.423 1305.14 606.163 1270.09 605.764 1261.71C605.364 1253.34 604.596 1172.1 605.41 1134.16C606.225 1096.22 583.895 963.454 580.176 942.339C576.457 921.224 552.637 789.569 552.084 778.335C551.531 767.101 550.01 675.264 551.761 661.664C553.513 648.063 567.129 560.436 567.129 560.436C567.129 560.436 565.777 553.121 568.558 555.657C571.34 558.193 593.685 614.592 605.087 632.911C616.49 651.229 623.529 682.087 623.821 682.64C627.622 698.178 630.034 714.023 631.028 729.988C632.565 755.222 659.781 816.478 666.112 837.455C672.444 858.432 678.115 920.44 678.407 925.773C678.699 931.105 675.594 940.587 675.61 941.141C675.625 941.694 668.156 954.649 663.239 962.855C658.321 971.061 644.598 1017.33 645.105 1022.64C645.612 1027.94 637.267 1070.28 637.267 1070.15C637.267 1070.03 645.182 1068.89 650.238 1063.33C655.294 1057.77 655.14 1049.67 657.568 1044.61C659.996 1039.56 669.862 1023.99 669.862 1023.99C669.862 1023.99 675.856 1053.46 676.24 1061.42C676.624 1069.38 670.093 1085.75 661.087 1115.07C652.082 1144.39 679.406 1122.85 679.344 1121.66C679.283 1120.48 749.897 1042.8 749.59 1036.5C749.282 1030.2 747.961 1005.44 747.146 991.055C746.332 976.671 737.157 907.393 736.865 906.655C736.573 905.918 732.255 783.714 727.214 740.853C722.174 697.993 700.936 645.251 695.234 636.799Z" stroke="#10EFFF" stroke-width="1.94" stroke-miterlimit="10" stroke-linecap="round" stroke-dasharray="0.25 3.75"/>
<path d="M675.102 633.848C669.724 625.166 665.298 579.908 665.298 579.908C665.298 579.662 655.724 489.699 636.453 409.941C617.182 330.183 536.348 328.984 522.179 327.063C462.337 318.933 444.802 262.749 444.556 257.801C444.31 252.852 444.372 223.3 443.88 213.127C443.742 210.376 449.074 207.625 453.439 194.993C457.803 182.361 459.002 145.816 451.902 148.121C452.133 147.614 452.071 125.746 452.01 124.501C451.948 123.256 457.035 90.4925 428.389 62.0777C399.59 31.1732 358.021 39.3796 340.794 46.1721C323.566 52.9646 308.106 73.834 304.556 88.1106C301.007 102.387 299.808 114.143 298.409 142.051C295.812 145.125 289.404 151.272 290.003 163.566C290.603 175.86 301.56 197.283 304.28 202.124C306.232 206.734 312.44 227.327 313.009 228.541C317.765 245.836 320.624 263.599 321.538 281.513C322.89 309.513 313.255 310.497 313.285 310.988C313.316 311.48 281.013 342.677 261.25 355.263C245.206 365.513 246.974 359.181 216.991 381.05C187.009 402.918 187.316 470.997 187.439 473.471C187.439 473.471 191.435 509.8 191.681 525.445C191.927 541.089 191.051 610.428 186.533 624.582C182.014 638.735 163.143 705.523 158.871 720.614C154.598 735.705 150.142 858.632 148.805 882.283C147.468 905.933 145.931 925.65 146.915 945.966C147.898 966.282 155.013 1019.87 156.135 1044.63C157.257 1069.38 196.091 1099.07 200.21 1103.56C204.328 1108.05 213.334 1051.76 213.303 1051C213.272 1050.25 198.289 1038.3 198.289 1038.3C198.289 1038.3 198.519 1022.41 198.443 1015.46C198.366 1008.51 203.468 1011.49 203.99 1011.97C204.513 1012.45 205.988 1027.34 206.096 1029.75C206.203 1032.16 210.583 1040.43 215.501 1039.69C220.418 1038.96 218.374 1027.4 217.837 1026.63C217.299 1025.86 212.104 985.431 211.689 975.518C211.275 965.606 192.265 938.467 192.249 937.96C192.234 937.453 191.112 909.422 191.527 907.393C191.942 905.365 197.536 872.048 203.545 842.188C209.553 812.329 238.813 744.711 243.224 734.553C247.635 724.395 251.108 681.765 249.371 675.141C247.635 668.518 267.321 630.022 267.551 629.761C267.782 629.499 255.042 776.599 255.042 776.599C255.042 776.599 246.497 874.153 244.638 932.289C242.778 990.425 252.322 1080.2 252.936 1093.65C253.551 1107.1 279.615 1219.57 279.461 1221.59C279.307 1223.6 279.246 1253.47 280.276 1269.35C281.305 1285.22 293.246 1321.94 293.645 1330.11C294.045 1338.29 302.221 1353.56 303.573 1386.53C304.925 1419.49 312.148 1476.77 311.733 1478.29C311.318 1479.81 328.177 1597.71 338.396 1649.87C348.616 1702.03 328.284 1722.93 328.715 1726.71C329.145 1730.49 298.21 1763.48 298.21 1763.48C298.21 1763.48 264.508 1795.68 264.585 1797.41C264.662 1799.15 264.585 1802.16 244.991 1808.08C225.397 1814 231.667 1830.61 248.065 1834.77C264.462 1838.94 307.461 1829.42 317.219 1826.46C326.978 1823.49 375.939 1808.22 380.227 1805.27C384.515 1802.32 416.464 1800.24 430.848 1789.62C445.232 1779 430.971 1740.94 422.166 1717.78C413.36 1694.62 413.037 1641.95 412.161 1613.65C411.285 1585.34 414.774 1528.77 419.553 1473.65C424.332 1418.52 406.89 1360.51 402.003 1341.62C397.116 1322.74 395.718 1293.74 395.334 1280.58C394.949 1267.43 415.542 1097.52 416.157 1094.23C416.771 1090.95 445.171 1169.97 454.146 1201.81C463.12 1233.65 482.745 1274.28 485.649 1282.84C488.554 1291.4 489.522 1311.49 499.849 1330.11C510.176 1348.74 512.282 1371.77 514.602 1404.22C516.923 1436.66 533.274 1507.92 541.219 1569.37C549.164 1630.83 549.794 1690.16 547.274 1704.96C544.754 1719.76 544.416 1738.42 545.952 1739.34C547.489 1740.26 549.687 1769.71 522.025 1798.35C494.363 1827 524.176 1831.78 525.191 1831.98C526.205 1832.18 591.902 1829.75 630.29 1827.37C668.679 1824.98 647.379 1780.09 645.366 1779.73C643.353 1779.36 639.434 1749.71 638.589 1732.38C637.744 1715.04 627.616 1680.5 627.616 1680.5C627.616 1680.5 620.916 1660.44 621.592 1623.16C622.268 1585.88 626.279 1509.96 627.831 1475.09C629.384 1440.22 615.537 1384.7 609.851 1370.07C604.165 1355.44 598.018 1320.45 595.021 1309.89C592.025 1299.33 591.164 1265.85 590.765 1257.64C590.365 1249.43 590.104 1171.98 590.841 1135.94C591.579 1099.9 570.648 975.057 567.221 955.341C563.794 935.624 542.448 807.242 541.911 796.085C541.373 784.928 539.99 694.812 541.219 679.075C542.448 663.339 554.128 576.803 554.128 576.803C554.128 576.803 551.423 562.189 554.02 564.509C556.618 566.83 578.609 621.185 589.151 638.566C599.693 655.947 606.624 686.959 607.177 687.943C607.73 688.926 614.6 712.531 616.552 737.473C618.503 762.415 644.213 821.088 650.099 840.667C655.985 860.245 661.425 919.319 661.594 924.282C661.763 929.246 658.106 939.65 658.152 940.618C658.198 941.586 651.19 955.894 646.595 963.562C642 971.231 629.153 1014.8 629.952 1019.73C630.751 1024.66 623.144 1063.5 623.129 1063.25C623.114 1063.01 630.475 1061.15 635.193 1055.95C639.91 1050.76 640.033 1043.06 642.308 1038.73C644.582 1034.39 653.849 1020.81 653.849 1020.81C653.849 1020.81 658.674 1048.88 659.028 1056.32C659.381 1063.76 654.064 1081.92 645.935 1108.88C637.805 1135.83 665.083 1114.14 664.96 1111.65C664.837 1109.16 730.488 1034.19 730.15 1027.25C729.811 1020.3 728.413 996.249 727.506 981.619C726.6 966.989 717.149 896.113 716.58 894.638C716.011 893.163 710.586 776.199 705.638 735.705C700.69 695.212 680.481 642.531 675.102 633.848Z" stroke="#20DFFF" stroke-width="1.88" stroke-miterlimit="10" stroke-linecap="round" stroke-dasharray="0.5 3.5"/>
<path d="M654.986 630.928C649.946 621.999 645.889 578.124 645.889 578.124C645.889 577.756 636.668 490.805 617.044 416.103C597.419 341.4 522.962 340.632 508.901 338.404C452.548 329.752 434.245 276.825 434.014 272.215C433.784 267.605 433.277 240.342 432.739 229.339C432.539 225.221 437.702 221.225 441.744 209.499C445.786 197.774 447.154 162.812 440.699 164.672C441.037 163.903 441.498 142.435 441.406 140.56C442.227 129.715 440.645 118.822 436.772 108.658C432.898 98.4951 426.83 89.3116 419 81.7631C392.199 51.7193 353.718 58.5425 337.459 64.0134C321.2 69.4843 306.001 87.5721 301.698 100.496C297.395 113.421 293.83 123.947 291.064 151.609C287.16 156.296 281.736 163.75 282.289 175.245C282.842 186.74 293.046 207.701 295.597 212.127C296.98 216.292 302.989 237.392 303.819 239.236C304.649 241.08 311.119 263.824 312.348 289.119C313.624 315.537 304.91 318.164 304.941 318.902C304.972 319.64 274.205 351.42 252.829 364.206C237.077 373.611 234.173 368.54 205.835 393.405C177.497 418.27 177.727 486.379 177.85 488.684C177.85 488.684 181.523 524.86 181.507 539.813C181.492 554.766 179.802 621.922 175.56 637.352C171.319 652.781 154.291 721.321 150.296 735.351C146.3 749.382 142.074 866.945 140.86 889.628C139.646 912.31 138.294 931.889 139.216 951.098C140.138 970.308 150.926 1023.66 152.032 1046.65C153.139 1069.64 190.544 1098.14 193.786 1100.78C197.029 1103.42 204.866 1050.44 204.805 1049.31C204.743 1048.19 191.051 1035.48 191.051 1035.48C191.051 1035.48 191.881 1021.56 191.958 1015.38C192.034 1009.2 196.798 1012.42 197.582 1013.12C198.366 1013.83 200.164 1027.58 200.271 1029.89C200.379 1032.19 203.76 1037.57 208.324 1036.57C212.888 1035.57 209.999 1022.45 209.2 1021.36C208.401 1020.27 203.053 982.141 202.684 972.936C202.315 963.731 184.489 938.113 184.443 937.36C184.397 936.607 183.367 907.285 183.966 904.258C184.566 901.23 190.897 866.93 196.414 837.931C201.931 808.932 229.178 745.048 233.297 735.613C237.415 726.177 240.827 685.007 239.674 677.83C238.522 670.653 257.716 631.881 258.115 631.481C258.515 631.082 246.636 767.685 246.636 767.685C246.636 767.685 240.012 862.627 238.429 917.228C236.847 971.83 246.113 1059.84 246.697 1072.84C247.281 1085.84 270.84 1197.23 270.609 1200.24C270.379 1203.25 269.826 1238.17 271.009 1254.89C272.192 1271.61 283.641 1309.98 284.025 1318C284.41 1326.02 292.109 1342.05 293.246 1373.1C294.383 1404.14 300.93 1459.05 300.254 1461.32C299.578 1463.6 314.684 1575.67 324.396 1625.76C334.109 1675.84 316.006 1699.52 316.713 1705.15C317.419 1710.77 288.544 1742.43 288.544 1742.43C288.544 1742.43 257.055 1774.19 257.178 1776.81C257.301 1779.42 257.178 1783.94 238.967 1789.42C220.757 1794.91 225.582 1812.97 242.917 1816.73C260.252 1820.5 303.773 1811.47 312.871 1808.74C321.968 1806 368.809 1791.45 371.022 1787.22C373.235 1783 402.649 1779.37 416.003 1769.51C429.358 1759.64 416.08 1723.4 407.72 1701.23C399.36 1679.05 398.776 1626.99 398.085 1597.26C397.393 1567.54 401.158 1511.13 405.523 1458.37C409.887 1405.61 393.782 1350.8 389.771 1332.17C385.76 1313.55 384.407 1285.68 384.177 1273.04C383.946 1260.39 403.847 1101.21 404.739 1096.31C405.63 1091.41 433.046 1159.56 441.391 1189.13C449.735 1218.7 469.975 1265.97 472.71 1274.56C475.446 1283.15 476.414 1303.43 485.773 1321.75C495.132 1340.07 496.376 1364.78 499.112 1397.87C501.847 1430.95 517.445 1499.97 524.883 1558.32C532.321 1616.67 533.182 1674.47 530.477 1689.52C527.773 1704.56 526.835 1724.05 529.156 1725.45C531.476 1726.84 535.303 1753.94 510.1 1780.52C484.897 1807.11 515.263 1812.12 516.785 1812.43C518.306 1812.73 581.467 1810.8 617.812 1808.29C654.157 1805.79 634.716 1763.34 631.75 1762.74C628.784 1762.14 625.081 1734.65 624.312 1718.55C623.544 1702.44 612.018 1668.91 612.018 1668.91C612.018 1668.91 603.858 1648.67 604.488 1614.05C605.118 1579.42 607.562 1508.27 609.252 1473.03C610.943 1437.79 598.495 1379.63 593.239 1366.06C587.983 1352.49 582.389 1316.88 579.516 1305.17C576.642 1293.46 576.227 1261.7 575.843 1253.67C575.459 1245.65 575.704 1171.98 576.35 1137.79C576.995 1103.59 557.509 986.644 554.328 968.356C551.147 950.069 532.337 824.945 531.722 813.88C531.107 802.816 529.97 714.405 530.662 696.533C531.353 678.66 541.112 593.2 541.112 593.2C541.112 593.2 537.055 571.27 539.467 573.453C541.88 575.635 563.549 627.885 573.184 644.313C582.82 660.741 589.689 691.769 590.504 693.229C591.318 694.688 599.724 720.168 602.06 744.941C604.396 769.714 628.585 825.667 634.071 843.847C639.557 862.027 644.582 918.181 644.828 922.791C645.074 927.402 640.664 938.651 640.741 940.141C640.817 941.632 634.271 957.184 629.983 964.299C625.696 971.415 613.862 1012.31 614.831 1016.87C615.799 1021.44 609.037 1056.83 609.022 1056.4C609.006 1055.97 615.799 1053.45 620.179 1048.62C624.558 1043.8 624.958 1036.48 627.079 1032.9C629.199 1029.32 637.836 1017.69 637.836 1017.69C637.836 1017.69 641.494 1044.37 641.816 1051.27C642.139 1058.17 638.082 1078.14 630.798 1102.73C623.513 1127.32 650.776 1105.36 650.576 1101.63C650.376 1097.89 711.109 1025.59 710.756 1017.98C710.402 1010.37 708.881 987.09 707.79 972.229C706.699 957.369 697.032 884.879 696.218 882.681C695.403 880.484 688.888 768.792 683.924 730.634C678.96 692.476 660.027 639.857 654.986 630.928Z" stroke="#30CFFF" stroke-width="1.81" stroke-miterlimit="10" stroke-linecap="round" stroke-dasharray="0.75 3.25"/>
<path d="M634.886 628.008C630.183 618.788 626.51 576.342 626.51 576.342C626.51 575.85 617.674 491.912 597.665 422.281C577.656 352.65 509.624 352.127 495.639 349.73C442.774 340.648 423.703 290.872 423.503 286.63C423.303 282.389 422.212 257.432 421.644 245.537C421.382 240.051 426.377 234.78 430.111 224.022C433.846 213.265 435.352 179.84 429.543 181.238C429.988 180.209 430.972 159.14 430.849 156.65C431.509 146.467 429.956 136.262 426.298 126.736C422.64 117.21 416.963 108.589 409.657 101.465C384.807 72.1432 349.462 77.7524 334.217 81.8709C318.972 85.9895 303.988 101.373 298.871 112.883C293.754 124.393 287.883 133.829 283.703 161.307C277.566 168.414 274.324 177.569 274.621 186.955C275.128 197.574 284.641 218.136 286.915 222.301C287.729 226.02 293.523 247.642 294.599 250.086C295.675 252.529 301.991 273.506 303.113 296.865C304.311 321.715 296.504 325.971 296.551 326.97C296.597 327.969 267.49 360.334 244.3 373.289C228.933 381.925 221.249 378.037 194.586 405.96C167.923 433.883 168.061 501.962 168.169 504.083C168.169 504.083 171.534 540.09 171.242 554.366C170.95 568.643 168.445 633.602 164.496 650.307C160.546 667.011 145.286 737.073 141.66 750.012C138.033 762.952 133.976 875.182 132.869 896.881C131.763 918.581 130.61 938.036 131.471 956.032C132.331 974.027 146.838 1027.26 147.822 1048.48C148.805 1069.71 185.027 1097.06 187.378 1097.84C189.73 1098.63 196.415 1048.98 196.338 1047.47C196.261 1045.96 183.844 1032.56 183.844 1032.56C183.844 1032.56 185.273 1020.59 185.504 1015.2C185.734 1009.8 190.114 1013.21 191.205 1014.17C192.296 1015.12 194.371 1027.78 194.463 1029.9C194.555 1032.03 196.937 1034.51 201.148 1033.35C205.359 1032.18 201.64 1017.44 200.564 1015.98C199.488 1014.52 194.14 978.745 193.725 970.247C193.31 961.749 176.821 937.652 176.698 936.653C176.575 935.654 175.668 905.042 176.467 901C177.266 896.958 184.32 861.705 189.345 833.551C194.371 805.398 219.635 745.341 223.462 736.642C227.288 727.944 230.638 688.234 230.131 680.504C229.624 672.774 248.265 633.71 248.742 633.172C249.218 632.634 238.292 758.741 238.292 758.741C238.292 758.741 233.497 851.086 232.145 902.106C230.792 953.127 239.828 1039.42 240.397 1052.03C240.966 1064.65 261.989 1174.88 261.681 1178.91C261.374 1182.94 260.314 1222.88 261.681 1240.38C263.049 1257.88 273.975 1297.96 274.36 1305.83C274.744 1313.7 281.936 1330.42 282.843 1359.62C283.749 1388.82 289.543 1441.28 288.698 1444.32C287.852 1447.37 301.13 1553.62 310.335 1601.74C319.541 1649.85 303.666 1676.27 304.526 1683.72C305.387 1691.18 278.77 1721.59 278.77 1721.59C278.77 1721.59 249.464 1752.92 249.571 1756.41C249.679 1759.9 249.571 1765.91 232.744 1770.98C215.916 1776.05 219.297 1795.57 237.6 1798.9C255.903 1802.24 299.916 1793.76 308.291 1791.22C316.667 1788.68 361.448 1774.88 361.571 1769.37C361.694 1763.85 388.603 1758.61 400.928 1749.57C413.253 1740.54 400.928 1706.14 393.044 1684.86C385.161 1663.58 384.269 1612.19 383.824 1581.07C383.378 1549.95 387.358 1493.67 391.308 1443.3C395.257 1392.92 380.55 1341.18 377.354 1322.94C374.157 1304.69 372.913 1277.85 372.836 1265.71C372.759 1253.57 391.984 1105.05 393.167 1098.49C394.351 1091.93 420.829 1149.2 428.513 1176.56C436.197 1203.91 457.035 1257.65 459.602 1266.41C462.168 1275.17 463.136 1295.52 471.527 1313.52C479.918 1331.51 480.317 1357.88 483.452 1391.64C486.588 1425.41 501.448 1492.15 508.379 1547.4C515.31 1602.64 516.401 1658.9 513.512 1674.18C510.623 1689.46 509.101 1709.8 512.19 1711.66C515.279 1713.52 520.857 1738.28 498.006 1762.79C475.154 1787.3 506.197 1792.56 508.21 1792.96C510.223 1793.36 570.864 1791.93 605.165 1789.27C639.465 1786.61 622.069 1746.65 617.966 1745.84C613.863 1745.02 610.574 1719.71 609.852 1704.79C609.13 1689.87 596.298 1657.38 596.298 1657.38C596.298 1657.38 586.677 1636.94 587.261 1604.99C587.845 1573.04 588.644 1506.64 590.55 1471.03C592.456 1435.43 581.329 1374.63 576.519 1362.09C571.709 1349.55 566.638 1313.25 563.902 1300.51C561.167 1287.77 561.198 1257.59 560.829 1249.8C560.46 1242.01 561.198 1172.06 561.766 1139.74C562.335 1107.42 544.293 998.354 541.343 981.45C538.392 964.545 522.102 842.695 521.58 831.707C521.057 820.719 520.043 734.045 520.151 714.021C520.258 693.997 528.096 609.567 528.096 609.567C528.096 609.567 522.686 580.368 524.899 582.335C527.112 584.302 548.443 634.586 557.171 649.953C565.9 665.321 572.693 696.517 573.784 698.454C574.875 700.39 584.879 727.898 587.569 752.487C590.258 777.075 612.987 830.355 618.058 847.136C623.13 863.918 627.832 917.136 628.032 921.378C628.232 925.619 623.191 937.76 623.299 939.819C623.406 941.878 617.321 958.629 613.386 965.191C609.452 971.753 598.526 1009.97 599.725 1014.17C600.923 1018.36 594.961 1050.21 594.93 1049.7C594.899 1049.19 601.077 1045.9 605.165 1041.45C609.252 1036.99 609.867 1030.07 611.865 1027.23C613.863 1024.39 621.9 1014.72 621.9 1014.72C621.9 1014.72 624.374 1040.02 624.682 1046.38C624.989 1052.74 622.161 1074.53 615.722 1096.75C609.283 1118.98 636.499 1096.75 636.254 1091.77C636.008 1086.8 691.731 1017.13 691.331 1008.9C690.932 1000.66 689.334 978.084 688.104 962.993C686.875 947.902 677.039 873.861 675.887 870.787C674.734 867.714 667.219 761.431 662.363 725.624C657.507 689.817 639.573 637.229 634.886 628.008Z" stroke="#40BFFF" stroke-width="1.75" stroke-miterlimit="10" stroke-linecap="round" stroke-dasharray="1 3"/>
<path d="M614.769 625.242C610.42 615.853 607.085 574.713 607.085 574.713C607.085 574.083 598.617 493.172 578.24 428.597C557.862 364.022 496.238 363.853 482.345 361.21C432.954 351.789 413.191 305.087 412.945 301.199C412.699 297.311 411.116 274.597 410.501 261.904C410.163 255.05 415.004 248.564 418.431 238.637C421.858 228.709 423.518 196.944 418.339 197.897C418.907 196.622 420.398 175.937 420.244 172.817C420.753 163.299 419.235 153.781 415.791 144.893C412.347 136.005 407.056 127.949 400.266 121.258C377.43 92.7052 345.096 96.9928 330.943 99.7436C316.789 102.494 301.959 115.111 296.12 125.285C290.28 135.458 282.012 143.726 276.449 170.958C269.97 178.741 266.584 188.637 266.936 198.758C267.413 208.485 276.157 228.679 278.324 232.474C278.554 235.732 284.148 257.877 285.547 260.935C286.945 263.994 293.031 283.203 294.06 304.61C295.182 327.893 288.297 333.809 288.359 335.023C288.42 336.237 261.004 369.262 236.109 382.371C221.079 390.285 208.708 387.519 183.659 418.485C158.609 449.451 158.717 517.53 158.809 519.466C158.809 519.466 161.883 555.304 161.283 568.92C160.684 582.535 157.365 645.328 153.722 663.354C150.08 681.38 136.603 753.04 133.268 764.904C129.933 776.768 126.061 883.65 125.108 904.381C124.155 925.112 123.141 944.445 123.955 961.242C124.77 978.038 142.888 1031.09 143.841 1050.62C144.794 1070.15 179.602 1096.19 180.954 1095.09C182.306 1094 187.946 1047.68 187.854 1045.83C187.762 1043.97 176.62 1029.81 176.62 1029.81C176.62 1029.81 178.633 1019.81 179.033 1015.18C179.433 1010.56 183.505 1014.18 184.827 1015.38C186.148 1016.58 188.576 1028.15 188.669 1030.1C188.761 1032.06 190.205 1031.73 193.986 1030.3C197.766 1028.87 193.279 1012.62 191.942 1010.8C190.605 1008.99 185.165 975.549 184.781 967.773C184.396 959.997 169.029 937.391 168.967 936.146C168.906 934.901 167.984 903.013 168.967 897.957C169.951 892.901 177.757 856.695 182.276 829.387C186.794 802.078 210.076 745.863 213.595 737.887C217.114 729.912 220.372 691.585 220.587 683.332C220.802 675.08 238.813 635.692 239.413 635.001C240.012 634.309 229.992 749.936 229.992 749.936C229.992 749.936 227.011 839.683 226.027 887.108C225.044 934.532 233.711 1019.12 234.249 1031.33C234.787 1043.55 253.29 1152.66 252.921 1157.67C252.552 1162.68 250.969 1207.68 252.475 1226.12C253.981 1244.56 264.431 1286.21 264.769 1293.92C265.108 1301.64 271.839 1319.19 272.53 1346.39C273.222 1373.59 278.293 1423.76 277.233 1427.56C276.172 1431.35 287.652 1531.8 296.365 1577.89C305.079 1623.97 291.432 1653.19 292.508 1662.41C293.584 1671.63 268.996 1700.7 268.996 1700.7C268.996 1700.7 241.933 1731.59 242.133 1735.96C242.333 1740.32 242.133 1747.84 226.765 1752.48C211.397 1757.12 213.242 1778.03 232.528 1781.02C251.814 1784 296.304 1775.98 304.003 1773.65C311.702 1771.33 354.378 1758.29 352.396 1751.48C350.414 1744.67 374.833 1737.97 386.205 1729.61C397.577 1721.25 386.205 1688.79 378.721 1668.48C371.237 1648.16 370.13 1597.39 369.808 1564.85C369.485 1532.32 373.803 1476.21 377.322 1428.19C380.842 1380.17 367.426 1331.59 365.151 1313.65C363.027 1295.29 361.873 1276.82 361.693 1258.33C361.693 1246.7 380.304 1108.85 381.779 1100.64C383.254 1092.44 408.688 1138.94 415.757 1163.96C422.826 1188.98 444.326 1249.32 446.692 1258.19C449.059 1267.06 450.058 1287.54 457.45 1305.22C464.841 1322.89 464.411 1350.95 467.961 1385.36C471.511 1419.77 485.619 1484.27 492.042 1536.39C498.466 1588.52 499.726 1643.26 496.653 1658.78C493.579 1674.3 491.474 1695.49 495.346 1697.8C499.219 1700.11 506.473 1722.54 486.018 1744.99C465.564 1767.45 497.221 1772.93 499.742 1773.44C502.262 1773.95 560.367 1773.01 592.624 1770.2C624.881 1767.38 609.329 1729.9 604.288 1728.89C599.247 1727.87 596.158 1704.62 595.498 1690.99C594.837 1677.36 580.652 1645.81 580.652 1645.81C573.291 1630.22 569.68 1613.13 570.11 1595.9C570.648 1566.61 569.849 1505 571.924 1468.99C573.998 1432.98 564.24 1369.58 559.86 1358.08C555.48 1346.59 550.962 1309.64 548.35 1295.8C545.737 1281.95 546.167 1253.55 545.814 1245.79C545.46 1238.03 546.69 1172.02 547.182 1141.54C547.673 1111.05 531.061 1009.96 528.372 994.482C525.682 979.007 511.913 860.399 511.375 849.503C510.837 838.607 509.946 753.639 509.561 731.479C509.177 709.319 515.063 626.057 515.063 626.057C515.063 626.057 508.301 589.497 510.33 591.356C512.358 593.216 533.381 641.286 541.234 655.809C549.087 670.331 555.772 701.466 557.14 703.909C558.508 706.353 570.003 735.69 573.061 759.986C576.119 784.282 597.373 834.996 602.014 850.364C606.655 865.731 611.034 916.03 611.234 919.918C611.434 923.806 605.717 936.822 605.84 939.312C605.963 941.801 600.354 959.889 596.742 965.913C593.131 971.937 583.142 1007.41 584.587 1011.29C586.031 1015.18 580.837 1043.46 580.806 1042.84C580.775 1042.23 586.431 1038.23 590.134 1034.12C593.838 1030 594.745 1023.51 596.62 1021.39C598.494 1019.27 605.84 1011.59 605.84 1011.59C605.84 1011.59 607.146 1035.48 607.377 1041.32C607.607 1047.16 606.071 1070.75 600.477 1090.59C594.883 1110.43 621.992 1087.98 621.761 1081.74C621.531 1075.5 672.213 1008.5 671.783 999.615C671.353 990.732 669.678 968.879 668.31 953.512C666.942 938.144 656.876 862.489 655.447 858.8C654.018 855.112 645.458 753.993 640.633 720.491C635.807 686.99 619.133 634.647 614.769 625.242Z" stroke="#50AFFF" stroke-width="1.69" stroke-miterlimit="10" stroke-linecap="round" stroke-dasharray="1.25 2.75"/>
<path d="M594.668 622.522C590.657 612.902 587.707 573.13 587.707 573.13C587.707 572.377 579.608 494.478 558.862 434.975C538.115 375.471 482.899 375.655 469.099 372.751C423.196 363.069 402.603 319.348 402.434 315.89C402.265 312.432 400.052 291.932 399.36 278.393C398.961 270.156 403.633 262.426 406.752 253.42C409.872 244.415 411.685 214.233 407.136 214.725C407.813 213.188 409.826 192.902 409.657 189.168C409.488 185.434 411.393 161.506 390.908 141.236C370.054 113.375 340.809 116.356 327.716 117.801C314.623 119.245 299.962 129.173 293.354 137.886C286.746 146.6 276.111 153.73 269.181 180.793C262.349 189.21 258.834 199.837 259.299 210.668C259.729 219.519 267.782 239.313 269.718 242.771C269.38 245.583 274.774 268.235 276.449 271.969C281.348 284.959 284.204 298.63 284.917 312.494C285.962 334.209 279.984 341.693 280.061 343.229C280.138 344.766 254.427 378.391 227.703 391.591C213.073 398.814 195.923 397.155 172.533 431.163C149.143 465.172 149.159 533.236 149.251 535.003C149.251 535.003 152.002 570.671 151.126 583.611C150.25 596.55 146.162 657.099 142.796 676.37C139.431 695.641 127.767 768.961 124.739 779.749C121.712 790.537 118.024 892.071 117.209 911.819C116.395 931.566 115.55 950.776 116.303 966.436C117.056 982.095 138.847 1034.98 139.708 1052.68C140.568 1070.38 174.101 1095.28 174.5 1092.33C174.9 1089.38 179.448 1046.39 179.326 1044.15C179.203 1041.91 169.352 1027.03 169.352 1027.03C170.64 1023.14 171.702 1019.17 172.533 1015.15C173.102 1011.31 176.836 1015.15 178.403 1016.57C179.971 1017.98 182.737 1028.49 182.814 1030.27C182.891 1032.06 183.29 1028.89 186.764 1027.2C190.237 1025.51 184.873 1007.71 183.26 1005.55C181.646 1003.38 176.16 972.245 175.806 965.191C175.453 958.137 161.284 937.037 161.207 935.547C161.13 934.056 160.285 900.877 161.484 894.822C162.682 888.767 171.196 851.593 175.238 825.13C179.279 798.667 200.548 746.278 203.745 739.071C206.941 731.863 210.215 695.042 211.014 686.206C211.813 677.369 229.332 637.721 230.054 636.921C230.777 636.122 221.664 741.207 221.664 741.207C221.664 741.207 220.496 828.357 219.804 872.186C219.113 916.014 227.488 998.892 228.01 1010.73C228.533 1022.56 244.5 1130.53 244.039 1136.51C243.578 1142.49 241.503 1192.56 243.178 1211.81C244.853 1231.07 254.796 1274.4 255.165 1281.97C255.534 1289.53 261.743 1307.84 262.204 1333.12C262.665 1358.4 267.029 1406.21 265.754 1410.78C264.478 1415.34 274.16 1509.96 282.366 1554.04C290.572 1598.11 279.154 1630.03 280.445 1641.22C281.736 1652.4 259.268 1680.02 259.268 1680.02C259.268 1680.02 234.419 1710.48 234.68 1715.72C234.941 1720.96 234.68 1729.98 220.634 1734.16C206.588 1738.34 207.049 1760.73 227.288 1763.36C247.527 1765.99 292.524 1758.43 299.516 1756.32C306.509 1754.21 347.156 1741.87 343.038 1733.82C338.919 1725.77 360.864 1717.49 371.145 1709.89C381.426 1702.3 371.145 1671.71 364.061 1652.33C356.976 1632.95 355.655 1582.82 355.516 1548.87C355.378 1514.92 359.973 1458.97 363.077 1413.33C366.181 1367.69 354.102 1322.23 352.704 1304.63C351.305 1287.04 350.107 1262.34 350.322 1251.2C350.537 1240.06 368.394 1112.89 370.162 1103.05C371.929 1093.22 396.379 1128.87 402.787 1151.62C409.196 1174.36 431.34 1241.29 433.523 1250.25C435.705 1259.21 436.719 1279.83 443.158 1297.18C449.597 1314.53 448.306 1344.27 452.241 1379.34C456.175 1414.4 469.621 1476.63 475.476 1525.67C481.332 1574.7 482.945 1627.89 479.687 1643.66C476.429 1659.43 473.74 1681.46 478.381 1684.23C483.022 1687 491.966 1707.11 473.924 1727.49C455.883 1747.87 488.139 1753.62 491.167 1754.21C494.194 1754.81 549.764 1754.38 579.977 1751.42C610.19 1748.45 596.559 1713.44 590.504 1712.23C584.449 1711.02 581.652 1689.87 581.053 1677.5C580.453 1665.13 564.963 1634.59 564.963 1634.59C556.992 1620.06 552.846 1603.73 552.914 1587.15C553.406 1560.52 550.993 1503.69 553.252 1467.28C555.511 1430.88 547.213 1364.86 543.156 1354.42C539.099 1343.99 535.241 1306.38 532.737 1291.42C530.232 1276.45 531.2 1249.62 530.831 1242.06C530.462 1234.49 532.229 1172.21 532.614 1143.61C532.998 1115.01 517.861 1021.82 515.402 1007.76C512.943 993.698 501.709 878.348 501.187 867.529C500.664 856.71 499.911 773.463 499.004 749.198C498.098 724.932 502.078 642.715 502.078 642.715C502.078 642.715 493.918 598.81 495.793 600.5C497.667 602.19 518.291 648.14 525.283 661.756C532.276 675.371 538.838 706.522 540.482 709.396C542.126 712.269 555.158 743.604 558.57 767.654C561.981 791.705 581.775 839.79 585.986 853.714C590.196 867.637 594.269 915.046 594.438 918.581C594.607 922.115 588.291 935.992 588.398 938.989C588.506 941.986 583.404 961.334 580.131 966.804C576.857 972.275 567.836 1005.12 569.465 1008.59C571.094 1012.06 566.745 1036.9 566.699 1036.14C566.653 1035.39 571.755 1030.64 575.121 1026.92C578.486 1023.2 579.731 1017.09 581.406 1015.7C583.081 1014.32 589.935 1008.6 589.935 1008.6C589.935 1008.6 590.073 1031.1 590.319 1036.42C590.565 1041.74 590.227 1067.16 585.494 1084.6C580.761 1102.04 607.885 1079.36 607.516 1071.87C607.147 1064.39 652.958 1000.15 652.497 990.686C652.036 981.219 650.269 959.95 648.763 944.429C647.257 928.908 636.976 851.562 635.301 847.152C633.625 842.741 623.975 746.893 619.195 715.742C614.416 684.592 598.679 632.157 594.668 622.522Z" stroke="#609FFF" stroke-width="1.63" stroke-miterlimit="10" stroke-linecap="round" stroke-dasharray="1.5 2.5"/>
<path d="M574.567 619.971C570.894 610.105 568.328 571.716 568.328 571.716C568.328 570.84 560.644 495.938 539.483 441.506C518.321 387.073 469.56 387.626 455.836 384.43C413.406 374.579 392.06 333.717 391.907 330.643C391.753 327.569 388.971 309.313 388.28 294.928C387.819 285.324 392.322 276.349 395.119 268.235C397.915 260.121 399.883 231.552 395.979 231.583C396.763 229.8 399.314 209.899 399.053 205.535C398.791 201.17 399.959 179.486 381.518 161.229C362.662 134.244 336.475 135.919 324.443 136.042C312.41 136.165 297.918 143.357 290.557 150.656C283.196 157.956 270.21 163.903 261.865 190.766C254.636 199.793 250.987 211.168 251.615 222.716C251.999 230.676 259.299 250.101 261.066 253.205C260.144 255.572 265.338 278.746 267.29 283.018C272.185 294.954 275.058 307.621 275.788 320.5C276.757 340.632 271.701 349.791 271.777 351.528C271.854 353.264 247.911 387.657 219.327 400.919C205.128 407.512 183.167 406.898 161.422 443.949C139.677 481.001 139.631 549.049 139.707 550.647C139.707 550.647 142.151 586.162 140.983 598.41C139.815 610.658 134.928 669.101 131.855 689.571C128.781 710.041 118.915 785.081 116.195 794.794C113.475 804.506 110.048 900.692 109.295 919.472C108.542 938.251 107.927 957.322 108.634 971.814C109.341 986.306 134.759 1039.02 135.558 1054.95C136.357 1070.89 168.645 1094.57 168.122 1089.75C167.6 1084.92 171.011 1045.27 170.888 1042.66C170.766 1040.05 162.16 1024.49 162.16 1024.49C163.738 1021.54 165.054 1018.46 166.094 1015.27C166.816 1012.2 170.212 1016.26 172.041 1017.92C173.87 1019.58 176.959 1029.01 177.036 1030.6C177.112 1032.18 176.513 1026.2 179.617 1024.29C182.722 1022.39 176.544 1003.03 174.654 1000.49C172.763 997.955 167.169 969.186 166.862 962.824C166.555 956.462 153.554 936.899 153.477 935.162C153.4 933.426 152.601 898.956 154.015 891.887C155.429 884.818 164.649 846.69 168.199 821.072C171.749 795.454 191.02 746.908 193.909 740.392C196.798 733.876 200.056 698.546 201.47 689.156C202.884 679.766 219.911 639.826 220.711 638.904C221.51 637.982 213.334 732.508 213.334 732.508C213.334 732.508 213.98 817.031 213.595 857.294C213.211 897.557 221.279 978.699 221.771 990.148C222.263 1001.6 235.725 1108.48 235.187 1115.43C234.649 1122.37 232.113 1177.51 233.911 1197.66C235.709 1217.8 245.191 1262.76 245.545 1270.15C245.898 1277.54 251.615 1296.63 251.861 1319.98C252.107 1343.34 255.749 1388.79 254.258 1394.12C252.768 1399.45 260.667 1488.23 268.366 1530.29C276.065 1572.35 266.829 1607.02 268.366 1620.09C269.903 1633.15 249.571 1659.46 249.571 1659.46C249.571 1659.46 226.934 1689.49 227.226 1695.6C227.518 1701.72 227.226 1712.23 214.563 1716.04C201.901 1719.85 200.917 1743.7 222.124 1745.79C243.332 1747.88 288.82 1740.97 295.121 1739.08C301.422 1737.19 339.933 1725.58 333.771 1716.26C327.608 1706.93 347.002 1697.08 356.254 1690.25C365.505 1683.43 356.131 1654.68 349.569 1636.25C343.007 1617.83 341.347 1568.33 341.378 1532.95C341.408 1497.57 346.295 1441.79 348.985 1398.51C351.674 1355.24 340.932 1312.92 340.41 1295.64C339.887 1278.37 338.734 1254.73 339.103 1244.11C339.472 1233.5 356.638 1116.96 358.712 1105.5C360.787 1094.03 384.223 1118.84 390.001 1139.31C395.779 1159.78 418.539 1233.28 420.567 1242.27C422.596 1251.26 423.641 1272.08 429.066 1289.13C434.491 1306.17 432.385 1337.57 436.75 1373.3C441.114 1409.03 453.731 1469.01 459.14 1514.92C464.55 1560.84 466.332 1612.51 462.89 1628.52C459.448 1644.54 456.174 1667.4 461.584 1670.64C466.993 1673.89 477.628 1691.65 461.983 1709.96C446.339 1728.26 479.226 1734.25 482.761 1734.96C486.295 1735.67 539.329 1735.73 567.498 1732.61C595.667 1729.49 583.942 1696.95 576.872 1695.54C569.803 1694.13 567.283 1675.1 566.745 1663.96C566.207 1652.82 549.241 1623.34 549.241 1623.34C549.241 1623.34 535.257 1602.35 535.687 1578.38C536.117 1554.4 532.122 1502.35 534.565 1465.58C537.009 1428.8 530.078 1360.16 526.436 1350.75C522.793 1341.35 519.505 1303.11 517.123 1287.05C514.741 1270.99 516.155 1245.8 515.801 1238.41C515.448 1231.02 517.707 1172.52 518.014 1145.79C518.321 1119.07 504.675 1033.72 502.462 1021.11C500.249 1008.51 491.536 896.374 491.013 885.647C490.491 874.921 489.891 793.441 488.462 766.947C487.033 740.453 489.031 659.373 489.031 659.373C489.031 659.373 479.549 608.199 481.224 609.705C482.899 611.211 503.138 655.178 509.285 667.81C515.432 680.443 521.856 711.685 523.777 715.097C525.698 718.508 540.313 751.718 544.093 775.538C547.874 799.358 566.146 844.785 569.972 857.371C573.799 869.957 577.518 914.354 577.656 917.551C577.794 920.747 570.802 935.485 570.971 938.989C571.14 942.493 566.468 963.101 563.518 968.018C560.567 972.936 552.453 1003.1 554.297 1006.21C556.141 1009.31 552.591 1030.64 552.561 1029.77C552.53 1028.89 557.048 1023.42 560.075 1020.08C563.103 1016.75 564.578 1011.02 566.146 1010.37C567.713 1009.73 573.906 1005.98 573.906 1005.98C573.906 1005.98 572.861 1027.09 573.092 1031.86C573.322 1036.62 574.229 1063.82 570.326 1078.94C566.422 1094.06 593.531 1071.07 593.101 1062.35C592.67 1053.62 633.518 991.915 633.057 981.742C632.596 971.568 630.69 951.175 629.153 935.362C627.617 919.549 616.997 840.651 615 835.472C613.002 830.293 602.337 739.746 597.603 710.994C592.87 682.241 578.225 629.821 574.567 619.971Z" stroke="#708FFF" stroke-width="1.56" stroke-miterlimit="10" stroke-linecap="round" stroke-dasharray="1.75 2.25"/>
<path d="M554.45 617.881C551.131 607.784 548.918 570.763 548.918 570.763C548.918 569.765 541.557 497.875 520.073 448.513C498.589 399.152 456.205 400.074 442.558 396.601C403.586 386.689 381.518 348.669 381.379 345.888C381.241 343.106 377.891 327.201 377.153 311.971C376.615 300.999 380.964 290.779 383.454 283.572C385.944 276.364 388.064 249.394 384.776 248.964C385.682 246.92 388.74 227.449 388.495 222.424C388.249 217.399 388.495 197.974 372.174 181.746C355.27 155.528 332.218 155.912 321.215 154.698C310.212 153.484 295.92 157.941 287.79 163.919C279.661 169.897 264.308 174.676 254.596 201.324C244.192 213.833 243.639 228.279 243.977 235.348C244.315 242.417 250.908 261.473 252.46 264.224C250.923 266.13 255.948 289.827 258.192 294.713C263.035 305.58 265.913 317.219 266.69 329.091C267.582 347.655 263.432 358.443 263.524 360.441C263.617 362.439 241.456 397.6 210.998 410.847C197.259 416.825 170.458 417.225 150.372 457.304C130.287 497.383 130.164 565.446 130.225 566.86C130.225 566.86 132.346 602.206 130.917 613.793C129.487 625.38 123.771 681.549 120.989 703.356C118.207 725.163 110.139 801.709 107.727 810.407C105.314 819.105 102.025 909.882 101.472 927.678C100.919 945.474 100.412 964.438 101.057 977.746C101.703 991.055 130.824 1043.61 131.516 1057.78C132.207 1071.95 163.158 1094.46 161.667 1087.79C160.177 1081.12 162.513 1044.76 162.374 1041.8C162.236 1038.83 154.921 1022.48 154.921 1022.48C156.748 1020.55 158.323 1018.4 159.608 1016.07C160.499 1013.77 163.542 1018.04 165.632 1019.95C167.722 1021.85 171.134 1030.2 171.195 1031.61C171.257 1033.02 169.659 1024.19 172.409 1022.07C175.16 1019.95 168.137 999.015 165.986 996.111C163.834 993.206 158.148 966.789 157.872 961.134C157.595 955.478 145.793 937.437 145.7 935.439C145.608 933.441 144.87 897.711 146.484 889.628C148.098 881.544 158.041 842.449 161.099 817.707C164.157 792.965 181.446 748.23 183.997 742.405C186.548 736.581 189.76 702.757 191.85 692.814C193.94 682.871 210.291 642.638 211.305 641.578C212.319 640.517 204.974 724.563 204.974 724.563C204.974 724.563 207.432 806.519 207.356 843.156C207.279 879.793 215.039 959.243 215.5 970.308C215.961 981.373 226.919 1087.1 226.258 1095.06C225.597 1103.02 222.554 1163.19 224.567 1184.2C226.581 1205.2 235.509 1251.81 235.863 1259.04C236.216 1266.26 241.426 1286.11 241.472 1307.57C241.518 1329.02 244.422 1372.11 242.717 1378.17C241.011 1384.22 247.112 1467.22 254.304 1507.26C261.496 1547.29 254.534 1584.72 256.256 1599.65C257.977 1614.57 239.735 1639.48 239.735 1639.48C239.735 1639.48 219.296 1669.08 219.634 1676.05C219.972 1683.03 219.557 1695.06 208.37 1698.45C197.182 1701.83 194.662 1727.04 216.837 1728.81C239.013 1730.58 284.993 1724.09 290.602 1722.4C296.212 1720.71 332.633 1709.86 324.411 1699.26C316.19 1688.66 333.048 1677.25 341.316 1671.18C349.584 1665.11 341.147 1638.23 335.046 1620.76C328.945 1603.29 326.993 1554.42 327.224 1517.63C327.454 1480.84 332.587 1425.21 334.907 1384.31C337.228 1343.42 327.777 1304.23 328.115 1287.28C328.453 1270.33 327.362 1247.77 327.884 1237.66C328.407 1227.55 344.881 1121.68 347.248 1108.57C349.614 1095.46 372.067 1109.43 377.199 1127.63C382.332 1145.82 405.66 1225.81 407.535 1234.94C409.41 1244.07 410.409 1265 414.896 1281.7C419.384 1298.41 416.433 1331.5 421.151 1367.89C425.869 1404.28 437.794 1462 442.666 1504.81C447.537 1547.63 449.581 1597.74 445.939 1614.02C442.297 1630.29 438.455 1653.97 444.633 1657.69C450.811 1661.41 463.074 1676.82 449.904 1693.04C436.734 1709.25 470.159 1715.5 474.2 1716.3C478.242 1717.1 528.74 1717.67 554.865 1714.4C580.99 1711.12 571.186 1681.06 563.102 1679.47C555.019 1677.87 552.791 1660.93 552.345 1651.04C551.899 1641.14 533.643 1612.62 533.643 1612.62C533.643 1612.62 518.198 1591.42 518.582 1570.12C518.966 1548.83 513.357 1501.54 515.985 1464.38C518.613 1427.22 513.065 1355.95 509.838 1347.59C506.611 1339.23 503.875 1300.33 501.632 1283.18C499.388 1266.03 501.247 1242.5 500.894 1235.25C500.54 1227.99 503.322 1173.3 503.537 1148.44C503.752 1123.57 491.504 1046.21 489.537 1034.96C487.57 1023.71 481.377 914.892 480.87 904.243C480.363 893.593 479.917 813.788 477.95 785.204C475.983 756.62 476.044 676.632 476.044 676.632C476.044 676.632 465.287 618.142 466.701 619.494C468.115 620.847 488.216 662.678 493.379 674.357C498.543 686.037 504.966 717.387 507.21 721.229C509.454 725.071 525.513 760.278 529.662 783.852C533.812 807.426 550.639 850.24 554.02 861.428C557.401 872.616 560.828 914.078 560.966 916.921C561.105 919.764 553.436 935.362 553.636 939.373C553.836 943.384 549.625 965.252 547.012 969.632C544.4 974.012 537.208 1001.49 539.329 1004.21C541.449 1006.93 538.652 1024.77 538.606 1023.79C538.56 1022.8 542.51 1016.6 545.214 1013.63C547.919 1010.66 549.656 1005.32 551.07 1005.41C553.451 1005.06 555.797 1004.49 558.077 1003.72C558.077 1003.72 555.864 1023.43 556.079 1027.68C556.295 1031.92 558.431 1060.92 555.372 1073.67C552.314 1086.43 579.377 1063.18 578.9 1053.2C578.424 1043.23 614.246 984.17 613.77 973.29C613.293 962.409 611.296 942.8 609.528 926.787C607.761 910.774 597.019 830.232 594.729 824.346C592.439 818.46 580.729 733.169 576.042 706.706C571.355 680.243 557.785 628.008 554.45 617.881Z" stroke="#8080FF" stroke-width="1.5" stroke-miterlimit="10" stroke-linecap="round" stroke-dasharray="2 2"/>
<path d="M534.365 616.206C531.383 605.879 529.539 570.226 529.539 570.226C529.539 569.104 522.547 500.226 500.694 455.936C478.841 411.646 442.865 412.906 429.296 409.187C393.766 399.291 370.899 363.976 370.899 361.548C370.899 359.119 366.857 345.488 366.088 329.429C365.489 317.135 369.669 305.625 371.851 299.308C374.034 292.992 376.293 267.636 373.649 266.744C374.664 264.439 378.26 245.337 377.968 239.728C377.676 234.119 377.215 216.876 362.861 202.676C347.924 177.197 327.946 176.198 317.972 173.708C307.999 171.219 293.922 172.894 285.024 177.396C276.126 181.899 258.407 185.587 247.311 212.035C235.617 226.097 236.032 241.956 236.339 248.149C236.646 254.343 242.486 272.999 243.869 275.412C241.81 276.872 246.589 301.076 249.094 306.593C251.599 312.11 256.932 324.25 257.592 337.881C258.407 354.878 255.18 367.295 255.287 369.539C255.395 371.782 235.033 407.789 202.684 420.974C189.406 426.384 157.764 427.767 139.338 470.873C120.912 513.98 120.697 582.043 120.758 583.273C120.758 583.273 122.572 618.449 120.851 629.376C119.129 640.302 112.614 694.258 110.093 717.341C107.573 740.423 101.334 818.675 99.2283 826.236C97.1229 833.797 94.034 919.288 93.6037 936.115C93.1734 952.943 92.8507 971.768 93.4347 983.924C94.0186 996.08 126.813 1048.47 127.413 1060.84C128.012 1073.21 157.687 1094.53 155.259 1085.97C152.831 1077.41 154.06 1044.47 153.907 1041.06C153.753 1037.65 147.759 1020.64 147.759 1020.64C147.759 1020.64 152.155 1018.49 153.215 1016.96C154.275 1015.44 156.965 1019.93 159.362 1022.07C162.069 1025.19 164.155 1028.81 165.509 1032.72C165.509 1033.96 162.989 1022.28 165.356 1019.92C167.722 1017.55 159.885 995.081 157.472 991.823C155.059 988.565 149.281 964.484 149.035 959.551C148.789 954.618 138.185 938.036 138.078 935.839C137.97 933.641 137.309 896.574 139.107 887.476C140.905 878.379 151.586 838.3 154.152 814.434C156.719 790.568 172.01 749.628 174.238 744.557C176.466 739.485 179.647 707.09 182.398 696.594C185.149 686.098 200.993 645.573 202.069 644.344C203.145 643.115 196.767 716.726 196.767 716.726C196.767 716.726 201.039 796.1 201.27 829.141C201.5 862.181 208.954 939.926 209.399 950.545C209.845 961.165 218.267 1065.8 217.575 1074.76C216.883 1083.72 213.287 1148.93 215.47 1170.78C217.652 1192.63 226.073 1240.89 226.411 1247.97C226.749 1255.06 231.467 1275.63 231.298 1295.18C231.129 1314.73 233.311 1355.41 231.406 1362.26C229.5 1369.12 233.803 1446.26 240.488 1484.27C247.173 1522.27 242.455 1562.47 244.392 1579.25C246.328 1596.03 230.207 1619.59 230.207 1619.59C230.207 1619.59 211.981 1648.79 212.365 1656.61C212.75 1664.44 212.273 1677.99 202.484 1680.96C192.695 1683.92 188.653 1710.57 211.858 1711.94C235.063 1713.31 281.474 1707.33 286.361 1705.79C291.248 1704.25 325.61 1694.19 315.252 1682.32C304.894 1670.46 319.278 1657.49 326.471 1652.17C333.663 1646.86 326.24 1621.85 320.6 1605.32C314.96 1588.78 312.732 1540.56 313.131 1502.35C313.531 1464.15 318.956 1408.61 320.815 1370.19C322.675 1331.77 314.668 1295.61 315.821 1278.98C316.973 1262.36 315.99 1240.87 316.651 1231.27C317.311 1221.66 333.109 1126.46 335.783 1111.71C338.457 1096.95 359.895 1100.09 364.398 1116.01C368.901 1131.93 392.905 1218.57 394.595 1227.84C396.286 1237.11 397.3 1258.13 400.743 1274.53C404.185 1290.92 400.42 1325.69 405.583 1362.72C410.747 1399.76 421.889 1455.24 426.299 1494.88C430.71 1534.53 432.938 1583.17 429.111 1599.69C425.285 1616.21 420.859 1640.75 427.805 1644.92C434.751 1649.08 448.782 1662.18 437.948 1676.36C427.114 1690.55 461.214 1697 465.763 1697.88C470.312 1698.75 518.275 1699.84 542.356 1696.42C566.437 1692.99 558.461 1665.6 549.44 1663.79C540.42 1661.98 538.391 1647.18 537.976 1638.51C537.561 1629.84 517.998 1602.27 517.998 1602.27C517.998 1602.27 501.094 1580.9 501.432 1562.32C501.77 1543.74 494.547 1501.15 497.359 1463.63C500.172 1426.1 496.007 1352.18 493.164 1344.87C490.321 1337.55 488.185 1298.01 486.064 1279.75C483.943 1261.5 486.264 1239.63 485.91 1232.54C485.557 1225.46 488.846 1174.56 488.984 1151.54C489.122 1128.52 478.303 1059.1 476.582 1049.25C474.861 1039.4 471.203 933.856 470.681 923.237C470.158 912.618 469.882 834.581 467.392 803.861C464.903 773.141 463.028 694.228 463.028 694.228C463.028 694.228 450.887 628.438 452.132 629.545C453.377 630.651 473.048 670.469 477.397 681.196C481.746 691.922 488 723.288 490.475 727.668C492.949 732.047 510.606 769.16 515.063 792.473C519.52 815.786 534.933 855.988 537.884 865.777C540.835 875.566 543.939 914.093 544.031 916.567C544.123 919.042 535.825 935.547 536.055 940.034C536.286 944.521 532.536 967.696 530.246 971.507C527.956 975.318 521.702 1000.12 524.099 1002.49C526.496 1004.85 524.437 1019.19 524.391 1018.07C524.345 1016.95 527.726 1010.03 530.077 1007.44C532.428 1004.84 534.442 999.891 535.732 1000.72C537.023 1001.55 541.987 1001.74 541.987 1001.74C541.987 1001.74 538.606 1020.05 538.791 1023.77C538.975 1027.49 542.356 1058.29 540.143 1068.68C537.93 1079.07 564.962 1055.57 564.424 1044.33C563.886 1033.1 594.791 976.717 594.237 965.252C593.684 953.788 591.64 934.84 589.735 918.596C587.829 902.352 576.872 820.243 574.367 813.573C571.862 806.904 558.999 726.945 554.389 702.803C549.779 678.66 537.346 626.471 534.365 616.206Z" stroke="#8F70FF" stroke-width="1.44" stroke-miterlimit="10" stroke-linecap="round" stroke-dasharray="2.25 1.75"/>
<path d="M514.264 615.253C511.621 604.68 510.161 570.41 510.161 570.41C510.161 569.166 503.538 503.3 481.316 464.066C459.094 424.832 429.542 426.584 416.049 422.481C383.946 412.692 360.449 380.005 360.341 377.915C360.234 375.825 355.731 364.483 354.932 347.579C354.271 333.855 358.282 321.162 360.157 315.752C362.032 310.343 364.445 286.554 362.432 285.232C363.553 282.681 367.657 263.963 367.349 257.724C367.042 251.484 365.812 236.47 353.518 224.299C340.625 199.711 323.674 197.406 314.792 193.564C305.909 189.722 291.971 188.677 282.304 191.781C272.638 194.885 252.568 197.421 240.089 223.669C227.088 239.298 228.487 256.556 228.748 261.858C229.009 267.16 234.142 285.432 235.31 287.506C232.667 288.505 237.246 313.247 240.043 319.364C242.84 325.48 247.973 335.869 248.541 347.548C249.294 362.916 247.005 377.023 247.005 379.513C247.005 382.002 228.563 418.962 194.309 431.963C181.492 436.819 145.025 439.155 128.228 485.304C111.431 531.453 111.17 599.501 111.216 600.562C111.216 600.562 112.752 635.569 110.724 645.804C108.695 656.039 101.411 707.813 99.2135 732.171C97.016 756.529 92.544 836.425 90.7306 842.895C88.9172 849.365 86.0281 929.523 85.7361 945.367C85.4441 961.211 85.2751 979.913 85.7361 990.901C86.1971 1001.89 122.741 1054.09 123.249 1064.67C123.756 1075.24 152.14 1095.4 148.759 1085.03C145.378 1074.66 145.516 1044.96 145.332 1041.22C145.148 1037.47 140.414 1019.7 140.414 1019.7C140.414 1019.7 145.409 1019.52 146.561 1018.76C147.714 1018.01 150.127 1022.71 152.708 1025.09C155.29 1027.48 159.378 1033.65 159.424 1034.71C159.47 1035.78 155.905 1021.27 157.887 1018.67C159.87 1016.07 151.233 992.039 148.544 988.427C145.855 984.816 139.999 963.07 139.8 958.814C139.6 954.557 130.164 939.573 130.057 937.068C129.949 934.563 129.334 896.267 131.347 886.17C133.361 876.074 144.763 835.057 146.838 812.006C148.913 788.954 162.206 751.888 164.127 747.538C166.048 743.189 169.183 712.193 172.579 701.22C175.975 690.248 191.45 649.354 192.711 647.986C193.971 646.619 188.438 709.719 188.438 709.719C188.438 709.719 194.585 786.557 195.062 815.94C195.538 845.323 202.669 921.424 203.161 931.72C203.652 942.017 209.477 1045.44 208.724 1055.41C207.971 1065.39 203.852 1135.62 206.203 1158.38C208.555 1181.14 216.469 1230.98 216.807 1237.91C217.145 1244.84 221.418 1266.2 220.972 1283.81C220.526 1301.42 222.048 1339.75 219.927 1347.36C217.806 1354.96 220.311 1426.28 226.489 1462.27C232.667 1498.27 230.177 1541.2 232.329 1559.86C234.48 1578.52 220.372 1600.78 220.372 1600.78C220.372 1600.78 204.359 1629.52 204.79 1638.25C205.22 1646.98 204.682 1662.01 196.291 1664.54C187.901 1667.08 182.46 1695.17 206.572 1696.13C230.684 1697.08 277.648 1691.62 281.874 1690.36C286.1 1689.1 318.342 1679.71 305.894 1666.56C293.446 1653.4 305.325 1638.9 311.488 1634.29C317.65 1629.68 311.211 1606.62 306.017 1591.01C300.822 1575.4 298.333 1527.83 298.917 1488.22C299.501 1448.6 305.202 1393.29 306.601 1357.11C307.999 1320.94 301.314 1288.05 303.404 1271.75C305.494 1255.44 304.495 1235.03 305.31 1225.92C306.124 1216.81 321.231 1132.28 324.197 1115.89C327.163 1099.49 347.617 1091.79 351.459 1105.44C355.301 1119.08 379.951 1212.3 381.472 1221.68C382.993 1231.05 384.008 1252.2 386.543 1268.27C389.079 1284.35 384.407 1320.78 389.97 1358.47C395.534 1396.15 405.937 1449.4 409.841 1486.02C413.744 1522.64 416.203 1569.66 412.192 1586.43C408.181 1603.2 403.171 1628.58 410.886 1633.21C418.6 1637.84 434.322 1648.58 425.885 1660.7C417.448 1672.83 452.179 1679.51 457.219 1680.53C462.26 1681.54 507.702 1683.09 529.74 1679.53C551.777 1675.96 545.799 1650.85 535.702 1648.79C525.606 1646.73 523.931 1634.09 523.562 1626.66C523.193 1619.24 502.293 1592.65 502.293 1592.65C502.293 1592.65 483.929 1571.14 484.221 1555.11C484.513 1539.08 475.691 1501.32 478.673 1463.47C481.654 1425.62 478.888 1349.03 476.46 1342.76C474.032 1336.49 472.464 1296.29 470.451 1276.94C468.438 1257.59 471.219 1237.37 470.897 1230.45C470.574 1223.54 474.354 1176.42 474.385 1155.27C474.416 1134.13 465.072 1072.63 463.628 1064.17C462.183 1055.72 461.015 953.527 460.554 942.97C460.093 932.412 459.924 856.127 456.897 823.255C453.869 790.384 450.058 712.608 450.058 712.608C450.058 712.608 436.519 639.504 437.626 640.502C438.732 641.501 458.003 679.183 461.492 688.957C464.98 698.731 471.112 730.142 473.786 735.06C476.46 739.978 495.731 778.95 500.587 802.048C505.443 825.145 519.351 862.704 521.887 871.079C524.422 879.455 527.204 915.062 527.312 917.182C527.419 919.303 518.444 936.684 518.675 941.679C518.905 946.673 515.601 971.092 513.68 974.381C511.759 977.67 506.396 999.769 508.993 1001.77C511.59 1003.76 510.361 1014.6 510.3 1013.35C511.17 1009.38 512.793 1005.61 515.079 1002.24C517.092 1000.01 519.382 995.466 520.519 997.033C521.656 998.601 526.021 1000.75 526.021 1000.75C526.021 1000.75 521.41 1017.66 521.626 1020.87C521.841 1024.08 526.42 1056.66 525.052 1064.68C523.685 1072.7 550.778 1048.88 550.117 1036.41C549.456 1023.93 575.459 970.186 574.875 958.03C574.291 945.874 572.155 927.709 570.111 911.235C568.067 894.761 556.879 811.007 554.021 803.661C551.162 796.316 537.362 721.582 532.736 699.776C528.111 677.969 516.969 625.811 514.264 615.253Z" stroke="#9F60FF" stroke-width="1.38" stroke-miterlimit="10" stroke-linecap="round" stroke-dasharray="2.5 1.5"/>
<path d="M494.194 615.099C491.904 604.342 490.798 571.394 490.798 571.394C490.798 570.026 484.543 507.172 461.952 473.04C439.362 438.909 416.203 441.091 402.802 436.619C374.111 427.03 349.922 396.863 349.83 395.126C349.737 393.39 344.697 384.369 343.836 366.588C343.419 355.223 344.979 343.872 348.446 333.041C349.983 328.538 352.565 306.362 351.197 304.564C352.442 301.752 357.052 283.434 356.714 276.58C356.376 269.726 354.302 256.925 344.051 246.766C333.14 222.9 319.279 219.35 311.441 214.141C303.604 208.931 289.926 205.197 279.415 206.887C268.903 208.578 246.559 209.961 232.682 236.086C218.39 253.282 220.756 271.939 220.971 276.349C221.187 280.76 225.582 298.648 226.565 300.384C223.353 300.938 227.718 326.187 230.791 332.918C233.865 339.649 238.813 348.285 239.274 357.998C239.951 371.829 238.537 387.535 238.66 390.27C238.783 393.005 222.139 430.994 185.887 443.75C173.593 448.083 132.223 451.433 117.086 500.533C101.949 549.633 101.595 617.773 101.718 618.649C101.718 618.649 102.917 653.503 100.627 663.062C98.3371 672.621 90.223 722.197 88.3327 747.846C86.4425 773.494 83.7224 855.02 82.1857 860.414C80.6489 865.808 77.9903 940.618 77.8212 955.479C77.6522 970.339 77.6676 988.934 78.144 998.754C78.6204 1008.57 118.761 1060.61 119.191 1069.45C119.621 1078.28 146.699 1097.25 142.381 1085C138.063 1072.75 137.094 1046.39 136.895 1042.29C136.695 1038.19 133.237 1019.67 133.237 1019.67C135.514 1020.43 137.84 1021.03 140.199 1021.47C141.582 1021.47 143.58 1026.4 146.469 1029.01C149.358 1031.63 153.722 1036.7 153.768 1037.62C153.815 1038.54 149.25 1021.16 150.879 1018.32C152.508 1015.47 143.026 989.902 140.122 985.922C137.217 981.942 131.224 962.532 131.055 958.998C130.886 955.463 122.649 941.97 122.511 939.235C122.372 936.5 121.834 896.897 124.047 885.801C126.26 874.706 138.385 832.721 139.968 810.5C141.551 788.278 152.846 755.068 154.445 751.442C156.043 747.815 159.147 718.355 163.189 706.752C167.231 695.15 181.968 654.041 183.274 652.597C184.581 651.152 180.032 703.694 180.032 703.694C180.032 703.694 187.931 777.874 188.776 803.723C189.621 829.571 196.368 903.905 196.844 913.817C197.321 923.729 200.625 1026 199.779 1036.99C198.934 1047.98 194.324 1123.23 196.844 1146.79C199.364 1170.35 206.772 1221.89 207.094 1228.67C207.417 1235.45 211.151 1257.58 210.537 1273.24C209.922 1288.9 210.675 1324.89 208.339 1333.26C206.003 1341.64 206.726 1407.14 212.396 1441.1C218.067 1475.06 217.806 1520.76 220.172 1541.28C222.539 1561.8 210.644 1582.63 210.644 1582.63C210.644 1582.63 196.813 1610.94 197.305 1620.55C197.797 1630.15 197.198 1646.67 190.205 1648.79C183.213 1650.91 176.374 1680.43 201.393 1680.99C226.412 1681.54 273.929 1676.59 277.417 1675.53C280.905 1674.47 311.103 1665.84 296.55 1651.4C281.997 1636.97 291.386 1620.92 296.55 1617.12C301.713 1613.32 296.227 1592.04 291.478 1577.41C286.73 1562.78 283.979 1515.82 284.747 1474.78C285.516 1433.75 291.494 1378.6 292.523 1344.8C293.553 1311.01 288.159 1281.24 291.125 1265.26C294.091 1249.28 293.138 1229.92 294.106 1221.34C295.074 1212.76 309.474 1138.88 312.747 1120.84C316.021 1102.79 335.492 1084.18 338.703 1095.56C341.915 1106.93 367.195 1206.71 368.532 1216.19C369.869 1225.67 370.899 1246.93 372.466 1262.71C374.034 1278.49 368.501 1316.57 374.479 1354.92C380.457 1393.26 390.108 1444.25 393.505 1477.73C396.901 1511.22 399.652 1556.74 395.395 1573.75C391.138 1590.76 385.59 1616.98 394.089 1622.08C402.587 1627.19 419.983 1635.59 413.959 1645.64C407.935 1655.69 443.204 1662.64 448.813 1663.79C454.422 1664.94 497.267 1666.96 517.261 1663.24C537.254 1659.52 533.197 1636.88 522.086 1634.67C510.975 1632.46 509.577 1621.88 509.285 1615.69C508.993 1609.5 486.725 1583.88 486.725 1583.88C486.725 1583.88 466.901 1562.13 467.147 1548.81C467.392 1535.49 457.035 1502.43 460.108 1464.21C463.182 1425.99 461.891 1346.76 459.862 1341.53C457.834 1336.31 456.789 1295.43 454.96 1275C453.131 1254.58 456.312 1236 455.99 1229.22C455.667 1222.45 459.955 1179.14 459.908 1159.85C459.862 1140.57 451.948 1086.98 450.688 1079.94C449.428 1072.9 450.841 973.904 450.334 963.485C449.827 953.066 449.858 878.44 446.308 843.433C442.758 808.425 436.995 731.71 436.995 731.71C436.995 731.71 422.104 651.29 423.026 652.136C423.948 652.981 442.881 688.557 445.478 697.393C448.075 706.23 454.13 737.688 457.127 743.051C460.124 748.414 480.947 789.369 486.233 812.221C491.52 835.073 503.891 870.003 505.996 876.996C508.102 883.988 510.606 916.644 510.606 918.412C510.606 920.179 501.063 938.39 501.386 943.922C501.709 949.454 498.866 975.103 497.221 977.839C495.577 980.574 491.197 999.983 494.025 1001.63C496.852 1003.27 496.407 1010.6 496.345 1009.22C496.284 1007.84 498.527 999.492 500.218 997.632C501.908 995.773 504.444 991.623 505.443 993.929C506.781 996.24 508.374 998.395 510.192 1000.35C510.192 1000.35 504.459 1015.89 504.598 1018.53C504.736 1021.18 510.606 1055.6 510.084 1061.24C509.561 1066.88 536.455 1042.94 535.794 1029.11C535.133 1015.27 556.11 964.3 555.496 951.545C554.881 938.789 552.653 921.301 550.47 904.596C548.288 887.891 536.885 802.524 533.735 794.425C530.584 786.326 515.739 716.88 511.16 697.424C506.58 677.969 496.499 625.903 494.194 615.099Z" stroke="#AF50FF" stroke-width="1.31" stroke-miterlimit="10" stroke-linecap="round" stroke-dasharray="2.75 1.25"/>
<path d="M474.17 615.437C472.218 604.403 471.48 572.869 471.48 572.869C471.48 571.332 465.594 511.521 442.635 482.43C419.676 453.339 402.91 456.043 389.616 451.157C364.306 441.936 339.456 414.136 339.395 412.737C339.333 411.339 333.709 404.577 332.802 385.997C332.29 374.101 333.686 362.199 336.936 350.744C338.181 347.133 340.901 326.571 340.163 324.312C341.516 321.238 346.648 303.319 346.31 295.835C345.811 286.021 341.739 276.729 334.861 269.71C325.948 246.659 315.145 241.772 308.367 235.225C301.59 228.678 288.021 222.224 276.818 222.516C265.615 222.808 240.842 223.054 225.582 248.887C209.983 267.651 213.287 287.69 213.503 291.24C213.718 294.79 217.36 312.279 218.113 313.662C214.332 313.769 218.497 339.526 221.847 346.871C225.197 354.217 229.961 361.071 230.33 368.862C230.93 381.157 230.422 398.461 230.576 401.457C230.73 404.454 215.961 443.58 177.727 455.951C165.878 459.793 119.683 463.973 106.19 516.177C92.6972 568.381 92.2822 636.445 92.3591 637.152C92.3591 637.152 93.2504 671.837 90.6686 680.719C88.0868 689.602 79.1736 736.98 77.56 763.905C75.9464 790.829 75.0858 873.983 73.8717 878.302C72.6577 882.62 70.1835 952.067 70.1527 965.898C70.122 979.729 70.291 998.17 70.7213 1006.9C71.1516 1015.63 114.95 1067.42 115.288 1074.52C115.626 1081.62 141.413 1099.37 136.157 1085.27C130.901 1071.18 128.827 1048.15 128.611 1043.66C128.396 1039.17 126.153 1019.88 126.153 1019.88C126.153 1019.88 132.3 1023.62 133.836 1024.49C135.373 1025.37 137.048 1030.43 140.183 1033.27C143.318 1036.11 148.021 1040.15 148.052 1040.86C148.082 1041.57 142.535 1021.37 143.795 1018.32C145.055 1015.26 134.759 988.119 131.501 983.77C128.243 979.421 122.28 962.363 122.111 959.535C121.942 956.708 114.934 944.736 114.781 941.755C114.627 938.774 114.166 897.895 116.579 885.77C118.991 873.645 131.839 830.723 132.93 809.362C134.021 788.001 143.318 758.649 144.609 755.714C145.9 752.778 148.958 724.809 153.661 712.684C158.363 700.559 172.532 659.128 173.962 657.545C175.391 655.962 171.749 698.008 171.749 698.008C171.749 698.008 181.461 769.591 182.614 791.843C183.766 814.095 190.205 886.708 190.666 896.236C191.127 905.764 191.896 1006.88 190.974 1018.87C190.052 1030.86 184.934 1111.08 187.608 1135.57C190.282 1160.07 197.32 1213.09 197.597 1219.66C197.874 1226.24 201.147 1249.17 200.317 1262.94C199.487 1276.71 199.533 1310.32 196.967 1319.43C194.401 1328.54 193.34 1388.25 198.504 1420.18C203.667 1452.12 205.634 1500.59 208.216 1522.96C210.798 1545.34 201.024 1564.82 201.024 1564.82C201.024 1564.82 189.437 1592.68 189.944 1603.24C190.451 1613.8 189.821 1631.75 184.227 1633.44C178.633 1635.13 170.258 1666.08 196.322 1666.25C222.385 1666.42 270.317 1661.96 273.16 1661.12C276.003 1660.27 304.049 1652.37 287.421 1636.67C270.793 1620.96 277.663 1603.33 281.766 1600.31C285.869 1597.28 281.382 1577.84 277.156 1564.16C272.93 1550.48 269.841 1504.15 270.778 1461.71C271.715 1419.26 277.986 1364.27 278.6 1332.83C279.215 1301.39 275.158 1274.77 278.984 1259.07C282.811 1243.36 281.92 1225.15 283.041 1217.05C284.163 1208.95 297.902 1145.76 301.483 1126.08C305.063 1106.39 323.505 1077.04 326.071 1086.12C328.637 1095.2 354.409 1201.64 355.608 1211.21C356.806 1220.79 357.821 1242.21 358.405 1257.64C358.989 1273.07 352.626 1312.85 359.004 1351.86C365.382 1390.86 374.372 1439.59 377.184 1469.97C379.996 1500.36 382.993 1544.34 378.613 1561.6C374.233 1578.85 368.04 1605.92 377.322 1611.46C386.604 1617.01 405.676 1623.11 402.049 1631.09C398.422 1639.06 434.321 1646.26 440.468 1647.46C446.615 1648.65 486.894 1651.2 504.843 1647.35C522.793 1643.49 520.657 1623.31 508.532 1620.9C496.407 1618.49 495.3 1610.02 495.054 1605.07C494.808 1600.12 471.204 1575.53 471.204 1575.53C471.204 1575.53 449.935 1553.59 450.119 1542.94C450.304 1532.29 438.286 1504.09 441.621 1465.41C444.956 1426.73 444.956 1344.94 443.342 1340.76C441.728 1336.58 441.298 1295.09 439.546 1273.54C437.794 1252 441.482 1235.12 441.083 1228.49C440.683 1221.85 445.57 1182.38 445.432 1164.92C445.294 1147.47 438.839 1101.84 437.856 1096.22C436.872 1090.59 440.776 994.789 440.284 984.523C439.792 974.258 439.961 901.276 435.873 864.133C431.785 826.989 424.086 751.349 424.086 751.349C424.086 751.349 407.843 663.615 408.58 664.291C409.318 664.967 427.913 698.469 429.634 706.353C431.355 714.236 437.318 745.755 440.576 751.595C443.834 757.435 466.148 800.341 471.741 822.947C477.335 845.553 488.277 877.856 489.968 883.45C491.658 889.044 493.809 918.796 493.871 920.179C493.932 921.562 483.651 940.725 483.943 946.703C484.235 952.681 481.915 979.652 480.593 981.834C479.272 984.016 475.829 1000.75 478.903 1002.03C481.976 1003.3 482.314 1007.13 482.238 1005.64C482.161 1004.15 483.851 995.065 485.204 993.575C486.556 992.084 489.368 988.319 490.229 991.362C491.35 994.493 492.685 997.543 494.224 1000.49C494.224 1000.49 487.324 1014.63 487.432 1016.75C487.539 1018.87 494.655 1055.08 494.977 1058.36C495.3 1061.65 522.224 1037.4 521.579 1022.44C520.933 1007.47 536.947 959.028 536.224 945.597C535.502 932.165 533.197 915.476 530.8 898.479C528.402 881.483 516.861 794.563 513.419 785.727C509.976 776.89 494.101 712.73 489.553 695.595C485.004 678.46 476.121 626.471 474.17 615.437Z" stroke="#BF40FF" stroke-width="1.25" stroke-miterlimit="10" stroke-linecap="round" stroke-dasharray="3 1"/>
<path d="M454.177 616.16C452.64 604.895 452.209 574.667 452.209 574.667C452.133 573.038 446.692 516.27 423.364 492.189C400.036 468.107 389.632 471.427 376.462 466.063C354.486 457.135 329.022 431.763 328.976 430.718C328.93 429.673 322.737 425.201 321.799 405.761C321.215 393.332 322.426 380.884 325.395 368.801C327.135 360.757 328.372 352.611 329.099 344.413C330.636 341.093 336.214 323.559 335.83 315.445C335.276 306.962 331.635 298.975 325.595 292.992C318.664 270.694 310.95 264.531 305.217 256.648C299.485 248.764 286.1 239.574 274.129 238.468C262.157 237.361 235.018 236.455 218.39 262.088C213.294 268.193 209.549 275.31 207.404 282.968C205.258 290.626 204.76 298.652 205.942 306.516C206.807 313.506 208.033 320.446 209.615 327.309C205.251 326.955 209.215 353.249 212.842 361.194C216.469 369.139 221.033 374.241 221.325 380.081C221.848 390.839 222.263 409.741 222.416 412.983C222.57 416.226 209.738 456.643 169.49 468.507C158.118 471.857 107.066 476.928 95.2332 532.175C83.4 587.422 82.939 655.47 82.939 656.008C82.939 656.008 83.5076 690.524 80.6646 698.73C77.8215 706.937 68.0938 752.118 66.8336 780.318C65.5735 808.517 66.4495 893.316 65.5428 896.559C64.6361 899.801 62.3616 963.915 62.4692 976.824C62.5768 989.733 62.9149 1008.07 63.2837 1015.57C63.6525 1023.07 111.123 1074.75 111.385 1080.11C111.646 1085.47 136.004 1101.95 129.795 1085.97C124.941 1072.9 121.71 1059.29 120.175 1045.44C119.944 1040.57 119.038 1020.61 119.038 1020.61C119.038 1020.61 125.815 1026.31 127.521 1027.88C129.226 1029.44 130.594 1034.79 133.944 1037.88C137.295 1040.97 142.366 1043.92 142.381 1044.44C142.397 1044.96 135.85 1021.94 136.757 1018.66C137.663 1015.37 126.522 986.675 123.049 981.957C119.576 977.239 113.444 962.532 113.352 960.442C113.259 958.352 107.389 947.872 107.205 944.629C107.02 941.386 106.636 899.233 109.248 886.109C111.861 872.985 125.431 829.095 126.045 808.579C126.66 788.063 133.96 762.476 134.913 760.324C135.865 758.173 138.908 731.617 144.256 718.908C149.604 706.199 163.235 664.507 164.772 662.801C166.309 661.095 163.589 692.629 163.589 692.629C163.589 692.629 175.114 761.615 176.574 780.225C178.034 798.836 184.151 869.788 184.596 878.932C185.042 888.076 183.275 988.043 182.291 1001.04C181.308 1014.04 175.668 1099.4 178.511 1124.63C181.354 1149.86 187.731 1204.74 188.069 1211.2C188.408 1217.65 191.143 1241.32 190.067 1253.15C188.991 1264.98 188.346 1296.18 185.565 1306.12C182.783 1316.07 179.925 1369.88 184.596 1399.87C189.268 1429.85 193.448 1481.01 196.245 1505.24C197.974 1519.56 196.305 1534.08 191.373 1547.63C191.373 1547.63 181.999 1575.06 182.552 1586.41C183.106 1597.77 182.414 1617.3 178.219 1618.56C174.023 1619.82 164.188 1652.22 191.22 1651.97C218.252 1651.73 266.675 1647.79 268.765 1647.16C270.855 1646.53 296.873 1639.36 278.155 1622.39C259.437 1605.42 263.786 1586.23 266.875 1583.97C269.964 1581.71 266.445 1564.13 262.618 1551.41C258.792 1538.68 255.472 1493.01 256.609 1449.12C257.747 1405.23 264.293 1350.43 264.462 1321.37C264.631 1292.31 261.988 1268.84 266.675 1253.47C271.362 1238.11 270.532 1220.96 271.793 1213.36C273.053 1205.77 286.115 1153.23 289.957 1131.92C293.799 1110.6 311.272 1070.44 313.193 1077.22C315.114 1084 341.654 1196.98 342.653 1206.65C343.999 1222.06 344.547 1237.53 344.297 1253C343.913 1268.12 336.69 1309.58 343.483 1349.23C350.275 1388.88 358.436 1435.29 360.818 1462.64C363.2 1490 366.35 1532.37 361.786 1549.87C357.222 1567.37 350.445 1595.28 360.495 1601.29C370.545 1607.3 391.323 1611.06 390.093 1616.97C388.864 1622.87 425.439 1630.31 432.001 1631.61C438.563 1632.92 476.398 1635.96 492.304 1631.95C508.209 1627.94 507.979 1610.23 494.855 1607.62C481.731 1605.01 480.886 1598.66 480.701 1594.94C480.517 1591.22 455.56 1567.64 455.56 1567.64C455.56 1567.64 432.831 1545.51 432.969 1537.51C433.107 1529.52 419.476 1506.1 422.995 1467.04C426.515 1427.97 427.898 1343.57 426.684 1340.44C425.47 1337.3 425.623 1295.15 423.994 1272.51C422.365 1249.88 426.499 1234.62 426.192 1228.16C425.885 1221.71 431.186 1185.98 430.971 1170.43C430.756 1154.87 425.731 1117.13 424.993 1112.91C424.256 1108.68 430.695 1016.2 430.188 1005.96C429.68 995.727 430.034 924.513 425.408 885.233C420.783 845.953 411.162 771.404 411.162 771.404C411.162 771.404 393.566 676.355 394.12 676.862C394.673 677.369 412.93 708.781 413.759 715.727C414.589 722.673 420.444 754.239 423.994 760.57C427.544 766.902 451.38 811.729 457.342 834.105C463.305 856.48 472.71 886.14 474.047 890.335C475.384 894.53 477.121 921.301 477.121 922.361C477.121 923.422 466.225 943.43 466.548 949.915C466.87 956.401 465.011 984.631 464.027 986.276C463.044 987.92 460.523 1001.97 463.827 1002.87C467.131 1003.78 468.253 1004.1 468.176 1002.49C468.1 1000.87 469.221 991.055 470.236 989.948C471.25 988.842 474.339 985.461 475.046 989.241C475.753 993.022 478.273 1001.09 478.273 1001.09C478.273 1001.09 470.205 1013.83 470.282 1015.43C470.359 1017.03 478.734 1055.03 479.902 1055.95C481.07 1056.87 507.963 1032.35 507.18 1016.13C506.396 999.922 517.461 954.142 516.769 940.111C516.078 926.08 513.696 910.021 511.237 892.855C508.778 875.69 496.929 787.095 493.21 777.597C489.491 768.1 472.556 709.15 468.054 694.351C463.551 679.552 455.79 627.44 454.177 616.16Z" stroke="#CF30FF" stroke-width="1.19" stroke-miterlimit="10" stroke-linecap="round" stroke-dasharray="3.25 0.75"/>
<path d="M434.183 617.174C432.922 605.663 432.922 576.88 432.922 576.88C432.846 575.128 427.774 521.31 404.077 502.346C380.38 483.382 376.292 487.286 363.307 481.4C344.62 472.932 318.587 449.835 318.556 449.128C318.525 448.421 311.763 446.239 310.795 425.969C310.182 412.997 311.215 400 313.869 387.288C314.484 385.49 317.511 368.125 318.033 364.944C319.57 361.363 325.717 344.228 325.364 335.499C324.899 328.267 321.675 321.49 316.358 316.566C311.41 295.051 306.769 287.583 302.097 278.362C297.425 269.141 284.209 257.231 271.485 254.727C258.76 252.222 229.254 250.116 211.228 275.596C205.835 281.947 201.895 289.399 199.681 297.431C197.467 305.463 197.034 313.882 198.411 322.098C198.504 323.866 200.732 340.54 201.116 341.293C196.183 340.494 199.933 367.295 203.852 375.855C207.77 384.415 212.135 387.749 212.319 391.653C212.765 400.781 214.086 421.374 214.255 424.862C214.424 428.351 203.498 470.197 161.237 481.4C150.326 484.289 94.4335 490.236 84.2447 548.511C74.0559 606.785 73.4873 674.849 73.4873 675.202C73.4873 675.202 73.7485 709.564 70.6135 717.094C67.4785 724.625 56.967 767.623 55.9374 797.053C54.9077 826.482 57.6432 912.971 57.0285 915.123C56.4137 917.274 54.3391 976.056 54.5696 987.996C54.8001 999.937 55.3226 1018.15 55.63 1024.46C55.9373 1030.78 107.081 1082.35 107.25 1085.97C107.419 1089.58 130.64 1104.88 123.478 1087.04C116.317 1069.2 112.06 1052.85 111.799 1047.61C111.538 1042.37 111.922 1021.68 111.922 1021.68C111.922 1021.68 119.298 1029.37 121.143 1031.69C122.987 1034.01 123.986 1039.59 127.643 1042.92C131.301 1046.26 136.649 1048.11 136.664 1048.47C136.679 1048.82 129.134 1022.96 129.672 1019.42C130.209 1015.89 118.238 985.614 114.504 980.589C110.769 975.564 104.561 963.147 104.484 961.733C104.407 960.319 99.7507 951.39 99.5816 947.902C99.4126 944.413 99.0591 900.969 101.887 886.831C104.714 872.692 118.945 827.788 119.129 808.102C119.462 793.631 121.499 779.25 125.2 765.257C125.845 763.812 128.842 738.732 134.835 725.485C140.829 712.238 153.906 670.162 155.566 668.394C157.226 666.627 155.413 687.573 155.413 687.573C155.413 687.573 168.752 753.962 170.519 769.022C172.286 784.082 178.095 853.283 178.51 862.043C178.925 870.802 174.653 969.617 173.577 983.617C172.501 997.616 166.37 1087.96 169.382 1114.1C172.394 1140.24 178.295 1196.72 178.602 1203.02C178.91 1209.32 181.153 1233.76 179.878 1243.67C178.602 1253.58 177.219 1282.47 174.223 1293.11C171.226 1303.74 166.539 1351.8 170.749 1379.7C174.96 1407.61 181.338 1461.58 184.35 1487.69C187.362 1513.8 181.814 1530.58 181.814 1530.58C181.814 1530.58 174.653 1557.58 175.252 1569.82C175.852 1582.05 175.114 1603.09 172.317 1603.93C169.52 1604.78 158.225 1638.6 186.148 1637.96C214.071 1637.31 262.986 1633.89 264.523 1633.45C266.06 1633.02 289.849 1626.6 269.026 1608.36C248.203 1590.12 250.062 1569.37 252.121 1567.85C254.181 1566.33 251.645 1550.64 248.264 1538.85C244.883 1527.06 241.303 1481.99 242.609 1436.73C243.915 1391.48 250.738 1336.84 250.508 1310.09C250.277 1283.33 248.971 1263.05 254.488 1248.05C260.005 1233.05 259.283 1216.93 260.635 1209.83C261.988 1202.73 274.466 1160.87 278.569 1137.91C282.672 1114.95 299.193 1063.91 300.468 1068.46C301.744 1073.01 328.914 1192.52 329.667 1202.3C330.42 1212.07 331.542 1233.76 330.174 1248.56C328.806 1263.35 320.754 1306.49 327.946 1346.8C335.138 1387.11 342.56 1431.32 344.435 1455.51C346.31 1479.7 349.691 1520.58 344.942 1538.34C340.194 1556.11 332.833 1584.85 343.651 1591.32C354.47 1597.79 376.938 1599.22 378.121 1603.06C379.305 1606.9 416.54 1614.57 423.548 1615.97C430.556 1617.36 465.917 1620.91 479.779 1616.75C493.64 1612.59 495.331 1597.36 481.192 1594.54C467.054 1591.73 466.501 1587.49 466.378 1585.02C466.255 1582.54 439.945 1559.95 439.945 1559.95C439.945 1559.95 415.757 1537.64 415.849 1532.29C415.941 1526.94 400.712 1508.32 404.415 1468.87C408.119 1429.42 410.885 1342.39 410.071 1340.3C409.256 1338.21 409.978 1295.41 408.534 1271.67C407.089 1247.93 411.607 1234.34 411.315 1228.04C411.023 1221.74 416.817 1189.82 416.51 1176.11C416.202 1162.4 412.637 1132.59 412.145 1129.78C411.654 1126.97 420.659 1037.77 420.152 1027.57C419.645 1017.36 420.152 947.933 415.004 906.501C409.856 865.07 398.284 791.628 398.284 791.628C398.284 791.628 379.335 689.279 379.704 689.602C380.073 689.924 397.976 719.277 397.93 725.255C397.884 731.233 403.632 762.875 407.458 769.683C411.285 776.491 436.657 823.27 442.988 845.399C449.32 867.529 457.311 894.576 458.156 897.358C459.001 900.139 460.507 923.99 460.538 924.697C460.569 925.404 448.982 946.212 449.32 953.265C449.658 960.319 448.275 989.748 447.614 990.839C446.953 991.93 445.386 1003.29 448.905 1003.82C449.552 1003.93 450.216 1003.91 450.851 1003.74C451.486 1003.57 452.078 1003.27 452.587 1002.85C453.097 1002.44 453.511 1001.92 453.804 1001.33C454.096 1000.75 454.26 1000.1 454.284 999.445C454.207 997.693 454.76 987.151 455.421 986.429C456.082 985.706 459.447 982.71 460.031 987.228C460.615 991.746 462.505 1001.78 462.505 1001.78C462.505 1001.78 453.285 1013.14 453.285 1014.2C453.285 1015.26 462.951 1055.08 464.964 1053.63C466.977 1052.19 493.917 1027.48 493.01 1010.02C492.103 992.56 498.266 949.423 497.62 934.716C496.975 920.01 494.424 904.719 491.827 887.307C489.23 869.895 477.166 779.733 473.17 769.406C469.175 759.079 451.179 705.492 446.723 693.044C442.266 680.596 435.52 628.684 434.183 617.174Z" stroke="#DF20FF" stroke-width="1.13" stroke-miterlimit="10" stroke-linecap="round" stroke-dasharray="3.5 0.5"/>
<path d="M414.835 618.311C413.913 606.57 414.282 579.154 414.282 579.154C414.189 577.279 409.502 526.474 385.436 512.581C361.371 498.689 363.537 503.361 350.798 496.799C335.322 488.838 308.798 467.969 308.782 467.6C308.767 467.231 301.452 467.354 300.422 446.239C299.806 432.726 300.646 419.186 302.927 405.853C303.235 404.946 306.4 389.194 307.538 385.552C309.228 381.725 315.913 364.974 315.467 355.615C315.022 346.257 309.735 342.338 307.676 340.248C304.725 319.501 303.158 310.742 299.531 300.2C295.904 289.657 282.872 274.997 269.38 271.093C255.887 267.19 224.029 263.978 204.62 289.196C185.118 312.647 191.388 336.836 191.435 337.789C191.481 338.742 192.971 355.016 193.171 355.37C187.654 354.109 191.219 381.495 195.415 390.608C199.61 399.721 203.79 401.365 203.882 403.301C204.251 410.862 206.495 433.084 206.664 436.818C206.833 440.553 197.904 484.013 153.569 494.386C143.134 496.829 82.4007 503.606 73.8563 564.939C65.3118 626.271 64.6357 694.304 64.6357 694.473C64.6357 694.642 64.6357 728.666 61.1779 735.52C57.7202 742.374 46.4249 783.16 45.6873 813.896C44.9496 844.631 49.4831 932.719 49.1758 933.764C48.8684 934.809 46.9935 988.273 47.347 999.23C47.7004 1010.19 48.392 1028.28 48.6533 1033.42C48.9145 1038.57 103.716 1089.93 103.808 1091.7C103.9 1093.46 125.815 1107.66 117.716 1087.96C109.617 1068.26 104.254 1055.25 103.977 1049.62C103.7 1044 105.36 1022.59 105.36 1022.59C105.36 1022.59 113.321 1032.21 115.349 1035.33C117.378 1038.45 118.008 1044.23 121.926 1047.78C125.845 1051.33 131.516 1052.13 131.516 1052.31C131.516 1052.49 122.987 1023.79 123.156 1020.04C123.325 1016.29 110.539 984.477 106.528 979.052C102.517 973.628 96.2317 963.592 96.1856 962.87C96.1395 962.148 92.6817 954.756 92.4973 951.006C92.3129 947.257 92.0363 902.552 95.0484 887.399C98.0604 872.247 113.182 826.589 112.798 807.81C112.588 795.252 113.68 782.707 116.056 770.374C116.379 769.652 119.345 746.032 125.999 732.232C132.653 718.432 145.162 676.109 146.945 674.111C148.728 672.113 147.821 682.656 147.821 682.656C147.821 682.656 162.974 746.447 165.048 757.957C167.123 769.468 172.625 836.916 173.024 845.277C173.424 853.637 166.616 951.314 165.463 966.328C164.311 981.342 157.672 1076.71 160.853 1103.72C164.034 1130.72 169.428 1188.84 169.72 1194.98C170.012 1201.13 171.764 1226.3 170.273 1234.31C168.783 1242.32 166.677 1268.84 163.511 1280.23C160.346 1291.62 153.861 1333.86 157.518 1359.74C161.176 1385.62 169.812 1442.34 173.055 1470.39C176.297 1498.43 172.855 1513.79 172.855 1513.79C172.855 1513.79 167.907 1540.36 168.537 1553.45C169.167 1566.54 168.383 1589.09 167 1589.52C165.617 1589.95 152.831 1625.2 181.799 1624.16C210.767 1623.11 260.174 1620.19 260.866 1619.98C261.557 1619.76 283.41 1614.08 260.497 1594.54C237.584 1575.01 236.938 1552.73 237.953 1551.96C238.967 1551.19 237.43 1537.36 234.495 1526.53C231.56 1515.69 227.718 1471.2 229.208 1424.58C230.699 1377.95 237.799 1323.37 237.153 1299.05C236.508 1274.74 236.493 1257.56 242.932 1242.84C249.371 1228.12 248.649 1213.12 250.201 1206.53C251.753 1199.93 263.401 1168.67 267.858 1144.09C272.315 1119.5 287.836 1057.61 288.42 1059.89C289.004 1062.16 316.85 1188.24 317.511 1198.2C318.172 1208.15 319.217 1229.9 316.881 1244.3C314.545 1258.7 305.632 1303.59 313.239 1344.56C320.846 1385.53 327.516 1427.54 328.883 1448.57C330.251 1469.59 333.862 1508.99 328.883 1526.94C323.904 1544.89 316.005 1574.58 327.592 1581.47C339.18 1588.35 363.338 1587.49 366.918 1589.27C370.499 1591.06 408.288 1598.95 415.864 1600.46C423.441 1601.97 456.205 1606.01 468.022 1601.69C479.84 1597.37 483.39 1584.63 468.299 1581.6C453.208 1578.58 452.931 1576.47 452.808 1575.23C452.685 1573.98 425.147 1552.39 425.147 1552.39C425.147 1552.39 399.498 1529.88 399.544 1527.22C399.59 1524.56 382.747 1510.67 386.635 1470.85C390.523 1431.03 394.672 1341.36 394.319 1340.32C393.965 1339.27 395.21 1295.75 393.827 1270.98C392.444 1246.2 397.5 1234.2 397.208 1228.06C396.916 1221.91 403.232 1193.79 402.833 1181.95C402.433 1170.12 400.312 1148.14 400.066 1146.81C399.821 1145.47 411.3 1059.44 410.824 1049.37C410.347 1039.31 410.993 971.538 405.307 927.97C399.621 884.403 386.036 812.113 386.036 812.113C386.036 812.113 365.735 702.449 365.919 702.618C366.104 702.787 383.669 730.034 382.747 735.075C381.825 740.115 387.465 771.804 391.568 779.103C395.671 786.403 422.58 835.103 429.265 856.987C435.95 878.87 442.481 903.274 442.896 904.627C443.311 905.979 444.433 926.925 444.525 927.279C444.617 927.632 432.231 949.393 432.646 956.877C433.061 964.361 432.093 995.127 431.755 995.665C431.417 996.203 430.786 1004.89 434.536 1005.05C438.286 1005.22 441.021 998.554 440.929 996.679C440.778 992.181 440.855 987.677 441.16 983.186C441.498 982.817 445.125 980.236 445.555 985.476C445.985 990.716 447.276 1002.73 447.276 1002.73C447.276 1002.73 436.857 1012.69 436.887 1013.21C436.918 1013.74 447.768 1055.37 450.626 1051.56C453.485 1047.75 480.301 1022.7 479.395 1003.92C478.488 985.138 479.625 944.736 478.887 929.415C478.15 914.093 475.568 899.494 472.833 881.867C470.097 864.24 457.803 772.434 453.531 761.384C449.258 750.335 430.203 702.019 425.792 691.892C421.381 681.764 415.757 630.052 414.835 618.311Z" stroke="#EF10FF" stroke-width="1.06" stroke-miterlimit="10" stroke-linecap="round" stroke-dasharray="3.75 0.25"/>
<path d="M394.028 581.521C393.935 579.523 389.617 531.73 365.182 522.909C340.748 514.087 349.016 519.697 336.66 512.289C324.304 504.882 297.395 486.164 297.395 486.164C297.395 486.164 289.512 488.546 288.451 466.586C287.879 452.52 288.538 438.43 290.419 424.478C290.419 424.478 293.738 410.309 295.536 406.222C297.334 402.134 304.557 385.783 304.065 375.809C303.573 365.835 297.503 364.129 297.503 364.129C296.535 344.151 298.056 334.101 295.475 322.222C292.893 310.343 280.107 293.023 265.799 287.644C251.492 282.266 217.314 277.994 196.522 303.012C175.729 328.031 182.968 353.726 182.968 353.726L183.736 369.693C177.589 367.987 181.001 395.818 185.473 405.622C189.945 415.427 193.94 415.212 193.94 415.212C194.232 421.205 197.383 445.056 197.582 449.021C197.782 452.986 190.82 498.197 144.41 507.602C134.421 509.615 68.8624 517.253 61.9623 581.598C55.0622 645.942 54.3553 713.991 54.3553 713.991C54.3553 713.991 54.0018 748.015 50.2982 754.192C46.5946 760.37 34.4541 798.974 34.0085 831.031C33.5628 863.088 39.8943 952.774 39.8943 952.774C39.8943 952.774 38.2192 1000.86 38.6956 1010.85L40.2324 1042.78C40.4322 1046.78 98.9062 1097.95 98.9062 1097.95C98.9062 1097.95 119.545 1110.95 110.494 1089.39C101.442 1067.83 94.9721 1058.13 94.6955 1052.14C94.4189 1046.15 97.3388 1024 97.3388 1024C97.3388 1024 105.899 1035.59 108.096 1039.49C110.294 1043.4 110.57 1049.38 114.766 1053.17C117.634 1055.51 121.24 1056.75 124.939 1056.67C124.939 1056.67 115.411 1025.12 115.211 1021.14C115.012 1017.16 101.38 983.801 97.1236 978.008C92.8667 972.214 86.4738 964.515 86.4738 964.515C85.238 961.338 84.4067 958.018 83.9996 954.633C83.7998 950.638 83.5846 904.642 86.7965 888.552C90.0083 872.462 105.76 825.622 104.884 807.657C104.352 796.983 104.501 786.285 105.33 775.63C105.33 775.63 108.265 753.486 115.565 739.132C122.864 724.779 134.821 682.195 136.711 680.089L138.616 677.999C138.616 677.999 155.521 739.194 157.964 747.154C160.408 755.114 165.525 820.811 165.909 828.787C166.294 836.763 156.95 933.288 155.736 949.301C154.522 965.314 147.361 1065.73 150.711 1093.57C154.061 1121.42 158.948 1181.17 159.24 1187.18C159.532 1193.19 160.777 1219.11 159.071 1225.2C157.365 1231.28 154.461 1255.43 151.126 1267.6C147.791 1279.77 139.477 1316.17 142.627 1340.02C145.778 1363.88 156.658 1423.36 160.1 1453.21C163.543 1483.05 162.221 1497.11 162.221 1497.11C162.221 1497.11 159.486 1523.24 160.162 1537.22C160.838 1551.21 159.993 1575.24 159.993 1575.24C159.993 1575.24 145.762 1611.94 175.699 1610.5L255.534 1606.64C255.534 1606.64 275.297 1601.68 250.293 1580.88C225.29 1560.09 222.125 1536.24 222.125 1536.24C221.711 1528.88 220.683 1521.57 219.051 1514.39C216.577 1504.51 212.458 1460.69 214.133 1412.61C215.808 1364.52 223.185 1310.15 222.125 1288.13C221.064 1266.11 222.34 1251.94 229.593 1237.61C236.847 1223.29 236.232 1209.29 237.938 1203.21C239.644 1197.12 250.647 1176.59 255.38 1150.36C260.113 1124.12 274.605 1051.4 274.605 1051.4C274.605 1051.4 303.02 1184.06 303.512 1194.03C304.004 1204.01 305.049 1225.97 301.745 1240.13C298.441 1254.3 288.667 1300.78 296.689 1342.41C304.711 1384.04 310.627 1423.75 311.488 1441.71C312.348 1459.68 316.19 1497.5 311.073 1515.75C305.955 1534.01 297.426 1564.42 309.782 1571.83C322.137 1579.24 347.986 1575.98 353.979 1575.69C359.973 1575.4 398.361 1583.54 406.445 1585.15C414.528 1586.77 444.756 1591.3 454.53 1586.83C464.304 1582.36 469.821 1572.09 453.654 1568.86L437.487 1565.65L408.489 1545.04L381.457 1522.41C381.457 1522.41 363.016 1513.3 367.073 1473.09C371.13 1432.89 376.662 1340.59 376.662 1340.59C376.662 1340.59 378.537 1296.49 377.277 1270.55C376.017 1244.61 381.534 1234.34 381.242 1228.35C380.95 1222.35 387.773 1198.03 387.297 1188.05L386.144 1164.11C386.144 1164.11 400.144 1081.42 399.668 1071.44C399.191 1061.47 399.99 995.404 393.782 949.7C387.573 903.997 372.129 832.721 372.129 832.721L350.445 715.604C350.445 715.604 367.672 740.776 365.813 744.803C363.953 748.829 369.547 780.625 373.927 788.416C378.306 796.208 406.752 846.814 413.883 868.513C421.013 890.212 425.992 911.942 425.992 911.942L426.868 929.907C426.868 929.907 413.96 952.543 414.344 960.519C414.728 968.495 414.344 1000.48 414.344 1000.48C414.344 1000.48 414.636 1006.47 418.631 1006.27C422.627 1006.07 426.131 995.911 426.039 993.975L425.362 980.005C425.362 980.005 429.25 977.823 429.542 983.801L430.511 1003.78L418.923 1012.34C418.923 1012.34 430.91 1055.85 434.614 1049.65C438.317 1043.46 465.103 1018.18 464.135 998.216C463.167 978.254 459.34 940.434 458.572 924.451C457.804 908.469 455.13 894.607 452.271 876.811C449.413 859.016 436.903 765.534 432.293 753.747C427.683 741.96 407.705 698.93 403.264 691.139C398.822 683.347 394.381 631.558 393.797 619.587C393.213 607.615 394.028 581.521 394.028 581.521Z" stroke="#FF00FF" stroke-miterlimit="10" stroke-linecap="round"/>
</g>
<defs>
<clipPath id="clip0">
<rect width="769" height="810" fill="white" transform="matrix(-1 0 0 1 769 0)"/>
</clipPath>
</defs>
</svg>
