<svg width="736" height="810" viewBox="0 0 736 810" fill="none" xmlns="http://www.w3.org/2000/svg">
<path d="M173.403 442.073C173.265 439.246 172.819 371.167 206.09 355.369C239.361 339.571 228.466 348.607 244.909 336.467C261.352 324.326 296.775 294.236 296.775 294.236C296.775 294.236 308.239 296.526 306.733 265.376C305.62 245.438 302.766 225.635 298.204 206.195C298.204 206.195 291.581 186.647 288.476 181.13C285.372 175.613 272.955 153.468 272.264 139.345C271.572 125.222 279.947 121.949 279.947 121.949C278.58 93.6415 275.06 79.6262 277.074 62.5066C279.087 45.3869 294.823 19.0774 314.217 9.62631C333.611 0.175176 381.343 -10.6437 414.107 21.8129C446.871 54.2695 440.232 91.49 440.232 91.49L441.324 114.142C449.684 110.899 448.762 150.671 443.782 165.101C438.803 179.532 433.148 179.808 433.148 179.808C433.563 188.307 432.364 222.407 432.641 228.063C432.917 233.718 448.931 296.664 515.734 303.487C530.118 305.024 623.723 306.776 642.256 396.677C660.79 486.578 671.101 582.626 671.101 582.626C671.101 582.626 676.265 630.62 682.335 638.826C688.405 647.032 710.827 699.867 715.852 745.032C720.877 790.198 724.181 917.673 724.181 917.673C724.181 917.673 733.125 985.291 733.817 999.491L735.999 1044.79C736.276 1050.45 660.698 1130.73 660.698 1130.73C660.698 1130.73 633.343 1151.92 643.163 1120.23C652.983 1088.55 660.79 1073.98 660.375 1065.49C659.96 1057.01 652.799 1026.14 652.799 1026.14C652.799 1026.14 642.302 1043.67 639.736 1049.47C637.17 1055.26 637.584 1063.76 632.206 1069.69C626.827 1075.62 618.375 1076.04 618.375 1076.04C618.375 1076.04 627.503 1030.2 627.227 1024.54C626.95 1018.88 641.58 969.908 646.867 961.148C652.153 952.389 660.067 940.648 660.067 940.648C660.067 940.648 662.48 932.011 662.219 926.356C661.958 920.7 655.964 855.664 649.202 833.35C642.441 811.036 613.857 747.092 612.581 721.627C611.868 706.486 610.189 691.405 607.556 676.477C607.556 676.477 600.395 645.603 588.1 626.347C575.806 607.092 553.124 548.633 550.127 545.867L547.161 543.178C547.161 543.178 531.609 631.88 529.304 643.344C526.999 654.808 528.704 748.367 529.304 759.678C529.903 770.988 556.197 905.932 560.116 928.446C564.035 950.959 587.87 1091.68 586.933 1131.45C585.995 1171.22 587.301 1256.28 587.701 1264.78C588.1 1273.28 589.899 1310.07 593.126 1318.43C596.353 1326.79 603.668 1360.48 610.153 1377.2C616.638 1393.92 633.205 1444.19 632.067 1478.29C630.93 1512.39 623.661 1597.86 622.847 1640.46C622.032 1683.06 625.92 1702.75 625.92 1702.75C625.92 1702.75 633.358 1739.28 634.327 1759.09C635.295 1778.89 639.751 1812.73 639.751 1812.73C639.751 1812.73 664.878 1862.57 622.417 1864.65L509.187 1870.12C509.187 1870.12 480.603 1865.83 513.075 1833.03C545.547 1800.24 546.731 1766.14 546.731 1766.14C546.298 1755.7 546.74 1745.24 548.052 1734.87C550.204 1720.57 550.019 1658.15 541.075 1590.49C532.131 1522.82 514.274 1447.07 512.768 1415.92C511.262 1384.77 507.466 1365.1 495.187 1345.83C482.909 1326.56 481.94 1306.75 478.713 1298.39C475.486 1290.03 457.122 1262.55 446.841 1226.16C436.56 1189.77 406.162 1089.1 406.162 1089.1C406.162 1089.1 384.202 1280.27 384.878 1294.43C385.554 1308.58 387.076 1339.72 393.684 1359.26C400.292 1378.81 420.439 1443.11 414.814 1502.97C409.19 1562.82 406.27 1619.76 407.499 1645.2C408.729 1670.63 408.498 1724.6 418.257 1749.7C428.015 1774.79 444.182 1816.55 427.754 1828.69C411.326 1840.83 374.382 1839.78 365.884 1840.2C357.385 1840.61 304.29 1857.36 293.102 1860.74C281.914 1864.12 239.868 1874.67 225.484 1869.69C211.1 1864.71 201.879 1850.97 224.255 1844.21L246.63 1837.45L284.757 1804.39L319.919 1768.64C319.919 1768.64 344.707 1753.28 333.488 1697.05C322.27 1640.82 301.8 1511.3 301.8 1511.3C301.8 1511.3 293.133 1449.29 291.35 1412.48C289.568 1375.68 280.393 1361.94 279.978 1353.44C279.563 1344.94 266.608 1311.52 265.917 1297.36L264.211 1263.4C264.211 1263.4 233.122 1148.57 232.43 1134.4C231.739 1120.23 221.566 1027.11 224.086 961.717C226.606 896.327 238.654 793.594 238.654 793.594L253.208 625.472C253.208 625.472 232.338 663.368 235.443 668.901C238.547 674.433 235.074 719.998 229.956 731.585C224.839 743.173 191.537 818.567 184.606 850.117C177.675 881.666 173.465 913.124 173.465 913.124L174.694 938.604C174.694 938.604 196.009 968.786 196.562 980.097C197.116 991.407 202.125 1036.57 202.125 1036.57C202.125 1036.57 202.54 1045.07 196.87 1045.33C191.199 1045.59 184.867 1031.73 184.729 1028.89L183.776 1009.08C183.776 1009.08 177.983 1006.53 178.382 1015.01L179.75 1043.32L197.285 1053.82C197.285 1053.82 186.143 1116.82 180.073 1108.56C174.002 1100.29 132.725 1068.28 131.357 1039.97C129.989 1011.66 130.22 957.736 129.129 935.084C128.038 912.432 129.913 892.485 131.511 866.867C133.109 841.249 137.996 707.658 142.837 690.4C147.678 673.142 170.145 609.627 175.263 598.025C180.38 586.422 179.642 512.688 178.828 495.707C178.013 478.725 173.403 442.073 173.403 442.073Z" stroke="#00FFFF" stroke-width="2" stroke-miterlimit="10" stroke-linecap="round"/>
<path d="M662.234 635.799C656.502 627.346 651.723 580.721 651.723 580.721C651.723 580.721 641.78 487.623 622.878 402.794C603.975 317.964 516.702 316.458 502.41 314.767C439.08 307.253 422.314 247.733 422.053 242.416C421.791 237.099 422.421 205.288 421.96 195.944C421.96 194.577 427.385 193.055 432.057 179.532C436.729 166.008 437.866 127.85 430.105 130.632C430.213 130.37 429.644 108.118 429.613 107.503C429.583 106.888 435.499 71.8809 404.764 41.4221C374.028 9.73387 329.339 19.2465 311.021 27.376C292.703 35.5055 277.089 59.0642 274.323 74.7853C271.557 90.5065 272.709 103.369 272.694 131.477C271.388 133.014 264.011 137.624 264.657 150.948C265.302 164.271 276.951 185.94 279.901 191.119C282.437 196.19 288.845 216.26 289.122 216.86C293.788 235.229 296.644 254.011 297.651 272.936C299.08 302.504 288.538 301.858 288.553 302.135C288.569 302.412 254.652 333.024 236.595 345.395C220.305 356.552 226.698 348.914 195.102 367.74C163.506 386.565 163.844 454.644 163.983 457.303C163.983 457.303 168.286 493.801 168.824 510.106C169.361 526.411 169.285 597.963 164.459 610.841C159.634 623.72 138.964 688.863 134.431 705.045C129.897 721.228 125.21 849.502 123.673 874.09C122.137 898.679 120.508 918.564 121.537 940.033C122.567 961.502 126.009 1015.33 127.3 1041.81C128.591 1068.29 168.562 1099.21 173.695 1105.57C178.828 1111.94 188.863 1052.29 188.848 1051.93C188.832 1051.56 172.543 1040.4 172.543 1040.4C172.543 1040.4 172.174 1022.54 171.928 1014.83C171.682 1007.11 177.138 1009.88 177.399 1010.13C177.66 1010.37 178.797 1026.26 178.936 1028.92C179.074 1031.58 184.422 1042.61 189.693 1042.11C194.964 1041.6 193.75 1031.55 193.489 1031.19C193.228 1030.84 188.11 988.011 187.603 977.407C187.096 966.803 166.964 938.127 166.949 937.881C166.933 937.636 165.765 910.865 165.965 909.866C166.165 908.867 171.052 876.487 177.537 845.783C184.022 815.078 215.28 743.526 220.075 732.661C224.87 721.796 228.312 677.691 225.853 671.605C223.394 665.52 243.71 627.331 243.833 627.208C243.956 627.085 230.294 784.681 230.294 784.681C230.294 784.681 220.044 884.817 217.847 946.61C215.649 1008.4 225.53 1099.84 226.176 1113.61C226.821 1127.38 255.374 1241.07 255.374 1242.07C255.374 1243.07 255.743 1267.92 256.604 1282.93C257.464 1297.95 269.912 1333.02 270.327 1341.33C270.742 1349.64 279.41 1364.17 280.977 1399.05C282.545 1433.94 290.49 1493.58 290.275 1494.33C290.059 1495.08 308.716 1618.81 319.473 1673C330.231 1727.18 307.64 1745.32 307.855 1747.19C308.07 1749.07 275.03 1783.46 275.03 1783.46C275.03 1783.46 239.115 1816.08 239.162 1816.96C239.208 1817.84 239.162 1819.34 218.169 1825.67C197.177 1832 204.907 1847.19 220.305 1851.8C235.704 1856.41 278.242 1846.34 288.738 1843.16C299.234 1839.98 350.209 1823.98 356.648 1822.29C363.087 1820.6 397.48 1820.09 412.893 1808.72C428.307 1797.35 413.078 1757.43 403.796 1733.3C394.514 1709.17 394.483 1655.89 393.438 1629C392.393 1602.1 395.589 1545.37 400.784 1487.88C405.978 1430.39 387.183 1369.24 381.436 1350.01C375.688 1330.79 374.228 1300.73 373.752 1287C373.275 1273.28 394.36 1092.8 394.652 1091.11C394.944 1089.42 424.358 1179.32 433.993 1213.44C443.629 1247.56 462.608 1281.67 465.681 1290.12C468.755 1298.58 469.708 1318.52 481.049 1337.49C492.39 1356.45 495.295 1377.8 497.216 1409.59C499.137 1441.39 516.241 1514.86 524.647 1579.42C533.053 1643.98 533.499 1704.87 531.163 1719.41C528.827 1733.94 529.073 1751.77 529.842 1752.23C530.61 1752.69 531.117 1784.5 501.058 1815.24C470.999 1845.97 500.197 1850.49 500.704 1850.58C501.212 1850.68 569.444 1847.76 609.815 1845.56C650.186 1843.36 627.042 1795.97 626.028 1795.77C625.014 1795.57 620.818 1763.85 619.881 1745.27C618.943 1726.69 610.199 1691.16 610.199 1691.16C610.199 1691.16 604.959 1671.29 605.681 1631.35C606.403 1591.41 612.028 1510.71 613.365 1476.23C614.702 1441.74 599.534 1388.85 593.387 1373.17C587.24 1357.5 580.785 1323.17 577.604 1313.65C574.423 1304.14 573.163 1269.09 572.764 1260.71C572.364 1252.34 571.596 1171.1 572.41 1133.16C573.225 1095.22 550.895 962.454 547.176 941.339C543.457 920.224 519.637 788.569 519.084 777.335C518.531 766.101 517.01 674.264 518.761 660.664C520.513 647.063 534.129 559.436 534.129 559.436C534.129 559.436 532.777 552.121 535.558 554.657C538.34 557.193 560.685 613.592 572.087 631.911C583.49 650.229 590.529 681.087 590.821 681.64C594.622 697.178 597.034 713.023 598.028 728.988C599.565 754.222 626.781 815.478 633.112 836.455C639.444 857.432 645.115 919.44 645.407 924.773C645.699 930.105 642.594 939.587 642.61 940.141C642.625 940.694 635.156 953.649 630.239 961.855C625.321 970.061 611.598 1016.33 612.105 1021.64C612.612 1026.94 604.267 1069.28 604.267 1069.15C604.267 1069.03 612.182 1067.89 617.238 1062.33C622.294 1056.77 622.14 1048.67 624.568 1043.61C626.996 1038.56 636.862 1022.99 636.862 1022.99C636.862 1022.99 642.856 1052.46 643.24 1060.42C643.624 1068.38 637.093 1084.75 628.087 1114.07C619.082 1143.39 646.406 1121.85 646.344 1120.66C646.283 1119.48 716.897 1041.8 716.59 1035.5C716.282 1029.2 714.961 1004.44 714.146 990.055C713.332 975.671 704.157 906.393 703.865 905.655C703.573 904.918 699.255 782.714 694.214 739.853C689.174 696.993 667.936 644.251 662.234 635.799Z" stroke="#10EFFF" stroke-width="1.94" stroke-miterlimit="10" stroke-linecap="round" stroke-dasharray="0.25 3.75"/>
<path d="M642.102 632.848C636.724 624.166 632.298 578.908 632.298 578.908C632.298 578.662 622.724 488.699 603.453 408.941C584.182 329.183 503.348 327.984 489.179 326.063C429.337 317.933 411.802 261.749 411.556 256.801C411.31 251.852 411.372 222.3 410.88 212.127C410.742 209.376 416.074 206.625 420.439 193.993C424.803 181.361 426.002 144.816 418.902 147.121C419.133 146.614 419.071 124.746 419.01 123.501C418.948 122.256 424.035 89.4925 395.389 61.0777C366.59 30.1732 325.021 38.3796 307.794 45.1721C290.566 51.9646 275.106 72.834 271.556 87.1106C268.007 101.387 266.808 113.143 265.409 141.051C262.812 144.125 256.404 150.272 257.003 162.566C257.603 174.86 268.56 196.283 271.28 201.124C273.232 205.734 279.44 226.327 280.009 227.541C284.765 244.836 287.624 262.599 288.538 280.513C289.89 308.513 280.255 309.497 280.285 309.988C280.316 310.48 248.013 341.677 228.25 354.263C212.206 364.513 213.974 358.181 183.991 380.05C154.009 401.918 154.316 469.997 154.439 472.471C154.439 472.471 158.435 508.8 158.681 524.445C158.927 540.089 158.051 609.428 153.533 623.582C149.014 637.735 130.143 704.523 125.871 719.614C121.598 734.705 117.142 857.632 115.805 881.283C114.468 904.933 112.931 924.65 113.915 944.966C114.898 965.282 122.013 1018.87 123.135 1043.63C124.257 1068.38 163.091 1098.07 167.21 1102.56C171.328 1107.05 180.334 1050.76 180.303 1050C180.272 1049.25 165.289 1037.3 165.289 1037.3C165.289 1037.3 165.519 1021.41 165.443 1014.46C165.366 1007.51 170.468 1010.49 170.99 1010.97C171.513 1011.45 172.988 1026.34 173.096 1028.75C173.203 1031.16 177.583 1039.43 182.501 1038.69C187.418 1037.96 185.374 1026.4 184.837 1025.63C184.299 1024.86 179.104 984.431 178.689 974.518C178.275 964.606 159.265 937.467 159.249 936.96C159.234 936.453 158.112 908.422 158.527 906.393C158.942 904.365 164.536 871.048 170.545 841.188C176.553 811.329 205.813 743.711 210.224 733.553C214.635 723.395 218.108 680.765 216.371 674.141C214.635 667.518 234.321 629.022 234.551 628.761C234.782 628.499 222.042 775.599 222.042 775.599C222.042 775.599 213.497 873.153 211.638 931.289C209.778 989.425 219.322 1079.2 219.936 1092.65C220.551 1106.1 246.615 1218.57 246.461 1220.59C246.307 1222.6 246.246 1252.47 247.276 1268.35C248.305 1284.22 260.246 1320.94 260.645 1329.11C261.045 1337.29 269.221 1352.56 270.573 1385.53C271.925 1418.49 279.148 1475.77 278.733 1477.29C278.318 1478.81 295.177 1596.71 305.396 1648.87C315.616 1701.03 295.284 1721.93 295.715 1725.71C296.145 1729.49 265.21 1762.48 265.21 1762.48C265.21 1762.48 231.508 1794.68 231.585 1796.41C231.662 1798.15 231.585 1801.16 211.991 1807.08C192.397 1813 198.667 1829.61 215.065 1833.77C231.462 1837.94 274.461 1828.42 284.219 1825.46C293.978 1822.49 342.939 1807.22 347.227 1804.27C351.515 1801.32 383.464 1799.24 397.848 1788.62C412.232 1778 397.971 1739.94 389.166 1716.78C380.36 1693.62 380.037 1640.95 379.161 1612.65C378.285 1584.34 381.774 1527.77 386.553 1472.65C391.332 1417.52 373.89 1359.51 369.003 1340.62C364.116 1321.74 362.718 1292.74 362.334 1279.58C361.949 1266.43 382.542 1096.52 383.157 1093.23C383.771 1089.95 412.171 1168.97 421.146 1200.81C430.12 1232.65 449.745 1273.28 452.649 1281.84C455.554 1290.4 456.522 1310.49 466.849 1329.11C477.176 1347.74 479.282 1370.77 481.602 1403.22C483.923 1435.66 500.274 1506.92 508.219 1568.37C516.164 1629.83 516.794 1689.16 514.274 1703.96C511.754 1718.76 511.416 1737.42 512.952 1738.34C514.489 1739.26 516.687 1768.71 489.025 1797.35C461.363 1826 491.176 1830.78 492.191 1830.98C493.205 1831.18 558.902 1828.75 597.29 1826.37C635.679 1823.98 614.379 1779.09 612.366 1778.73C610.353 1778.36 606.434 1748.71 605.589 1731.38C604.744 1714.04 594.616 1679.5 594.616 1679.5C594.616 1679.5 587.916 1659.44 588.592 1622.16C589.268 1584.88 593.279 1508.96 594.831 1474.09C596.384 1439.22 582.537 1383.7 576.851 1369.07C571.165 1354.44 565.018 1319.45 562.021 1308.89C559.025 1298.33 558.164 1264.85 557.765 1256.64C557.365 1248.43 557.104 1170.98 557.841 1134.94C558.579 1098.9 537.648 974.057 534.221 954.341C530.794 934.624 509.448 806.242 508.911 795.085C508.373 783.928 506.99 693.812 508.219 678.075C509.448 662.339 521.128 575.803 521.128 575.803C521.128 575.803 518.423 561.189 521.02 563.509C523.618 565.83 545.609 620.185 556.151 637.566C566.693 654.947 573.624 685.959 574.177 686.943C574.73 687.926 581.6 711.531 583.552 736.473C585.503 761.415 611.213 820.088 617.099 839.667C622.985 859.245 628.425 918.319 628.594 923.282C628.763 928.246 625.106 938.65 625.152 939.618C625.198 940.586 618.19 954.894 613.595 962.562C609 970.231 596.153 1013.8 596.952 1018.73C597.751 1023.66 590.144 1062.5 590.129 1062.25C590.114 1062.01 597.475 1060.15 602.193 1054.95C606.91 1049.76 607.033 1042.06 609.308 1037.73C611.582 1033.39 620.849 1019.81 620.849 1019.81C620.849 1019.81 625.674 1047.88 626.028 1055.32C626.381 1062.76 621.064 1080.92 612.935 1107.88C604.805 1134.83 632.083 1113.14 631.96 1110.65C631.837 1108.16 697.488 1033.19 697.15 1026.25C696.811 1019.3 695.413 995.249 694.506 980.619C693.6 965.989 684.149 895.113 683.58 893.638C683.011 892.163 677.586 775.199 672.638 734.705C667.69 694.212 647.481 641.531 642.102 632.848Z" stroke="#20DFFF" stroke-width="1.88" stroke-miterlimit="10" stroke-linecap="round" stroke-dasharray="0.5 3.5"/>
<path d="M621.986 629.928C616.946 620.999 612.889 577.124 612.889 577.124C612.889 576.756 603.668 489.805 584.044 415.103C564.419 340.4 489.962 339.632 475.901 337.404C419.548 328.752 401.245 275.825 401.014 271.215C400.784 266.605 400.277 239.342 399.739 228.339C399.539 224.221 404.702 220.225 408.744 208.499C412.786 196.774 414.154 161.812 407.699 163.672C408.037 162.903 408.498 141.435 408.406 139.56C409.227 128.715 407.645 117.822 403.772 107.658C399.898 97.4951 393.83 88.3116 386 80.7631C359.199 50.7193 320.718 57.5425 304.459 63.0134C288.2 68.4843 273.001 86.5721 268.698 99.4964C264.395 112.421 260.83 122.947 258.064 150.609C254.16 155.296 248.736 162.75 249.289 174.245C249.842 185.74 260.046 206.701 262.597 211.127C263.98 215.292 269.989 236.392 270.819 238.236C271.649 240.08 278.119 262.824 279.348 288.119C280.624 314.537 271.91 317.164 271.941 317.902C271.972 318.64 241.205 350.42 219.829 363.206C204.077 372.611 201.173 367.54 172.835 392.405C144.497 417.27 144.727 485.379 144.85 487.684C144.85 487.684 148.523 523.86 148.507 538.813C148.492 553.766 146.802 620.922 142.56 636.352C138.319 651.781 121.291 720.321 117.296 734.351C113.3 748.382 109.074 865.945 107.86 888.628C106.646 911.31 105.294 930.889 106.216 950.098C107.138 969.308 117.926 1022.66 119.032 1045.65C120.139 1068.64 157.544 1097.14 160.786 1099.78C164.029 1102.42 171.866 1049.44 171.805 1048.31C171.743 1047.19 158.051 1034.48 158.051 1034.48C158.051 1034.48 158.881 1020.56 158.958 1014.38C159.034 1008.2 163.798 1011.42 164.582 1012.12C165.366 1012.83 167.164 1026.58 167.271 1028.89C167.379 1031.19 170.76 1036.57 175.324 1035.57C179.888 1034.57 176.999 1021.45 176.2 1020.36C175.401 1019.27 170.053 981.141 169.684 971.936C169.315 962.731 151.489 937.113 151.443 936.36C151.397 935.607 150.367 906.285 150.966 903.258C151.566 900.23 157.897 865.93 163.414 836.931C168.931 807.932 196.178 744.048 200.297 734.613C204.415 725.177 207.827 684.007 206.674 676.83C205.522 669.653 224.716 630.881 225.115 630.481C225.515 630.082 213.636 766.685 213.636 766.685C213.636 766.685 207.012 861.627 205.429 916.228C203.847 970.83 213.113 1058.84 213.697 1071.84C214.281 1084.84 237.84 1196.23 237.609 1199.24C237.379 1202.25 236.826 1237.17 238.009 1253.89C239.192 1270.61 250.641 1308.98 251.025 1317C251.41 1325.02 259.109 1341.05 260.246 1372.1C261.383 1403.14 267.93 1458.05 267.254 1460.32C266.578 1462.6 281.684 1574.67 291.396 1624.76C301.109 1674.84 283.006 1698.52 283.713 1704.15C284.419 1709.77 255.544 1741.43 255.544 1741.43C255.544 1741.43 224.055 1773.19 224.178 1775.81C224.301 1778.42 224.178 1782.94 205.967 1788.42C187.757 1793.91 192.582 1811.97 209.917 1815.73C227.252 1819.5 270.773 1810.47 279.871 1807.74C288.968 1805 335.809 1790.45 338.022 1786.22C340.235 1782 369.649 1778.37 383.003 1768.51C396.358 1758.64 383.08 1722.4 374.72 1700.23C366.36 1678.05 365.776 1625.99 365.085 1596.26C364.393 1566.54 368.158 1510.13 372.523 1457.37C376.887 1404.61 360.782 1349.8 356.771 1331.17C352.76 1312.55 351.407 1284.68 351.177 1272.04C350.946 1259.39 370.847 1100.21 371.739 1095.31C372.63 1090.41 400.046 1158.56 408.391 1188.13C416.735 1217.7 436.975 1264.97 439.71 1273.56C442.446 1282.15 443.414 1302.43 452.773 1320.75C462.132 1339.07 463.376 1363.78 466.112 1396.87C468.847 1429.95 484.445 1498.97 491.883 1557.32C499.321 1615.67 500.182 1673.47 497.477 1688.52C494.773 1703.56 493.835 1723.05 496.156 1724.45C498.476 1725.84 502.303 1752.94 477.1 1779.52C451.897 1806.11 482.263 1811.12 483.785 1811.43C485.306 1811.73 548.467 1809.8 584.812 1807.29C621.157 1804.79 601.716 1762.34 598.75 1761.74C595.784 1761.14 592.081 1733.65 591.312 1717.55C590.544 1701.44 579.018 1667.91 579.018 1667.91C579.018 1667.91 570.858 1647.67 571.488 1613.05C572.118 1578.42 574.562 1507.27 576.252 1472.03C577.943 1436.79 565.495 1378.63 560.239 1365.06C554.983 1351.49 549.389 1315.88 546.516 1304.17C543.642 1292.46 543.227 1260.7 542.843 1252.67C542.459 1244.65 542.704 1170.98 543.35 1136.79C543.995 1102.59 524.509 985.644 521.328 967.356C518.147 949.069 499.337 823.945 498.722 812.88C498.107 801.816 496.97 713.405 497.662 695.533C498.353 677.66 508.112 592.2 508.112 592.2C508.112 592.2 504.055 570.27 506.467 572.453C508.88 574.635 530.549 626.885 540.184 643.313C549.82 659.741 556.689 690.769 557.504 692.229C558.318 693.688 566.724 719.168 569.06 743.941C571.396 768.714 595.585 824.667 601.071 842.847C606.557 861.027 611.582 917.181 611.828 921.791C612.074 926.402 607.664 937.651 607.741 939.141C607.817 940.632 601.271 956.184 596.983 963.299C592.696 970.415 580.862 1011.31 581.831 1015.87C582.799 1020.44 576.037 1055.83 576.022 1055.4C576.006 1054.97 582.799 1052.45 587.179 1047.62C591.558 1042.8 591.958 1035.48 594.079 1031.9C596.199 1028.32 604.836 1016.69 604.836 1016.69C604.836 1016.69 608.494 1043.37 608.816 1050.27C609.139 1057.17 605.082 1077.14 597.798 1101.73C590.513 1126.32 617.776 1104.36 617.576 1100.63C617.376 1096.89 678.109 1024.59 677.756 1016.98C677.402 1009.37 675.881 986.09 674.79 971.229C673.699 956.369 664.032 883.879 663.218 881.681C662.403 879.484 655.888 767.792 650.924 729.634C645.96 691.476 627.027 638.857 621.986 629.928Z" stroke="#30CFFF" stroke-width="1.81" stroke-miterlimit="10" stroke-linecap="round" stroke-dasharray="0.75 3.25"/>
<path d="M601.886 627.008C597.183 617.788 593.51 575.342 593.51 575.342C593.51 574.85 584.674 490.912 564.665 421.281C544.656 351.65 476.624 351.127 462.639 348.73C409.774 339.648 390.703 289.872 390.503 285.63C390.303 281.389 389.212 256.432 388.644 244.537C388.382 239.051 393.377 233.78 397.111 223.022C400.846 212.265 402.352 178.84 396.543 180.238C396.988 179.209 397.972 158.14 397.849 155.65C398.509 145.467 396.956 135.262 393.298 125.736C389.64 116.21 383.963 107.589 376.657 100.465C351.807 71.1432 316.462 76.7524 301.217 80.8709C285.972 84.9895 270.988 100.373 265.871 111.883C260.754 123.393 254.883 132.829 250.703 160.307C244.566 167.414 241.324 176.569 241.621 185.955C242.128 196.574 251.641 217.136 253.915 221.301C254.729 225.02 260.523 246.642 261.599 249.086C262.675 251.529 268.991 272.506 270.113 295.865C271.311 320.715 263.504 324.971 263.551 325.97C263.597 326.969 234.49 359.334 211.3 372.289C195.933 380.925 188.249 377.037 161.586 404.96C134.923 432.883 135.061 500.962 135.169 503.083C135.169 503.083 138.534 539.09 138.242 553.366C137.95 567.643 135.445 632.602 131.496 649.307C127.546 666.011 112.286 736.073 108.66 749.012C105.033 761.952 100.976 874.182 99.8692 895.881C98.7627 917.581 97.6101 937.036 98.4707 955.032C99.3313 973.027 113.838 1026.26 114.822 1047.48C115.805 1068.71 152.027 1096.06 154.378 1096.84C156.73 1097.63 163.415 1047.98 163.338 1046.47C163.261 1044.96 150.844 1031.56 150.844 1031.56C150.844 1031.56 152.273 1019.59 152.504 1014.2C152.734 1008.8 157.114 1012.21 158.205 1013.17C159.296 1014.12 161.371 1026.78 161.463 1028.9C161.555 1031.03 163.937 1033.51 168.148 1032.35C172.359 1031.18 168.64 1016.44 167.564 1014.98C166.488 1013.52 161.14 977.745 160.725 969.247C160.31 960.749 143.821 936.652 143.698 935.653C143.575 934.654 142.668 904.042 143.467 900C144.266 895.958 151.32 860.705 156.345 832.551C161.371 804.398 186.635 744.341 190.462 735.642C194.288 726.944 197.638 687.234 197.131 679.504C196.624 671.774 215.265 632.71 215.742 632.172C216.218 631.634 205.292 757.741 205.292 757.741C205.292 757.741 200.497 850.086 199.145 901.106C197.792 952.127 206.828 1038.42 207.397 1051.03C207.966 1063.65 228.989 1173.88 228.681 1177.91C228.374 1181.94 227.314 1221.88 228.681 1239.38C230.049 1256.88 240.975 1296.96 241.36 1304.83C241.744 1312.7 248.936 1329.42 249.843 1358.62C250.749 1387.82 256.543 1440.28 255.698 1443.32C254.852 1446.37 268.13 1552.62 277.335 1600.74C286.541 1648.85 270.666 1675.27 271.526 1682.72C272.387 1690.18 245.77 1720.59 245.77 1720.59C245.77 1720.59 216.464 1751.92 216.571 1755.41C216.679 1758.9 216.571 1764.91 199.744 1769.98C182.916 1775.05 186.297 1794.57 204.6 1797.9C222.903 1801.24 266.916 1792.76 275.291 1790.22C283.667 1787.68 328.448 1773.88 328.571 1768.37C328.694 1762.85 355.603 1757.61 367.928 1748.57C380.253 1739.54 367.928 1705.14 360.044 1683.86C352.161 1662.58 351.269 1611.19 350.824 1580.07C350.378 1548.95 354.358 1492.67 358.308 1442.3C362.257 1391.92 347.55 1340.18 344.354 1321.94C341.157 1303.69 339.913 1276.85 339.836 1264.71C339.759 1252.57 358.984 1104.05 360.167 1097.49C361.351 1090.93 387.829 1148.2 395.513 1175.56C403.197 1202.91 424.035 1256.65 426.602 1265.41C429.168 1274.17 430.136 1294.52 438.527 1312.52C446.918 1330.51 447.317 1356.88 450.452 1390.64C453.588 1424.41 468.448 1491.15 475.379 1546.4C482.31 1601.64 483.401 1657.9 480.512 1673.18C477.623 1688.46 476.101 1708.8 479.19 1710.66C482.279 1712.52 487.857 1737.28 465.006 1761.79C442.154 1786.3 473.197 1791.56 475.21 1791.96C477.223 1792.36 537.864 1790.93 572.165 1788.27C606.465 1785.61 589.069 1745.65 584.966 1744.84C580.863 1744.02 577.574 1718.71 576.852 1703.79C576.13 1688.87 563.298 1656.38 563.298 1656.38C563.298 1656.38 553.677 1635.94 554.261 1603.99C554.845 1572.04 555.644 1505.64 557.55 1470.03C559.456 1434.43 548.329 1373.63 543.519 1361.09C538.709 1348.55 533.638 1312.25 530.902 1299.51C528.167 1286.77 528.198 1256.59 527.829 1248.8C527.46 1241.01 528.198 1171.06 528.766 1138.74C529.335 1106.42 511.293 997.354 508.343 980.45C505.392 963.545 489.102 841.695 488.58 830.707C488.057 819.719 487.043 733.045 487.151 713.021C487.258 692.997 495.096 608.567 495.096 608.567C495.096 608.567 489.686 579.368 491.899 581.335C494.112 583.302 515.443 633.586 524.171 648.953C532.9 664.321 539.693 695.517 540.784 697.454C541.875 699.39 551.879 726.898 554.569 751.487C557.258 776.075 579.987 829.355 585.058 846.136C590.13 862.918 594.832 916.136 595.032 920.378C595.232 924.619 590.191 936.76 590.299 938.819C590.406 940.878 584.321 957.629 580.386 964.191C576.452 970.753 565.526 1008.97 566.725 1013.17C567.923 1017.36 561.961 1049.21 561.93 1048.7C561.899 1048.19 568.077 1044.9 572.165 1040.45C576.252 1035.99 576.867 1029.07 578.865 1026.23C580.863 1023.39 588.9 1013.72 588.9 1013.72C588.9 1013.72 591.374 1039.02 591.682 1045.38C591.989 1051.74 589.161 1073.53 582.722 1095.75C576.283 1117.98 603.499 1095.75 603.254 1090.77C603.008 1085.8 658.731 1016.13 658.331 1007.9C657.932 999.659 656.334 977.084 655.104 961.993C653.875 946.902 644.039 872.861 642.887 869.787C641.734 866.714 634.219 760.431 629.363 724.624C624.507 688.817 606.573 636.229 601.886 627.008Z" stroke="#40BFFF" stroke-width="1.75" stroke-miterlimit="10" stroke-linecap="round" stroke-dasharray="1 3"/>
<path d="M581.769 624.242C577.42 614.853 574.085 573.713 574.085 573.713C574.085 573.083 565.617 492.172 545.24 427.597C524.862 363.022 463.238 362.853 449.345 360.21C399.954 350.789 380.191 304.087 379.945 300.199C379.699 296.311 378.116 273.597 377.501 260.904C377.163 254.05 382.004 247.564 385.431 237.637C388.858 227.709 390.518 195.944 385.339 196.897C385.907 195.622 387.398 174.937 387.244 171.817C387.753 162.299 386.235 152.781 382.791 143.893C379.347 135.005 374.056 126.949 367.266 120.258C344.43 91.7052 312.096 95.9928 297.943 98.7436C283.789 101.494 268.959 114.111 263.12 124.285C257.28 134.458 249.012 142.726 243.449 169.958C236.97 177.741 233.584 187.637 233.936 197.758C234.413 207.485 243.157 227.679 245.324 231.474C245.554 234.732 251.148 256.877 252.547 259.935C253.945 262.994 260.031 282.203 261.06 303.61C262.182 326.893 255.297 332.809 255.359 334.023C255.42 335.237 228.004 368.262 203.109 381.371C188.079 389.285 175.708 386.519 150.659 417.485C125.609 448.451 125.717 516.53 125.809 518.466C125.809 518.466 128.883 554.304 128.283 567.92C127.684 581.535 124.365 644.328 120.722 662.354C117.08 680.38 103.603 752.04 100.268 763.904C96.9332 775.768 93.0606 882.65 92.1078 903.381C91.155 924.112 90.1407 943.445 90.9552 960.242C91.7697 977.038 109.888 1030.09 110.841 1049.62C111.794 1069.15 146.602 1095.19 147.954 1094.09C149.306 1093 154.946 1046.68 154.854 1044.83C154.762 1042.97 143.62 1028.81 143.62 1028.81C143.62 1028.81 145.633 1018.81 146.033 1014.18C146.433 1009.56 150.505 1013.18 151.827 1014.38C153.148 1015.58 155.576 1027.15 155.669 1029.1C155.761 1031.06 157.205 1030.73 160.986 1029.3C164.766 1027.87 160.279 1011.62 158.942 1009.8C157.605 1007.99 152.165 974.549 151.781 966.773C151.396 958.997 136.029 936.391 135.967 935.146C135.906 933.901 134.984 902.013 135.967 896.957C136.951 891.901 144.757 855.695 149.276 828.387C153.794 801.078 177.076 744.863 180.595 736.887C184.114 728.912 187.372 690.585 187.587 682.332C187.802 674.08 205.813 634.692 206.413 634.001C207.012 633.309 196.992 748.936 196.992 748.936C196.992 748.936 194.011 838.683 193.027 886.108C192.044 933.532 200.711 1018.12 201.249 1030.33C201.787 1042.55 220.29 1151.66 219.921 1156.67C219.552 1161.68 217.969 1206.68 219.475 1225.12C220.981 1243.56 231.431 1285.21 231.769 1292.92C232.108 1300.64 238.839 1318.19 239.53 1345.39C240.222 1372.59 245.293 1422.76 244.233 1426.56C243.172 1430.35 254.652 1530.8 263.365 1576.89C272.079 1622.97 258.432 1652.19 259.508 1661.41C260.584 1670.63 235.996 1699.7 235.996 1699.7C235.996 1699.7 208.933 1730.59 209.133 1734.96C209.333 1739.32 209.133 1746.84 193.765 1751.48C178.397 1756.12 180.242 1777.03 199.528 1780.02C218.814 1783 263.304 1774.98 271.003 1772.65C278.702 1770.33 321.378 1757.29 319.396 1750.48C317.414 1743.67 341.833 1736.97 353.205 1728.61C364.577 1720.25 353.205 1687.79 345.721 1667.48C338.237 1647.16 337.13 1596.39 336.808 1563.85C336.485 1531.32 340.803 1475.21 344.322 1427.19C347.842 1379.17 334.426 1330.59 332.151 1312.65C330.027 1294.29 328.873 1275.82 328.693 1257.33C328.693 1245.7 347.304 1107.85 348.779 1099.64C350.254 1091.44 375.688 1137.94 382.757 1162.96C389.826 1187.98 411.326 1248.32 413.692 1257.19C416.059 1266.06 417.058 1286.54 424.45 1304.22C431.841 1321.89 431.411 1349.95 434.961 1384.36C438.511 1418.77 452.619 1483.27 459.042 1535.39C465.466 1587.52 466.726 1642.26 463.653 1657.78C460.579 1673.3 458.474 1694.49 462.346 1696.8C466.219 1699.11 473.473 1721.54 453.018 1743.99C432.564 1766.45 464.221 1771.93 466.742 1772.44C469.262 1772.95 527.367 1772.01 559.624 1769.2C591.881 1766.38 576.329 1728.9 571.288 1727.89C566.247 1726.87 563.158 1703.62 562.498 1689.99C561.837 1676.36 547.652 1644.81 547.652 1644.81C540.291 1629.22 536.68 1612.13 537.11 1594.9C537.648 1565.61 536.849 1504 538.924 1467.99C540.998 1431.98 531.24 1368.58 526.86 1357.08C522.48 1345.59 517.962 1308.64 515.35 1294.8C512.737 1280.95 513.167 1252.55 512.814 1244.79C512.46 1237.03 513.69 1171.02 514.182 1140.54C514.673 1110.05 498.061 1008.96 495.372 993.482C492.682 978.007 478.913 859.399 478.375 848.503C477.837 837.607 476.946 752.639 476.561 730.479C476.177 708.319 482.063 625.057 482.063 625.057C482.063 625.057 475.301 588.497 477.33 590.356C479.358 592.216 500.381 640.286 508.234 654.809C516.087 669.331 522.772 700.466 524.14 702.909C525.508 705.353 537.003 734.69 540.061 758.986C543.119 783.282 564.373 833.996 569.014 849.364C573.655 864.731 578.034 915.03 578.234 918.918C578.434 922.806 572.717 935.822 572.84 938.312C572.963 940.801 567.354 958.889 563.742 964.913C560.131 970.937 550.142 1006.41 551.587 1010.29C553.031 1014.18 547.837 1042.46 547.806 1041.84C547.775 1041.23 553.431 1037.23 557.134 1033.12C560.838 1029 561.745 1022.51 563.62 1020.39C565.494 1018.27 572.84 1010.59 572.84 1010.59C572.84 1010.59 574.146 1034.48 574.377 1040.32C574.607 1046.16 573.071 1069.75 567.477 1089.59C561.883 1109.43 588.992 1086.98 588.761 1080.74C588.531 1074.5 639.213 1007.5 638.783 998.615C638.353 989.732 636.678 967.879 635.31 952.512C633.942 937.144 623.876 861.489 622.447 857.8C621.018 854.112 612.458 752.993 607.633 719.491C602.807 685.99 586.133 633.647 581.769 624.242Z" stroke="#50AFFF" stroke-width="1.69" stroke-miterlimit="10" stroke-linecap="round" stroke-dasharray="1.25 2.75"/>
<path d="M561.668 621.522C557.657 611.902 554.707 572.13 554.707 572.13C554.707 571.377 546.608 493.478 525.862 433.975C505.115 374.471 449.899 374.655 436.099 371.751C390.196 362.069 369.603 318.348 369.434 314.89C369.265 311.432 367.052 290.932 366.36 277.393C365.961 269.156 370.633 261.426 373.752 252.42C376.872 243.415 378.685 213.233 374.136 213.725C374.813 212.188 376.826 191.902 376.657 188.168C376.488 184.434 378.393 160.506 357.908 140.236C337.054 112.375 307.809 115.356 294.716 116.801C281.623 118.245 266.962 128.173 260.354 136.886C253.746 145.6 243.111 152.73 236.181 179.793C229.349 188.21 225.834 198.837 226.299 209.668C226.729 218.519 234.782 238.313 236.718 241.771C236.38 244.583 241.774 267.235 243.449 270.969C248.348 283.959 251.204 297.63 251.917 311.494C252.962 333.209 246.984 340.693 247.061 342.229C247.138 343.766 221.427 377.391 194.703 390.591C180.073 397.814 162.923 396.155 139.533 430.163C116.143 464.172 116.159 532.236 116.251 534.003C116.251 534.003 119.002 569.671 118.126 582.611C117.25 595.55 113.162 656.099 109.796 675.37C106.431 694.641 94.7669 767.961 91.7394 778.749C88.712 789.537 85.0238 891.071 84.2093 910.819C83.3948 930.566 82.5496 949.776 83.3026 965.436C84.0556 981.095 105.847 1033.98 106.708 1051.68C107.568 1069.38 141.101 1094.28 141.5 1091.33C141.9 1088.38 146.448 1045.39 146.326 1043.15C146.203 1040.91 136.352 1026.03 136.352 1026.03C137.64 1022.14 138.702 1018.17 139.533 1014.15C140.102 1010.31 143.836 1014.15 145.403 1015.57C146.971 1016.98 149.737 1027.49 149.814 1029.27C149.891 1031.06 150.29 1027.89 153.764 1026.2C157.237 1024.51 151.873 1006.71 150.26 1004.55C148.646 1002.38 143.16 971.245 142.806 964.191C142.453 957.137 128.284 936.037 128.207 934.547C128.13 933.056 127.285 899.877 128.484 893.822C129.682 887.767 138.196 850.593 142.238 824.13C146.279 797.667 167.548 745.278 170.745 738.071C173.941 730.863 177.215 694.042 178.014 685.206C178.813 676.369 196.332 636.721 197.054 635.921C197.777 635.122 188.664 740.207 188.664 740.207C188.664 740.207 187.496 827.357 186.804 871.186C186.113 915.014 194.488 997.892 195.01 1009.73C195.533 1021.56 211.5 1129.53 211.039 1135.51C210.578 1141.49 208.503 1191.56 210.178 1210.81C211.853 1230.07 221.796 1273.4 222.165 1280.97C222.534 1288.53 228.743 1306.84 229.204 1332.12C229.665 1357.4 234.029 1405.21 232.754 1409.78C231.478 1414.34 241.16 1508.96 249.366 1553.04C257.572 1597.11 246.154 1629.03 247.445 1640.22C248.736 1651.4 226.268 1679.02 226.268 1679.02C226.268 1679.02 201.419 1709.48 201.68 1714.72C201.941 1719.96 201.68 1728.98 187.634 1733.16C173.588 1737.34 174.049 1759.73 194.288 1762.36C214.527 1764.99 259.524 1757.43 266.516 1755.32C273.509 1753.21 314.156 1740.87 310.038 1732.82C305.919 1724.77 327.864 1716.49 338.145 1708.89C348.426 1701.3 338.145 1670.71 331.061 1651.33C323.976 1631.95 322.655 1581.82 322.516 1547.87C322.378 1513.92 326.973 1457.97 330.077 1412.33C333.181 1366.69 321.102 1321.23 319.704 1303.63C318.305 1286.04 317.107 1261.34 317.322 1250.2C317.537 1239.06 335.394 1111.89 337.162 1102.05C338.929 1092.22 363.379 1127.87 369.787 1150.62C376.196 1173.36 398.34 1240.29 400.523 1249.25C402.705 1258.21 403.719 1278.83 410.158 1296.18C416.597 1313.53 415.306 1343.27 419.241 1378.34C423.175 1413.4 436.621 1475.63 442.476 1524.67C448.332 1573.7 449.945 1626.89 446.687 1642.66C443.429 1658.43 440.74 1680.46 445.381 1683.23C450.022 1686 458.966 1706.11 440.924 1726.49C422.883 1746.87 455.139 1752.62 458.167 1753.21C461.194 1753.81 516.764 1753.38 546.977 1750.42C577.19 1747.45 563.559 1712.44 557.504 1711.23C551.449 1710.02 548.652 1688.87 548.053 1676.5C547.453 1664.13 531.963 1633.59 531.963 1633.59C523.992 1619.06 519.846 1602.73 519.914 1586.15C520.406 1559.52 517.993 1502.69 520.252 1466.28C522.511 1429.88 514.213 1363.86 510.156 1353.42C506.099 1342.99 502.241 1305.38 499.737 1290.42C497.232 1275.45 498.2 1248.62 497.831 1241.06C497.462 1233.49 499.229 1171.21 499.614 1142.61C499.998 1114.01 484.861 1020.82 482.402 1006.76C479.943 992.698 468.709 877.348 468.187 866.529C467.664 855.71 466.911 772.463 466.004 748.198C465.098 723.932 469.078 641.715 469.078 641.715C469.078 641.715 460.918 597.81 462.793 599.5C464.667 601.19 485.291 647.14 492.283 660.756C499.276 674.371 505.838 705.522 507.482 708.396C509.126 711.269 522.158 742.604 525.57 766.654C528.981 790.705 548.775 838.79 552.986 852.714C557.196 866.637 561.269 914.046 561.438 917.581C561.607 921.115 555.291 934.992 555.398 937.989C555.506 940.986 550.404 960.334 547.131 965.804C543.857 971.275 534.836 1004.12 536.465 1007.59C538.094 1011.06 533.745 1035.9 533.699 1035.14C533.653 1034.39 538.755 1029.64 542.121 1025.92C545.486 1022.2 546.731 1016.09 548.406 1014.7C550.081 1013.32 556.935 1007.6 556.935 1007.6C556.935 1007.6 557.073 1030.1 557.319 1035.42C557.565 1040.74 557.227 1066.16 552.494 1083.6C547.761 1101.04 574.885 1078.36 574.516 1070.87C574.147 1063.39 619.958 999.152 619.497 989.686C619.036 980.219 617.269 958.95 615.763 943.429C614.257 927.908 603.976 850.562 602.301 846.152C600.625 841.741 590.975 745.893 586.195 714.742C581.416 683.592 565.679 631.157 561.668 621.522Z" stroke="#609FFF" stroke-width="1.63" stroke-miterlimit="10" stroke-linecap="round" stroke-dasharray="1.5 2.5"/>
<path d="M541.567 618.971C537.894 609.105 535.328 570.716 535.328 570.716C535.328 569.84 527.644 494.938 506.483 440.506C485.321 386.073 436.56 386.626 422.836 383.43C380.406 373.579 359.06 332.717 358.907 329.643C358.753 326.569 355.971 308.313 355.28 293.928C354.819 284.324 359.322 275.349 362.119 267.235C364.915 259.121 366.883 230.552 362.979 230.583C363.763 228.8 366.314 208.899 366.053 204.535C365.791 200.17 366.959 178.486 348.518 160.229C329.662 133.244 303.475 134.919 291.443 135.042C279.41 135.165 264.918 142.357 257.557 149.656C250.196 156.956 237.21 162.903 228.865 189.766C221.636 198.793 217.987 210.168 218.615 221.716C218.999 229.676 226.299 249.101 228.066 252.205C227.144 254.572 232.338 277.746 234.29 282.018C239.185 293.954 242.058 306.621 242.788 319.5C243.757 339.632 238.701 348.791 238.777 350.528C238.854 352.264 214.911 386.657 186.327 399.919C172.128 406.512 150.167 405.898 128.422 442.949C106.677 480.001 106.631 548.049 106.707 549.647C106.707 549.647 109.151 585.162 107.983 597.41C106.815 609.658 101.928 668.101 98.8545 688.571C95.781 709.041 85.9149 784.081 83.1948 793.794C80.4747 803.506 77.0478 899.692 76.2947 918.472C75.5417 937.251 74.927 956.322 75.6339 970.814C76.3409 985.306 101.759 1038.02 102.558 1053.95C103.357 1069.89 135.645 1093.57 135.122 1088.75C134.6 1083.92 138.011 1044.27 137.888 1041.66C137.766 1039.05 129.16 1023.49 129.16 1023.49C130.738 1020.54 132.054 1017.46 133.094 1014.27C133.816 1011.2 137.212 1015.26 139.041 1016.92C140.87 1018.58 143.959 1028.01 144.036 1029.6C144.112 1031.18 143.513 1025.2 146.617 1023.29C149.722 1021.39 143.544 1002.03 141.654 999.49C139.763 996.955 134.169 968.186 133.862 961.824C133.555 955.462 120.554 935.899 120.477 934.162C120.4 932.426 119.601 897.956 121.015 890.887C122.429 883.818 131.649 845.69 135.199 820.072C138.749 794.454 158.02 745.908 160.909 739.392C163.798 732.876 167.056 697.546 168.47 688.156C169.884 678.766 186.911 638.826 187.711 637.904C188.51 636.982 180.334 731.508 180.334 731.508C180.334 731.508 180.98 816.031 180.595 856.294C180.211 896.557 188.279 977.699 188.771 989.148C189.263 1000.6 202.725 1107.48 202.187 1114.43C201.649 1121.37 199.113 1176.51 200.911 1196.66C202.709 1216.8 212.191 1261.76 212.545 1269.15C212.898 1276.54 218.615 1295.63 218.861 1318.98C219.107 1342.34 222.749 1387.79 221.258 1393.12C219.768 1398.45 227.667 1487.23 235.366 1529.29C243.065 1571.35 233.829 1606.02 235.366 1619.09C236.903 1632.15 216.571 1658.46 216.571 1658.46C216.571 1658.46 193.934 1688.49 194.226 1694.6C194.518 1700.72 194.226 1711.23 181.563 1715.04C168.901 1718.85 167.917 1742.7 189.124 1744.79C210.332 1746.88 255.82 1739.97 262.121 1738.08C268.422 1736.19 306.933 1724.58 300.771 1715.26C294.608 1705.93 314.002 1696.08 323.254 1689.25C332.505 1682.43 323.131 1653.68 316.569 1635.25C310.007 1616.83 308.347 1567.33 308.378 1531.95C308.408 1496.57 313.295 1440.79 315.985 1397.51C318.674 1354.24 307.932 1311.92 307.41 1294.64C306.887 1277.37 305.734 1253.73 306.103 1243.11C306.472 1232.5 323.638 1115.96 325.712 1104.5C327.787 1093.03 351.223 1117.84 357.001 1138.31C362.779 1158.78 385.539 1232.28 387.567 1241.27C389.596 1250.26 390.641 1271.08 396.066 1288.13C401.491 1305.17 399.385 1336.57 403.75 1372.3C408.114 1408.03 420.731 1468.01 426.14 1513.92C431.55 1559.84 433.332 1611.51 429.89 1627.52C426.448 1643.54 423.174 1666.4 428.584 1669.64C433.993 1672.89 444.628 1690.65 428.983 1708.96C413.339 1727.26 446.226 1733.25 449.761 1733.96C453.295 1734.67 506.329 1734.73 534.498 1731.61C562.667 1728.49 550.942 1695.95 543.872 1694.54C536.803 1693.13 534.283 1674.1 533.745 1662.96C533.207 1651.82 516.241 1622.34 516.241 1622.34C516.241 1622.34 502.257 1601.35 502.687 1577.38C503.117 1553.4 499.122 1501.35 501.565 1464.58C504.009 1427.8 497.078 1359.16 493.436 1349.75C489.793 1340.35 486.505 1302.11 484.123 1286.05C481.741 1269.99 483.155 1244.8 482.801 1237.41C482.448 1230.02 484.707 1171.52 485.014 1144.79C485.321 1118.07 471.675 1032.72 469.462 1020.11C467.249 1007.51 458.536 895.374 458.013 884.647C457.491 873.921 456.891 792.441 455.462 765.947C454.033 739.453 456.031 658.373 456.031 658.373C456.031 658.373 446.549 607.199 448.224 608.705C449.899 610.211 470.138 654.178 476.285 666.81C482.432 679.443 488.856 710.685 490.777 714.097C492.698 717.508 507.313 750.718 511.093 774.538C514.874 798.358 533.146 843.785 536.972 856.371C540.799 868.957 544.518 913.354 544.656 916.551C544.794 919.747 537.802 934.485 537.971 937.989C538.14 941.493 533.468 962.101 530.518 967.018C527.567 971.936 519.453 1002.1 521.297 1005.21C523.141 1008.31 519.591 1029.64 519.561 1028.77C519.53 1027.89 524.048 1022.42 527.075 1019.08C530.103 1015.75 531.578 1010.02 533.146 1009.37C534.713 1008.73 540.906 1004.98 540.906 1004.98C540.906 1004.98 539.861 1026.09 540.092 1030.86C540.322 1035.62 541.229 1062.82 537.326 1077.94C533.422 1093.06 560.531 1070.07 560.101 1061.35C559.67 1052.62 600.518 990.915 600.057 980.742C599.596 970.568 597.69 950.175 596.153 934.362C594.617 918.549 583.997 839.651 582 834.472C580.002 829.293 569.337 738.746 564.603 709.994C559.87 681.241 545.225 628.821 541.567 618.971Z" stroke="#708FFF" stroke-width="1.56" stroke-miterlimit="10" stroke-linecap="round" stroke-dasharray="1.75 2.25"/>
<path d="M521.45 616.881C518.131 606.784 515.918 569.763 515.918 569.763C515.918 568.765 508.557 496.875 487.073 447.513C465.589 398.152 423.205 399.074 409.558 395.601C370.586 385.689 348.518 347.669 348.379 344.888C348.241 342.106 344.891 326.201 344.153 310.971C343.615 299.999 347.964 289.779 350.454 282.572C352.944 275.364 355.064 248.394 351.776 247.964C352.682 245.92 355.74 226.449 355.495 221.424C355.249 216.399 355.495 196.974 339.174 180.746C322.27 154.528 299.218 154.912 288.215 153.698C277.212 152.484 262.92 156.941 254.79 162.919C246.661 168.897 231.308 173.676 221.596 200.324C211.192 212.833 210.639 227.279 210.977 234.348C211.315 241.417 217.908 260.473 219.46 263.224C217.923 265.13 222.948 288.827 225.192 293.713C230.035 304.58 232.913 316.219 233.69 328.091C234.582 346.655 230.432 357.443 230.524 359.441C230.617 361.439 208.456 396.6 177.998 409.847C164.259 415.825 137.458 416.225 117.372 456.304C97.2865 496.383 97.1636 564.446 97.225 565.86C97.225 565.86 99.3458 601.206 97.9166 612.793C96.4874 624.38 90.7706 680.549 87.989 702.356C85.2075 724.163 77.1395 800.709 74.7268 809.407C72.314 818.105 69.0253 908.882 68.4721 926.678C67.9189 944.474 67.4117 963.438 68.0571 976.746C68.7026 990.055 97.8244 1042.61 98.5159 1056.78C99.2075 1070.95 130.158 1093.46 128.667 1086.79C127.177 1080.12 129.513 1043.76 129.374 1040.8C129.236 1037.83 121.921 1021.48 121.921 1021.48C123.748 1019.55 125.323 1017.4 126.608 1015.07C127.499 1012.77 130.542 1017.04 132.632 1018.95C134.722 1020.85 138.134 1029.2 138.195 1030.61C138.257 1032.02 136.659 1023.19 139.409 1021.07C142.16 1018.95 135.137 998.015 132.986 995.111C130.834 992.206 125.148 965.789 124.872 960.134C124.595 954.478 112.793 936.437 112.7 934.439C112.608 932.441 111.87 896.711 113.484 888.628C115.098 880.544 125.041 841.449 128.099 816.707C131.157 791.965 148.446 747.23 150.997 741.405C153.548 735.581 156.76 701.757 158.85 691.814C160.94 681.871 177.291 641.638 178.305 640.578C179.319 639.517 171.974 723.563 171.974 723.563C171.974 723.563 174.432 805.519 174.356 842.156C174.279 878.793 182.039 958.243 182.5 969.308C182.961 980.373 193.919 1086.1 193.258 1094.06C192.597 1102.02 189.554 1162.19 191.567 1183.2C193.581 1204.2 202.509 1250.81 202.863 1258.04C203.216 1265.26 208.426 1285.11 208.472 1306.57C208.518 1328.02 211.422 1371.11 209.717 1377.17C208.011 1383.22 214.112 1466.22 221.304 1506.26C228.496 1546.29 221.534 1583.72 223.256 1598.65C224.977 1613.57 206.735 1638.48 206.735 1638.48C206.735 1638.48 186.296 1668.08 186.634 1675.05C186.972 1682.03 186.557 1694.06 175.37 1697.45C164.182 1700.83 161.662 1726.04 183.837 1727.81C206.013 1729.58 251.993 1723.09 257.602 1721.4C263.212 1719.71 299.633 1708.86 291.411 1698.26C283.19 1687.66 300.048 1676.25 308.316 1670.18C316.584 1664.11 308.147 1637.23 302.046 1619.76C295.945 1602.29 293.993 1553.42 294.224 1516.63C294.454 1479.84 299.587 1424.21 301.907 1383.31C304.228 1342.42 294.777 1303.23 295.115 1286.28C295.453 1269.33 294.362 1246.77 294.884 1236.66C295.407 1226.55 311.881 1120.68 314.248 1107.57C316.614 1094.46 339.067 1108.43 344.199 1126.63C349.332 1144.82 372.66 1224.81 374.535 1233.94C376.41 1243.07 377.409 1264 381.896 1280.7C386.384 1297.41 383.433 1330.5 388.151 1366.89C392.869 1403.28 404.794 1461 409.666 1503.81C414.537 1546.63 416.581 1596.74 412.939 1613.02C409.297 1629.29 405.455 1652.97 411.633 1656.69C417.811 1660.41 430.074 1675.82 416.904 1692.04C403.734 1708.25 437.159 1714.5 441.2 1715.3C445.242 1716.1 495.74 1716.67 521.865 1713.4C547.99 1710.12 538.186 1680.06 530.102 1678.47C522.019 1676.87 519.791 1659.93 519.345 1650.04C518.899 1640.14 500.643 1611.62 500.643 1611.62C500.643 1611.62 485.198 1590.42 485.582 1569.12C485.966 1547.83 480.357 1500.54 482.985 1463.38C485.613 1426.22 480.065 1354.95 476.838 1346.59C473.611 1338.23 470.875 1299.33 468.632 1282.18C466.388 1265.03 468.247 1241.5 467.894 1234.25C467.54 1226.99 470.322 1172.3 470.537 1147.44C470.752 1122.57 458.504 1045.21 456.537 1033.96C454.57 1022.71 448.377 913.892 447.87 903.243C447.363 892.593 446.917 812.788 444.95 784.204C442.983 755.62 443.044 675.632 443.044 675.632C443.044 675.632 432.287 617.142 433.701 618.494C435.115 619.847 455.216 661.678 460.379 673.357C465.543 685.037 471.966 716.387 474.21 720.229C476.454 724.071 492.513 759.278 496.662 782.852C500.812 806.426 517.639 849.24 521.02 860.428C524.401 871.616 527.828 913.078 527.966 915.921C528.105 918.764 520.436 934.362 520.636 938.373C520.836 942.384 516.625 964.252 514.012 968.632C511.4 973.012 504.208 1000.49 506.329 1003.21C508.449 1005.93 505.652 1023.77 505.606 1022.79C505.56 1021.8 509.51 1015.6 512.214 1012.63C514.919 1009.66 516.656 1004.32 518.07 1004.41C520.451 1004.06 522.797 1003.49 525.077 1002.72C525.077 1002.72 522.864 1022.43 523.079 1026.68C523.295 1030.92 525.431 1059.92 522.372 1072.67C519.314 1085.43 546.377 1062.18 545.9 1052.2C545.424 1042.23 581.246 983.17 580.77 972.29C580.293 961.409 578.296 941.8 576.528 925.787C574.761 909.774 564.019 829.232 561.729 823.346C559.439 817.46 547.729 732.169 543.042 705.706C538.355 679.243 524.785 627.008 521.45 616.881Z" stroke="#8080FF" stroke-width="1.5" stroke-miterlimit="10" stroke-linecap="round" stroke-dasharray="2 2"/>
<path d="M501.365 615.206C498.383 604.879 496.539 569.226 496.539 569.226C496.539 568.104 489.547 499.226 467.694 454.936C445.841 410.646 409.865 411.906 396.296 408.187C360.766 398.291 337.899 362.976 337.899 360.548C337.899 358.119 333.857 344.488 333.088 328.429C332.489 316.135 336.669 304.625 338.851 298.308C341.034 291.992 343.293 266.636 340.649 265.744C341.664 263.439 345.26 244.337 344.968 238.728C344.676 233.119 344.215 215.876 329.861 201.676C314.924 176.197 294.946 175.198 284.972 172.708C274.999 170.219 260.922 171.894 252.024 176.396C243.126 180.899 225.407 184.587 214.311 211.035C202.617 225.097 203.032 240.956 203.339 247.149C203.646 253.343 209.486 271.999 210.869 274.412C208.81 275.872 213.589 300.076 216.094 305.593C218.599 311.11 223.932 323.25 224.592 336.881C225.407 353.878 222.18 366.295 222.287 368.539C222.395 370.782 202.033 406.789 169.684 419.974C156.406 425.384 124.764 426.767 106.338 469.873C87.9121 512.98 87.697 581.043 87.7584 582.273C87.7584 582.273 89.5718 617.449 87.8506 628.376C86.1294 639.302 79.6135 693.258 77.0932 716.341C74.5729 739.423 68.3337 817.675 66.2283 825.236C64.1229 832.797 61.034 918.288 60.6037 935.115C60.1734 951.943 59.8507 970.768 60.4347 982.924C61.0186 995.08 93.8133 1047.47 94.4127 1059.84C95.012 1072.21 124.687 1093.53 122.259 1084.97C119.831 1076.41 121.06 1043.47 120.907 1040.06C120.753 1036.65 114.759 1019.64 114.759 1019.64C114.759 1019.64 119.155 1017.49 120.215 1015.96C121.275 1014.44 123.965 1018.93 126.362 1021.07C129.069 1024.19 131.155 1027.81 132.509 1031.72C132.509 1032.96 129.989 1021.28 132.356 1018.92C134.722 1016.55 126.885 994.081 124.472 990.823C122.059 987.565 116.281 963.484 116.035 958.551C115.789 953.618 105.185 937.036 105.078 934.839C104.97 932.641 104.309 895.574 106.107 886.476C107.905 877.379 118.586 837.3 121.152 813.434C123.719 789.568 139.01 748.628 141.238 743.557C143.466 738.485 146.647 706.09 149.398 695.594C152.149 685.098 167.993 644.573 169.069 643.344C170.145 642.115 163.767 715.726 163.767 715.726C163.767 715.726 168.039 795.1 168.27 828.141C168.5 861.181 175.954 938.926 176.399 949.545C176.845 960.165 185.267 1064.8 184.575 1073.76C183.883 1082.72 180.287 1147.93 182.47 1169.78C184.652 1191.63 193.073 1239.89 193.411 1246.97C193.749 1254.06 198.467 1274.63 198.298 1294.18C198.129 1313.73 200.311 1354.41 198.406 1361.26C196.5 1368.12 200.803 1445.26 207.488 1483.27C214.173 1521.27 209.455 1561.47 211.392 1578.25C213.328 1595.03 197.207 1618.59 197.207 1618.59C197.207 1618.59 178.981 1647.79 179.365 1655.61C179.75 1663.44 179.273 1676.99 169.484 1679.96C159.695 1682.92 155.653 1709.57 178.858 1710.94C202.063 1712.31 248.474 1706.33 253.361 1704.79C258.248 1703.25 292.61 1693.19 282.252 1681.32C271.894 1669.46 286.278 1656.49 293.471 1651.17C300.663 1645.86 293.24 1620.85 287.6 1604.32C281.96 1587.78 279.732 1539.56 280.131 1501.35C280.531 1463.15 285.956 1407.61 287.815 1369.19C289.675 1330.77 281.668 1294.61 282.821 1277.98C283.973 1261.36 282.99 1239.87 283.651 1230.27C284.311 1220.66 300.109 1125.46 302.783 1110.71C305.457 1095.95 326.895 1099.09 331.398 1115.01C335.901 1130.93 359.905 1217.57 361.595 1226.84C363.286 1236.11 364.3 1257.13 367.743 1273.53C371.185 1289.92 367.42 1324.69 372.583 1361.72C377.747 1398.76 388.889 1454.24 393.299 1493.88C397.71 1533.53 399.938 1582.17 396.111 1598.69C392.285 1615.21 387.859 1639.75 394.805 1643.92C401.751 1648.08 415.782 1661.18 404.948 1675.36C394.114 1689.55 428.214 1696 432.763 1696.88C437.312 1697.75 485.275 1698.84 509.356 1695.42C533.437 1691.99 525.461 1664.6 516.44 1662.79C507.42 1660.98 505.391 1646.18 504.976 1637.51C504.561 1628.84 484.998 1601.27 484.998 1601.27C484.998 1601.27 468.094 1579.9 468.432 1561.32C468.77 1542.74 461.547 1500.15 464.359 1462.63C467.172 1425.1 463.007 1351.18 460.164 1343.87C457.321 1336.55 455.185 1297.01 453.064 1278.75C450.943 1260.5 453.264 1238.63 452.91 1231.54C452.557 1224.46 455.846 1173.56 455.984 1150.54C456.122 1127.52 445.303 1058.1 443.582 1048.25C441.861 1038.4 438.203 932.856 437.681 922.237C437.158 911.618 436.882 833.581 434.392 802.861C431.903 772.141 430.028 693.228 430.028 693.228C430.028 693.228 417.887 627.438 419.132 628.545C420.377 629.651 440.048 669.469 444.397 680.196C448.746 690.922 455 722.288 457.475 726.668C459.949 731.047 477.606 768.16 482.063 791.473C486.52 814.786 501.933 854.988 504.884 864.777C507.835 874.566 510.939 913.093 511.031 915.567C511.123 918.042 502.825 934.547 503.055 939.034C503.286 943.521 499.536 966.696 497.246 970.507C494.956 974.318 488.702 999.122 491.099 1001.49C493.496 1003.85 491.437 1018.19 491.391 1017.07C491.345 1015.95 494.726 1009.03 497.077 1006.44C499.428 1003.84 501.442 998.891 502.732 999.721C504.023 1000.55 508.987 1000.74 508.987 1000.74C508.987 1000.74 505.606 1019.05 505.791 1022.77C505.975 1026.49 509.356 1057.29 507.143 1067.68C504.93 1078.07 531.962 1054.57 531.424 1043.33C530.886 1032.1 561.791 975.717 561.237 964.252C560.684 952.788 558.64 933.84 556.735 917.596C554.829 901.352 543.872 819.243 541.367 812.573C538.862 805.904 525.999 725.945 521.389 701.803C516.779 677.66 504.346 625.471 501.365 615.206Z" stroke="#8F70FF" stroke-width="1.44" stroke-miterlimit="10" stroke-linecap="round" stroke-dasharray="2.25 1.75"/>
<path d="M481.264 614.253C478.621 603.68 477.161 569.41 477.161 569.41C477.161 568.166 470.538 502.3 448.316 463.066C426.094 423.832 396.542 425.584 383.049 421.481C350.946 411.692 327.449 379.005 327.341 376.915C327.234 374.825 322.731 363.483 321.932 346.579C321.271 332.855 325.282 320.162 327.157 314.752C329.032 309.343 331.445 285.554 329.432 284.232C330.553 281.681 334.657 262.963 334.349 256.724C334.042 250.484 332.812 235.47 320.518 223.299C307.625 198.711 290.674 196.406 281.792 192.564C272.909 188.722 258.971 187.677 249.304 190.781C239.638 193.885 219.568 196.421 207.089 222.669C194.088 238.298 195.487 255.556 195.748 260.858C196.009 266.16 201.142 284.432 202.31 286.506C199.667 287.505 204.246 312.247 207.043 318.364C209.84 324.48 214.973 334.869 215.541 346.548C216.294 361.916 214.005 376.023 214.005 378.513C214.005 381.002 195.563 417.962 161.309 430.963C148.492 435.819 112.025 438.155 95.2278 484.304C78.4309 530.453 78.1696 598.501 78.2157 599.562C78.2157 599.562 79.7525 634.569 77.7239 644.804C75.6954 655.039 68.4111 706.813 66.2135 731.171C64.016 755.529 59.544 835.425 57.7306 841.895C55.9172 848.365 53.0281 928.523 52.7361 944.367C52.4441 960.211 52.2751 978.913 52.7361 989.901C53.1971 1000.89 89.7415 1053.09 90.2486 1063.67C90.7557 1074.24 119.14 1094.4 115.759 1084.03C112.378 1073.66 112.516 1043.96 112.332 1040.22C112.148 1036.47 107.414 1018.7 107.414 1018.7C107.414 1018.7 112.409 1018.52 113.561 1017.76C114.714 1017.01 117.127 1021.71 119.708 1024.09C122.29 1026.48 126.378 1032.65 126.424 1033.71C126.47 1034.78 122.905 1020.27 124.887 1017.67C126.87 1015.07 118.233 991.039 115.544 987.427C112.855 983.816 106.999 962.07 106.8 957.814C106.6 953.557 97.1641 938.573 97.0565 936.068C96.949 933.563 96.3342 895.267 98.3474 885.17C100.361 875.074 111.763 834.057 113.838 811.006C115.913 787.954 129.206 750.888 131.127 746.538C133.048 742.189 136.183 711.193 139.579 700.22C142.975 689.248 158.45 648.354 159.711 646.986C160.971 645.619 155.438 708.719 155.438 708.719C155.438 708.719 161.585 785.557 162.062 814.94C162.538 844.323 169.669 920.424 170.161 930.72C170.652 941.017 176.477 1044.44 175.724 1054.41C174.971 1064.39 170.852 1134.62 173.203 1157.38C175.555 1180.14 183.469 1229.98 183.807 1236.91C184.145 1243.84 188.418 1265.2 187.972 1282.81C187.526 1300.42 189.048 1338.75 186.927 1346.36C184.806 1353.96 187.311 1425.28 193.489 1461.27C199.667 1497.27 197.177 1540.2 199.329 1558.86C201.48 1577.52 187.372 1599.78 187.372 1599.78C187.372 1599.78 171.359 1628.52 171.79 1637.25C172.22 1645.98 171.682 1661.01 163.291 1663.54C154.901 1666.08 149.46 1694.17 173.572 1695.13C197.684 1696.08 244.648 1690.62 248.874 1689.36C253.1 1688.1 285.342 1678.71 272.894 1665.56C260.446 1652.4 272.325 1637.9 278.488 1633.29C284.65 1628.68 278.211 1605.62 273.017 1590.01C267.822 1574.4 265.333 1526.83 265.917 1487.22C266.501 1447.6 272.202 1392.29 273.601 1356.11C274.999 1319.94 268.314 1287.05 270.404 1270.75C272.494 1254.44 271.495 1234.03 272.31 1224.92C273.124 1215.81 288.231 1131.28 291.197 1114.89C294.163 1098.49 314.617 1090.79 318.459 1104.44C322.301 1118.08 346.951 1211.3 348.472 1220.68C349.993 1230.05 351.008 1251.2 353.543 1267.27C356.079 1283.35 351.407 1319.78 356.97 1357.47C362.534 1395.15 372.937 1448.4 376.841 1485.02C380.744 1521.64 383.203 1568.66 379.192 1585.43C375.181 1602.2 370.171 1627.58 377.886 1632.21C385.6 1636.84 401.322 1647.58 392.885 1659.7C384.448 1671.83 419.179 1678.51 424.219 1679.53C429.26 1680.54 474.702 1682.09 496.74 1678.53C518.777 1674.96 512.799 1649.85 502.702 1647.79C492.606 1645.73 490.931 1633.09 490.562 1625.66C490.193 1618.24 469.293 1591.65 469.293 1591.65C469.293 1591.65 450.929 1570.14 451.221 1554.11C451.513 1538.08 442.691 1500.32 445.673 1462.47C448.654 1424.62 445.888 1348.03 443.46 1341.76C441.032 1335.49 439.464 1295.29 437.451 1275.94C435.438 1256.59 438.219 1236.37 437.897 1229.45C437.574 1222.54 441.354 1175.42 441.385 1154.27C441.416 1133.13 432.072 1071.63 430.628 1063.17C429.183 1054.72 428.015 952.527 427.554 941.97C427.093 931.412 426.924 855.127 423.897 822.255C420.869 789.384 417.058 711.608 417.058 711.608C417.058 711.608 403.519 638.504 404.626 639.502C405.732 640.501 425.003 678.183 428.492 687.957C431.98 697.731 438.112 729.142 440.786 734.06C443.46 738.978 462.731 777.95 467.587 801.048C472.443 824.145 486.351 861.704 488.887 870.079C491.422 878.455 494.204 914.062 494.312 916.182C494.419 918.303 485.444 935.684 485.675 940.679C485.905 945.673 482.601 970.092 480.68 973.381C478.759 976.67 473.396 998.769 475.993 1000.77C478.59 1002.76 477.361 1013.6 477.3 1012.35C478.17 1008.38 479.793 1004.61 482.079 1001.24C484.092 999.014 486.382 994.466 487.519 996.033C488.656 997.601 493.021 999.752 493.021 999.752C493.021 999.752 488.41 1016.66 488.626 1019.87C488.841 1023.08 493.42 1055.66 492.052 1063.68C490.685 1071.7 517.778 1047.88 517.117 1035.41C516.456 1022.93 542.459 969.186 541.875 957.03C541.291 944.874 539.155 926.709 537.111 910.235C535.067 893.761 523.879 810.007 521.021 802.661C518.162 795.316 504.362 720.582 499.736 698.776C495.111 676.969 483.969 624.811 481.264 614.253Z" stroke="#9F60FF" stroke-width="1.38" stroke-miterlimit="10" stroke-linecap="round" stroke-dasharray="2.5 1.5"/>
<path d="M461.194 614.099C458.904 603.342 457.798 570.394 457.798 570.394C457.798 569.026 451.543 506.172 428.952 472.04C406.362 437.909 383.203 440.091 369.802 435.619C341.111 426.03 316.922 395.863 316.83 394.126C316.737 392.39 311.697 383.369 310.836 365.588C310.419 354.223 311.979 342.872 315.446 332.041C316.983 327.538 319.565 305.362 318.197 303.564C319.442 300.752 324.052 282.434 323.714 275.58C323.376 268.726 321.302 255.925 311.051 245.766C300.14 221.9 286.279 218.35 278.441 213.141C270.604 207.931 256.926 204.197 246.415 205.887C235.903 207.578 213.559 208.961 199.682 235.086C185.39 252.282 187.756 270.939 187.971 275.349C188.187 279.76 192.582 297.648 193.565 299.384C190.353 299.938 194.718 325.187 197.791 331.918C200.865 338.649 205.813 347.285 206.274 356.998C206.951 370.829 205.537 386.535 205.66 389.27C205.783 392.005 189.139 429.994 152.887 442.75C140.593 447.083 99.2229 450.433 84.0857 499.533C68.9486 548.633 68.5951 616.773 68.718 617.649C68.718 617.649 69.9167 652.503 67.6269 662.062C65.3371 671.621 57.223 721.197 55.3327 746.846C53.4425 772.494 50.7224 854.02 49.1857 859.414C47.6489 864.808 44.9903 939.618 44.8212 954.479C44.6522 969.339 44.6676 987.934 45.144 997.754C45.6204 1007.57 85.7608 1059.61 86.1911 1068.45C86.6214 1077.28 113.699 1096.25 109.381 1084C105.063 1071.75 104.094 1045.39 103.895 1041.29C103.695 1037.19 100.237 1018.67 100.237 1018.67C102.514 1019.43 104.84 1020.03 107.199 1020.47C108.582 1020.47 110.58 1025.4 113.469 1028.01C116.358 1030.63 120.722 1035.7 120.768 1036.62C120.815 1037.54 116.25 1020.16 117.879 1017.32C119.508 1014.47 110.026 988.902 107.122 984.922C104.217 980.942 98.224 961.532 98.055 957.998C97.8859 954.463 89.6488 940.97 89.5105 938.235C89.3722 935.5 88.8344 895.897 91.0473 884.801C93.2603 873.706 105.385 831.721 106.968 809.5C108.551 787.278 119.846 754.068 121.445 750.442C123.043 746.815 126.147 717.355 130.189 705.752C134.231 694.15 148.968 653.041 150.274 651.597C151.581 650.152 147.032 702.694 147.032 702.694C147.032 702.694 154.931 776.874 155.776 802.723C156.621 828.571 163.368 902.905 163.844 912.817C164.321 922.729 167.625 1025 166.779 1035.99C165.934 1046.98 161.324 1122.23 163.844 1145.79C166.364 1169.35 173.772 1220.89 174.094 1227.67C174.417 1234.45 178.151 1256.58 177.537 1272.24C176.922 1287.9 177.675 1323.89 175.339 1332.26C173.003 1340.64 173.726 1406.14 179.396 1440.1C185.067 1474.06 184.806 1519.76 187.172 1540.28C189.539 1560.8 177.644 1581.63 177.644 1581.63C177.644 1581.63 163.813 1609.94 164.305 1619.55C164.797 1629.15 164.198 1645.67 157.205 1647.79C150.213 1649.91 143.374 1679.43 168.393 1679.99C193.412 1680.54 240.929 1675.59 244.417 1674.53C247.905 1673.47 278.103 1664.84 263.55 1650.4C248.997 1635.97 258.386 1619.92 263.55 1616.12C268.713 1612.32 263.227 1591.04 258.478 1576.41C253.73 1561.78 250.979 1514.82 251.747 1473.78C252.516 1432.75 258.494 1377.6 259.523 1343.8C260.553 1310.01 255.159 1280.24 258.125 1264.26C261.091 1248.28 260.138 1228.92 261.106 1220.34C262.074 1211.76 276.474 1137.88 279.747 1119.84C283.021 1101.79 302.492 1083.18 305.703 1094.56C308.915 1105.93 334.195 1205.71 335.532 1215.19C336.869 1224.67 337.899 1245.93 339.466 1261.71C341.034 1277.49 335.501 1315.57 341.479 1353.92C347.457 1392.26 357.108 1443.25 360.505 1476.73C363.901 1510.22 366.652 1555.74 362.395 1572.75C358.138 1589.76 352.59 1615.98 361.089 1621.08C369.587 1626.19 386.983 1634.59 380.959 1644.64C374.935 1654.69 410.204 1661.64 415.813 1662.79C421.422 1663.94 464.267 1665.96 484.261 1662.24C504.254 1658.52 500.197 1635.88 489.086 1633.67C477.975 1631.46 476.577 1620.88 476.285 1614.69C475.993 1608.5 453.725 1582.88 453.725 1582.88C453.725 1582.88 433.901 1561.13 434.147 1547.81C434.392 1534.49 424.035 1501.43 427.108 1463.21C430.182 1424.99 428.891 1345.76 426.862 1340.53C424.834 1335.31 423.789 1294.43 421.96 1274C420.131 1253.58 423.312 1235 422.99 1228.22C422.667 1221.45 426.955 1178.14 426.908 1158.85C426.862 1139.57 418.948 1085.98 417.688 1078.94C416.428 1071.9 417.841 972.904 417.334 962.485C416.827 952.066 416.858 877.44 413.308 842.433C409.758 807.425 403.995 730.71 403.995 730.71C403.995 730.71 389.104 650.29 390.026 651.136C390.948 651.981 409.881 687.557 412.478 696.393C415.075 705.23 421.13 736.688 424.127 742.051C427.124 747.414 447.947 788.369 453.233 811.221C458.52 834.073 470.891 869.003 472.996 875.996C475.102 882.988 477.606 915.644 477.606 917.412C477.606 919.179 468.063 937.39 468.386 942.922C468.709 948.454 465.866 974.103 464.221 976.839C462.577 979.574 458.197 998.983 461.025 1000.63C463.852 1002.27 463.407 1009.6 463.345 1008.22C463.284 1006.84 465.527 998.492 467.218 996.632C468.908 994.773 471.444 990.623 472.443 992.929C473.781 995.24 475.374 997.395 477.192 999.352C477.192 999.352 471.459 1014.89 471.598 1017.53C471.736 1020.18 477.606 1054.6 477.084 1060.24C476.561 1065.88 503.455 1041.94 502.794 1028.11C502.133 1014.27 523.11 963.3 522.496 950.545C521.881 937.789 519.653 920.301 517.47 903.596C515.288 886.891 503.885 801.524 500.735 793.425C497.584 785.326 482.739 715.88 478.16 696.424C473.58 676.969 463.499 624.903 461.194 614.099Z" stroke="#AF50FF" stroke-width="1.31" stroke-miterlimit="10" stroke-linecap="round" stroke-dasharray="2.75 1.25"/>
<path d="M441.17 614.437C439.218 603.403 438.48 571.869 438.48 571.869C438.48 570.332 432.594 510.521 409.635 481.43C386.676 452.339 369.91 455.043 356.616 450.157C331.306 440.936 306.456 413.136 306.395 411.737C306.333 410.339 300.709 403.577 299.802 384.997C299.29 373.101 300.686 361.199 303.936 349.744C305.181 346.133 307.901 325.571 307.163 323.312C308.516 320.238 313.648 302.319 313.31 294.835C312.811 285.021 308.739 275.729 301.861 268.71C292.948 245.659 282.145 240.772 275.367 234.225C268.59 227.678 255.021 221.224 243.818 221.516C232.615 221.808 207.842 222.054 192.582 247.887C176.983 266.651 180.287 286.69 180.503 290.24C180.718 293.79 184.36 311.279 185.113 312.662C181.332 312.769 185.497 338.526 188.847 345.871C192.197 353.217 196.961 360.071 197.33 367.862C197.93 380.157 197.422 397.461 197.576 400.457C197.73 403.454 182.961 442.58 144.727 454.951C132.878 458.793 86.6828 462.973 73.19 515.177C59.6972 567.381 59.2822 635.445 59.3591 636.152C59.3591 636.152 60.2504 670.837 57.6686 679.719C55.0868 688.602 46.1736 735.98 44.56 762.905C42.9464 789.829 42.0858 872.983 40.8717 877.302C39.6577 881.62 37.1835 951.067 37.1527 964.898C37.122 978.729 37.291 997.17 37.7213 1005.9C38.1516 1014.63 81.9496 1066.42 82.2876 1073.52C82.6257 1080.62 108.413 1098.37 103.157 1084.27C97.9013 1070.18 95.8266 1047.15 95.6115 1042.66C95.3963 1038.17 93.1526 1018.88 93.1526 1018.88C93.1526 1018.88 99.2997 1022.62 100.836 1023.49C102.373 1024.37 104.048 1029.43 107.183 1032.27C110.318 1035.11 115.021 1039.15 115.052 1039.86C115.082 1040.57 109.535 1020.37 110.795 1017.32C112.055 1014.26 101.759 987.119 98.5006 982.77C95.2426 978.421 89.28 961.363 89.1109 958.535C88.9419 955.708 81.9342 943.736 81.7805 940.755C81.6269 937.774 81.1658 896.895 83.5785 884.77C85.9913 872.645 98.8387 829.723 99.9298 808.362C101.021 787.001 110.318 757.649 111.609 754.714C112.9 751.778 115.958 723.809 120.661 711.684C125.363 699.559 139.532 658.128 140.962 656.545C142.391 654.962 138.749 697.008 138.749 697.008C138.749 697.008 148.461 768.591 149.614 790.843C150.766 813.095 157.205 885.708 157.666 895.236C158.127 904.764 158.896 1005.88 157.974 1017.87C157.052 1029.86 151.934 1110.08 154.608 1134.57C157.282 1159.07 164.32 1212.09 164.597 1218.66C164.874 1225.24 168.147 1248.17 167.317 1261.94C166.487 1275.71 166.533 1309.32 163.967 1318.43C161.401 1327.54 160.34 1387.25 165.504 1419.18C170.667 1451.12 172.634 1499.59 175.216 1521.96C177.798 1544.34 168.024 1563.82 168.024 1563.82C168.024 1563.82 156.437 1591.68 156.944 1602.24C157.451 1612.8 156.821 1630.75 151.227 1632.44C145.633 1634.13 137.258 1665.08 163.322 1665.25C189.385 1665.42 237.317 1660.96 240.16 1660.12C243.003 1659.27 271.049 1651.37 254.421 1635.67C237.793 1619.96 244.663 1602.33 248.766 1599.31C252.869 1596.28 248.382 1576.84 244.156 1563.16C239.93 1549.48 236.841 1503.15 237.778 1460.71C238.715 1418.26 244.986 1363.27 245.6 1331.83C246.215 1300.39 242.158 1273.77 245.984 1258.07C249.811 1242.36 248.92 1224.15 250.041 1216.05C251.163 1207.95 264.902 1144.76 268.483 1125.08C272.063 1105.39 290.505 1076.04 293.071 1085.12C295.637 1094.2 321.409 1200.64 322.608 1210.21C323.806 1219.79 324.821 1241.21 325.405 1256.64C325.989 1272.07 319.626 1311.85 326.004 1350.86C332.382 1389.86 341.372 1438.59 344.184 1468.97C346.996 1499.36 349.993 1543.34 345.613 1560.6C341.233 1577.85 335.04 1604.92 344.322 1610.46C353.604 1616.01 372.676 1622.11 369.049 1630.09C365.422 1638.06 401.321 1645.26 407.468 1646.46C413.615 1647.65 453.894 1650.2 471.843 1646.35C489.793 1642.49 487.657 1622.31 475.532 1619.9C463.407 1617.49 462.3 1609.02 462.054 1604.07C461.808 1599.12 438.204 1574.53 438.204 1574.53C438.204 1574.53 416.935 1552.59 417.119 1541.94C417.304 1531.29 405.286 1503.09 408.621 1464.41C411.956 1425.73 411.956 1343.94 410.342 1339.76C408.728 1335.58 408.298 1294.09 406.546 1272.54C404.794 1251 408.482 1234.12 408.083 1227.49C407.683 1220.85 412.57 1181.38 412.432 1163.92C412.294 1146.47 405.839 1100.84 404.856 1095.22C403.872 1089.59 407.776 993.789 407.284 983.523C406.792 973.258 406.961 900.276 402.873 863.133C398.785 825.989 391.086 750.349 391.086 750.349C391.086 750.349 374.843 662.615 375.58 663.291C376.318 663.967 394.913 697.469 396.634 705.353C398.355 713.236 404.318 744.755 407.576 750.595C410.834 756.435 433.148 799.341 438.741 821.947C444.335 844.553 455.277 876.856 456.968 882.45C458.658 888.044 460.809 917.796 460.871 919.179C460.932 920.562 450.651 939.725 450.943 945.703C451.235 951.681 448.915 978.652 447.593 980.834C446.272 983.016 442.829 999.752 445.903 1001.03C448.976 1002.3 449.314 1006.13 449.238 1004.64C449.161 1003.15 450.851 994.065 452.204 992.575C453.556 991.084 456.368 987.319 457.229 990.362C458.35 993.493 459.685 996.543 461.224 999.49C461.224 999.49 454.324 1013.63 454.432 1015.75C454.539 1017.87 461.655 1054.08 461.977 1057.36C462.3 1060.65 489.224 1036.4 488.579 1021.44C487.933 1006.47 503.947 958.028 503.224 944.597C502.502 931.165 500.197 914.476 497.8 897.479C495.402 880.483 483.861 793.563 480.419 784.727C476.976 775.89 461.101 711.73 456.553 694.595C452.004 677.46 443.121 625.471 441.17 614.437Z" stroke="#BF40FF" stroke-width="1.25" stroke-miterlimit="10" stroke-linecap="round" stroke-dasharray="3 1"/>
<path d="M421.177 615.16C419.64 603.895 419.209 573.667 419.209 573.667C419.133 572.038 413.692 515.27 390.364 491.189C367.036 467.107 356.632 470.427 343.462 465.063C321.486 456.135 296.022 430.763 295.976 429.718C295.93 428.673 289.737 424.201 288.799 404.761C288.215 392.332 289.426 379.884 292.395 367.801C294.135 359.757 295.372 351.611 296.099 343.413C297.636 340.093 303.214 322.559 302.83 314.445C302.276 305.962 298.635 297.975 292.595 291.992C285.664 269.694 277.95 263.531 272.217 255.648C266.485 247.764 253.1 238.574 241.129 237.468C229.157 236.361 202.018 235.455 185.39 261.088C180.294 267.193 176.549 274.31 174.404 281.968C172.258 289.626 171.76 297.652 172.942 305.516C173.807 312.506 175.033 319.446 176.615 326.309C172.251 325.955 176.215 352.249 179.842 360.194C183.469 368.139 188.033 373.241 188.325 379.081C188.848 389.839 189.263 408.741 189.416 411.983C189.57 415.226 176.738 455.643 136.49 467.507C125.118 470.857 74.0663 475.928 62.2332 531.175C50.4 586.422 49.939 654.47 49.939 655.008C49.939 655.008 50.5076 689.524 47.6646 697.73C44.8215 705.937 35.0938 751.118 33.8336 779.318C32.5735 807.517 33.4495 892.316 32.5428 895.559C31.6361 898.801 29.3616 962.915 29.4692 975.824C29.5768 988.733 29.9149 1007.07 30.2837 1014.57C30.6525 1022.07 78.1233 1073.75 78.3846 1079.11C78.6458 1084.47 103.004 1100.95 96.7951 1084.97C91.9408 1071.9 88.7098 1058.29 87.1749 1044.44C86.9444 1039.57 86.0377 1019.61 86.0377 1019.61C86.0377 1019.61 92.8149 1025.31 94.5207 1026.88C96.2265 1028.44 97.5942 1033.79 100.944 1036.88C104.295 1039.97 109.366 1042.92 109.381 1043.44C109.397 1043.96 102.85 1020.94 103.757 1017.66C104.663 1014.37 93.5218 985.675 90.0487 980.957C86.5756 976.239 80.4439 961.532 80.3516 959.442C80.2594 957.352 74.389 946.872 74.2046 943.629C74.0202 940.386 73.636 898.233 76.2485 885.109C78.861 871.985 92.4307 828.095 93.0454 807.579C93.6601 787.063 100.96 761.476 101.913 759.324C102.865 757.173 105.908 730.617 111.256 717.908C116.604 705.199 130.235 663.507 131.772 661.801C133.309 660.095 130.589 691.629 130.589 691.629C130.589 691.629 142.114 760.615 143.574 779.225C145.034 797.836 151.151 868.788 151.596 877.932C152.042 887.076 150.275 987.043 149.291 1000.04C148.308 1013.04 142.668 1098.4 145.511 1123.63C148.354 1148.86 154.731 1203.74 155.069 1210.2C155.408 1216.65 158.143 1240.32 157.067 1252.15C155.991 1263.98 155.346 1295.18 152.565 1305.12C149.783 1315.07 146.925 1368.88 151.596 1398.87C156.268 1428.85 160.448 1480.01 163.245 1504.24C164.974 1518.56 163.305 1533.08 158.373 1546.63C158.373 1546.63 148.999 1574.06 149.552 1585.41C150.106 1596.77 149.414 1616.3 145.219 1617.56C141.023 1618.82 131.188 1651.22 158.22 1650.97C185.252 1650.73 233.675 1646.79 235.765 1646.16C237.855 1645.53 263.873 1638.36 245.155 1621.39C226.437 1604.42 230.786 1585.23 233.875 1582.97C236.964 1580.71 233.445 1563.13 229.618 1550.41C225.792 1537.68 222.472 1492.01 223.609 1448.12C224.747 1404.23 231.293 1349.43 231.462 1320.37C231.631 1291.31 228.988 1267.84 233.675 1252.47C238.362 1237.11 237.532 1219.96 238.793 1212.36C240.053 1204.77 253.115 1152.23 256.957 1130.92C260.799 1109.6 278.272 1069.44 280.193 1076.22C282.114 1083 308.654 1195.98 309.653 1205.65C310.999 1221.06 311.547 1236.53 311.297 1252C310.913 1267.12 303.69 1308.58 310.483 1348.23C317.275 1387.88 325.436 1434.29 327.818 1461.64C330.2 1489 333.35 1531.37 328.786 1548.87C324.222 1566.37 317.445 1594.28 327.495 1600.29C337.545 1606.3 358.323 1610.06 357.093 1615.97C355.864 1621.87 392.439 1629.31 399.001 1630.61C405.563 1631.92 443.398 1634.96 459.304 1630.95C475.209 1626.94 474.979 1609.23 461.855 1606.62C448.731 1604.01 447.886 1597.66 447.701 1593.94C447.517 1590.22 422.56 1566.64 422.56 1566.64C422.56 1566.64 399.831 1544.51 399.969 1536.51C400.107 1528.52 386.476 1505.1 389.995 1466.04C393.515 1426.97 394.898 1342.57 393.684 1339.44C392.47 1336.3 392.623 1294.15 390.994 1271.51C389.365 1248.88 393.499 1233.62 393.192 1227.16C392.885 1220.71 398.186 1184.98 397.971 1169.43C397.756 1153.87 392.731 1116.13 391.993 1111.91C391.256 1107.68 397.695 1015.2 397.188 1004.96C396.68 994.727 397.034 923.513 392.408 884.233C387.783 844.953 378.162 770.404 378.162 770.404C378.162 770.404 360.566 675.355 361.12 675.862C361.673 676.369 379.93 707.781 380.759 714.727C381.589 721.673 387.444 753.239 390.994 759.57C394.544 765.902 418.38 810.729 424.342 833.105C430.305 855.48 439.71 885.14 441.047 889.335C442.384 893.53 444.121 920.301 444.121 921.361C444.121 922.422 433.225 942.43 433.548 948.915C433.87 955.401 432.011 983.631 431.027 985.276C430.044 986.92 427.523 1000.97 430.827 1001.87C434.131 1002.78 435.253 1003.1 435.176 1001.49C435.1 999.875 436.221 990.055 437.236 988.948C438.25 987.842 441.339 984.461 442.046 988.241C442.753 992.022 445.273 1000.09 445.273 1000.09C445.273 1000.09 437.205 1012.83 437.282 1014.43C437.359 1016.03 445.734 1054.03 446.902 1054.95C448.07 1055.87 474.963 1031.35 474.18 1015.13C473.396 998.922 484.461 953.142 483.769 939.111C483.078 925.08 480.696 909.021 478.237 891.855C475.778 874.69 463.929 786.095 460.21 776.597C456.491 767.1 439.556 708.15 435.054 693.351C430.551 678.552 422.79 626.44 421.177 615.16Z" stroke="#CF30FF" stroke-width="1.19" stroke-miterlimit="10" stroke-linecap="round" stroke-dasharray="3.25 0.75"/>
<path d="M401.183 616.174C399.922 604.663 399.922 575.88 399.922 575.88C399.846 574.128 394.774 520.31 371.077 501.346C347.38 482.382 343.292 486.286 330.307 480.4C311.62 471.932 285.587 448.835 285.556 448.128C285.525 447.421 278.763 445.239 277.795 424.969C277.182 411.997 278.215 399 280.869 386.288C281.484 384.49 284.511 367.125 285.033 363.944C286.57 360.363 292.717 343.228 292.364 334.499C291.899 327.267 288.675 320.49 283.358 315.566C278.41 294.051 273.769 286.583 269.097 277.362C264.425 268.141 251.209 256.231 238.485 253.727C225.76 251.222 196.254 249.116 178.228 274.596C172.835 280.947 168.895 288.399 166.681 296.431C164.467 304.463 164.034 312.882 165.411 321.098C165.504 322.866 167.732 339.54 168.116 340.293C163.183 339.494 166.933 366.295 170.852 374.855C174.77 383.415 179.135 386.749 179.319 390.653C179.765 399.781 181.086 420.374 181.255 423.862C181.424 427.351 170.498 469.197 128.237 480.4C117.326 483.289 61.4335 489.236 51.2447 547.511C41.0559 605.785 40.4873 673.849 40.4873 674.202C40.4873 674.202 40.7485 708.564 37.6135 716.094C34.4785 723.625 23.967 766.623 22.9374 796.053C21.9077 825.482 24.6432 911.971 24.0285 914.123C23.4137 916.274 21.3391 975.056 21.5696 986.996C21.8001 998.937 22.3226 1017.15 22.63 1023.46C22.9373 1029.78 74.0811 1081.35 74.2502 1084.97C74.4192 1088.58 97.6398 1103.88 90.4784 1086.04C83.3171 1068.2 79.0602 1051.85 78.799 1046.61C78.5377 1041.37 78.9219 1020.68 78.9219 1020.68C78.9219 1020.68 86.2984 1028.37 88.1425 1030.69C89.9867 1033.01 90.9856 1038.59 94.6431 1041.92C98.3006 1045.26 103.649 1047.11 103.664 1047.47C103.679 1047.82 96.1338 1021.96 96.6716 1018.42C97.2095 1014.89 85.238 984.614 81.5037 979.589C77.7693 974.564 71.5608 962.147 71.4839 960.733C71.4071 959.319 66.7507 950.39 66.5816 946.902C66.4126 943.413 66.0591 899.969 68.8868 885.831C71.7144 871.692 85.9449 826.788 86.1294 807.102C86.4616 792.631 88.4991 778.25 92.1996 764.257C92.8451 762.812 95.8418 737.732 101.835 724.485C107.829 711.238 120.906 669.162 122.566 667.394C124.226 665.627 122.413 686.573 122.413 686.573C122.413 686.573 135.752 752.962 137.519 768.022C139.286 783.082 145.095 852.283 145.51 861.043C145.925 869.802 141.653 968.617 140.577 982.617C139.501 996.616 133.37 1086.96 136.382 1113.1C139.394 1139.24 145.295 1195.72 145.602 1202.02C145.91 1208.32 148.153 1232.76 146.878 1242.67C145.602 1252.58 144.219 1281.47 141.223 1292.11C138.226 1302.74 133.539 1350.8 137.749 1378.7C141.96 1406.61 148.338 1460.58 151.35 1486.69C154.362 1512.8 148.814 1529.58 148.814 1529.58C148.814 1529.58 141.653 1556.58 142.252 1568.82C142.852 1581.05 142.114 1602.09 139.317 1602.93C136.52 1603.78 125.225 1637.6 153.148 1636.96C181.071 1636.31 229.986 1632.89 231.523 1632.45C233.06 1632.02 256.849 1625.6 236.026 1607.36C215.203 1589.12 217.062 1568.37 219.121 1566.85C221.181 1565.33 218.645 1549.64 215.264 1537.85C211.883 1526.06 208.303 1480.99 209.609 1435.73C210.915 1390.48 217.738 1335.84 217.508 1309.09C217.277 1282.33 215.971 1262.05 221.488 1247.05C227.005 1232.05 226.283 1215.93 227.635 1208.83C228.988 1201.73 241.466 1159.87 245.569 1136.91C249.672 1113.95 266.193 1062.91 267.468 1067.46C268.744 1072.01 295.914 1191.52 296.667 1201.3C297.42 1211.07 298.542 1232.76 297.174 1247.56C295.806 1262.35 287.754 1305.49 294.946 1345.8C302.138 1386.11 309.56 1430.32 311.435 1454.51C313.31 1478.7 316.691 1519.58 311.942 1537.34C307.194 1555.11 299.833 1583.85 310.651 1590.32C321.47 1596.79 343.938 1598.22 345.121 1602.06C346.305 1605.9 383.54 1613.57 390.548 1614.97C397.556 1616.36 432.917 1619.91 446.779 1615.75C460.64 1611.59 462.331 1596.36 448.192 1593.54C434.054 1590.73 433.501 1586.49 433.378 1584.02C433.255 1581.54 406.945 1558.95 406.945 1558.95C406.945 1558.95 382.757 1536.64 382.849 1531.29C382.941 1525.94 367.712 1507.32 371.415 1467.87C375.119 1428.42 377.885 1341.39 377.071 1339.3C376.256 1337.21 376.978 1294.41 375.534 1270.67C374.089 1246.93 378.607 1233.34 378.315 1227.04C378.023 1220.74 383.817 1188.82 383.51 1175.11C383.202 1161.4 379.637 1131.59 379.145 1128.78C378.654 1125.97 387.659 1036.77 387.152 1026.57C386.645 1016.36 387.152 946.933 382.004 905.501C376.856 864.07 365.284 790.628 365.284 790.628C365.284 790.628 346.335 688.279 346.704 688.602C347.073 688.924 364.976 718.277 364.93 724.255C364.884 730.233 370.632 761.875 374.458 768.683C378.285 775.491 403.657 822.27 409.988 844.399C416.32 866.529 424.311 893.576 425.156 896.358C426.001 899.139 427.507 922.99 427.538 923.697C427.569 924.404 415.982 945.212 416.32 952.265C416.658 959.319 415.275 988.748 414.614 989.839C413.953 990.93 412.386 1002.29 415.905 1002.82C416.552 1002.93 417.216 1002.91 417.851 1002.74C418.486 1002.57 419.078 1002.27 419.587 1001.85C420.097 1001.44 420.511 1000.92 420.804 1000.33C421.096 999.745 421.26 999.102 421.284 998.445C421.207 996.693 421.76 986.151 422.421 985.429C423.082 984.706 426.447 981.71 427.031 986.228C427.615 990.746 429.505 1000.78 429.505 1000.78C429.505 1000.78 420.285 1012.14 420.285 1013.2C420.285 1014.26 429.951 1054.08 431.964 1052.63C433.977 1051.19 460.917 1026.48 460.01 1009.02C459.103 991.56 465.266 948.423 464.62 933.716C463.975 919.01 461.424 903.719 458.827 886.307C456.23 868.895 444.166 778.733 440.17 768.406C436.175 758.079 418.179 704.492 413.723 692.044C409.266 679.596 402.52 627.684 401.183 616.174Z" stroke="#DF20FF" stroke-width="1.13" stroke-miterlimit="10" stroke-linecap="round" stroke-dasharray="3.5 0.5"/>
<path d="M381.835 617.311C380.913 605.57 381.282 578.154 381.282 578.154C381.189 576.279 376.502 525.474 352.436 511.581C328.371 497.689 330.537 502.361 317.798 495.799C302.322 487.838 275.798 466.969 275.782 466.6C275.767 466.231 268.452 466.354 267.422 445.239C266.806 431.726 267.646 418.186 269.927 404.853C270.235 403.946 273.4 388.194 274.538 384.552C276.228 380.725 282.913 363.974 282.467 354.615C282.022 345.257 276.735 341.338 274.676 339.248C271.725 318.501 270.158 309.742 266.531 299.2C262.904 288.657 249.872 273.997 236.38 270.093C222.887 266.19 191.029 262.978 171.62 288.196C152.118 311.647 158.388 335.836 158.435 336.789C158.481 337.742 159.971 354.016 160.171 354.37C154.654 353.109 158.219 380.495 162.415 389.608C166.61 398.721 170.79 400.365 170.882 402.301C171.251 409.862 173.495 432.084 173.664 435.818C173.833 439.553 164.904 483.013 120.569 493.386C110.134 495.829 49.4007 502.606 40.8563 563.939C32.3118 625.271 31.6357 693.304 31.6357 693.473C31.6357 693.642 31.6357 727.666 28.1779 734.52C24.7202 741.374 13.4249 782.16 12.6873 812.896C11.9496 843.631 16.4831 931.719 16.1758 932.764C15.8684 933.809 13.9935 987.273 14.347 998.23C14.7004 1009.19 15.392 1027.28 15.6533 1032.42C15.9145 1037.57 70.7157 1088.93 70.8079 1090.7C70.9001 1092.46 92.8145 1106.66 84.7157 1086.96C76.6169 1067.26 71.2536 1054.25 70.977 1048.62C70.7004 1043 72.3601 1021.59 72.3601 1021.59C72.3601 1021.59 80.3206 1031.21 82.3491 1034.33C84.3776 1037.45 85.0077 1043.23 88.9265 1046.78C92.8452 1050.33 98.5159 1051.13 98.5159 1051.31C98.5159 1051.49 89.9868 1022.79 90.1559 1019.04C90.3249 1015.29 77.539 983.477 73.528 978.052C69.5171 972.628 63.2317 962.592 63.1856 961.87C63.1395 961.148 59.6817 953.756 59.4973 950.006C59.3129 946.257 59.0363 901.552 62.0484 886.399C65.0604 871.247 80.1822 825.589 79.798 806.81C79.5885 794.252 80.6803 781.707 83.056 769.374C83.3787 768.652 86.3447 745.032 92.9989 731.232C99.6531 717.432 112.162 675.109 113.945 673.111C115.728 671.113 114.821 681.656 114.821 681.656C114.821 681.656 129.974 745.447 132.048 756.957C134.123 768.468 139.625 835.916 140.024 844.277C140.424 852.637 133.616 950.314 132.463 965.328C131.311 980.342 124.672 1075.71 127.853 1102.72C131.034 1129.72 136.428 1187.84 136.72 1193.98C137.012 1200.13 138.764 1225.3 137.273 1233.31C135.783 1241.32 133.677 1267.84 130.511 1279.23C127.346 1290.62 120.861 1332.86 124.518 1358.74C128.176 1384.62 136.812 1441.34 140.055 1469.39C143.297 1497.43 139.855 1512.79 139.855 1512.79C139.855 1512.79 134.907 1539.36 135.537 1552.45C136.167 1565.54 135.383 1588.09 134 1588.52C132.617 1588.95 119.831 1624.2 148.799 1623.16C177.767 1622.11 227.174 1619.19 227.866 1618.98C228.557 1618.76 250.41 1613.08 227.497 1593.54C204.584 1574.01 203.938 1551.73 204.953 1550.96C205.967 1550.19 204.43 1536.36 201.495 1525.53C198.56 1514.69 194.718 1470.2 196.208 1423.58C197.699 1376.95 204.799 1322.37 204.153 1298.05C203.508 1273.74 203.493 1256.56 209.932 1241.84C216.371 1227.12 215.649 1212.12 217.201 1205.53C218.753 1198.93 230.401 1167.67 234.858 1143.09C239.315 1118.5 254.836 1056.61 255.42 1058.89C256.004 1061.16 283.85 1187.24 284.511 1197.2C285.172 1207.15 286.217 1228.9 283.881 1243.3C281.545 1257.7 272.632 1302.59 280.239 1343.56C287.846 1384.53 294.516 1426.54 295.883 1447.57C297.251 1468.59 300.862 1507.99 295.883 1525.94C290.904 1543.89 283.005 1573.58 294.592 1580.47C306.18 1587.35 330.338 1586.49 333.918 1588.27C337.499 1590.06 375.288 1597.95 382.864 1599.46C390.441 1600.97 423.205 1605.01 435.022 1600.69C446.84 1596.37 450.39 1583.63 435.299 1580.6C420.208 1577.58 419.931 1575.47 419.808 1574.23C419.685 1572.98 392.147 1551.39 392.147 1551.39C392.147 1551.39 366.498 1528.88 366.544 1526.22C366.59 1523.56 349.747 1509.67 353.635 1469.85C357.523 1430.03 361.672 1340.36 361.319 1339.32C360.965 1338.27 362.21 1294.75 360.827 1269.98C359.444 1245.2 364.5 1233.2 364.208 1227.06C363.916 1220.91 370.232 1192.79 369.833 1180.95C369.433 1169.12 367.312 1147.14 367.066 1145.81C366.821 1144.47 378.3 1058.44 377.824 1048.37C377.347 1038.31 377.993 970.538 372.307 926.97C366.621 883.403 353.036 811.113 353.036 811.113C353.036 811.113 332.735 701.449 332.919 701.618C333.104 701.787 350.669 729.034 349.747 734.075C348.825 739.115 354.465 770.804 358.568 778.103C362.671 785.403 389.58 834.103 396.265 855.987C402.95 877.87 409.481 902.274 409.896 903.627C410.311 904.979 411.433 925.925 411.525 926.279C411.617 926.632 399.231 948.393 399.646 955.877C400.061 963.361 399.093 994.127 398.755 994.665C398.417 995.203 397.786 1003.89 401.536 1004.05C405.286 1004.22 408.021 997.554 407.929 995.679C407.778 991.181 407.855 986.677 408.16 982.186C408.498 981.817 412.125 979.236 412.555 984.476C412.985 989.716 414.276 1001.73 414.276 1001.73C414.276 1001.73 403.857 1011.69 403.887 1012.21C403.918 1012.74 414.768 1054.37 417.626 1050.56C420.485 1046.75 447.301 1021.7 446.395 1002.92C445.488 984.138 446.625 943.736 445.887 928.415C445.15 913.093 442.568 898.494 439.833 880.867C437.097 863.24 424.803 771.434 420.531 760.384C416.258 749.335 397.203 701.019 392.792 690.892C388.381 680.764 382.757 629.052 381.835 617.311Z" stroke="#EF10FF" stroke-width="1.06" stroke-miterlimit="10" stroke-linecap="round" stroke-dasharray="3.75 0.25"/>
<path d="M361.028 580.521C360.935 578.523 356.617 530.73 332.182 521.909C307.748 513.087 316.016 518.697 303.66 511.289C291.304 503.882 264.395 485.164 264.395 485.164C264.395 485.164 256.512 487.546 255.451 465.586C254.879 451.52 255.538 437.43 257.419 423.478C257.419 423.478 260.738 409.309 262.536 405.222C264.334 401.134 271.557 384.783 271.065 374.809C270.573 364.835 264.503 363.129 264.503 363.129C263.535 343.151 265.056 333.101 262.475 321.222C259.893 309.343 247.107 292.023 232.799 286.644C218.492 281.266 184.314 276.994 163.522 302.012C142.729 327.031 149.968 352.726 149.968 352.726L150.736 368.693C144.589 366.987 148.001 394.818 152.473 404.622C156.945 414.427 160.94 414.212 160.94 414.212C161.232 420.205 164.383 444.056 164.582 448.021C164.782 451.986 157.82 497.197 111.41 506.602C101.421 508.615 35.8624 516.253 28.9623 580.598C22.0622 644.942 21.3553 712.991 21.3553 712.991C21.3553 712.991 21.0018 747.015 17.2982 753.192C13.5946 759.37 1.45414 797.974 1.00848 830.031C0.562814 862.088 6.89429 951.774 6.89429 951.774C6.89429 951.774 5.21921 999.859 5.69561 1009.85L7.23238 1041.78C7.43216 1045.78 65.9062 1096.95 65.9062 1096.95C65.9062 1096.95 86.5451 1109.95 77.4935 1088.39C68.4419 1066.83 61.9721 1057.13 61.6955 1051.14C61.4189 1045.15 64.3388 1023 64.3388 1023C64.3388 1023 72.8986 1034.59 75.0962 1038.49C77.2937 1042.4 77.5703 1048.38 81.7657 1052.17C84.6339 1054.51 88.2398 1055.75 91.9391 1055.67C91.9391 1055.67 82.4112 1024.12 82.2114 1020.14C82.0116 1016.16 68.3804 982.801 64.1236 977.008C59.8667 971.214 53.4738 963.515 53.4738 963.515C52.238 960.338 51.4067 957.018 50.9996 953.633C50.7998 949.638 50.5846 903.642 53.7965 887.552C57.0083 871.462 72.7603 824.622 71.8843 806.657C71.3518 795.983 71.5007 785.285 72.33 774.63C72.33 774.63 75.2652 752.486 82.5648 738.132C89.8645 723.779 101.821 681.195 103.711 679.089L105.616 676.999C105.616 676.999 122.521 738.194 124.964 746.154C127.408 754.114 132.525 819.811 132.909 827.787C133.294 835.763 123.95 932.288 122.736 948.301C121.522 964.314 114.361 1064.73 117.711 1092.57C121.061 1120.42 125.948 1180.17 126.24 1186.18C126.532 1192.19 127.777 1218.11 126.071 1224.2C124.365 1230.28 121.461 1254.43 118.126 1266.6C114.791 1278.77 106.477 1315.17 109.627 1339.02C112.778 1362.88 123.658 1422.36 127.1 1452.21C130.543 1482.05 129.221 1496.11 129.221 1496.11C129.221 1496.11 126.486 1522.24 127.162 1536.22C127.838 1550.21 126.993 1574.24 126.993 1574.24C126.993 1574.24 112.762 1610.94 142.699 1609.5L222.534 1605.64C222.534 1605.64 242.297 1600.68 217.293 1579.88C192.29 1559.09 189.125 1535.24 189.125 1535.24C188.711 1527.88 187.683 1520.57 186.051 1513.39C183.577 1503.51 179.458 1459.69 181.133 1411.61C182.808 1363.52 190.185 1309.15 189.125 1287.13C188.064 1265.11 189.34 1250.94 196.593 1236.61C203.847 1222.29 203.232 1208.29 204.938 1202.21C206.644 1196.12 217.647 1175.59 222.38 1149.36C227.113 1123.12 241.605 1050.4 241.605 1050.4C241.605 1050.4 270.02 1183.06 270.512 1193.03C271.004 1203.01 272.049 1224.97 268.745 1239.13C265.441 1253.3 255.667 1299.78 263.689 1341.41C271.711 1383.04 277.627 1422.75 278.488 1440.71C279.348 1458.68 283.19 1496.5 278.073 1514.75C272.955 1533.01 264.426 1563.42 276.782 1570.83C289.137 1578.24 314.986 1574.98 320.979 1574.69C326.973 1574.4 365.361 1582.54 373.445 1584.15C381.528 1585.77 411.756 1590.3 421.53 1585.83C431.304 1581.36 436.821 1571.09 420.654 1567.86L404.487 1564.65L375.489 1544.04L348.457 1521.41C348.457 1521.41 330.016 1512.3 334.073 1472.09C338.13 1431.89 343.662 1339.59 343.662 1339.59C343.662 1339.59 345.537 1295.49 344.277 1269.55C343.017 1243.61 348.534 1233.34 348.242 1227.35C347.95 1221.35 354.773 1197.03 354.297 1187.05L353.144 1163.11C353.144 1163.11 367.144 1080.42 366.668 1070.44C366.191 1060.47 366.99 994.404 360.782 948.7C354.573 902.997 339.129 831.721 339.129 831.721L317.445 714.604C317.445 714.604 334.672 739.776 332.813 743.803C330.953 747.829 336.547 779.625 340.927 787.416C345.306 795.208 373.752 845.814 380.883 867.513C388.013 889.212 392.992 910.942 392.992 910.942L393.868 928.907C393.868 928.907 380.96 951.543 381.344 959.519C381.728 967.495 381.344 999.475 381.344 999.475C381.344 999.475 381.636 1005.47 385.631 1005.27C389.627 1005.07 393.131 994.911 393.039 992.975L392.362 979.005C392.362 979.005 396.25 976.823 396.542 982.801L397.511 1002.78L385.923 1011.34C385.923 1011.34 397.91 1054.85 401.614 1048.65C405.317 1042.46 432.103 1017.18 431.135 997.216C430.167 977.254 426.34 939.434 425.572 923.451C424.804 907.469 422.13 893.607 419.271 875.811C416.413 858.016 403.903 764.534 399.293 752.747C394.683 740.96 374.705 697.93 370.264 690.139C365.822 682.347 361.381 630.558 360.797 618.587C360.213 606.615 361.028 580.521 361.028 580.521Z" stroke="#FF00FF" stroke-miterlimit="10" stroke-linecap="round"/>
</svg>
