<svg width="238" height="557" viewBox="0 0 238 557" fill="none" xmlns="http://www.w3.org/2000/svg">
<g clip-path="url(#clip0)">
<path d="M55.4793 143.42C55.4344 142.502 55.2898 120.416 66.0838 115.291C76.8778 110.165 73.3429 113.097 78.6776 109.158C84.0123 105.22 95.5043 95.4577 95.5043 95.4577C95.5043 95.4577 99.2236 96.2005 98.735 86.0946C98.3738 79.6262 97.4479 73.2019 95.9679 66.8948C95.9679 66.8948 93.8191 60.553 92.812 58.7631C91.8049 56.9733 87.7765 49.7889 87.5521 45.2071C87.3277 40.6253 90.0449 39.5633 90.0449 39.5633C89.6012 30.3797 88.4595 25.8328 89.1126 20.2787C89.7657 14.7247 94.8711 6.18921 101.163 3.12302C107.455 0.0568316 122.94 -3.45308 133.57 7.07666C144.199 17.6064 142.045 29.6817 142.045 29.6817L142.399 37.0306C145.112 35.9786 144.813 48.8815 143.197 53.5631C141.582 58.2446 139.747 58.3344 139.747 58.3344C139.882 61.0914 139.493 72.1546 139.583 73.9894C139.672 75.8241 144.867 96.2454 166.54 98.4591C171.207 98.9576 201.574 99.526 207.587 128.692C213.6 157.858 216.945 189.019 216.945 189.019C216.945 189.019 218.62 204.589 220.59 207.251C222.559 209.914 229.833 227.055 231.464 241.707C233.094 256.36 234.166 297.716 234.166 297.716C234.166 297.716 237.067 319.653 237.292 324.26L238 338.958C238.089 340.793 213.57 366.838 213.57 366.838C213.57 366.838 204.695 373.713 207.881 363.433C211.067 353.152 213.6 348.426 213.465 345.674C213.331 342.922 211.007 332.905 211.007 332.905C211.007 332.905 207.602 338.594 206.77 340.474C205.937 342.353 206.072 345.11 204.327 347.035C202.582 348.959 199.839 349.094 199.839 349.094C199.839 349.094 202.801 334.222 202.711 332.387C202.621 330.552 207.368 314.663 209.083 311.821C210.798 308.979 213.366 305.17 213.366 305.17C213.366 305.17 214.148 302.368 214.064 300.533C213.979 298.699 212.034 277.599 209.841 270.36C207.647 263.121 198.374 242.375 197.96 234.114C197.728 229.202 197.184 224.309 196.33 219.466C196.33 219.466 194.006 209.45 190.018 203.203C186.029 196.956 178.67 177.991 177.698 177.093L176.736 176.221C176.736 176.221 171.69 204.998 170.942 208.717C170.195 212.437 170.748 242.789 170.942 246.459C171.137 250.128 179.667 293.907 180.939 301.211C182.21 308.515 189.943 354.169 189.639 367.072C189.335 379.975 189.758 407.571 189.888 410.328C190.018 413.085 190.601 425.021 191.648 427.733C192.695 430.445 195.068 441.374 197.172 446.798C199.276 452.222 204.651 468.531 204.282 479.594C203.913 490.657 201.554 518.387 201.29 532.208C201.026 546.028 202.287 552.415 202.287 552.415C202.287 552.415 204.7 564.266 205.015 570.692C205.329 577.119 206.774 588.097 206.774 588.097C206.774 588.097 214.926 604.266 201.151 604.939L164.416 606.714C164.416 606.714 155.143 605.323 165.678 594.683C176.212 584.044 176.596 572.98 176.596 572.98C176.456 569.592 176.599 566.199 177.025 562.835C177.723 558.198 177.663 537.946 174.761 515.994C171.86 494.042 166.066 469.468 165.578 459.362C165.089 449.256 163.858 442.874 159.874 436.622C155.891 430.37 155.577 423.944 154.53 421.232C153.483 418.519 147.525 409.605 144.189 397.799C140.854 385.993 130.992 353.332 130.992 353.332C130.992 353.332 123.868 415.353 124.087 419.945C124.306 424.537 124.8 434.638 126.944 440.98C129.088 447.322 135.624 468.182 133.799 487.601C131.974 507.02 131.027 525.492 131.426 533.743C131.825 541.995 131.75 559.504 134.916 567.646C138.082 575.787 143.327 589.333 137.997 593.272C132.667 597.211 120.682 596.872 117.925 597.006C115.168 597.141 97.9422 602.575 94.3127 603.672C90.6831 604.769 77.0423 608.189 72.3757 606.574C67.7091 604.959 64.7177 600.501 71.9769 598.308L79.236 596.114L91.6055 585.39L103.013 573.793C103.013 573.793 111.055 568.807 107.415 550.565C103.775 532.322 97.1346 490.303 97.1346 490.303C97.1346 490.303 94.3226 470.186 93.7443 458.245C93.166 446.304 90.1895 441.847 90.0549 439.09C89.9203 436.333 85.7174 425.489 85.493 420.897L84.9396 409.879C84.9396 409.879 74.8536 372.626 74.6292 368.029C74.4049 363.433 71.1044 333.219 71.922 312.005C72.7397 290.791 76.6484 257.462 76.6484 257.462L81.3699 202.919C81.3699 202.919 74.5993 215.214 75.6064 217.008C76.6135 218.803 75.4868 233.586 73.8265 237.345C72.1663 241.104 61.3624 265.564 59.1138 275.799C56.8653 286.035 55.4992 296.241 55.4992 296.241L55.8981 304.507C55.8981 304.507 62.8132 314.299 62.9927 317.968C63.1722 321.638 64.7975 336.291 64.7975 336.291C64.7975 336.291 64.9321 339.048 63.0924 339.132C61.2527 339.217 59.1986 334.72 59.1537 333.798L58.8446 327.371C58.8446 327.371 56.965 326.544 57.0946 329.296L57.5384 338.479L63.227 341.885C63.227 341.885 59.6124 362.326 57.6431 359.643C55.6737 356.961 42.2822 346.576 41.8385 337.392C41.3947 328.209 41.4695 310.714 41.1156 303.365C40.7616 296.016 41.3698 289.545 41.8883 281.234C42.4068 272.923 43.9923 229.582 45.5628 223.983C47.1332 218.384 54.4223 197.779 56.0825 194.014C57.7428 190.25 57.5035 166.329 57.2392 160.82C56.975 155.311 55.4793 143.42 55.4793 143.42Z" stroke="#10EFFF" stroke-miterlimit="10" stroke-linecap="round" stroke-dasharray="0.25 3.75"/>
<path d="M214.069 206.269C212.209 203.527 210.658 188.401 210.658 188.401C210.658 188.401 207.433 158.198 201.3 130.677C195.168 103.156 166.854 102.667 162.218 102.119C141.672 99.6807 136.232 80.3712 136.147 78.6461C136.063 76.9211 136.267 66.6007 136.118 63.5694C136.118 63.1257 137.877 62.6321 139.393 58.2447C140.909 53.8573 141.278 41.4779 138.76 42.3803C138.795 42.2956 138.61 35.0763 138.6 34.8769C138.59 34.6775 140.51 23.3201 130.539 13.4385C120.567 3.15804 106.069 6.24417 100.126 8.88159C94.1831 11.519 89.1176 19.162 88.2202 24.2624C87.3228 29.3627 87.6967 33.5357 87.6917 42.6545C87.2679 43.1531 84.8748 44.6488 85.0842 48.9714C85.2936 53.294 89.0727 60.3238 90.03 62.0039C90.8526 63.6492 92.9316 70.1605 93.0214 70.3549C94.5351 76.3144 95.4619 82.4077 95.7884 88.5477C96.2521 98.1401 92.8319 97.9307 92.8369 98.0204C92.8419 98.1102 81.8385 108.042 75.9804 112.055C70.6955 115.675 72.7696 113.197 62.519 119.304C52.2685 125.412 52.3782 147.498 52.4231 148.361C52.4231 148.361 53.819 160.202 53.9935 165.492C54.168 170.781 54.1431 193.995 52.5776 198.173C51.0121 202.351 44.3064 223.485 42.8356 228.735C41.3648 233.985 39.8442 275.6 39.3456 283.577C38.8471 291.554 38.3186 298.006 38.6526 304.971C38.9867 311.936 40.1035 329.401 40.5223 337.991C40.9411 346.581 53.9088 356.612 55.574 358.676C57.2392 360.74 60.4949 341.391 60.4899 341.271C60.4849 341.152 55.2001 337.532 55.2001 337.532C55.2001 337.532 55.0804 331.739 55.0007 329.236C54.9209 326.733 56.6908 327.631 56.7756 327.71C56.8603 327.79 57.2293 332.945 57.2741 333.808C57.319 334.67 59.054 338.25 60.7641 338.086C62.4742 337.921 62.0803 334.66 61.9956 334.546C61.9108 334.431 60.2506 320.536 60.086 317.096C59.9215 313.656 53.3903 304.352 53.3853 304.273C53.3803 304.193 53.0014 295.508 53.0662 295.184C53.131 294.86 54.7165 284.355 56.8204 274.394C58.9244 264.432 69.0652 241.219 70.6208 237.694C72.1763 234.169 73.2931 219.86 72.4954 217.886C71.6977 215.912 78.2887 203.522 78.3286 203.482C78.3685 203.442 73.9362 254.571 73.9362 254.571C73.9362 254.571 70.6108 287.057 69.8978 307.105C69.1849 327.152 72.3907 356.817 72.6001 361.284C72.8095 365.751 82.0729 402.635 82.0729 402.959C82.0729 403.283 82.1925 411.345 82.4717 416.216C82.7509 421.087 86.7893 432.464 86.9239 435.162C87.0585 437.859 89.8705 442.57 90.379 453.888C90.8875 465.205 93.4651 484.555 93.3953 484.799C93.3255 485.043 99.3781 525.183 102.868 542.762C106.358 560.342 99.0291 566.225 99.0989 566.833C99.1687 567.441 88.4495 578.599 88.4495 578.599C88.4495 578.599 76.798 589.184 76.813 589.468C76.8279 589.752 76.813 590.241 70.0025 592.295C63.1921 594.349 65.6999 599.275 70.6955 600.771C75.6912 602.266 89.4915 599.001 92.8967 597.969C96.302 596.937 112.839 591.747 114.928 591.198C117.017 590.65 128.175 590.485 133.176 586.796C138.177 583.106 133.236 570.154 130.224 562.326C127.213 554.499 127.203 537.213 126.864 528.488C126.525 519.763 127.562 501.356 129.247 482.705C130.932 464.054 124.835 444.216 122.97 437.978C121.106 431.741 120.632 421.989 120.477 417.537C120.323 413.085 127.163 354.533 127.258 353.985C127.353 353.436 136.895 382.603 140.021 393.671C143.147 404.739 149.305 415.807 150.302 418.549C151.299 421.291 151.608 427.763 155.287 433.915C158.967 440.068 159.909 446.993 160.532 457.308C161.156 467.623 166.705 491.46 169.432 512.405C172.159 533.349 172.304 553.103 171.546 557.819C170.788 562.536 170.868 568.319 171.117 568.468C171.366 568.618 171.531 578.938 161.779 588.91C152.027 598.881 161.5 600.347 161.664 600.377C161.829 600.407 183.965 599.459 197.062 598.747C210.16 598.034 202.651 582.658 202.322 582.593C201.993 582.528 200.632 572.238 200.328 566.21C200.024 560.182 197.187 548.655 197.187 548.655C197.187 548.655 195.487 542.209 195.721 529.251C195.956 516.293 197.78 490.114 198.214 478.926C198.648 467.738 193.727 450.577 191.733 445.492C189.738 440.407 187.644 429.269 186.612 426.182C185.58 423.096 185.172 411.724 185.042 409.007C184.912 406.29 184.663 379.935 184.927 367.626C185.192 355.316 177.947 312.245 176.741 305.394C175.534 298.544 167.806 255.832 167.627 252.187C167.448 248.543 166.954 218.748 167.522 214.336C168.091 209.924 172.508 181.496 172.508 181.496C172.508 181.496 172.069 179.122 172.972 179.945C173.874 180.768 181.123 199.065 184.823 205.008C188.522 210.951 190.805 220.962 190.9 221.142C192.133 226.182 192.916 231.323 193.238 236.502C193.737 244.689 202.567 264.562 204.621 271.367C206.675 278.173 208.514 298.29 208.609 300.02C208.704 301.75 207.697 304.826 207.702 305.006C207.707 305.185 205.284 309.388 203.688 312.05C202.093 314.713 197.641 329.725 197.805 331.445C197.97 333.165 195.263 346.9 195.263 346.86C195.263 346.82 197.83 346.452 199.47 344.647C201.111 342.842 201.061 340.214 201.849 338.574C202.636 336.934 205.837 331.883 205.837 331.883C205.837 331.883 207.782 341.446 207.906 344.029C208.031 346.611 205.912 351.921 202.99 361.433C200.069 370.946 208.933 363.956 208.913 363.572C208.893 363.188 231.803 337.986 231.703 335.942C231.603 333.898 231.174 325.866 230.91 321.199C230.646 316.532 227.669 294.057 227.575 293.818C227.48 293.578 226.079 253.932 224.444 240.027C222.808 226.122 215.918 209.011 214.069 206.269Z" stroke="#10EFFF" stroke-miterlimit="10" stroke-linecap="round" stroke-dasharray="0.25 3.75"/>
<path d="M207.537 205.312C205.792 202.495 204.356 187.812 204.356 187.812C204.356 187.733 201.25 158.546 194.998 132.671C188.746 106.795 162.522 106.406 157.925 105.783C138.511 103.146 132.822 84.9181 132.742 83.3127C132.662 81.7073 132.682 72.1198 132.523 68.8193C132.478 67.9269 134.208 67.0345 135.624 62.9362C137.04 58.838 137.429 46.9821 135.125 47.7299C135.2 47.5654 135.18 40.4708 135.16 40.0669C135.14 39.6631 136.791 29.0337 127.497 19.8151C118.154 9.78895 104.668 12.4513 99.0789 14.655C93.4899 16.8586 88.4743 23.6292 87.3227 28.2609C86.171 32.8926 85.7821 36.7066 85.3284 45.7606C84.4858 46.7577 82.4068 48.752 82.6012 52.7405C82.7957 56.7291 86.3505 63.6791 87.2329 65.2496C87.8661 66.7453 89.8803 73.4261 90.0648 73.82C91.6077 79.4312 92.5355 85.1936 92.8318 91.0056C93.2706 100.089 90.1445 100.409 90.1545 100.568C90.1645 100.728 79.6846 110.849 73.273 114.932C68.068 118.257 68.6413 116.203 58.9143 123.298C49.1872 130.392 49.287 152.479 49.3269 153.282C49.3269 153.282 50.6231 165.068 50.7029 170.143C50.7827 175.219 50.4985 197.714 49.0327 202.306C47.5669 206.898 41.4445 228.565 40.0585 233.461C38.6725 238.357 37.2266 278.238 36.7929 285.911C36.3591 293.583 35.8606 299.98 36.1796 306.571C36.4987 313.162 38.8071 330.547 39.171 338.579C39.535 346.611 52.1338 356.243 53.4699 357.699C54.8061 359.155 57.7277 340.893 57.7177 340.648C57.7078 340.404 52.8467 336.525 52.8467 336.525C52.8467 336.525 52.9215 331.37 52.8966 329.116C52.8717 326.863 54.5269 327.83 54.6964 327.985C54.8659 328.139 55.3446 332.97 55.3795 333.753C55.4144 334.536 56.8353 337.218 58.4307 336.979C60.0261 336.739 59.363 332.99 59.1885 332.741C59.014 332.492 57.3289 319.374 57.1942 316.159C57.0596 312.943 50.8924 304.138 50.8874 303.974C50.8824 303.809 50.5184 294.715 50.653 294.057C50.7877 293.399 52.6024 282.59 54.5518 272.903C56.5012 263.216 65.994 241.279 67.4248 237.983C68.8557 234.688 69.9825 220.857 69.4191 218.709C68.8557 216.56 75.2424 204.071 75.3172 203.986C75.392 203.901 71.2588 251.624 71.2588 251.624C71.2588 251.624 68.4868 283.273 67.8835 302.134C67.2803 320.995 70.3764 350.121 70.5758 354.483C70.7752 358.846 79.2309 395.336 79.1811 395.989C79.1312 396.642 79.1113 406.334 79.4453 411.485C79.7793 416.635 83.6532 428.546 83.7828 431.198C83.9125 433.85 86.5648 438.806 87.0036 449.5C87.4423 460.195 89.7856 478.776 89.651 479.27C89.5164 479.763 94.9856 518.014 98.3011 534.935C101.617 551.856 95.0205 558.637 95.1601 559.863C95.2997 561.09 85.2636 571.794 85.2636 571.794C85.2636 571.794 74.33 582.239 74.3549 582.802C74.3798 583.366 74.3549 584.343 67.9982 586.262C61.6415 588.182 63.6756 593.571 68.9953 594.923C74.315 596.274 88.2649 593.188 91.4308 592.225C94.5968 591.263 110.481 586.307 111.872 585.35C113.263 584.393 123.628 583.72 128.295 580.275C132.962 576.83 128.335 564.48 125.478 556.967C122.621 549.453 122.517 532.367 122.232 523.184C121.948 514 123.08 495.648 124.63 477.764C126.181 459.881 120.522 441.06 118.937 434.932C117.351 428.805 116.898 419.397 116.773 415.129C116.648 410.861 123.329 355.74 123.529 354.673C123.728 353.606 132.942 379.242 135.853 389.573C138.765 399.903 145.132 413.085 146.074 415.862C147.016 418.639 147.33 425.155 150.681 431.198C154.031 437.241 154.714 444.714 155.467 455.239C156.22 465.764 161.524 488.882 164.102 508.82C166.68 528.758 166.884 548.007 166.066 552.809C165.249 557.61 165.139 563.662 165.638 563.962C166.136 564.261 166.849 573.813 157.875 583.107C148.901 592.4 158.573 593.95 158.902 594.015C159.231 594.08 180.545 593.292 192.999 592.519C205.453 591.747 198.543 577.183 197.89 577.064C197.237 576.944 195.965 567.327 195.691 561.703C195.417 556.079 192.131 544.871 192.131 544.871C192.131 544.871 189.958 538.365 190.177 526.27C190.396 514.175 191.698 489.545 192.201 478.233C192.705 466.92 188.213 448.907 186.368 444.161C184.523 439.414 182.529 428.062 181.557 424.637C180.585 421.212 180.305 410.348 180.176 407.686C180.046 405.023 179.961 379.895 180.201 368.204C180.44 356.513 173.65 316.009 172.538 309.612C171.426 303.216 164.501 261.565 164.326 257.946C164.152 254.326 163.703 225.09 164.102 219.985C164.501 214.88 168.29 186.805 168.29 186.805C168.29 186.805 167.413 182.064 168.255 182.817C169.098 183.57 176.232 201.204 179.652 206.843C183.073 212.482 185.321 222.543 185.501 222.862C185.68 223.181 187.909 230.839 188.542 238.931C189.175 247.022 197.516 266.058 199.426 272.409C201.335 278.761 203.1 297.926 203.155 299.536C203.21 301.147 202.023 304.522 202.038 304.836C202.053 305.15 199.779 309.792 198.289 312.28C196.798 314.768 192.63 328.902 192.889 330.502C193.149 332.103 190.681 344.702 190.676 344.622C190.671 344.542 193.059 343.939 194.589 342.254C196.12 340.568 196.16 338.071 196.898 336.665C197.636 335.259 200.642 330.851 200.642 330.851C200.642 330.851 202.208 339.96 202.322 342.373C202.437 344.786 200.712 350.679 198.074 359.424C195.437 368.169 204.287 361.129 204.247 360.322C204.207 359.514 225.506 335.194 225.396 332.94C225.286 330.687 224.832 322.884 224.538 318.138C224.244 313.392 221.178 290.398 220.994 289.919C220.809 289.44 219.049 251.494 217.444 238.357C215.838 225.22 209.282 208.129 207.537 205.312Z" stroke="#20DFFF" stroke-miterlimit="10" stroke-linecap="round" stroke-dasharray="0.5 3.5"/>
<path d="M201.011 204.365C199.376 201.468 198.06 187.234 198.06 187.234C198.06 187.114 195.068 158.905 188.701 134.67C182.335 110.435 158.179 110.185 153.617 109.462C135.335 106.656 129.397 89.4849 129.322 87.9892C129.247 86.4935 129.083 77.6489 128.908 74.0791C128.843 72.743 130.519 71.4467 131.83 67.6426C133.141 63.8386 133.585 52.4962 131.491 53.0994C131.601 52.8501 131.75 45.8852 131.72 45.2769C131.987 41.7584 131.473 38.2245 130.217 34.9273C128.96 31.63 126.991 28.6506 124.451 26.2017C115.756 16.4547 103.272 18.6684 97.9971 20.4433C92.7223 22.2182 87.7915 28.0863 86.3955 32.2793C84.9995 36.4722 83.8428 39.8874 82.9454 48.8616C81.679 50.3822 79.9191 52.8003 80.0986 56.5296C80.2781 60.2589 83.5885 67.0593 84.4162 68.4952C84.8649 69.8463 86.8143 76.6916 87.0835 77.2899C87.3527 77.8882 89.4517 85.267 89.8505 93.4734C90.2644 102.044 87.4375 102.896 87.4474 103.136C87.4574 103.375 77.4761 113.685 70.541 117.833C65.4307 120.885 64.4884 119.239 55.2948 127.306C46.1013 135.373 46.176 157.469 46.2159 158.217C46.2159 158.217 47.4075 169.954 47.4025 174.805C47.3975 179.656 46.8491 201.443 45.4731 206.449C44.097 211.454 38.5729 233.69 37.2766 238.242C35.9803 242.794 34.6093 280.935 34.2154 288.294C33.8216 295.652 33.3828 302.004 33.682 308.236C33.9811 314.468 37.481 331.779 37.84 339.237C38.199 346.696 50.3341 355.939 51.3861 356.797C52.4381 357.654 54.9807 340.464 54.9608 340.1C54.9409 339.736 50.4986 335.613 50.4986 335.613C50.4986 335.613 50.7679 331.096 50.7928 329.091C50.8177 327.087 52.3633 328.129 52.6175 328.358C52.8718 328.588 53.4551 333.05 53.49 333.798C53.5249 334.546 54.6218 336.291 56.1025 335.967C57.5833 335.642 56.646 331.385 56.3867 331.031C56.1275 330.677 54.3924 318.307 54.2728 315.321C54.1531 312.334 48.3697 304.023 48.3548 303.779C48.3398 303.535 48.0058 294.022 48.2002 293.04C48.3947 292.058 50.4488 280.93 52.2386 271.522C54.0285 262.114 62.8681 241.388 64.2042 238.327C65.5404 235.266 66.6472 221.909 66.2733 219.581C65.8994 217.253 72.1265 204.674 72.2561 204.544C72.3857 204.415 68.5318 248.732 68.5318 248.732C68.5318 248.732 66.383 279.534 65.8695 297.248C65.3559 314.962 68.3623 343.515 68.5517 347.733C68.7412 351.951 76.3842 388.087 76.3095 389.064C76.2347 390.041 76.0552 401.369 76.4391 406.793C76.823 412.217 80.5373 424.667 80.662 427.269C80.7866 429.872 83.2844 435.072 83.6534 445.143C84.0223 455.214 86.1462 473.028 85.9268 473.766C85.7075 474.503 90.6084 510.864 93.7593 527.112C96.9103 543.361 91.0371 551.043 91.2665 552.868C91.4958 554.693 82.1277 564.963 82.1277 564.963C82.1277 564.963 71.9121 575.269 71.952 576.116C71.9919 576.964 71.952 578.43 66.044 580.21C60.1359 581.99 61.7014 587.848 67.3253 589.069C72.9491 590.291 87.0685 587.364 90.0201 586.477C92.9716 585.589 108.168 580.868 108.886 579.497C109.604 578.126 119.146 576.949 123.479 573.748C127.811 570.547 123.504 558.791 120.792 551.597C118.079 544.403 117.89 527.511 117.666 517.869C117.441 508.226 118.663 489.924 120.079 472.808C121.495 455.692 116.27 437.909 114.968 431.866C113.667 425.823 113.228 416.784 113.154 412.681C113.079 408.578 119.535 356.936 119.824 355.346C120.114 353.755 129.008 375.867 131.715 385.459C134.422 395.052 140.989 410.388 141.876 413.175C142.763 415.962 143.078 422.543 146.114 428.486C149.15 434.429 149.554 442.446 150.441 453.18C151.329 463.914 156.389 486.304 158.802 505.235C161.215 524.166 161.495 542.917 160.617 547.798C159.74 552.679 159.436 559.001 160.188 559.454C160.941 559.908 162.183 568.698 154.006 577.323C145.83 585.948 155.681 587.573 156.175 587.673C156.669 587.773 177.16 587.145 188.951 586.332C200.742 585.519 194.435 571.749 193.473 571.555C192.511 571.36 191.309 562.441 191.06 557.216C190.81 551.991 187.071 541.112 187.071 541.112C187.071 541.112 184.424 534.546 184.628 523.313C184.833 512.08 185.625 488.997 186.174 477.565C186.722 466.132 182.684 447.262 180.979 442.859C179.274 438.457 177.459 426.905 176.526 423.106C175.594 419.307 175.46 409.002 175.335 406.399C175.21 403.797 175.29 379.895 175.499 368.802C175.709 357.709 169.387 319.768 168.355 313.835C167.323 307.902 161.22 267.309 161.021 263.719C160.822 260.129 160.453 231.447 160.677 225.649C160.901 219.85 164.067 192.125 164.067 192.125C164.067 192.125 162.751 185.01 163.534 185.718C164.317 186.426 171.346 203.378 174.472 208.707C177.598 214.037 179.827 224.103 180.091 224.577C180.355 225.05 183.083 233.317 183.84 241.353C184.598 249.39 192.446 267.543 194.226 273.441C196.005 279.339 197.636 297.557 197.716 299.053C197.795 300.548 196.364 304.198 196.389 304.681C196.414 305.165 194.29 310.211 192.899 312.519C191.508 314.827 187.669 328.094 187.984 329.575C188.298 331.056 186.104 342.538 186.099 342.398C186.094 342.258 188.298 341.441 189.719 339.875C191.139 338.31 191.269 335.937 191.957 334.775C192.645 333.613 195.447 329.839 195.447 329.839C195.447 329.839 196.634 338.494 196.738 340.733C196.843 342.971 195.527 349.453 193.164 357.43C190.8 365.407 199.645 358.282 199.58 357.071C199.515 355.859 219.219 332.402 219.104 329.934C218.989 327.466 218.496 319.913 218.142 315.092C217.788 310.27 214.652 286.753 214.388 286.04C214.123 285.327 212.01 249.091 210.399 236.712C208.789 224.332 202.646 207.261 201.011 204.365Z" stroke="#30CFFF" stroke-miterlimit="10" stroke-linecap="round" stroke-dasharray="0.75 3.25"/>
<path d="M194.49 203.418C192.964 200.426 191.773 186.656 191.773 186.656C191.773 186.496 188.906 159.264 182.415 136.674C175.923 114.084 153.852 113.915 149.315 113.137C132.164 110.19 125.977 94.0418 125.912 92.6658C125.847 91.2898 125.493 83.193 125.309 79.3341C125.224 77.5542 126.844 75.8441 128.056 72.3542C129.267 68.8642 129.756 58.0204 127.871 58.4741C128.016 58.14 128.335 51.3047 128.295 50.497C128.509 47.1934 128.006 43.8825 126.819 40.792C125.632 37.7015 123.79 34.9046 121.42 32.5934C113.358 23.0808 101.891 24.9005 96.9452 26.2367C91.9994 27.5729 87.1384 32.5635 85.4782 36.2978C83.8179 40.0321 81.9134 43.0933 80.5573 52.0076C78.5662 54.3136 77.5145 57.2836 77.6108 60.3287C77.7753 63.7738 80.8614 70.4447 81.5993 71.7958C81.8636 73.0023 83.7432 80.0171 84.0922 80.8099C84.4412 81.6026 86.4903 88.408 86.8542 95.9863C87.2431 104.048 84.7104 105.429 84.7253 105.753C84.7403 106.077 75.2974 116.577 67.7741 120.78C62.7884 123.582 60.2955 122.321 51.6454 131.38C42.9953 140.439 43.0401 162.525 43.075 163.213C43.075 163.213 44.1669 174.894 44.0722 179.526C43.9774 184.158 43.1648 205.232 41.8835 210.652C40.6021 216.071 35.6514 238.801 34.4747 242.999C33.2981 247.197 31.9819 283.607 31.6229 290.647C31.264 297.687 30.89 303.998 31.1692 309.837C31.4484 315.675 36.1549 332.945 36.474 339.83C36.7931 346.716 48.5443 355.59 49.3071 355.844C50.0699 356.099 52.2387 339.99 52.2138 339.501C52.1888 339.013 48.1604 334.665 48.1604 334.665C48.1604 334.665 48.6241 330.782 48.6989 329.032C48.7737 327.282 50.1946 328.388 50.5486 328.697C50.9025 329.007 51.5756 333.115 51.6055 333.803C51.6354 334.491 52.4082 335.299 53.7743 334.92C55.1404 334.541 53.9338 329.759 53.5848 329.286C53.2358 328.812 51.5008 317.206 51.3662 314.448C51.2316 311.691 45.882 303.874 45.8421 303.55C45.8022 303.226 45.508 293.294 45.7673 291.983C46.0265 290.672 48.315 279.235 49.9453 270.101C51.5756 260.967 59.7721 241.483 61.0135 238.661C62.2549 235.839 63.3418 222.956 63.1773 220.449C63.0127 217.941 69.0604 205.267 69.2149 205.093C69.3695 204.918 65.8247 245.831 65.8247 245.831C65.8247 245.831 64.2691 275.79 63.8304 292.342C63.3917 308.894 66.3232 336.889 66.5077 340.982C66.6922 345.075 73.5126 380.838 73.4129 382.144C73.3131 383.45 72.9691 396.408 73.4129 402.087C73.8566 407.765 77.4014 420.768 77.526 423.321C77.6507 425.873 79.984 431.298 80.2781 440.77C80.5723 450.243 82.4519 467.264 82.1777 468.251C81.9034 469.239 86.2111 503.71 89.1975 519.32C92.1839 534.93 87.0337 543.5 87.3129 545.918C87.5921 548.336 78.9569 558.203 78.9569 558.203C78.9569 558.203 69.4492 568.369 69.4841 569.5C69.519 570.632 69.4841 572.582 64.0248 574.227C58.5655 575.872 59.6624 582.204 65.6003 583.286C71.5382 584.368 85.8172 581.616 88.5344 580.793C91.2516 579.97 105.78 575.493 105.82 573.703C105.86 571.914 114.59 570.213 118.588 567.282C122.587 564.35 118.588 553.192 116.03 546.287C113.473 539.382 113.184 522.71 113.039 512.614C112.894 502.518 114.186 484.26 115.467 467.917C116.748 451.574 111.977 434.788 110.94 428.87C109.903 422.952 109.499 414.242 109.474 410.303C109.449 406.364 115.686 358.183 116.07 356.054C116.454 353.925 125.044 372.507 127.537 381.381C130.03 390.256 136.791 407.69 137.623 410.532C138.456 413.374 138.77 419.975 141.492 425.813C144.214 431.652 144.344 440.207 145.361 451.161C146.378 462.114 151.199 483.767 153.448 501.69C155.696 519.614 156.05 537.866 155.113 542.822C154.176 547.778 153.682 554.379 154.684 554.982C155.686 555.585 157.496 563.617 150.083 571.57C142.669 579.522 152.74 581.227 153.393 581.356C154.046 581.486 173.72 581.022 184.848 580.16C195.976 579.297 190.332 566.335 189.001 566.07C187.67 565.806 186.603 557.595 186.368 552.754C186.134 547.913 181.971 537.373 181.971 537.373C181.971 537.373 178.85 530.742 179.039 520.377C179.229 510.011 179.488 488.468 180.106 476.917C180.724 465.365 177.115 445.641 175.554 441.573C173.994 437.505 172.349 425.729 171.461 421.596C170.574 417.462 170.584 407.671 170.464 405.143C170.344 402.615 170.584 379.92 170.768 369.435C170.953 358.951 165.099 323.567 164.142 318.083C163.185 312.599 157.9 273.067 157.731 269.503C157.561 265.938 157.232 237.819 157.267 231.322C157.302 224.826 159.844 197.435 159.844 197.435C159.844 197.435 158.09 187.962 158.807 188.6C159.525 189.238 166.446 205.551 169.277 210.537C172.109 215.523 174.313 225.644 174.667 226.272C175.021 226.9 178.267 235.824 179.139 243.801C180.012 251.779 187.385 269.064 189.031 274.508C190.676 279.953 192.201 297.218 192.266 298.594C192.331 299.97 190.696 303.909 190.731 304.577C190.766 305.245 188.791 310.679 187.515 312.808C186.239 314.937 182.694 327.336 183.083 328.697C183.472 330.059 181.537 340.389 181.527 340.224C181.517 340.06 183.521 338.993 184.848 337.547C186.174 336.101 186.373 333.858 187.021 332.935C187.67 332.013 190.277 328.877 190.277 328.877C190.277 328.877 191.08 337.083 191.179 339.147C191.279 341.212 190.362 348.281 188.273 355.49C186.184 362.7 195.013 355.491 194.934 353.875C194.854 352.26 212.932 329.66 212.802 326.987C212.673 324.315 212.154 316.991 211.755 312.095C211.356 307.199 208.166 283.178 207.792 282.181C207.418 281.184 204.98 246.703 203.404 235.086C201.829 223.47 196.011 206.409 194.49 203.418Z" stroke="#40BFFF" stroke-miterlimit="10" stroke-linecap="round" stroke-dasharray="1 3"/>
<path d="M187.963 202.52C186.553 199.474 185.471 186.127 185.471 186.127C185.471 185.923 182.724 159.673 176.113 138.723C169.502 117.774 149.509 117.719 145.002 116.861C128.978 113.805 122.566 98.6536 122.487 97.3922C122.407 96.1308 121.893 88.762 121.694 84.6438C121.584 82.4202 123.155 80.3163 124.266 77.0955C125.378 73.8748 125.917 63.5694 124.237 63.8785C124.421 63.4647 124.905 56.754 124.855 55.7419C125.02 52.6539 124.527 49.566 123.41 46.6825C122.293 43.799 120.576 41.1855 118.373 39.0149C110.965 29.7516 100.475 31.1426 95.8831 32.035C91.2913 32.9274 86.4801 37.0207 84.5855 40.3212C82.691 43.6217 80.0087 46.304 78.2039 55.1386C76.1021 57.6638 75.0035 60.8743 75.1177 64.1577C75.2723 67.3136 78.1091 73.8648 78.8121 75.0963C78.8869 76.1532 80.7017 83.3376 81.1554 84.3297C81.6091 85.3219 83.5834 91.554 83.9174 98.499C84.2814 106.052 82.0478 107.972 82.0678 108.366C82.0877 108.76 73.1933 119.474 65.1165 123.727C60.2405 126.294 56.227 125.397 48.1004 135.443C39.9737 145.489 40.0086 167.576 40.0385 168.204C40.0385 168.204 41.0357 179.83 40.8412 184.248C40.6468 188.665 39.5699 209.036 38.3883 214.885C37.2067 220.733 32.8343 243.981 31.7524 247.83C30.6705 251.679 29.4141 286.354 29.105 293.08C28.7959 299.806 28.4668 306.078 28.731 311.527C28.9953 316.976 34.8734 334.187 35.1825 340.524C35.4916 346.86 46.7842 355.306 47.2229 354.952C47.6616 354.598 49.4914 339.571 49.4615 338.968C49.4316 338.365 45.8169 333.773 45.8169 333.773C45.8169 333.773 46.4701 330.527 46.5997 329.027C46.7293 327.526 48.0505 328.703 48.4793 329.091C48.9081 329.48 49.6958 333.234 49.7257 333.868C49.7556 334.501 50.2243 334.396 51.4507 333.932C52.6772 333.469 51.2214 328.194 50.7877 327.606C50.3539 327.017 48.589 316.169 48.4643 313.646C48.3397 311.123 43.354 303.789 43.3341 303.385C43.3141 302.981 43.015 292.636 43.3341 290.996C43.6532 289.356 46.1859 277.609 47.6517 268.75C49.1175 259.89 56.6707 241.653 57.8125 239.065C58.9542 236.478 60.0112 224.043 60.081 221.366C60.1508 218.689 65.994 205.91 66.1884 205.686C66.3828 205.462 63.1322 242.974 63.1322 242.974C63.1322 242.974 62.165 272.09 61.8459 287.476C61.5268 302.862 64.3387 330.303 64.5132 334.267C64.6877 338.23 70.6905 373.628 70.5708 375.254C70.4511 376.879 69.9376 391.477 70.4262 397.46C70.9148 403.443 74.3051 416.954 74.4148 419.457C74.5245 421.96 76.7082 427.653 76.9325 436.478C77.1569 445.302 78.8022 461.581 78.4581 462.812C78.1141 464.044 81.8384 496.63 84.6653 511.582C87.4922 526.534 83.0649 536.012 83.4139 539.003C83.7629 541.995 75.7858 551.427 75.7858 551.427C75.7858 551.427 67.0061 561.449 67.0709 562.865C67.1357 564.281 67.0709 566.719 62.0852 568.224C57.0995 569.73 57.6978 576.515 63.9548 577.483C70.2118 578.45 84.6454 575.847 87.1432 575.094C89.641 574.342 103.486 570.109 102.843 567.9C102.2 565.692 110.122 563.518 113.812 560.806C117.501 558.093 113.812 547.564 111.384 540.973C108.955 534.381 108.597 517.909 108.492 507.354C108.387 496.799 109.788 478.597 110.93 463.017C112.072 447.436 107.719 431.677 106.981 425.858C106.292 419.899 105.918 413.908 105.859 407.91C105.859 404.136 111.897 359.414 112.376 356.752C112.854 354.09 121.106 369.176 123.399 377.293C125.692 385.41 132.667 404.988 133.435 407.865C134.203 410.742 134.527 417.388 136.925 423.121C139.323 428.855 139.184 437.959 140.335 449.121C141.487 460.284 146.064 481.209 148.148 498.121C150.232 515.032 150.641 532.791 149.644 537.827C148.646 542.862 147.963 549.737 149.22 550.485C150.476 551.233 152.829 558.512 146.193 565.796C139.558 573.08 149.828 574.86 150.646 575.025C151.463 575.189 170.314 574.885 180.779 573.973C191.244 573.06 186.199 560.9 184.563 560.571C182.928 560.242 181.926 552.699 181.711 548.277C181.497 543.854 176.895 533.619 176.895 533.619C174.507 528.562 173.336 523.016 173.475 517.425C173.65 507.922 173.39 487.935 174.063 476.253C174.736 464.572 171.571 444.001 170.15 440.272C168.729 436.543 167.263 424.557 166.415 420.065C165.568 415.573 165.707 406.359 165.593 403.842C165.478 401.324 165.877 379.91 166.036 370.019C166.196 360.127 160.806 327.331 159.934 322.311C159.062 317.29 154.594 278.811 154.42 275.276C154.245 271.741 153.956 244.175 153.832 236.986C153.707 229.797 155.616 202.784 155.616 202.784C155.616 202.784 153.423 190.923 154.081 191.527C154.739 192.13 161.559 207.725 164.107 212.437C166.655 217.148 168.823 227.249 169.267 228.042C169.711 228.834 173.44 238.352 174.432 246.234C175.424 254.117 182.32 270.57 183.825 275.555C185.331 280.541 186.752 296.859 186.817 298.12C186.882 299.382 185.027 303.605 185.067 304.412C185.107 305.22 183.287 311.088 182.115 313.043C180.944 314.997 177.703 326.504 178.172 327.765C178.64 329.027 176.955 338.2 176.945 338.001C176.935 337.801 178.77 336.505 179.971 335.169C181.173 333.833 181.467 331.729 182.075 331.041C182.684 330.353 185.067 327.86 185.067 327.86C185.067 327.86 185.491 335.613 185.565 337.507C185.64 339.402 185.142 347.055 183.327 353.491C181.512 359.928 190.307 352.644 190.232 350.62C190.157 348.595 206.6 326.858 206.46 323.976C206.321 321.094 205.777 314.005 205.334 309.019C204.89 304.033 201.624 279.489 201.161 278.292C200.697 277.096 197.92 244.29 196.354 233.421C194.789 222.553 189.379 205.571 187.963 202.52Z" stroke="#50AFFF" stroke-miterlimit="10" stroke-linecap="round" stroke-dasharray="1.25 2.75"/>
<path d="M181.442 201.638C180.141 198.517 179.184 185.614 179.184 185.614C179.184 185.369 176.556 160.097 169.826 140.793C163.095 121.488 145.182 121.548 140.704 120.606C125.812 117.465 119.131 103.28 119.077 102.159C119.022 101.037 118.304 94.3859 118.079 89.9935C117.95 87.3212 119.466 84.8134 120.478 81.8918C121.49 78.9702 122.078 69.1783 120.602 69.3379C120.822 68.8393 121.475 62.2582 121.42 61.0467C121.365 59.8352 121.983 52.0725 115.337 45.4964C108.572 36.4573 99.0841 37.4246 94.8363 37.8932C90.5885 38.3619 85.8322 41.5826 83.6883 44.4095C81.5445 47.2364 78.0944 49.5497 75.8459 58.3295C73.6294 61.0602 72.4891 64.5078 72.6401 68.0216C72.7797 70.8934 75.3922 77.3149 76.0203 78.4367C75.9107 79.3491 77.6606 86.698 78.2041 87.9095C79.7932 92.1237 80.7199 96.5587 80.9512 101.057C81.2902 108.101 79.3508 110.529 79.3757 111.028C79.4006 111.527 71.0596 122.435 62.3895 126.718C57.6432 129.061 52.0791 128.523 44.4909 139.556C36.9028 150.589 36.9077 172.671 36.9377 173.244C36.9377 173.244 37.8301 184.816 37.5459 189.014C37.2617 193.212 35.9355 212.855 34.8437 219.107C33.7518 225.36 29.9677 249.146 28.9855 252.646C28.0033 256.146 26.8068 289.086 26.5425 295.493C26.2783 301.9 26.0041 308.132 26.2484 313.212C26.4927 318.292 33.5624 335.448 33.8416 341.192C34.1208 346.935 44.9995 355.012 45.1291 354.055C45.2587 353.097 46.7345 339.152 46.6946 338.425C46.6547 337.697 43.4589 332.871 43.4589 332.871C43.8769 331.607 44.2215 330.32 44.4909 329.017C44.6754 327.77 45.8869 329.017 46.3955 329.475C46.904 329.934 47.8014 333.344 47.8264 333.923C47.8513 334.501 47.9809 333.474 49.1077 332.925C50.2344 332.377 48.4944 326.604 47.971 325.901C47.4475 325.198 45.6676 315.097 45.5529 312.808C45.4382 310.52 40.8414 303.674 40.8165 303.191C40.7916 302.707 40.5174 291.943 40.9062 289.979C41.2951 288.014 44.0572 275.954 45.3684 267.369C46.6797 258.783 53.5798 241.787 54.6168 239.449C55.6539 237.111 56.7158 225.165 56.9751 222.298C57.2343 219.432 62.918 206.568 63.1523 206.309C63.3866 206.05 60.4301 240.142 60.4301 240.142C60.4301 240.142 60.0512 268.416 59.8269 282.635C59.6025 296.854 62.3197 323.742 62.4892 327.581C62.6587 331.42 67.8389 366.449 67.6893 368.388C67.5397 370.328 66.8666 386.571 67.4101 392.818C67.9535 399.065 71.1793 413.125 71.2989 415.578C71.4186 418.031 73.4328 423.974 73.5824 432.175C73.7319 440.377 75.1479 455.887 74.7341 457.368C74.3202 458.849 77.4612 489.545 80.1236 503.844C82.7859 518.143 79.0816 528.498 79.5004 532.128C79.9191 535.758 72.6301 544.717 72.6301 544.717C72.6301 544.717 64.5683 554.598 64.653 556.299C64.7378 557.999 64.653 560.925 60.0961 562.281C55.5392 563.637 55.6888 570.902 62.2549 571.754C68.821 572.607 83.4191 570.154 85.6876 569.471C87.9561 568.788 101.143 564.784 99.807 562.172C98.4708 559.559 105.59 556.872 108.926 554.409C112.261 551.946 108.926 542.02 106.627 535.733C104.329 529.446 103.9 513.182 103.855 502.169C103.81 491.156 105.301 473.003 106.308 458.195C107.315 443.388 103.397 428.64 102.943 422.932C102.489 417.223 102.1 409.211 102.17 405.597C102.24 401.982 108.033 360.725 108.607 357.535C109.18 354.344 117.112 365.911 119.191 373.289C121.27 380.668 128.455 402.381 129.163 405.287C129.871 408.194 130.2 414.885 132.289 420.514C134.378 426.143 133.959 435.79 135.235 447.167C136.512 458.544 140.874 478.731 142.774 494.641C144.673 510.55 145.197 527.805 144.14 532.921C143.083 538.036 142.21 545.185 143.716 546.083C145.221 546.98 148.123 553.507 142.27 560.118C136.417 566.729 146.882 568.593 147.864 568.788C148.846 568.982 166.874 568.842 176.676 567.88C186.478 566.918 182.056 555.561 180.091 555.167C178.127 554.773 177.22 547.913 177.025 543.899C176.831 539.886 171.805 529.979 171.805 529.979C169.219 525.263 167.874 519.967 167.896 514.588C168.056 505.948 167.273 487.511 168.006 475.7C168.739 463.889 166.047 442.471 164.73 439.085C163.414 435.7 162.163 423.5 161.35 418.644C160.537 413.788 160.852 405.083 160.732 402.63C160.612 400.177 161.186 379.97 161.31 370.692C161.435 361.414 156.524 331.18 155.726 326.618C154.929 322.057 151.284 284.634 151.115 281.124C150.945 277.614 150.701 250.607 150.407 242.735C150.112 234.862 151.404 208.189 151.404 208.189C151.404 208.189 148.756 193.945 149.365 194.493C149.973 195.042 156.664 209.949 158.932 214.366C161.201 218.783 163.329 228.889 163.863 229.822C164.396 230.754 168.624 240.92 169.731 248.722C170.838 256.525 177.259 272.125 178.626 276.642C179.992 281.159 181.313 296.54 181.368 297.687C181.422 298.833 179.373 303.335 179.408 304.308C179.443 305.28 177.788 311.557 176.726 313.332C175.664 315.107 172.737 325.761 173.266 326.888C173.794 328.015 172.383 336.071 172.368 335.827C172.354 335.583 174.009 334.042 175.101 332.836C176.192 331.629 176.596 329.645 177.14 329.196C177.683 328.747 179.907 326.893 179.907 326.893C179.907 326.893 179.952 334.192 180.031 335.917C180.111 337.642 180.002 345.888 178.466 351.547C176.93 357.206 185.73 349.847 185.61 347.419C185.491 344.991 200.353 324.151 200.203 321.079C200.054 318.008 199.481 311.108 198.992 306.073C198.503 301.037 195.168 275.944 194.625 274.513C194.081 273.082 190.95 241.987 189.4 231.881C187.849 221.775 182.744 204.764 181.442 201.638Z" stroke="#609FFF" stroke-miterlimit="10" stroke-linecap="round" stroke-dasharray="1.5 2.5"/>
<path d="M174.921 200.81C173.73 197.609 172.897 185.155 172.897 185.155C172.897 184.87 170.404 160.57 163.539 142.911C156.674 125.252 140.854 125.431 136.402 124.394C122.636 121.198 115.711 107.942 115.661 106.944C115.612 105.947 114.709 100.024 114.485 95.3577C114.335 92.2417 115.796 89.33 116.703 86.6976C117.611 84.0652 118.249 74.7968 116.983 74.8068C117.237 74.2284 118.064 67.772 117.98 66.356C117.895 64.9401 118.274 57.9053 112.291 51.9824C106.174 43.2275 97.6781 43.771 93.7743 43.8108C89.8705 43.8507 85.169 46.184 82.7809 48.5522C80.3927 50.9204 76.1798 52.8499 73.4726 61.5648C71.1273 64.4934 69.9434 68.1836 70.1472 71.93C70.2718 74.5126 72.64 80.8145 73.2134 81.8216C72.9142 82.5894 74.5994 90.1078 75.2326 91.4938C76.8208 95.3658 77.7525 99.4755 77.9896 103.654C78.3037 110.185 76.6635 113.157 76.6884 113.72C76.7133 114.283 68.9456 125.441 59.6723 129.744C55.0655 131.883 47.941 131.683 40.8863 143.704C33.8316 155.724 33.8166 177.801 33.8415 178.319C33.8415 178.319 34.6342 189.841 34.2553 193.815C33.8764 197.788 32.291 216.749 31.2938 223.39C30.2967 230.031 27.0959 254.376 26.2134 257.527C25.331 260.678 24.2192 291.883 23.9749 297.975C23.7306 304.068 23.5312 310.255 23.7605 314.957C23.9898 319.658 32.2361 336.759 32.4954 341.929C32.7546 347.099 43.2295 354.782 43.06 353.217C42.8905 351.651 43.9973 338.788 43.9574 337.941C43.9176 337.093 41.1256 332.048 41.1256 332.048C41.6376 331.09 42.0646 330.089 42.4019 329.056C42.6362 328.059 43.7381 329.375 44.3314 329.914C44.9247 330.452 45.9268 333.513 45.9517 334.027C45.9766 334.54 45.7822 332.601 46.7893 331.983C47.7964 331.364 45.7922 325.083 45.1789 324.26C44.5657 323.437 42.7509 314.104 42.6512 312.04C42.5515 309.976 38.3336 303.629 38.3087 303.066C38.2838 302.502 38.0245 291.32 38.4832 289.026C38.9419 286.733 41.9333 274.363 43.085 266.052C44.2366 257.741 50.4887 241.991 51.426 239.877C52.3633 237.763 53.4203 226.301 53.8789 223.255C54.3376 220.209 59.8617 207.251 60.121 206.952C60.3803 206.653 57.7279 237.32 57.7279 237.32C57.7279 237.32 57.9373 264.741 57.8126 277.803C57.688 290.866 60.3055 317.19 60.465 320.905C60.6246 324.619 64.992 359.294 64.8175 361.548C64.643 363.801 63.8204 381.69 64.4037 388.226C64.987 394.762 68.0632 409.345 68.1778 411.743C68.2925 414.142 70.1472 420.334 70.2269 427.912C70.3067 435.49 71.4883 450.233 71.0047 451.963C70.5211 453.693 73.0837 482.495 75.5816 496.141C78.0794 509.787 75.083 521.034 75.5816 525.272C76.0801 529.51 69.4841 538.046 69.4841 538.046C69.4841 538.046 62.1402 547.788 62.2349 549.772C62.3297 551.756 62.2349 555.166 58.1267 556.403C54.0185 557.639 53.6995 565.377 60.5797 566.055C67.4599 566.733 82.2175 564.49 84.2616 563.876C86.3058 563.263 98.7998 559.499 96.8006 556.473C94.8013 553.446 101.093 550.25 104.095 548.037C107.096 545.823 104.055 536.495 101.926 530.517C99.797 524.539 99.2585 508.48 99.2685 497.003C99.2785 485.526 100.864 467.428 101.736 453.389C102.609 439.349 99.1239 425.619 98.9544 420.015C98.7849 414.411 98.411 406.743 98.5306 403.298C98.6503 399.853 104.219 362.046 104.892 358.327C105.565 354.608 113.169 362.655 115.043 369.295C116.918 375.936 124.302 399.783 124.96 402.699C125.618 405.616 125.957 412.372 127.717 417.901C129.477 423.43 128.794 433.616 130.21 445.207C131.626 456.799 135.719 476.258 137.474 491.155C139.229 506.052 139.807 522.814 138.69 528.009C137.573 533.204 136.511 540.623 138.266 541.675C140.021 542.727 143.471 548.491 138.396 554.429C133.321 560.366 143.99 562.311 145.137 562.54C146.283 562.77 163.489 562.789 172.628 561.777C181.766 560.765 177.962 550.211 175.669 549.752C173.376 549.293 172.558 543.121 172.383 539.506C172.209 535.892 166.705 526.329 166.705 526.329C166.705 526.329 162.168 519.519 162.307 511.741C162.447 503.963 161.151 487.077 161.943 475.146C162.736 463.216 160.488 440.945 159.306 437.893C158.124 434.842 157.057 422.438 156.285 417.228C155.512 412.018 155.971 403.846 155.856 401.448C155.741 399.05 156.474 380.07 156.574 371.399C156.674 362.729 152.246 335.039 151.528 330.951C150.81 326.862 147.984 290.482 147.814 287.002C147.644 283.522 147.45 257.088 146.986 248.493C146.523 239.897 147.171 213.593 147.171 213.593C147.171 213.593 144.095 196.991 144.638 197.479C145.182 197.968 151.748 212.232 153.742 216.33C155.736 220.428 157.82 230.564 158.443 231.671C159.067 232.778 163.808 243.552 165.035 251.28C166.261 259.007 172.189 273.745 173.43 277.828C174.672 281.912 175.878 296.315 175.923 297.352C175.968 298.389 173.7 303.17 173.754 304.307C173.809 305.444 172.294 312.13 171.336 313.725C170.379 315.321 167.747 325.107 168.345 326.115C168.943 327.122 167.792 334.042 167.782 333.758C167.772 333.473 169.237 331.699 170.22 330.617C171.202 329.535 171.68 327.675 172.189 327.466C172.697 327.256 174.707 326.04 174.707 326.04C174.707 326.04 174.368 332.89 174.442 334.436C174.517 335.981 174.811 344.806 173.545 349.712C172.279 354.618 181.073 347.159 180.934 344.327C180.794 341.495 194.046 321.478 193.897 318.177C193.747 314.877 193.129 308.261 192.63 303.131C192.132 298 188.687 272.404 188.038 270.724C187.39 269.044 183.93 239.668 182.395 230.34C180.859 221.012 176.108 204.005 174.921 200.81Z" stroke="#708FFF" stroke-miterlimit="10" stroke-linecap="round" stroke-dasharray="1.75 2.25"/>
<path d="M168.395 200.132C167.318 196.856 166.6 184.846 166.6 184.846C166.6 184.522 164.212 161.199 157.242 145.185C150.272 129.171 136.521 129.47 132.094 128.343C119.45 125.127 112.291 112.793 112.246 111.89C112.201 110.988 111.114 105.828 110.875 100.887C110.701 97.3272 112.111 94.0117 112.919 91.6734C113.727 89.3351 114.415 80.5853 113.348 80.4457C113.642 79.7826 114.634 73.4658 114.554 71.8354C114.475 70.2051 114.554 63.9032 109.26 58.6384C103.775 50.1328 96.2969 50.2575 92.7272 49.8636C89.1574 49.4697 84.5207 50.9156 81.8833 52.855C79.2459 54.7944 74.2652 56.345 71.1143 64.9901C67.739 69.0485 67.5595 73.735 67.6692 76.0284C67.7789 78.3218 69.9177 84.504 70.4213 85.3965C69.9227 86.0147 71.553 93.7026 72.2809 95.288C73.8523 98.8134 74.7858 102.59 75.038 106.441C75.3272 112.464 73.981 115.964 74.0109 116.612C74.0409 117.26 66.8515 128.667 56.9699 132.965C52.5127 134.904 43.8177 135.034 37.3014 148.036C30.7852 161.039 30.7453 183.121 30.7652 183.579C30.7652 183.579 31.4532 195.046 30.9896 198.806C30.5259 202.565 28.6712 220.787 27.7688 227.862C26.8664 234.937 24.249 259.77 23.4662 262.592C22.6835 265.414 21.6165 294.864 21.437 300.638C21.2575 306.411 21.093 312.564 21.3024 316.881C21.5118 321.199 30.9597 338.25 31.184 342.847C31.4084 347.443 41.4495 354.747 40.9659 352.584C40.4823 350.42 41.2401 338.624 41.1953 337.662C41.1504 336.699 38.7772 331.395 38.7772 331.395C39.3701 330.769 39.8811 330.07 40.2978 329.316C40.587 328.568 41.5742 329.954 42.2522 330.572C42.9303 331.19 44.0371 333.897 44.057 334.356C44.077 334.815 43.5585 331.948 44.4509 331.26C45.3433 330.572 43.0649 323.781 42.3669 322.839C41.6689 321.897 39.8242 313.326 39.7344 311.492C39.6447 309.657 35.8157 303.804 35.7858 303.156C35.7559 302.508 35.5166 290.916 36.0401 288.293C36.5636 285.671 39.7893 272.987 40.7814 264.96C41.7736 256.934 47.3825 242.42 48.2101 240.531C49.0377 238.641 50.0797 227.668 50.7578 224.442C51.4358 221.216 56.7406 208.164 57.0696 207.82C57.3987 207.476 55.0155 234.742 55.0155 234.742C55.0155 234.742 55.8132 261.331 55.7883 273.217C55.7634 285.103 58.2811 310.878 58.4307 314.468C58.5803 318.058 62.1351 352.359 61.9207 354.942C61.7063 357.524 60.7192 377.043 61.3723 383.859C62.0254 390.674 64.9221 405.796 65.0367 408.139C65.1514 410.482 66.8416 416.924 66.8565 423.884C66.8715 430.844 67.8138 444.824 67.2604 446.788C66.7069 448.752 68.6862 475.68 71.0195 488.668C73.3528 501.655 71.0943 513.8 71.6527 518.641C72.2111 523.483 66.2931 531.564 66.2931 531.564C66.2931 531.564 59.6622 541.167 59.7719 543.43C59.8815 545.694 59.7469 549.597 56.1174 550.694C52.4878 551.791 51.6702 559.973 58.8645 560.546C66.0588 561.119 80.9759 559.015 82.7957 558.467C84.6155 557.919 96.4315 554.399 93.7642 550.959C91.0969 547.518 96.5661 543.819 99.2484 541.85C101.931 539.88 99.1936 531.16 97.2143 525.492C95.235 519.823 94.6018 503.969 94.6766 492.033C94.7513 480.097 96.4166 462.049 97.1694 448.782C97.9222 435.515 94.856 422.802 94.9657 417.303C95.0754 411.803 94.7214 404.484 94.8909 401.204C95.0605 397.923 100.405 363.577 101.173 359.324C101.941 355.071 109.225 359.603 110.89 365.506C112.555 371.41 120.123 397.36 120.732 400.321C121.34 403.283 121.664 410.073 123.12 415.493C124.576 420.912 123.618 431.646 125.149 443.452C126.68 455.259 130.548 473.985 132.129 487.875C133.709 501.765 134.372 518.023 133.191 523.303C132.009 528.583 130.763 536.266 132.767 537.472C134.771 538.679 138.75 543.679 134.477 548.939C130.204 554.199 141.048 556.228 142.36 556.488C143.671 556.747 160.054 556.931 168.529 555.869C177.005 554.808 173.824 545.055 171.202 544.537C168.579 544.018 167.856 538.524 167.712 535.313C167.567 532.103 161.644 522.849 161.644 522.849C161.644 522.849 156.634 515.974 156.758 509.064C156.883 502.154 155.063 486.813 155.916 474.758C156.768 462.702 154.968 439.579 153.921 436.866C152.874 434.154 151.987 421.535 151.259 415.971C150.531 410.407 151.134 402.774 151.02 400.421C150.905 398.068 151.807 380.324 151.877 372.257C151.947 364.19 147.973 339.092 147.335 335.443C146.697 331.793 144.688 296.49 144.523 293.035C144.359 289.58 144.214 263.689 143.576 254.416C142.938 245.142 142.958 219.192 142.958 219.192C142.958 219.192 139.468 200.216 139.927 200.655C140.385 201.094 146.906 214.665 148.582 218.454C150.257 222.243 152.341 232.414 153.069 233.66C153.797 234.907 159.007 246.329 160.353 253.977C161.699 261.625 167.158 275.515 168.255 279.145C169.352 282.774 170.464 296.226 170.509 297.148C170.554 298.07 168.066 303.131 168.13 304.432C168.195 305.733 166.829 312.828 165.982 314.249C165.134 315.67 162.801 324.584 163.489 325.467C164.177 326.349 163.269 332.137 163.254 331.818C163.24 331.499 164.521 329.485 165.398 328.523C166.276 327.561 166.839 325.826 167.298 325.855C168.071 325.741 168.832 325.558 169.571 325.307C169.571 325.307 168.853 331.704 168.923 333.08C168.993 334.456 169.686 343.864 168.694 348.002C167.702 352.14 176.481 344.597 176.327 341.361C176.172 338.125 187.794 318.965 187.639 315.435C187.485 311.906 186.837 305.544 186.263 300.349C185.69 295.154 182.205 269.024 181.462 267.114C180.719 265.205 176.92 237.534 175.4 228.949C173.879 220.364 169.477 203.417 168.395 200.132Z" stroke="#8080FF" stroke-miterlimit="10" stroke-linecap="round" stroke-dasharray="2 2"/>
<path d="M161.878 199.588C160.911 196.238 160.313 184.671 160.313 184.671C160.313 184.307 158.044 161.961 150.955 147.593C143.865 133.224 132.194 133.633 127.791 132.426C116.264 129.216 108.846 117.758 108.846 116.971C108.846 116.183 107.535 111.761 107.285 106.551C107.091 102.562 108.447 98.8279 109.155 96.7788C109.863 94.7297 110.596 86.5033 109.738 86.2141C110.067 85.4663 111.234 79.2691 111.139 77.4493C111.044 75.6295 110.895 70.0356 106.238 65.4289C101.392 57.1626 94.9108 56.8385 91.6751 56.0309C88.4394 55.2232 83.8726 55.7666 80.9859 57.2274C78.0992 58.6882 72.3507 59.8848 68.751 68.4651C64.9569 73.027 65.0915 78.1722 65.1913 80.1815C65.291 82.1907 67.1855 88.2433 67.6342 89.0261C66.9662 89.4997 68.5167 97.3521 69.3294 99.142C70.142 100.932 71.872 104.871 72.0864 109.293C72.3507 114.807 71.3037 118.835 71.3386 119.563C71.3735 120.291 64.7675 131.973 54.2726 136.25C49.965 138.005 39.6995 138.454 33.7217 152.439C27.7438 166.424 27.674 188.505 27.694 188.904C27.694 188.904 28.2823 200.316 27.7239 203.861C27.1655 207.406 25.0516 224.911 24.2339 232.399C23.4163 239.888 21.3921 265.275 20.7091 267.728C20.026 270.18 19.0239 297.916 18.8843 303.375C18.7447 308.834 18.64 314.942 18.8295 318.886C19.0189 322.829 29.6584 339.825 29.8528 343.839C30.0472 347.852 39.6746 354.767 38.8868 351.99C38.0991 349.213 38.4979 338.529 38.4481 337.422C38.3982 336.315 36.4538 330.796 36.4538 330.796C36.4538 330.796 37.8797 330.098 38.2237 329.605C38.5677 329.111 39.4402 330.567 40.218 331.26C41.0961 332.275 41.773 333.447 42.2123 334.715C42.2123 335.119 41.3946 331.33 42.1624 330.562C42.9302 329.794 40.3875 322.505 39.6048 321.448C38.822 320.391 36.9474 312.579 36.8676 310.978C36.7879 309.378 33.3478 303.998 33.3129 303.285C33.278 302.572 33.0636 290.547 33.6469 287.595C34.2302 284.644 37.6953 271.641 38.5279 263.899C39.3605 256.156 44.3212 242.874 45.0441 241.229C45.7671 239.583 46.7991 229.074 47.6915 225.668C48.584 222.263 53.7242 209.116 54.0732 208.717C54.4222 208.318 52.3531 232.2 52.3531 232.2C52.3531 232.2 53.7392 257.951 53.8139 268.67C53.8887 279.389 56.3068 304.612 56.4514 308.057C56.5959 311.502 59.3281 345.449 59.1037 348.356C58.8794 351.262 57.7127 372.417 58.4207 379.506C59.1287 386.596 61.8608 402.251 61.9705 404.549C62.0802 406.848 63.6108 413.524 63.5559 419.865C63.5011 426.207 64.2091 439.404 63.5908 441.628C62.9726 443.851 64.3686 468.879 66.5374 481.209C68.7061 493.539 67.1755 506.581 67.8037 512.025C68.4319 517.47 63.202 525.113 63.202 525.113C63.202 525.113 57.289 534.586 57.4136 537.123C57.5382 539.661 57.3837 544.058 54.2078 545.021C51.0319 545.983 49.7207 554.628 57.2491 555.072C64.7774 555.515 79.8342 553.576 81.4196 553.078C83.0051 552.579 94.153 549.313 90.7927 545.464C87.4323 541.615 92.0989 537.408 94.4322 535.682C96.7655 533.957 94.3574 525.846 92.5277 520.481C90.6979 515.117 89.975 499.472 90.1046 487.077C90.2343 474.683 91.9942 456.665 92.5975 444.2C93.2007 431.736 90.6032 420.005 90.9771 414.61C91.3511 409.216 91.032 402.246 91.2464 399.13C91.4608 396.014 96.586 365.128 97.4535 360.341C98.321 355.555 105.276 356.572 106.737 361.737C108.198 366.903 115.985 395.012 116.534 398.018C117.082 401.024 117.411 407.845 118.528 413.165C119.645 418.484 118.423 429.762 120.098 441.777C121.774 453.793 125.388 471.791 126.819 484.654C128.25 497.517 128.973 513.297 127.732 518.656C126.49 524.016 125.054 531.978 127.308 533.329C129.561 534.68 134.113 538.928 130.598 543.53C127.083 548.132 138.147 550.226 139.622 550.51C141.098 550.794 156.658 551.148 164.471 550.036C172.284 548.924 169.696 540.04 166.769 539.452C163.843 538.863 163.185 534.062 163.05 531.25C162.915 528.438 156.569 519.494 156.569 519.494C156.569 519.494 151.084 512.559 151.194 506.531C151.304 500.504 148.961 486.688 149.873 474.513C150.785 462.338 149.434 438.357 148.512 435.984C147.589 433.611 146.896 420.783 146.208 414.86C145.52 408.937 146.273 401.842 146.159 399.544C146.044 397.245 147.111 380.733 147.156 373.264C147.201 365.796 143.691 343.275 143.132 340.08C142.574 336.884 141.387 302.642 141.218 299.197C141.048 295.752 140.959 270.435 140.151 260.468C139.343 250.502 138.735 224.901 138.735 224.901C138.735 224.901 134.796 203.557 135.2 203.916C135.604 204.275 141.986 217.193 143.397 220.673C144.807 224.153 146.837 234.329 147.639 235.749C148.442 237.17 154.171 249.211 155.616 256.774C157.062 264.337 162.063 277.38 163.02 280.556C163.977 283.732 164.984 296.231 165.014 297.033C165.044 297.836 162.352 303.191 162.427 304.646C162.502 306.102 161.285 313.621 160.542 314.857C159.799 316.094 157.77 324.14 158.548 324.908C159.326 325.676 158.658 330.328 158.643 329.964C158.628 329.6 159.725 327.356 160.487 326.514C161.25 325.671 161.903 324.066 162.322 324.335C162.741 324.604 164.351 324.664 164.351 324.664C164.351 324.664 163.254 330.607 163.314 331.813C163.374 333.02 164.471 343.011 163.753 346.382C163.035 349.752 171.805 342.129 171.63 338.484C171.456 334.84 181.482 316.547 181.303 312.828C181.123 309.109 180.46 302.961 179.842 297.691C179.224 292.422 175.669 265.783 174.856 263.619C174.043 261.456 169.87 235.515 168.375 227.683C166.879 219.85 162.846 202.919 161.878 199.588Z" stroke="#8F70FF" stroke-miterlimit="10" stroke-linecap="round" stroke-dasharray="2.25 1.75"/>
<path d="M155.357 199.279C154.5 195.849 154.026 184.731 154.026 184.731C154.026 184.327 151.877 162.959 144.668 150.23C137.459 137.502 127.871 138.07 123.494 136.739C113.079 133.563 105.456 122.959 105.421 122.281C105.386 121.603 103.925 117.923 103.666 112.439C103.451 107.987 104.753 103.869 105.361 102.114C105.969 100.359 106.752 92.6408 106.099 92.2121C106.463 91.3844 107.794 85.3119 107.694 83.2877C107.595 81.2635 107.196 76.3925 103.207 72.4439C99.0241 64.4668 93.5249 63.7189 90.6432 62.4725C87.7615 61.2261 83.2395 60.8871 80.1035 61.8942C76.9675 62.9013 70.4562 63.7239 66.4079 72.2394C62.19 77.3099 62.6437 82.9088 62.7284 84.6288C62.8132 86.3489 64.4784 92.2769 64.8573 92.9499C63.9998 93.274 65.4855 101.301 66.3929 103.285C67.3003 105.27 68.9655 108.64 69.15 112.429C69.3943 117.415 68.6514 121.991 68.6514 122.799C68.6514 123.607 62.6686 135.597 51.5556 139.815C47.3975 141.391 35.5665 142.149 30.1172 157.121C24.6678 172.093 24.5831 194.169 24.598 194.513C24.598 194.513 25.0966 205.87 24.4385 209.191C23.7804 212.511 21.4172 229.308 20.7042 237.21C19.9913 245.113 18.5404 271.033 17.9521 273.132C17.3638 275.231 16.4265 301.236 16.3318 306.377C16.237 311.517 16.1822 317.584 16.3318 321.149C16.4813 324.714 28.3373 341.65 28.5018 345.08C28.6663 348.511 37.8749 355.052 36.778 351.686C35.6812 348.321 35.726 338.689 35.6662 337.472C35.6064 336.256 34.0708 330.492 34.0708 330.492C34.0708 330.492 35.6911 330.433 36.0651 330.188C36.439 329.944 37.2217 331.47 38.0593 332.242C38.8969 333.015 40.2231 335.019 40.2381 335.363C40.253 335.707 39.0963 331.001 39.7395 330.158C40.3827 329.316 37.5807 321.518 36.7082 320.346C35.8357 319.175 33.9362 312.12 33.8714 310.739C33.8066 309.358 30.7454 304.497 30.7105 303.684C30.6756 302.872 30.4761 290.447 31.1292 287.172C31.7824 283.896 35.4817 270.589 36.1548 263.111C36.8279 255.632 41.1405 243.607 41.7637 242.196C42.3869 240.785 43.404 230.729 44.5058 227.169C45.6076 223.609 50.6282 210.343 51.037 209.899C51.4459 209.455 49.651 229.926 49.651 229.926C49.651 229.926 51.6453 254.855 51.7998 264.387C51.9544 273.92 54.2677 298.609 54.4273 301.949C54.5868 305.29 56.4764 338.843 56.2321 342.079C55.9878 345.315 54.6516 368.099 55.4145 375.483C56.1773 382.867 58.7449 399.035 58.8546 401.284C58.9643 403.532 60.3503 410.463 60.2057 416.176C60.0611 421.89 60.5547 434.324 59.8667 436.792C59.1786 439.26 59.9913 462.398 61.9956 474.075C63.9998 485.751 63.1921 499.681 63.8901 505.734C64.5881 511.786 60.0112 519.011 60.0112 519.011C60.0112 519.011 54.8162 528.334 54.9558 531.166C55.0954 533.998 54.9209 538.874 52.1987 539.696C49.4765 540.519 47.7116 549.633 55.5341 549.942C63.3566 550.251 78.5928 548.481 79.9639 548.072C81.335 547.663 91.7949 544.617 87.7565 540.349C83.7181 536.082 87.5721 531.375 89.5713 529.879C91.5706 528.384 89.4816 520.905 87.7964 515.84C86.1113 510.774 85.3036 495.344 85.493 482.491C85.6825 469.637 87.5322 451.694 87.9859 439.958C88.4395 428.221 86.2708 417.552 86.9488 412.262C87.6269 406.973 87.3028 400.352 87.5671 397.395C87.8313 394.439 92.7322 367.017 93.6945 361.698C94.6567 356.378 101.293 353.88 102.539 358.307C103.785 362.735 111.782 392.978 112.276 396.019C112.77 399.06 113.099 405.921 113.921 411.136C114.744 416.351 113.228 428.172 115.033 440.397C116.838 452.621 120.213 469.897 121.48 481.778C122.746 493.658 123.544 508.915 122.242 514.354C120.941 519.793 119.316 528.03 121.819 529.53C124.321 531.031 129.422 534.516 126.685 538.45C123.948 542.383 135.215 544.552 136.85 544.881C138.486 545.21 153.228 545.714 160.378 544.557C167.527 543.401 165.588 535.254 162.312 534.586C159.037 533.918 158.493 529.815 158.374 527.406C158.254 524.998 151.473 516.373 151.473 516.373C151.473 516.373 145.516 509.393 145.61 504.193C145.705 498.993 142.843 486.743 143.81 474.464C144.778 462.184 143.88 437.335 143.093 435.301C142.305 433.267 141.796 420.224 141.143 413.948C140.49 407.671 141.392 401.109 141.288 398.866C141.183 396.622 142.409 381.336 142.419 374.476C142.429 367.616 139.398 347.663 138.929 344.921C138.461 342.179 138.082 309.024 137.932 305.599C137.783 302.174 137.728 277.425 136.746 266.76C135.764 256.096 134.527 230.864 134.527 230.864C134.527 230.864 130.135 207.147 130.494 207.471C130.853 207.795 137.105 220.02 138.236 223.191C139.368 226.362 141.357 236.552 142.225 238.148C143.092 239.743 149.345 252.387 150.92 259.88C152.495 267.374 157.008 279.559 157.83 282.276C158.653 284.993 159.555 296.545 159.59 297.233C159.625 297.921 156.713 303.56 156.788 305.18C156.863 306.8 155.791 314.723 155.168 315.79C154.545 316.857 152.805 324.026 153.647 324.674C154.49 325.322 154.091 328.837 154.071 328.433C154.353 327.144 154.88 325.92 155.622 324.829C156.275 324.106 157.017 322.63 157.386 323.138C157.755 323.647 159.171 324.345 159.171 324.345C159.171 324.345 157.676 329.829 157.745 330.871C157.815 331.913 159.301 342.483 158.857 345.085C158.413 347.688 167.203 339.96 166.989 335.912C166.774 331.863 175.21 314.428 175.021 310.485C174.831 306.541 174.138 300.648 173.475 295.303C172.812 289.959 169.183 262.787 168.255 260.404C167.328 258.021 162.851 233.775 161.35 226.701C159.849 219.626 156.235 202.705 155.357 199.279Z" stroke="#9F60FF" stroke-miterlimit="10" stroke-linecap="round" stroke-dasharray="2.5 1.5"/>
<path d="M148.846 199.23C148.103 195.74 147.744 185.05 147.744 185.05C147.744 184.607 145.715 164.215 138.386 153.142C131.057 142.069 123.544 142.777 119.196 141.326C109.888 138.215 102.04 128.428 102.01 127.865C101.981 127.301 100.345 124.375 100.066 118.606C99.9306 114.919 100.437 111.236 101.562 107.722C102.06 106.262 102.898 99.0674 102.454 98.484C102.858 97.5717 104.354 91.6287 104.244 89.4051C104.134 87.1815 103.461 83.0285 100.136 79.7329C96.596 71.9902 92.099 70.8385 89.5563 69.1483C87.0136 67.4582 82.5763 66.2467 79.1661 66.7951C75.7559 67.3435 68.5068 67.7922 64.0047 76.2679C59.368 81.8469 60.1358 87.8995 60.2056 89.3303C60.2754 90.7612 61.7013 96.5646 62.0204 97.1279C60.9784 97.3074 62.3943 105.499 63.3915 107.683C64.3886 109.866 65.994 112.668 66.1435 115.819C66.3629 120.306 65.9042 125.402 65.9441 126.289C65.984 127.177 60.5845 139.501 48.8233 143.639C44.8348 145.045 31.4133 146.132 26.5025 162.061C21.5916 177.991 21.4769 200.097 21.5168 200.381C21.5168 200.381 21.9057 211.689 21.1628 214.79C20.4199 217.891 17.7875 233.975 17.1743 242.296C16.561 250.617 15.6786 277.066 15.18 278.816C14.6814 280.566 13.8189 304.836 13.7641 309.657C13.7092 314.478 13.7142 320.511 13.8688 323.697C14.0233 326.883 27.0459 343.764 27.1855 346.631C27.3251 349.498 36.1098 355.65 34.7089 351.676C33.3079 347.703 32.9938 339.152 32.929 337.821C32.8642 336.49 31.7424 330.482 31.7424 330.482C32.4811 330.728 33.2357 330.923 34.0009 331.066C34.4496 331.066 35.0978 332.666 36.0351 333.514C36.9724 334.361 38.3883 336.006 38.4033 336.306C38.4182 336.605 36.9375 330.966 37.4659 330.044C37.9944 329.121 34.9183 320.825 33.976 319.534C33.0337 318.243 31.0893 311.946 31.0344 310.799C30.9796 309.652 28.3073 305.275 28.2624 304.387C28.2175 303.5 28.043 290.652 28.761 287.052C29.4789 283.452 33.4126 269.832 33.9261 262.622C34.4396 255.413 38.1041 244.639 38.6226 243.462C39.1411 242.286 40.1483 232.728 41.4595 228.964C42.7707 225.2 47.552 211.863 47.9757 211.395C48.3995 210.926 46.9238 227.972 46.9238 227.972C46.9238 227.972 49.4864 252.038 49.7606 260.424C50.0348 268.81 52.2235 292.925 52.3781 296.141C52.5327 299.357 53.6046 332.536 53.3304 336.101C53.0562 339.666 51.5605 364.081 52.3781 371.724C53.1958 379.367 55.5988 396.089 55.7035 398.287C55.8082 400.486 57.0198 407.666 56.8203 412.746C56.6209 417.826 56.8652 429.503 56.1074 432.22C55.3496 434.937 55.5839 456.186 57.4236 467.204C59.2633 478.223 59.1786 493.05 59.9464 499.706C60.7141 506.362 56.8552 513.122 56.8552 513.122C56.8552 513.122 52.3681 522.306 52.5277 525.422C52.6872 528.538 52.4928 533.898 50.2243 534.586C47.9558 535.274 45.7372 544.851 53.8539 545.031C61.9705 545.21 77.3862 543.605 78.518 543.261C79.6497 542.917 89.4466 540.115 84.7252 535.433C80.0037 530.752 83.05 525.542 84.7252 524.31C86.4003 523.079 84.6204 516.174 83.0799 511.427C81.5393 506.681 80.6469 491.445 80.8962 478.133C81.1454 464.821 83.0849 446.928 83.4189 435.964C83.7529 425.001 82.003 415.343 82.9652 410.158C83.9274 404.973 83.6183 398.691 83.9324 395.909C84.2465 393.127 88.9181 369.156 89.98 363.303C91.042 357.45 97.3588 351.412 98.4008 355.102C99.4429 358.791 107.644 391.163 108.078 394.239C108.512 397.315 108.846 404.21 109.354 409.331C109.863 414.451 108.068 426.806 110.007 439.245C111.947 451.684 115.078 468.226 116.18 479.09C117.282 489.954 118.174 504.722 116.793 510.241C115.412 515.76 113.612 524.265 116.369 525.921C119.126 527.576 124.77 530.303 122.816 533.564C120.861 536.824 132.303 539.078 134.123 539.452C135.943 539.826 149.843 540.479 156.329 539.272C162.816 538.066 161.5 530.722 157.895 530.004C154.29 529.286 153.837 525.856 153.742 523.847C153.647 521.837 146.423 513.526 146.423 513.526C146.423 513.526 139.991 506.472 140.071 502.149C140.151 497.826 136.791 487.102 137.788 474.703C138.785 462.304 138.366 436.597 137.708 434.902C137.05 433.207 136.711 419.945 136.117 413.319C135.524 406.693 136.556 400.666 136.452 398.467C136.347 396.268 137.738 382.219 137.723 375.962C137.708 369.705 135.14 352.32 134.731 350.036C134.323 347.753 134.781 315.635 134.617 312.255C134.452 308.874 134.462 284.664 133.311 273.307C132.159 261.949 130.289 237.061 130.289 237.061C130.289 237.061 125.458 210.971 125.757 211.245C126.056 211.519 132.199 223.061 133.041 225.928C133.884 228.795 135.848 239 136.82 240.74C137.793 242.48 144.548 255.767 146.263 263.181C147.978 270.594 151.992 281.927 152.675 284.195C153.358 286.464 154.171 297.058 154.171 297.632C154.171 298.205 151.074 304.113 151.179 305.908C151.284 307.703 150.362 316.024 149.828 316.911C149.295 317.799 147.874 324.096 148.791 324.629C149.708 325.163 149.564 327.541 149.544 327.092C149.524 326.643 150.252 323.936 150.8 323.333C151.349 322.73 152.171 321.383 152.495 322.131C152.93 322.881 153.446 323.58 154.036 324.215C154.036 324.215 152.176 329.256 152.221 330.113C152.266 330.971 154.171 342.139 154.001 343.969C153.832 345.798 162.556 338.031 162.342 333.544C162.128 329.056 168.933 312.519 168.734 308.381C168.534 304.243 167.811 298.569 167.103 293.15C166.395 287.73 162.696 260.035 161.674 257.407C160.652 254.78 155.836 232.25 154.35 225.938C152.864 219.626 149.594 202.734 148.846 199.23Z" stroke="#AF50FF" stroke-miterlimit="10" stroke-linecap="round" stroke-dasharray="2.75 1.25"/>
<path d="M142.35 199.339C141.716 195.759 141.477 185.529 141.477 185.529C141.477 185.03 139.568 165.626 132.119 156.188C124.67 146.75 119.231 147.628 114.918 146.042C106.707 143.051 98.6452 134.032 98.6252 133.578C98.6053 133.124 96.7805 130.931 96.4864 124.903C96.3202 121.043 96.773 117.182 97.8275 113.466C98.2314 112.294 99.1138 105.623 98.8745 104.89C99.3133 103.893 100.978 98.0801 100.869 95.652C100.707 92.4681 99.3857 89.4535 97.1544 87.1764C94.2628 79.6979 90.7578 78.1125 88.5592 75.9886C86.3605 73.8647 81.9581 71.7707 78.3236 71.8654C74.689 71.9601 66.6521 72.0399 61.7013 80.4208C56.6409 86.5083 57.7128 93.0096 57.7826 94.1613C57.8524 95.313 59.034 100.987 59.2783 101.435C58.0518 101.47 59.4029 109.826 60.4898 112.209C61.5767 114.593 63.1223 116.816 63.2419 119.344C63.4364 123.332 63.2718 128.946 63.3217 129.919C63.3715 130.891 58.5803 143.584 46.176 147.598C42.332 148.844 27.3451 150.2 22.9677 167.137C18.5902 184.073 18.4556 206.154 18.4805 206.384C18.4805 206.384 18.7697 217.636 17.9321 220.518C17.0945 223.4 14.2028 238.771 13.6793 247.506C13.1558 256.241 12.8767 283.218 12.4828 284.619C12.0889 286.02 11.2862 308.55 11.2762 313.037C11.2663 317.524 11.3211 323.507 11.4607 326.339C11.6003 329.171 25.8095 345.973 25.9192 348.276C26.0288 350.579 34.3948 356.338 32.6897 351.766C30.9846 347.194 30.3115 339.721 30.2417 338.265C30.1719 336.809 29.444 330.552 29.444 330.552C29.444 330.552 31.4383 331.764 31.9369 332.048C32.4354 332.332 32.9789 333.972 33.996 334.895C35.013 335.817 36.5386 337.128 36.5486 337.357C36.5586 337.587 34.7588 331.036 35.1676 330.043C35.5764 329.051 32.236 320.247 31.1791 318.836C30.1221 317.425 28.1876 311.891 28.1328 310.973C28.078 310.056 25.8045 306.172 25.7546 305.205C25.7048 304.238 25.5552 290.976 26.338 287.042C27.1207 283.108 31.2887 269.183 31.6427 262.253C31.9967 255.323 35.013 245.801 35.4318 244.848C35.8506 243.896 36.8428 234.822 38.3684 230.888C39.894 226.955 44.4908 213.513 44.9545 213C45.4181 212.486 44.2365 226.127 44.2365 226.127C44.2365 226.127 47.3875 249.35 47.7614 256.57C48.1353 263.789 50.2243 287.346 50.3739 290.437C50.5235 293.528 50.7727 326.334 50.4736 330.223C50.1745 334.112 48.5142 360.137 49.3817 368.084C50.2492 376.031 52.5327 393.232 52.6224 395.366C52.7122 397.5 53.7741 404.938 53.5049 409.405C53.2357 413.873 53.2506 424.776 52.418 427.733C51.5854 430.689 51.2414 450.059 52.9166 460.419C54.5918 470.779 55.2299 486.504 56.0675 493.763C56.9051 501.022 53.7342 507.344 53.7342 507.344C53.7342 507.344 49.975 516.383 50.1396 519.808C50.3041 523.233 50.0997 529.057 48.2849 529.605C46.4701 530.153 43.7529 540.195 52.2086 540.249C60.6643 540.304 76.2146 538.858 77.137 538.584C78.0593 538.31 87.1582 535.747 81.7637 530.652C76.3692 525.557 78.5978 519.838 79.929 518.856C81.2601 517.874 79.8043 511.567 78.4333 507.13C77.0622 502.692 76.0601 487.66 76.3642 473.89C76.6683 460.12 78.7025 442.281 78.9019 432.08C79.1013 421.88 77.7851 413.244 79.0266 408.149C80.268 403.054 79.9788 397.146 80.3428 394.518C80.7067 391.891 85.1639 371.39 86.3256 365.003C87.4872 358.616 93.47 349.094 94.3026 352.04C95.1353 354.987 103.496 389.518 103.885 392.624C104.274 395.73 104.603 402.68 104.793 407.685C104.982 412.691 102.918 425.599 104.987 438.252C107.056 450.906 109.973 466.716 110.885 476.572C111.797 486.429 112.77 500.698 111.349 506.297C109.928 511.896 107.919 520.676 110.93 522.475C113.941 524.275 120.128 526.255 118.952 528.842C117.775 531.43 129.422 533.763 131.416 534.152C133.41 534.541 146.478 535.368 152.301 534.117C158.124 532.866 157.431 526.319 153.498 525.537C149.564 524.754 149.205 522.007 149.125 520.401C149.045 518.796 141.387 510.819 141.387 510.819C141.387 510.819 134.487 503.699 134.547 500.244C134.607 496.789 130.708 487.641 131.79 475.092C132.872 462.543 132.872 436.009 132.348 434.653C131.825 433.297 131.685 419.835 131.117 412.845C130.548 405.856 131.745 400.381 131.615 398.228C131.486 396.074 133.071 383.27 133.026 377.607C132.981 371.943 130.888 357.141 130.568 355.316C130.249 353.491 131.516 322.41 131.356 319.08C131.197 315.75 131.251 292.073 129.925 280.022C128.599 267.972 126.101 243.432 126.101 243.432C126.101 243.432 120.831 214.969 121.071 215.189C121.31 215.408 127.343 226.277 127.901 228.834C128.459 231.392 130.394 241.618 131.451 243.512C132.508 245.407 139.747 259.327 141.562 266.661C143.377 273.995 146.926 284.474 147.475 286.289C148.023 288.104 148.721 297.756 148.741 298.205C148.761 298.654 145.426 304.871 145.52 306.81C145.615 308.75 144.862 317.499 144.434 318.207C144.005 318.915 142.888 324.345 143.885 324.759C144.882 325.172 144.992 326.414 144.967 325.93C144.942 325.447 145.491 322.5 145.929 322.017C146.368 321.533 147.28 320.311 147.56 321.299C147.923 322.314 148.356 323.304 148.856 324.26C148.856 324.26 146.617 328.847 146.652 329.535C146.687 330.223 148.995 341.969 149.1 343.036C149.205 344.103 157.94 336.236 157.73 331.38C157.521 326.524 162.716 310.809 162.482 306.451C162.247 302.094 161.5 296.679 160.722 291.165C159.944 285.651 156.2 257.452 155.083 254.585C153.966 251.719 148.816 230.903 147.34 225.344C145.864 219.785 142.983 202.919 142.35 199.339Z" stroke="#BF40FF" stroke-miterlimit="10" stroke-linecap="round" stroke-dasharray="3 1"/>
<path d="M135.863 199.574C135.365 195.919 135.225 186.112 135.225 186.112C135.2 185.584 133.435 167.167 125.867 159.354C118.299 151.542 114.924 152.618 110.651 150.878C103.521 147.982 95.26 139.75 95.2451 139.411C95.2301 139.072 93.2209 137.622 92.9168 131.315C92.7271 127.283 93.1201 123.244 94.0834 119.324C94.648 116.714 95.0493 114.072 95.2849 111.412C95.7835 110.335 97.5933 104.646 97.4687 102.014C97.2889 99.2617 96.1078 96.6706 94.1482 94.7298C91.8997 87.4956 89.3969 85.4963 87.5372 82.9387C85.6776 80.381 81.335 77.3996 77.4512 77.0406C73.5674 76.6817 64.7627 76.3875 59.3682 84.7036C57.7148 86.6844 56.5 88.9931 55.8039 91.4775C55.1078 93.962 54.9462 96.5657 55.3298 99.1172C55.6102 101.385 56.008 103.636 56.5213 105.863C55.1054 105.748 56.3917 114.279 57.5683 116.856C58.745 119.434 60.2257 121.089 60.3204 122.984C60.4899 126.474 60.6245 132.606 60.6744 133.658C60.7243 134.71 56.5612 147.822 43.5038 151.671C39.8144 152.758 23.2519 154.403 19.413 172.327C15.574 190.25 15.4244 212.327 15.4244 212.501C15.4244 212.501 15.6089 223.699 14.6866 226.362C13.7642 229.024 10.6083 243.682 10.1995 252.83C9.79063 261.979 10.0748 289.49 9.78066 290.542C9.4865 291.594 8.74862 312.394 8.78352 316.582C8.81842 320.77 8.92811 326.718 9.04776 329.151C9.16742 331.584 24.5682 348.351 24.6529 350.091C24.7377 351.831 32.64 357.176 30.6258 351.991C29.0509 347.752 28.0027 343.337 27.5047 338.843C27.4299 337.263 27.1358 330.786 27.1358 330.786C27.1358 330.786 29.3345 332.636 29.8879 333.145C30.4413 333.653 30.885 335.388 31.9719 336.39C33.0588 337.392 34.704 338.35 34.709 338.519C34.714 338.689 32.5901 331.22 32.8843 330.153C33.1784 329.086 29.5638 319.778 28.4371 318.247C27.3103 316.717 25.321 311.946 25.2911 311.268C25.2612 310.589 23.3566 307.189 23.2968 306.137C23.237 305.085 23.1123 291.41 23.9599 287.152C24.8075 282.894 29.2098 268.655 29.4092 261.999C29.6087 255.343 31.9769 247.042 32.286 246.344C32.5951 245.646 33.5823 237.031 35.3173 232.908C37.0523 228.785 41.4746 215.258 41.9732 214.705C42.4717 214.152 41.5892 224.382 41.5892 224.382C41.5892 224.382 45.3285 246.763 45.8021 252.801C46.2758 258.838 48.2601 281.857 48.4047 284.824C48.5493 287.79 47.9759 320.222 47.6568 324.44C47.3377 328.658 45.508 356.348 46.4303 364.534C47.3527 372.721 49.4217 390.525 49.5314 392.619C49.6411 394.713 50.5286 402.391 50.1796 406.23C49.8306 410.069 49.6212 420.19 48.7188 423.415C47.8164 426.641 46.889 444.101 48.4047 453.828C49.9203 463.555 51.2764 480.152 52.1838 488.015C52.7448 492.659 52.2034 497.369 50.6033 501.765C50.6033 501.765 47.5621 510.665 47.7416 514.349C47.9211 518.033 47.6967 524.37 46.3356 524.779C44.9745 525.188 41.7837 535.698 50.5535 535.618C59.3233 535.538 75.0331 534.262 75.7112 534.057C76.3892 533.853 84.83 531.525 78.7574 526.02C72.6849 520.516 74.0958 514.289 75.098 513.556C76.1001 512.823 74.9584 507.12 73.7169 502.992C72.4755 498.863 71.3986 484.046 71.7675 469.807C72.1365 455.568 74.2604 437.789 74.3152 428.361C74.3701 418.933 73.5125 411.32 75.0331 406.334C76.5538 401.349 76.2845 395.785 76.6934 393.322C77.1022 390.859 81.34 373.813 82.5864 366.898C83.8329 359.983 89.5016 346.955 90.1248 349.154C90.748 351.352 99.3582 388.007 99.6823 391.143C100.119 396.143 100.297 401.162 100.216 406.18C100.091 411.086 97.7479 424.537 99.9515 437.4C102.155 450.263 104.803 465.32 105.575 474.194C106.348 483.069 107.37 496.814 105.889 502.493C104.409 508.172 102.21 517.226 105.471 519.175C108.731 521.124 115.472 522.346 115.073 524.26C114.674 526.175 126.54 528.588 128.669 529.012C130.798 529.436 143.073 530.423 148.233 529.122C153.393 527.82 153.318 522.077 149.06 521.229C144.803 520.382 144.528 518.323 144.469 517.116C144.409 515.909 136.312 508.256 136.312 508.256C136.312 508.256 128.938 501.077 128.983 498.485C129.028 495.892 124.606 488.294 125.747 475.62C126.889 462.947 127.338 435.565 126.944 434.548C126.55 433.531 126.6 419.856 126.071 412.512C125.543 405.168 126.884 400.217 126.784 398.123C126.685 396.029 128.405 384.437 128.335 379.392C128.265 374.346 126.635 362.101 126.396 360.73C126.156 359.359 128.245 329.356 128.081 326.035C127.916 322.715 128.031 299.611 126.53 286.868C125.029 274.124 121.908 249.939 121.908 249.939C121.908 249.939 116.2 219.102 116.379 219.267C116.559 219.431 122.482 229.622 122.751 231.876C123.02 234.129 124.92 244.37 126.071 246.424C127.223 248.478 134.956 263.021 136.89 270.28C138.825 277.539 141.876 287.162 142.31 288.523C142.744 289.884 143.307 298.569 143.307 298.913C143.307 299.257 139.772 305.748 139.877 307.852C139.982 309.956 139.378 319.115 139.059 319.648C138.74 320.182 137.922 324.739 138.994 325.033C140.066 325.327 140.43 325.432 140.405 324.908C140.38 324.385 140.744 321.199 141.073 320.84C141.402 320.481 142.405 319.384 142.634 320.611C142.863 321.837 143.681 324.455 143.681 324.455C143.681 324.455 141.063 328.588 141.088 329.106C141.113 329.625 143.83 341.954 144.209 342.253C144.588 342.553 153.313 334.596 153.059 329.336C152.805 324.076 156.394 309.223 156.17 304.672C155.946 300.12 155.173 294.91 154.375 289.341C153.577 283.772 149.733 255.029 148.527 251.948C147.32 248.867 141.826 229.742 140.365 224.941C138.905 220.139 136.387 203.233 135.863 199.574Z" stroke="#CF30FF" stroke-miterlimit="10" stroke-linecap="round" stroke-dasharray="3.25 0.75"/>
<path d="M129.377 199.903C128.968 196.168 128.968 186.83 128.968 186.83C128.943 186.262 127.298 168.802 119.61 162.65C111.922 156.497 110.596 157.764 106.383 155.854C100.32 153.107 91.8745 145.614 91.8646 145.384C91.8546 145.155 89.6609 144.447 89.3468 137.871C89.1479 133.662 89.483 129.446 90.3439 125.322C90.5433 124.739 91.5255 119.105 91.695 118.073C92.1936 116.911 94.1879 111.352 94.0732 108.52C93.9224 106.174 92.8766 103.975 91.1516 102.378C89.5462 95.3978 88.0405 92.9748 86.5249 89.9834C85.0092 86.992 80.7216 83.1281 76.5934 82.3154C72.4653 81.5028 62.8928 80.8197 57.0446 89.086C55.2951 91.1464 54.0166 93.564 53.2984 96.1698C52.5802 98.7756 52.4397 101.507 52.8866 104.173C52.9165 104.746 53.6394 110.155 53.764 110.4C52.1636 110.14 53.3801 118.835 54.6515 121.612C55.9228 124.39 57.3388 125.471 57.3986 126.738C57.5432 129.699 57.9719 136.38 58.0268 137.512C58.0816 138.644 54.5368 152.22 40.8262 155.854C37.2864 156.791 19.1535 158.721 15.848 177.627C12.5425 196.532 12.358 218.614 12.358 218.728C12.358 218.728 12.4428 229.876 11.4257 232.319C10.4086 234.762 6.99842 248.712 6.66438 258.26C6.33034 267.807 7.21778 295.867 7.01835 296.565C6.81893 297.263 6.14586 316.333 6.22064 320.207C6.29543 324.081 6.46494 329.989 6.56466 332.038C6.66437 334.087 23.2567 350.819 23.3116 351.99C23.3664 353.162 30.8997 358.128 28.5764 352.339C26.2531 346.551 24.8721 341.246 24.7873 339.546C24.7026 337.846 24.8272 331.135 24.8272 331.135C24.8272 331.135 27.2203 333.628 27.8186 334.381C28.4169 335.134 28.7409 336.944 29.9275 338.026C31.1141 339.107 32.8491 339.711 32.8541 339.825C32.8591 339.94 30.4112 331.549 30.5856 330.402C30.7601 329.256 26.8763 319.434 25.6648 317.804C24.4533 316.173 22.4391 312.145 22.4141 311.686C22.3892 311.228 20.8785 308.331 20.8237 307.199C20.7688 306.067 20.6542 291.973 21.5715 287.386C22.4889 282.799 27.1056 268.231 27.1655 261.845C27.2733 257.15 27.9343 252.484 29.1348 247.944C29.3442 247.476 30.3164 239.339 32.2608 235.042C34.2052 230.744 38.448 217.093 38.9865 216.52C39.5249 215.946 38.9367 222.742 38.9367 222.742C38.9367 222.742 43.2642 244.28 43.8376 249.166C44.4109 254.052 46.2955 276.502 46.4301 279.344C46.5647 282.186 45.1787 314.244 44.8297 318.786C44.4807 323.328 42.4914 352.639 43.4686 361.119C44.4458 369.6 46.3603 387.922 46.46 389.966C46.5597 392.01 47.2876 399.938 46.8738 403.153C46.46 406.369 46.0113 415.742 45.0391 419.192C44.0669 422.642 42.5463 438.233 43.9123 447.287C45.2784 456.341 47.3475 473.85 48.3247 482.321C49.3019 490.792 47.502 496.236 47.502 496.236C47.502 496.236 45.1787 504.996 45.3732 508.964C45.5676 512.933 45.3283 519.758 44.4209 520.033C43.5135 520.307 39.849 531.28 48.908 531.071C57.967 530.861 73.8364 529.75 74.3349 529.61C74.8335 529.47 82.5513 527.386 75.7957 521.468C69.0401 515.55 69.6434 508.82 70.3115 508.326C70.9796 507.833 70.1569 502.742 69.0601 498.918C67.9632 495.094 66.8016 480.471 67.2254 465.788C67.6491 451.106 69.8628 433.382 69.788 424.701C69.7132 416.021 69.2894 409.44 71.0793 404.574C72.8691 399.708 72.6348 394.478 73.0736 392.175C73.5123 389.872 77.5607 376.291 78.8918 368.842C80.223 361.393 85.5826 344.836 85.9964 346.312C86.4102 347.788 95.2249 386.561 95.4692 389.732C95.7135 392.903 96.0774 399.938 95.6337 404.739C95.19 409.54 92.5775 423.535 94.9108 436.612C97.2441 449.69 99.6522 464.033 100.26 471.881C100.869 479.728 101.966 492.99 100.425 498.754C98.8844 504.517 96.4962 513.84 100.006 515.939C103.516 518.038 110.805 518.502 111.189 519.748C111.573 520.995 123.653 523.483 125.927 523.936C128.2 524.39 139.672 525.542 144.169 524.191C148.666 522.839 149.215 517.899 144.628 516.986C140.041 516.074 139.862 514.698 139.822 513.895C139.782 513.092 131.246 505.764 131.246 505.764C131.246 505.764 123.399 498.524 123.429 496.789C123.459 495.054 118.518 489.012 119.72 476.213C120.921 463.415 121.818 435.181 121.554 434.503C121.29 433.825 121.524 419.94 121.056 412.237C120.587 404.534 122.053 400.127 121.958 398.083C121.863 396.039 123.743 385.684 123.643 381.236C123.544 376.789 122.387 367.117 122.227 366.205C122.068 365.292 124.989 336.355 124.825 333.045C124.66 329.734 124.825 307.209 123.155 293.768C121.484 280.326 117.73 256.5 117.73 256.5C117.73 256.5 111.583 223.295 111.703 223.4C111.822 223.505 117.631 233.027 117.616 234.967C117.601 236.906 119.465 247.172 120.707 249.38C121.948 251.589 130.179 266.765 132.234 273.945C134.288 281.124 136.88 289.899 137.154 290.801C137.429 291.704 137.917 299.441 137.927 299.671C137.937 299.9 134.178 306.651 134.288 308.939C134.397 311.228 133.949 320.775 133.734 321.129C133.52 321.483 133.011 325.168 134.153 325.342C134.363 325.378 134.578 325.368 134.784 325.314C134.99 325.259 135.182 325.162 135.348 325.027C135.513 324.893 135.647 324.724 135.742 324.534C135.837 324.343 135.89 324.134 135.898 323.921C135.873 323.353 136.053 319.933 136.267 319.698C136.481 319.464 137.573 318.492 137.763 319.958C137.952 321.423 138.565 324.679 138.565 324.679C138.565 324.679 135.574 328.363 135.574 328.707C135.574 329.051 138.71 341.969 139.363 341.501C140.016 341.032 148.756 333.015 148.462 327.351C148.168 321.688 150.167 307.693 149.958 302.921C149.748 298.15 148.921 293.189 148.078 287.541C147.235 281.892 143.322 252.641 142.025 249.291C140.729 245.94 134.891 228.555 133.445 224.517C131.999 220.478 129.811 203.637 129.377 199.903Z" stroke="#DF20FF" stroke-miterlimit="10" stroke-linecap="round" stroke-dasharray="3.5 0.5"/>
<path d="M123.1 200.271C122.801 196.462 122.92 187.568 122.92 187.568C122.89 186.96 121.37 170.477 113.562 165.97C105.755 161.463 106.458 162.979 102.325 160.85C97.304 158.267 88.6987 151.497 88.6937 151.377C88.6887 151.257 86.3155 151.297 85.9815 144.447C85.7816 140.063 86.0541 135.67 86.7942 131.344C86.8939 131.05 87.9209 125.94 88.2899 124.758C88.8383 123.517 91.0071 118.083 90.8625 115.046C90.7179 112.01 89.0028 110.739 88.3347 110.061C87.3775 103.33 86.869 100.488 85.6923 97.0679C84.5157 93.6478 80.2879 88.8914 75.9105 87.6251C71.533 86.3587 61.1977 85.3167 54.9008 93.4982C48.574 101.106 50.6082 108.954 50.6231 109.263C50.6381 109.572 51.1217 114.852 51.1865 114.967C49.3966 114.558 50.5533 123.442 51.9144 126.399C53.2755 129.355 54.6316 129.889 54.6615 130.517C54.7812 132.97 55.5091 140.179 55.5639 141.391C55.6188 142.602 52.7221 156.702 38.3384 160.067C34.9532 160.86 15.2498 163.058 12.4777 182.956C9.7057 202.854 9.48633 224.926 9.48633 224.98C9.48633 225.035 9.48633 236.073 8.36455 238.297C7.24278 240.521 3.5783 253.753 3.33899 263.724C3.09967 273.695 4.57046 302.273 4.47074 302.612C4.37103 302.951 3.76278 320.296 3.87745 323.851C3.99212 327.406 4.21648 333.274 4.30123 334.944C4.38599 336.615 22.1649 353.277 22.1948 353.85C22.2247 354.423 29.3343 359.03 26.7069 352.639C24.0794 346.247 22.3394 342.024 22.2497 340.199C22.1599 338.374 22.6984 331.429 22.6984 331.429C22.6984 331.429 25.2809 334.55 25.9391 335.563C26.5972 336.575 26.8016 338.449 28.0729 339.601C29.3443 340.753 31.184 341.012 31.184 341.072C31.184 341.132 28.4169 331.818 28.4718 330.602C28.5266 329.385 24.3785 319.065 23.0773 317.305C21.776 315.545 19.7369 312.289 19.7219 312.055C19.707 311.821 18.5852 309.423 18.5254 308.206C18.4655 306.99 18.3758 292.486 19.353 287.57C20.3302 282.655 25.2361 267.842 25.1114 261.75C25.0434 257.676 25.3976 253.606 26.1684 249.605C26.2731 249.37 27.2353 241.707 29.3941 237.23C31.5529 232.753 35.6113 219.022 36.1896 218.374C36.7679 217.726 36.4738 221.146 36.4738 221.146C36.4738 221.146 41.3897 241.842 42.0627 245.576C42.7358 249.31 44.5207 271.193 44.6503 273.905C44.7799 276.617 42.5713 308.306 42.1973 313.177C41.8234 318.048 39.6696 348.989 40.7016 357.749C41.7337 366.509 43.4836 385.364 43.5784 387.359C43.6731 389.353 44.2415 397.52 43.7578 400.117C43.2742 402.715 42.5912 411.32 41.5642 415.014C40.5371 418.709 38.4332 432.414 39.6197 440.81C40.8063 449.206 43.6083 467.608 44.6603 476.707C45.7122 485.806 44.5954 490.787 44.5954 490.787C44.5954 490.787 42.99 499.407 43.1945 503.655C43.3989 507.902 43.1446 515.216 42.6959 515.356C42.2472 515.496 38.0991 526.933 47.4971 526.594C56.8951 526.255 72.924 525.307 73.1484 525.238C73.3727 525.168 80.4624 523.323 73.0287 516.986C65.5951 510.649 65.3857 503.42 65.7148 503.171C66.0438 502.922 65.5452 498.435 64.593 494.92C63.6407 491.405 62.3943 476.971 62.8779 461.845C63.3615 446.718 65.6649 429.009 65.4555 421.122C65.2461 413.234 65.2411 407.66 67.3301 402.884C69.4191 398.108 69.1848 393.242 69.6883 391.103C70.1919 388.964 73.971 378.823 75.4169 370.846C76.8627 362.869 81.8982 342.792 82.0877 343.53C82.2771 344.268 91.3112 385.17 91.5256 388.401C91.74 391.631 92.079 398.686 91.3212 403.358C90.5633 408.029 87.6716 422.593 90.1396 435.884C92.6075 449.176 94.7712 462.807 95.215 469.627C95.6587 476.448 96.8303 489.231 95.215 495.054C93.5996 500.878 91.037 510.51 94.7962 512.743C98.5554 514.977 106.393 514.698 107.555 515.276C108.716 515.855 120.976 518.417 123.434 518.906C125.892 519.394 136.521 520.706 140.355 519.305C144.189 517.904 145.341 513.77 140.445 512.788C135.549 511.806 135.459 511.123 135.419 510.719C135.38 510.315 126.445 503.311 126.445 503.311C126.445 503.311 118.124 496.007 118.139 495.144C118.154 494.281 112.69 489.774 113.951 476.857C115.213 463.939 116.559 434.847 116.444 434.508C116.329 434.169 116.733 420.05 116.284 412.013C115.836 403.976 117.476 400.082 117.381 398.088C117.287 396.094 119.336 386.97 119.206 383.131C119.076 379.292 118.388 372.162 118.309 371.729C118.229 371.295 121.953 343.385 121.799 340.119C121.644 336.854 121.853 314.867 120.009 300.733C118.164 286.598 113.757 263.146 113.757 263.146C113.757 263.146 107.171 227.568 107.23 227.623C107.29 227.678 112.989 236.517 112.69 238.153C112.391 239.788 114.22 250.068 115.552 252.436C116.883 254.805 125.613 270.604 127.781 277.704C129.95 284.803 132.069 292.721 132.204 293.159C132.338 293.598 132.702 300.394 132.732 300.508C132.762 300.623 128.744 307.683 128.878 310.111C129.013 312.539 128.699 322.52 128.589 322.695C128.479 322.869 128.275 325.686 129.491 325.741C130.708 325.796 131.595 323.632 131.566 323.024C131.516 321.564 131.541 320.103 131.64 318.646C131.75 318.527 132.927 317.689 133.066 319.389C133.206 321.089 133.625 324.988 133.625 324.988C133.625 324.988 130.244 328.219 130.254 328.388C130.264 328.558 133.784 342.064 134.711 340.827C135.639 339.591 144.339 331.464 144.045 325.372C143.75 319.279 144.119 306.172 143.88 301.201C143.641 296.231 142.803 291.494 141.916 285.776C141.028 280.057 137.04 250.273 135.654 246.688C134.268 243.103 128.086 227.428 126.655 224.143C125.224 220.857 123.399 204.08 123.1 200.271Z" stroke="#EF10FF" stroke-miterlimit="10" stroke-linecap="round" stroke-dasharray="3.75 0.25"/>
<path d="M116.349 188.336C116.319 187.688 114.918 172.182 106.991 169.32C99.064 166.459 101.746 168.278 97.7378 165.875C93.7294 163.472 84.9994 157.4 84.9994 157.4C84.9994 157.4 82.4418 158.172 82.0978 151.048C81.9122 146.484 82.1257 141.913 82.7359 137.387C82.7359 137.387 83.8129 132.79 84.3962 131.464C84.9795 130.138 87.3228 124.833 87.1632 121.597C87.0037 118.362 85.0343 117.808 85.0343 117.808C84.7202 111.327 85.2138 108.066 84.3762 104.212C83.5386 100.359 79.3906 94.7397 74.7489 92.9947C70.1072 91.2497 59.0191 89.8637 52.2735 97.9804C45.5279 106.097 47.8761 114.433 47.8761 114.433L48.1254 119.613C46.1311 119.06 47.238 128.089 48.6888 131.27C50.1396 134.451 51.4359 134.381 51.4359 134.381C51.5306 136.325 52.5527 144.063 52.6175 145.349C52.6823 146.636 50.4238 161.303 35.3671 164.355C32.1264 165.008 10.8575 167.486 8.61894 188.361C6.38037 209.236 6.15102 231.312 6.15102 231.312C6.15102 231.312 6.03635 242.35 4.8348 244.355C3.63325 246.359 -0.305417 258.883 -0.450001 269.283C-0.594586 279.683 1.4595 308.78 1.4595 308.78C1.4595 308.78 0.916067 324.38 1.07062 327.62L1.56919 337.981C1.634 339.277 20.6045 355.879 20.6045 355.879C20.6045 355.879 27.3002 360.097 24.3637 353.102C21.4271 346.107 19.3282 342.961 19.2384 341.017C19.1487 339.073 20.096 331.888 20.096 331.888C20.096 331.888 22.873 335.647 23.5859 336.914C24.2989 338.18 24.3886 340.12 25.7497 341.351C26.6802 342.109 27.85 342.512 29.0502 342.488C29.0502 342.488 25.9591 332.252 25.8943 330.961C25.8295 329.67 21.4072 318.846 20.0261 316.966C18.6451 315.086 16.5711 312.589 16.5711 312.589C16.1701 311.558 15.9005 310.481 15.7684 309.383C15.7036 308.087 15.6338 293.164 16.6758 287.944C17.7178 282.724 22.8281 267.528 22.5439 261.7C22.3712 258.237 22.4195 254.767 22.6885 251.31C22.6885 251.31 23.6408 244.125 26.009 239.469C28.3771 234.812 32.256 220.997 32.8692 220.314L33.4875 219.636C33.4875 219.636 38.9717 239.489 39.7644 242.071C40.5572 244.654 42.2174 265.968 42.342 268.555C42.4667 271.143 39.4354 302.458 39.0415 307.653C38.6476 312.848 36.3243 345.424 37.4112 354.458C38.4981 363.492 40.0835 382.877 40.1782 384.826C40.273 386.775 40.6768 395.186 40.1234 397.161C39.57 399.135 38.6277 406.967 37.5458 410.916C36.4639 414.865 33.7667 426.676 34.7887 434.414C35.8108 442.151 39.3406 461.451 40.4574 471.133C41.5742 480.815 41.1455 485.377 41.1455 485.377C41.1455 485.377 40.258 493.853 40.4774 498.39C40.6968 502.927 40.4225 510.724 40.4225 510.724C40.4225 510.724 35.8058 522.63 45.5179 522.161L71.4185 520.91C71.4185 520.91 77.83 519.3 69.7184 512.554C61.6067 505.808 60.5796 498.071 60.5796 498.071C60.4455 495.684 60.1119 493.312 59.5825 490.981C58.7798 487.775 57.4436 473.561 57.9871 457.961C58.5305 442.361 60.9236 424.721 60.5796 417.577C60.2356 410.432 60.6494 405.836 63.0027 401.189C65.3559 396.542 65.1565 392 65.7099 390.026C66.2633 388.052 69.833 381.391 71.3686 372.88C72.9042 364.37 77.6057 340.778 77.6057 340.778C77.6057 340.778 86.8242 383.814 86.9837 387.05C87.1433 390.285 87.4823 397.41 86.4104 402.007C85.3385 406.603 82.1676 421.68 84.7701 435.186C87.3726 448.693 89.2921 461.575 89.5713 467.404C89.8505 473.232 91.0969 485.502 89.4367 491.425C87.7765 497.348 85.0094 507.214 89.0179 509.617C93.0264 512.021 101.412 510.964 103.357 510.869C105.301 510.774 117.755 513.416 120.378 513.94C123 514.463 132.807 515.934 135.978 514.483C139.149 513.033 140.939 509.702 135.694 508.655L130.449 507.613L121.041 500.927L112.271 493.584C112.271 493.584 106.288 490.627 107.604 477.584C108.921 464.542 110.716 434.598 110.716 434.598C110.716 434.598 111.324 420.289 110.915 411.873C110.506 403.457 112.296 400.127 112.201 398.183C112.107 396.238 114.32 388.346 114.166 385.11L113.792 377.343C113.792 377.343 118.334 350.515 118.179 347.279C118.025 344.043 118.284 322.61 116.27 307.782C114.255 292.955 109.245 269.832 109.245 269.832L102.21 231.836C102.21 231.836 107.799 240.002 107.196 241.308C106.592 242.615 108.407 252.93 109.828 255.458C111.249 257.986 120.477 274.403 122.791 281.443C125.104 288.483 126.72 295.533 126.72 295.533L127.004 301.361C127.004 301.361 122.816 308.705 122.94 311.292C123.065 313.88 122.94 324.255 122.94 324.255C122.94 324.255 123.035 326.2 124.331 326.135C125.628 326.07 126.764 322.774 126.735 322.146L126.515 317.614C126.515 317.614 127.777 316.906 127.871 318.846L128.185 325.327L124.426 328.104C124.426 328.104 128.315 342.218 129.517 340.209C130.718 338.2 139.408 329.999 139.094 323.522C138.78 317.046 137.538 304.776 137.289 299.591C137.04 294.406 136.172 289.909 135.245 284.135C134.318 278.362 130.259 248.034 128.764 244.21C127.268 240.386 120.787 226.426 119.346 223.898C117.905 221.371 116.464 204.569 116.275 200.685C116.085 196.801 116.349 188.336 116.349 188.336Z" stroke="#FF00FF" stroke-miterlimit="10" stroke-linecap="round"/>
</g>
<defs>
<clipPath id="clip0">
<rect width="238" height="557" fill="white" transform="matrix(-1 0 0 1 238 0)"/>
</clipPath>
</defs>
</svg>
