<svg width="45" height="45" viewBox="0 0 45 45" fill="none" xmlns="http://www.w3.org/2000/svg">
<path fill-rule="evenodd" clip-rule="evenodd" d="M29.125 11.9375H15.75C13.6099 11.9375 11.875 13.6724 11.875 15.8125V29.1875C11.875 30.2152 12.2833 31.2008 13.01 31.9275C13.7367 32.6542 14.7223 33.0625 15.75 33.0625H29.125C31.2637 33.0591 32.9966 31.3262 33 29.1875V15.8125C33 14.7848 32.5917 13.7992 31.865 13.0725C31.1383 12.3458 30.1527 11.9375 29.125 11.9375ZM22.4375 29.4375C19.6242 29.4426 17.0854 27.7511 16.0064 25.1529C14.9275 22.5548 15.5213 19.5624 17.5106 17.5731C19.4999 15.5838 22.4923 14.99 25.0904 16.0689C27.6886 17.1479 29.3801 19.6867 29.375 22.5C29.3681 26.3307 26.2681 29.4363 22.4375 29.45V29.4375ZM28.0912 15.9752C28.3496 16.5891 28.9528 16.9863 29.6187 16.9812H29.6063C30.5141 16.9812 31.25 16.2453 31.25 15.3375C31.25 14.6715 30.8481 14.0714 30.2324 13.8177C29.6166 13.564 28.9086 13.707 28.4395 14.1797C27.9704 14.6524 27.8329 15.3614 28.0912 15.9752Z" fill="#152554"/>
<path d="M22.4374 18.4873C20.2222 18.4908 18.4289 20.2887 18.4312 22.504C18.4335 24.7192 20.2305 26.5134 22.4457 26.5123C24.661 26.5112 26.4561 24.715 26.4562 22.4998C26.4527 20.2828 24.6545 18.4873 22.4374 18.4873V18.4873Z" fill="#152554"/>
<path fill-rule="evenodd" clip-rule="evenodd" d="M0 22.4375C0 10.0456 10.0456 0 22.4375 0C28.3883 0 34.0954 2.36394 38.3032 6.57179C42.5111 10.7796 44.875 16.4867 44.875 22.4375C44.875 34.8294 34.8294 44.875 22.4375 44.875C10.0456 44.875 0 34.8294 0 22.4375ZM29.125 36C32.886 35.9966 35.9341 32.9485 35.9375 29.1875V15.8125C35.9341 12.0515 32.886 9.00345 29.125 9H15.75C11.989 9.00345 8.94095 12.0515 8.9375 15.8125V29.1875C8.94095 32.9485 11.989 35.9966 15.75 36H29.125Z" fill="#152554"/>
</svg>
