<svg width="389" height="69" viewBox="0 0 389 69" fill="none" xmlns="http://www.w3.org/2000/svg">
<g id="Group Copy">
<path id="NEW ME" fill-rule="evenodd" clip-rule="evenodd" d="M16.6885 32.5634L11.4134 22.0282H10.9339L12.4685 32.5634V67.5211H0V0H9.59112L35.0076 35.7239L40.0909 45.9718H40.5704L39.0358 35.7239V0.478873H51.5043V68H41.9132L16.6885 32.5634ZM63.0136 0.478873H102.817V12.1634H76.1535V27.7746H100.419V39.4592H76.1535V55.8366H103.296V67.5211H63.0136V0.478873ZM130.535 37.9268L131.782 49.8028H132.166L133.508 37.7352L145.209 0.478873H153.841L165.351 37.9268L166.694 49.8028H167.077L168.516 37.7352L176.668 0.478873H190L171.489 68H162.665L150.676 30.7437L149.046 20.4958H148.566L146.936 30.8394L135.043 68H125.74L107.325 0.478873H121.615L130.535 37.9268Z" fill="white"/>
<g id="Group 10 Copy">
<path id="Oval 3" d="M263 35C263 33.2327 261.567 31.8 259.8 31.8C258.033 31.8 256.6 33.2327 256.6 35C256.6 50.2431 244.243 62.6 229 62.6C213.757 62.6 201.4 50.2431 201.4 35C201.4 19.7569 213.757 7.4 229 7.4C230.767 7.4 232.2 5.96731 232.2 4.2C232.2 2.43269 230.767 1 229 1C210.222 1 195 16.2223 195 35C195 53.7777 210.222 69 229 69C247.778 69 263 53.7777 263 35Z" fill="url(#paint0_linear)"/>
<path id="Oval 3_2" d="M263 35C263 33.2327 261.567 31.8 259.8 31.8C258.033 31.8 256.6 33.2327 256.6 35C256.6 50.2431 244.243 62.6 229 62.6C213.757 62.6 201.4 50.2431 201.4 35C201.4 19.7569 213.757 7.4 229 7.4C230.767 7.4 232.2 5.96731 232.2 4.2C232.2 2.43269 230.767 1 229 1C210.222 1 195 16.2223 195 35C195 53.7777 210.222 69 229 69C247.778 69 263 53.7777 263 35Z" fill="url(#paint1_linear)"/>
<g id="Asset 3">
<path id="Shape" fill-rule="evenodd" clip-rule="evenodd" d="M217.958 34.0005L216.398 30.9709H216.256L216.709 34.0005V44.194H213.024V24.759H215.86L223.371 34.9112L224.875 37.858H225.017L224.564 34.9112V24.759H228.249V44.194H225.413L217.958 34.0005Z" fill="white"/>
<path id="Shape_2" fill-rule="evenodd" clip-rule="evenodd" d="M240.865 34.1143L241.291 30.2568H241.12L239.901 33.3666L235.678 40.6108H234.429L229.977 33.3382L228.731 30.2568H228.59L229.157 34.0884V44.194H225.469V24.759H229.013L234.315 33.6434L235.252 35.8633H235.364L236.216 33.5891L241.232 24.759H244.749V44.194H240.865V34.1143Z" fill="white"/>
</g>
</g>
<path id="Path" d="M324.904 33.2557L326.338 19.9514H325.765L321.654 30.6714L307.412 55.6529H303.206L288.199 30.5757L283.993 19.9514H283.515L285.426 33.16V68H273V1H284.949L302.824 31.6286L305.978 39.2857H306.36L309.228 31.4371L326.147 1H338V68H324.904V33.2557Z" fill="white"/>
<path id="Path_2" d="M349 1H388.524V12.6771H362.048V28.2786H386.143V39.9557H362.048V56.3229H389V68H349V1Z" fill="white"/>
</g>
<defs>
<linearGradient id="paint0_linear" x1="195" y1="1" x2="263" y2="1" gradientUnits="userSpaceOnUse">
<stop stop-color="#00FFFF"/>
<stop offset="1" stop-color="#067EF1"/>
</linearGradient>
<linearGradient id="paint1_linear" x1="195" y1="1" x2="263" y2="1" gradientUnits="userSpaceOnUse">
<stop stop-color="#00FFFF"/>
<stop offset="1" stop-color="#067EF1"/>
</linearGradient>
</defs>
</svg>
