<svg width="83" height="83" viewBox="0 0 83 83" fill="none" xmlns="http://www.w3.org/2000/svg">
<path d="M83 41.5C83 39.3428 81.2513 37.5941 79.0941 37.5941C76.937 37.5941 75.1882 39.3428 75.1882 41.5C75.1882 60.1055 60.1055 75.1882 41.5 75.1882C22.8945 75.1882 7.81176 60.1055 7.81176 41.5C7.81176 22.8945 22.8945 7.81176 41.5 7.81176C43.6572 7.81176 45.4059 6.06304 45.4059 3.90588C45.4059 1.74872 43.6572 0 41.5 0C18.5802 0 0 18.5802 0 41.5C0 64.4198 18.5802 83 41.5 83C64.4198 83 83 64.4198 83 41.5Z" fill="url(#paint0_linear)"/>
<path fill-rule="evenodd" clip-rule="evenodd" d="M28.0223 40.28L26.1178 36.5821H25.9455L26.498 40.28V52.7221H22V29H25.4613L34.6295 41.3916L36.4657 44.9884H36.638L36.0855 41.3916V29H40.5835V52.7221H37.1222L28.0223 40.28Z" fill="white"/>
<path fill-rule="evenodd" clip-rule="evenodd" d="M55.9819 40.4189L56.5019 35.7105H56.2939L54.8054 39.5063L49.6509 48.3484H48.1267L42.6927 39.4716L41.1717 35.7105H40.9994L41.6917 40.3874V52.7221H37.1904V29H41.5162L47.9869 39.8442L49.1309 42.5537H49.2674L50.3074 39.7779L56.4304 29H60.7237V52.7221H55.9819V40.4189Z" fill="white"/>
<defs>
<linearGradient id="paint0_linear" x1="0" y1="0" x2="83" y2="0" gradientUnits="userSpaceOnUse">
<stop stop-color="#00FFFF"/>
<stop offset="1" stop-color="#067EF1"/>
</linearGradient>
</defs>
</svg>
