<svg width="1199" height="592" viewBox="0 0 1199 592" fill="none" xmlns="http://www.w3.org/2000/svg">
<path d="M1163.8 260H307.429L1198 0.29162V225.8C1198 231.977 1198 236.55 1197.7 240.168C1197.41 243.775 1196.83 246.345 1195.71 248.534C1193.7 252.485 1190.49 255.698 1186.53 257.711C1184.35 258.826 1181.77 259.409 1178.17 259.704C1174.55 259.999 1169.98 260 1163.8 260Z" stroke="url(#paint0_linear)" stroke-width="2"/>
<path d="M231.308 529V530L469.119 260H38.4C31.6629 260 26.6702 260.001 22.7183 260.324C18.7781 260.646 15.9607 261.283 13.5582 262.507C9.2305 264.712 5.71194 268.23 3.50684 272.558C2.28271 274.961 1.6456 277.778 1.32367 281.718C1.00076 285.67 1 290.663 1 297.4V491.6C1 498.337 1.00076 503.33 1.32367 507.282C1.6456 511.222 2.28271 514.039 3.50687 516.442C5.71194 520.77 9.2305 524.288 13.5582 526.493C15.9607 527.717 18.7781 528.354 22.7183 528.676C26.6702 528.999 31.6629 529 38.4 529H231.308Z" stroke="url(#paint1_linear)" stroke-width="2"/>
<path d="M1020.8 529H174.984L1055 591.928V563.2C1055 557.023 1055 552.45 1054.7 548.832C1054.41 545.225 1053.83 542.655 1052.71 540.466C1050.7 536.515 1047.49 533.302 1043.53 531.289C1041.35 530.174 1038.77 529.591 1035.17 529.296C1031.55 529.001 1026.98 529 1020.8 529Z" stroke="url(#paint2_linear)" stroke-width="2"/>
<defs>
<linearGradient id="paint0_linear" x1="758.941" y1="363.653" x2="880.062" y2="-59.8193" gradientUnits="userSpaceOnUse">
<stop stop-color="#3264F0"/>
<stop offset="1" stop-color="#29ABFF"/>
</linearGradient>
<linearGradient id="paint1_linear" x1="231.093" y1="636.586" x2="27.2759" y2="276.181" gradientUnits="userSpaceOnUse">
<stop stop-color="#3264F0"/>
<stop offset="1" stop-color="#29ABFF"/>
</linearGradient>
<linearGradient id="paint2_linear" x1="615.941" y1="502.828" x2="623.781" y2="614.613" gradientUnits="userSpaceOnUse">
<stop stop-color="#3264F0"/>
<stop offset="1" stop-color="#29ABFF"/>
</linearGradient>
</defs>
</svg>
