<?xml version="1.0" encoding="utf-8"?>
<!-- Generator: Adobe Illustrator 22.0.1, SVG Export Plug-In . SVG Version: 6.00 Build 0)  -->
<svg version="1.1" id="Layer_1" xmlns="http://www.w3.org/2000/svg" xmlns:xlink="http://www.w3.org/1999/xlink" x="0px" y="0px"
	 viewBox="0 0 328 591" style="enable-background:new 0 0 328 591;" xml:space="preserve">
<style type="text/css">
	.st0{fill:none;stroke:url(#SVGID_1_);stroke-width:2;stroke-linecap:round;stroke-linejoin:round;}
	.st1{fill:none;stroke:url(#SVGID_2_);stroke-width:2;stroke-linecap:round;stroke-linejoin:round;}
	.st2{fill:none;stroke:url(#SVGID_3_);stroke-width:2;stroke-linecap:round;stroke-linejoin:round;}
	.st3{fill:none;stroke:url(#SVGID_4_);stroke-width:2;stroke-linecap:round;stroke-linejoin:round;}
</style>
<linearGradient id="SVGID_1_" gradientUnits="userSpaceOnUse" x1="105.4875" y1="154.6797" x2="182.3782" y2="165.4257" gradientTransform="matrix(1 0 0 -1 0 592)">
	<stop  offset="0" style="stop-color:#3264F0"/>
	<stop  offset="1" style="stop-color:#29ABFF"/>
</linearGradient>
<path class="st0" d="M165,271v284.8c0,6.2,0,10.8-0.3,14.4c-0.3,3.6-0.9,6.2-2,8.4c-2,4-5.2,7.2-9.2,9.2c-2.2,1.1-4.8,1.7-8.4,2
	c-3.6,0.3-8.2,0.3-14.4,0.3h-8.7"/>
<linearGradient id="SVGID_2_" gradientUnits="userSpaceOnUse" x1="160.2271" y1="440.1541" x2="224.8934" y2="614.8173" gradientTransform="matrix(1 0 0 -1 0 592)">
	<stop  offset="0" style="stop-color:#3264F0"/>
	<stop  offset="1" style="stop-color:#29ABFF"/>
</linearGradient>
<path class="st1" d="M327,1.4v77.4c0,6.2,0,10.7-0.3,14.4c-0.3,3.6-0.9,6.2-2,8.4c-2,4-5.2,7.2-9.2,9.2c-2.2,1.1-4.8,1.7-8.4,2
	c-3.6,0.3-8.2,0.3-14.4,0.3H28.6"/>
<linearGradient id="SVGID_3_" gradientUnits="userSpaceOnUse" x1="212.7748" y1="290.9199" x2="98.4081" y2="511.7433" gradientTransform="matrix(1 0 0 -1 0 592)">
	<stop  offset="0" style="stop-color:#3264F0"/>
	<stop  offset="1" style="stop-color:#29ABFF"/>
</linearGradient>
<path class="st2" d="M302.6,113H38.4c-6.7,0-11.7,0-15.7,0.3c-3.9,0.3-6.8,1-9.2,2.2c-4.3,2.2-7.8,5.7-10.1,10.1
	c-1.2,2.4-1.9,5.2-2.2,9.2c-0.3,4-0.3,8.9-0.3,15.7v83.2c0,6.7,0,11.7,0.3,15.7c0.3,3.9,1,6.8,2.2,9.2c2.2,4.3,5.7,7.8,10.1,10.1
	c2.4,1.2,5.2,1.9,9.2,2.2c4,0.3,8.9,0.3,15.7,0.3h192.9"/>
<linearGradient id="SVGID_4_" gradientUnits="userSpaceOnUse" x1="98.3781" y1="357.1151" x2="378.7433" y2="93.5213" gradientTransform="matrix(1 0 0 -1 0 592)">
	<stop  offset="0" style="stop-color:#3264F0"/>
	<stop  offset="1" style="stop-color:#29ABFF"/>
</linearGradient>
<path class="st3" d="M298.6,590c7,0,10.3,0,13-0.7c7.2-2,12.8-7.6,14.7-14.7c0.7-2.7,0.7-6,0.7-13V305.2c0-6.2,0-10.8-0.3-14.4
	c-0.3-3.6-0.9-6.2-2-8.4c-2-4-5.2-7.2-9.2-9.2c-2.2-1.1-4.8-1.7-8.4-2c-3.6-0.3-8.2-0.3-14.4-0.3h-260"/>
</svg>
