<svg width="68" height="68" viewBox="0 0 68 68" fill="none" xmlns="http://www.w3.org/2000/svg">
<g filter="url(#filter0_d)">
<path d="M36.397 4.69352C38.2195 3.41738 39.0133 3.14439 39.9291 3.03418C40.8449 2.92398 41.7339 3.08074 42.5568 3.49752C43.3797 3.91429 44.0322 4.44231 45.3083 6.26483L64.3065 33.397C65.5826 35.2195 65.8556 36.0133 65.9658 36.9291C66.076 37.8449 65.9193 38.7339 65.5025 39.5568C65.0857 40.3797 64.5577 41.0322 62.7352 42.3083L35.603 61.3065C33.7805 62.5826 32.9867 62.8556 32.0709 62.9658C31.1551 63.076 30.2661 62.9193 29.4432 62.5025C28.6203 62.0857 27.9678 61.5577 26.6917 59.7352L7.69352 32.603C6.41738 30.7805 6.14439 29.9867 6.03418 29.0709C5.92398 28.1551 6.08074 27.2661 6.49752 26.4432C6.91429 25.6203 7.44231 24.9678 9.26483 23.6917L36.397 4.69352Z" fill="url(#paint0_linear)"/>
</g>
<defs>
<filter id="filter0_d" x="0" y="0" width="68" height="68" filterUnits="userSpaceOnUse" color-interpolation-filters="sRGB">
<feFlood flood-opacity="0" result="BackgroundImageFix"/>
<feColorMatrix in="SourceAlpha" type="matrix" values="0 0 0 0 0 0 0 0 0 0 0 0 0 0 0 0 0 0 127 0"/>
<feOffset dx="-2" dy="1"/>
<feGaussianBlur stdDeviation="2"/>
<feColorMatrix type="matrix" values="0 0 0 0 0.806336 0 0 0 0 0.04365 0 0 0 0 0.91276 0 0 0 0.658967 0"/>
<feBlend mode="normal" in2="BackgroundImageFix" result="effect1_dropShadow"/>
<feBlend mode="normal" in="SourceGraphic" in2="effect1_dropShadow" result="shape"/>
</filter>
<linearGradient id="paint0_linear" x1="6" y1="3" x2="6" y2="63" gradientUnits="userSpaceOnUse">
<stop stop-color="#E94295"/>
<stop offset="1" stop-color="#6407CE"/>
</linearGradient>
</defs>
</svg>
