<svg width="192" height="253" viewBox="0 0 192 253" fill="none" xmlns="http://www.w3.org/2000/svg">
<path fill-rule="evenodd" clip-rule="evenodd" d="M160.952 26.1663C160.952 26.1663 161.642 23.0493 161.987 22.3566C162.332 21.6639 164.057 23.7419 165.437 19.2396C166.817 14.7373 165.437 14.0447 164.747 14.7373C164.339 15.149 163.875 15.499 163.367 15.7763C163.367 15.7763 166.472 6.77171 162.332 3.3084C158.192 -0.154916 148.878 -2.2329 145.428 4.00106C141.978 10.235 144.048 14.0447 144.048 14.0447C144.048 14.0447 143.013 11.9667 142.323 13.0057C141.633 14.0447 141.633 17.508 142.323 19.2396C143.013 20.9713 144.393 19.9323 144.393 19.9323C144.393 19.9323 144.738 25.1273 144.738 27.2052C144.738 29.2832 145.428 31.7076 142.323 33.4392C139.218 35.1709 136.114 35.8635 135.079 36.9025C133.009 37.2489 125.419 37.2489 122.314 40.3658C119.21 43.4828 116.45 50.7558 118.865 55.6044C117.14 59.7604 115.76 61.8384 116.105 66.3407C115.415 70.843 115.07 71.1893 115.07 72.5746C114.38 74.3063 113 75.6916 113 77.7696C113 79.8476 113.69 81.9256 113.69 82.9646C113.69 84.0036 113 89.8912 113.69 92.6618C114.38 95.4325 115.07 96.8178 114.725 98.2031C114.38 99.5885 113.69 101.666 114.38 103.052C115.07 104.437 116.795 110.325 116.45 111.364C116.105 112.403 116.45 115.173 117.485 116.212C118.52 117.251 119.21 119.329 120.245 119.329C121.279 119.329 124.039 120.368 124.729 119.329C125.764 119.329 128.524 119.676 128.869 118.983C129.904 118.637 131.974 118.637 131.629 117.598C131.284 116.559 130.249 115.866 129.559 115.52C128.869 115.173 126.109 111.71 125.764 110.671C125.419 109.632 125.764 108.247 125.764 108.247C125.764 108.247 126.799 107.208 127.489 107.554C128.179 107.9 129.214 108.247 129.214 109.286C129.214 110.325 129.214 111.71 130.249 112.056C131.284 112.403 132.319 109.978 131.974 108.593C131.629 107.208 130.594 104.783 129.904 104.437C129.214 104.091 128.524 102.013 125.419 101.666C122.314 101.32 121.624 101.32 121.969 100.281C122.314 99.2421 124.729 93.3545 125.419 91.9692C126.109 90.5839 127.489 86.4279 126.799 81.9256C126.109 77.4233 126.454 75.6916 127.144 73.96C127.834 72.2283 128.869 68.0723 128.869 68.4187C128.869 68.765 131.284 73.2673 131.629 73.6136C131.974 74.3063 131.629 77.4233 132.319 78.4623C133.009 79.5013 133.009 85.3889 132.664 89.1985C132.319 93.3545 134.044 97.5105 134.389 97.8568C133.354 99.9348 132.319 107.9 131.974 112.749C131.629 117.598 130.939 125.91 130.249 128.68C129.559 131.451 128.869 146.343 131.284 150.499C133.699 154.655 137.493 158.811 138.183 161.235C138.873 163.66 140.598 170.586 140.598 172.664C140.598 174.742 139.908 182.015 140.598 183.747C141.288 185.479 149.223 207.644 149.223 209.722C149.223 211.8 150.948 215.609 149.913 218.034C148.878 220.458 147.153 225.307 146.463 226.346C145.773 227.385 145.773 227.731 145.428 230.155C145.083 232.58 145.083 234.658 147.153 236.043C148.681 237.006 150.298 237.818 151.983 238.467C151.983 238.467 151.638 241.238 152.672 242.277C153.707 243.316 154.397 245.394 155.087 245.74C155.777 246.087 158.192 246.087 159.572 245.74C160.952 245.394 164.402 244.355 164.402 244.355C164.402 244.355 166.127 241.931 163.022 237.082C159.917 232.233 159.227 230.502 159.227 228.77C159.227 227.038 158.882 225.999 158.882 225.307C158.882 224.614 159.572 218.726 160.262 216.302C160.952 213.878 164.402 197.947 165.092 196.215C165.782 194.483 167.507 188.249 167.162 178.898C166.817 169.547 166.472 164.006 169.576 158.118C172.681 152.231 176.476 143.919 176.131 134.568C175.786 125.217 175.096 114.134 175.096 114.134C175.096 114.134 174.406 108.939 174.406 108.247C174.406 107.554 173.716 98.5495 172.336 96.8178C170.956 95.0862 171.646 91.9692 171.646 91.9692C171.646 91.9692 172.681 89.1985 171.646 86.4279C170.611 83.6572 169.921 80.8866 170.611 78.8086C171.301 76.7306 172.336 73.2673 172.336 73.2673L173.716 77.077C173.716 77.077 173.371 85.3889 174.061 87.4669C174.751 89.5449 177.856 99.5885 179.581 102.013C181.306 104.437 185.1 111.71 185.445 112.403C184.41 113.442 182.341 114.134 182.341 115.866C182.341 117.598 182.341 120.022 181.996 121.407C181.651 122.793 181.306 124.178 181.651 124.871C181.996 125.563 181.651 125.563 180.616 125.563C179.581 125.563 178.891 126.602 179.581 127.295C180.271 127.988 179.236 129.373 180.616 129.719C181.996 130.066 183.031 131.105 186.135 129.719C189.24 128.334 192 124.524 192 124.524C192 124.524 192 118.983 191.655 115.866C191.339 113.073 190.878 110.299 190.275 107.554C189.93 106.169 188.55 96.1252 188.55 91.2765C188.55 86.4279 186.825 77.0769 185.1 74.6526C185.1 71.1893 184.41 62.1847 183.721 61.1457C184.066 58.0287 185.1 55.9507 185.1 53.1801C185.1 50.4094 183.376 40.7122 177.166 39.6732C170.956 38.6342 169.921 38.6342 169.921 38.6342C169.921 38.6342 160.952 33.4392 160.952 32.0539V26.1663Z" fill="url(#paint0_linear)"/>
<g filter="url(#filter0_d)">
<path fill-rule="evenodd" clip-rule="evenodd" d="M123.907 80.6594C123.255 79.0338 119.34 73.4991 118.035 72.1972C116.73 70.8953 112.491 66.9897 112.491 66.9897C112.491 66.9897 109.391 61.2932 107.271 60.4803C107.173 60.3337 106.99 59.9621 106.729 59.4351L106.729 59.4347C105.26 56.4591 101.344 48.528 96.5076 48.1125C91.91 47.7179 89.3306 47.4616 89.3306 47.4616C89.3306 47.4616 86.3827 46.4869 84.4355 45.185C82.4883 43.8831 77.4208 40.8004 77.4208 40.8004C77.4208 40.8004 81.3355 35.5727 81.011 28.7496C80.6864 21.9266 79.0536 14.1052 70.8963 15.0833C62.7389 16.0614 61.7687 20.6146 61.4307 22.8946C61.0926 25.1745 61.4307 28.4258 61.4307 28.4258C60.4537 27.7749 58.8208 28.4258 59.4733 30.3787C59.5726 30.6758 59.6719 30.9881 59.7723 31.3039L59.7725 31.3044C60.332 33.064 60.927 34.9352 61.7552 34.9352C62.7322 34.9352 63.0601 35.2725 63.0601 35.2725C63.0601 35.2725 64.365 41.4547 64.365 42.7566C64.365 44.0585 63.7328 46.9759 60.785 48.2778C57.8371 49.5797 56.5457 49.5797 56.5457 49.5797C56.5457 49.5797 51.0016 49.2424 48.7163 52.5072C46.431 55.772 44.4635 59.0166 44.1491 60.9694C43.9536 62.1542 43.9536 63.363 44.1491 64.5479C44.1491 64.5479 40.2344 68.1263 38.9295 71.0572C37.6246 73.9881 35.9951 76.9157 35.0148 77.5666C34.0344 78.2176 31.7525 81.4722 33.0574 84.076C34.3623 86.6797 36.8099 91.3982 40.0688 94.6529C43.3276 97.9076 46.5933 101.813 46.5933 101.813C46.5933 101.813 48.2227 104.417 48.5506 105.719C48.8785 107.021 50.508 111.901 52.1374 113.203C53.7669 114.505 55.3997 113.203 55.3997 113.203C55.3997 113.203 55.3997 119.061 54.0948 121.014C53.2811 122.232 52.2768 124.652 51.0033 127.721C50.2344 129.574 49.3674 131.664 48.385 133.868C45.7752 139.723 45.1227 142.974 43.8178 154.043C42.8273 162.448 43.0031 167.224 43.0031 167.224C43.0031 167.224 42.0261 169.828 42.0261 171.781C42.0261 172.128 42.0368 172.547 42.0488 173.018C42.1043 175.196 42.1881 178.483 41.3737 180.887C40.3831 183.811 37.1344 203.343 37.1344 204.317C37.1344 205.292 36.1574 218.311 33.8721 221.893C32.4588 224.108 30.9227 225.454 29.4164 226.773C28.4871 227.587 27.5692 228.391 26.6985 229.384C24.7431 231.612 20.6301 233.367 19.0829 234.028L19.0821 234.028C18.8243 234.138 18.6378 234.218 18.5446 234.264C18.3199 234.375 17.9403 234.45 17.486 234.54C16.6212 234.71 15.4853 234.933 14.6299 235.566C13.8427 236.155 12.9551 236.597 12.0099 236.871C12.0099 236.871 11.6719 240.45 14.9443 239.475C15.7407 239.238 16.3233 239.058 16.749 238.927C17.6256 238.657 17.8365 238.592 17.879 238.65C17.8925 238.668 17.889 238.699 17.8845 238.74C17.8818 238.764 17.8786 238.793 17.8786 238.824C18.8556 239.799 24.0752 239.161 26.3605 237.849C28.6458 236.537 32.5571 237.198 32.5571 237.198C32.5571 237.198 42.3439 240.453 42.6684 234.922C42.7654 233.269 42.7742 231.587 42.7828 229.963C42.8028 226.151 42.8212 222.656 43.9733 220.601C44.6353 219.42 45.6111 217.395 46.6043 215.333L46.6044 215.333C48.0764 212.277 49.5866 209.142 50.1699 208.56C51.1469 207.586 56.3665 198.796 55.7141 189.359C55.0616 179.922 54.7371 177.319 54.7371 177.319C54.7371 177.319 57.6714 170.158 58.9763 168.212C59.7685 167.031 60.3202 165.965 60.9233 164.8L60.9234 164.8C61.3138 164.046 61.7258 163.25 62.2386 162.354C62.5655 161.783 63.0561 161.049 63.6284 160.192L63.6286 160.192C65.3411 157.629 67.7851 153.971 68.7631 150.313C69.4573 147.717 70.428 144.66 71.2339 142.121L71.234 142.121C71.9429 139.888 72.5244 138.057 72.6779 137.294C73.0058 135.665 73.6548 135.018 73.6548 135.018L74.9597 133.716C74.9597 133.716 73.3303 143.804 72.3499 149.011C72.0919 150.382 71.7665 151.797 71.4389 153.222C70.5217 157.212 69.5873 161.276 70.068 164.634C70.3661 166.715 70.5957 167.913 70.7572 168.756C70.9493 169.758 71.045 170.258 71.045 171.143C71.045 171.676 71.2545 172.661 71.5021 173.826C72.0113 176.221 72.6817 179.373 72.022 180.907C71.0416 183.187 69.0877 189.693 68.4352 192.624C67.7828 195.555 67.7828 201.731 68.0972 203.363C68.4116 204.995 68.7496 214.429 68.4352 216.705C68.251 218.039 67.8347 219.262 67.4562 220.374C67.1887 221.159 66.9402 221.889 66.8058 222.564C66.6026 223.584 66.7864 224.73 66.9522 225.763C67.0512 226.38 67.1438 226.958 67.1438 227.444C67.1438 227.838 67.1128 228.352 67.079 228.913C67.0011 230.203 66.9081 231.744 67.1438 232.652C67.3129 233.303 67.5588 234.438 67.8047 235.574C68.0507 236.71 68.2966 237.846 68.4656 238.497C68.8037 239.799 75.6426 241.1 77.5932 238.497C79.0338 236.574 77.8136 235.184 76.945 234.195C76.6375 233.845 76.374 233.545 76.2883 233.289C75.9604 232.311 74.0064 227.758 74.0064 227.758C74.0064 227.758 74.9834 226.783 74.6589 224.83C74.3343 222.878 74.6589 217.67 75.9638 216.044C77.2687 214.419 82.8128 200.749 83.1408 198.796C83.4687 196.843 84.7702 185.454 84.1177 181.872C83.4653 178.29 83.4552 170.482 84.7601 168.526C88.779 162.313 91.4463 155.329 92.5895 148.023C92.9316 145.768 93.2451 143.901 93.5209 142.258C94.5586 136.077 95.0623 133.077 94.5468 124.593C93.8944 113.854 89.6551 103.766 89.6551 103.766C89.6551 103.766 93.5699 101.489 94.2223 101.489C94.8748 101.489 97.8091 99.5366 98.7895 98.5619C99.7698 97.5872 107.596 93.3544 108.576 93.0306C109.557 92.7068 119.668 86.1974 120.645 84.8956C120.966 84.4674 121.499 84.0386 122.047 83.5979C123.164 82.6987 124.343 81.7505 123.907 80.6594ZM55.731 98.5585C55.731 98.5585 52.1442 97.5838 51.4917 97.5838C50.8393 97.5838 48.8819 94.0053 48.8819 94.0053C48.8819 94.0053 43.9902 82.9394 42.6853 82.6156C44.3148 81.6409 48.8819 78.059 49.5344 74.8043C49.5344 74.8043 51.4917 78.059 52.1442 78.3828C52.5697 78.8074 53.7589 82.7629 54.6246 85.6425L54.6246 85.6425L54.6247 85.6428C55.0863 87.178 55.4559 88.4074 55.5687 88.6326C55.5687 88.9186 55.5609 89.3068 55.5521 89.7421C55.5209 91.2883 55.4777 93.4285 55.731 93.6917C56.0555 94.0289 55.731 98.5585 55.731 98.5585ZM93.8944 94.3257C94.5468 94.3257 97.8091 92.0491 98.4616 91.3982C98.6512 91.209 99.4192 90.2502 100.446 88.969C102.951 85.8415 106.995 80.7931 107.92 80.3289C107.604 80.0581 107.234 79.7466 106.829 79.4049C104.308 77.2817 100.4 73.9895 99.2763 72.0286C98.6905 71.0066 98.2696 69.8202 97.8949 68.764C97.4349 67.4674 97.0445 66.367 96.5042 66.0082C95.5238 65.3573 93.2419 63.7317 93.2419 63.7317C93.2419 63.7317 92.4272 79.1889 85.4125 87.813C84.3218 89.1267 83.9001 90.8693 84.2699 92.5348C84.3593 92.89 84.4 93.2703 84.4383 93.6287C84.5404 94.584 84.6259 95.3838 85.5748 95.1386C87.282 94.7136 93.2419 94.3257 93.8944 94.3257Z" fill="url(#paint1_linear)"/>
</g>
<defs>
<filter id="filter0_d" x="0" y="4" width="136" height="249" filterUnits="userSpaceOnUse" color-interpolation-filters="sRGB">
<feFlood flood-opacity="0" result="BackgroundImageFix"/>
<feColorMatrix in="SourceAlpha" type="matrix" values="0 0 0 0 0 0 0 0 0 0 0 0 0 0 0 0 0 0 127 0"/>
<feOffset dy="1"/>
<feGaussianBlur stdDeviation="6"/>
<feColorMatrix type="matrix" values="0 0 0 0 0.00968693 0 0 0 0 0.462346 0 0 0 0 0.209263 0 0 0 0.661543 0"/>
<feBlend mode="normal" in2="BackgroundImageFix" result="effect1_dropShadow"/>
<feBlend mode="normal" in="SourceGraphic" in2="effect1_dropShadow" result="shape"/>
</filter>
<linearGradient id="paint0_linear" x1="170.143" y1="170.368" x2="170.143" y2="60.4877" gradientUnits="userSpaceOnUse">
<stop stop-color="#65E9B0"/>
<stop offset="1" stop-color="#A8E373"/>
</linearGradient>
<linearGradient id="paint1_linear" x1="12" y1="15" x2="12" y2="240" gradientUnits="userSpaceOnUse">
<stop stop-color="#A8E373"/>
<stop offset="1" stop-color="#65E9B0"/>
</linearGradient>
</defs>
</svg>
