<svg width="171" height="257" viewBox="0 0 171 257" fill="none" xmlns="http://www.w3.org/2000/svg">
<path fill-rule="evenodd" clip-rule="evenodd" d="M162.593 55.6111L162.593 55.6109C159.845 52.9803 157.856 51.0768 157.553 50.0161C157.063 48.2998 153.998 44.7448 149.953 44.6222C147.256 44.5413 147.256 44.6222 147.256 44.6222C147.256 44.6222 142.965 35.6732 135.365 34.9377C129.99 34.4179 130.216 35.1829 130.216 35.1829C130.216 35.1829 121.757 33.3441 119.796 32.8537C117.834 32.3633 116.118 31.1375 115.873 29.4212L115.383 23.7822L115.873 22.0659C117.099 22.3111 119.796 15.6913 118.57 15.201C117.344 14.7106 116.854 15.6913 116.854 15.6913C116.854 15.4619 116.894 15.0714 116.947 14.5607C117.344 10.7056 118.448 0 108.273 0C96.9724 0 96.9893 11.0813 96.9942 14.285L96.9944 14.4654C95.033 13.9751 94.2975 15.9365 95.033 18.3883C95.7685 20.84 96.2589 22.3111 97.2396 21.3304C97.7299 23.537 97.73 26.4791 97.4848 27.9502C97.2396 29.4212 96.7492 31.6278 93.8071 32.3633C92.465 32.6989 90.6126 33.0855 88.7388 33.4765L88.7386 33.4765C86.5049 33.9427 84.2408 34.4151 82.7742 34.8151C78.7287 34.6925 75.1737 34.8151 70.5153 39.7187C67.054 43.3621 66.9767 43.757 66.9644 43.8199C66.9635 43.8244 66.963 43.8272 66.9615 43.8294C66.9591 43.8329 66.9543 43.8348 66.9418 43.8397C66.9251 43.8462 66.8946 43.8582 66.8377 43.8867C66.6756 43.9947 66.3589 43.9956 65.9084 43.9969C64.3141 44.0016 61.045 44.0112 57.0306 48.7902C51.8819 54.9196 48.4494 58.1069 48.4494 58.1069C48.4494 58.1069 40.3586 64.2363 45.9976 68.6495C50.2836 72.0038 52.6179 74.2051 54.0059 75.5141C54.4441 75.9273 54.788 76.2516 55.0692 76.4952C56.7811 77.9789 59.9807 79.0376 62.1947 79.7701L62.1948 79.7702L62.1979 79.7712C62.3608 79.8251 62.5184 79.8773 62.6697 79.9277C63.2392 80.1175 64.1192 80.3891 65.1409 80.7043L65.141 80.7044C68.0774 81.6105 72.1842 82.8778 73.4574 83.6053C74.5311 84.2188 75.7006 85.2161 76.546 85.9369C77.052 86.3684 77.4418 86.7008 77.6254 86.7926C77.7462 86.853 78.0454 87.0918 78.4534 87.4174L78.4534 87.4175C79.7023 88.4143 81.9709 90.2251 83.2645 90.2251C84.9808 90.2251 82.7742 91.451 82.7742 91.451C82.7742 91.451 82.7742 92.922 83.2645 93.4124C83.7549 93.9027 85.9615 95.8642 86.697 95.1286L87.4325 94.3931C87.4325 94.3931 88.4132 97.09 87.6777 97.8256C86.9422 98.5611 84.2452 105.671 84.4904 107.878C84.7356 110.084 82.7742 113.762 82.7742 113.762C82.7742 113.762 74.4381 132.15 77.3803 145.145C78.376 149.542 79.5682 153.547 80.6435 157.158C82.7453 164.218 84.3999 169.775 83.2645 173.83C81.5483 179.96 79.0965 189.031 80.5676 199.329C82.0386 209.626 82.7742 222.621 82.529 222.866C82.2838 223.111 78.361 228.505 77.6254 229.731C77.3803 230.139 76.5903 230.929 75.655 231.865L75.6549 231.865C73.7843 233.735 71.3326 236.187 71.496 237.331C71.7412 239.047 75.4189 240.273 75.9092 240.028C76.2229 239.871 76.7374 240.317 77.1315 240.658C77.3534 240.85 77.5371 241.009 77.6254 241.009C77.6534 241.009 77.7101 241.015 77.7912 241.024C78.4205 241.095 80.5182 241.331 82.0386 240.028C82.4189 239.702 82.8112 239.424 83.1995 239.149C84.5639 238.183 85.8793 237.252 86.4518 234.389C88.9036 234.144 93.3168 233.654 92.5812 228.75C92.0191 225.002 92.0298 224.978 92.285 224.409C92.3637 224.233 92.4657 224.006 92.5812 223.601C92.9229 222.405 92.6694 220.614 92.4842 219.306C92.4037 218.737 92.3361 218.26 92.3361 217.962C92.3361 216.982 94.5427 209.626 95.2782 207.665C95.6032 206.798 95.7367 205.309 95.8692 203.832C96.0364 201.967 96.2019 200.121 96.7492 199.574C97.73 198.593 101.898 193.69 99.6914 182.412C99.4398 181.126 99.2233 180.031 99.0385 179.097C98.1186 174.447 97.9869 173.781 98.2396 173.331C98.2819 173.256 98.3348 173.187 98.3966 173.106C98.5422 172.916 98.7368 172.662 98.9558 172.114C99.7125 170.223 100.615 164.682 101.213 161.011L101.213 161.01C101.39 159.923 101.541 159 101.653 158.384C102.143 155.687 105.821 144.9 105.821 144.9C105.821 144.9 109.498 159.365 109.253 162.307C109.096 164.197 109.849 167.3 110.407 169.604C110.719 170.886 110.97 171.921 110.97 172.359C110.97 172.731 110.497 174.069 109.859 175.876C108.391 180.038 106.044 186.69 106.556 189.767C106.993 192.388 108.468 194.923 109.594 196.858C110.363 198.18 110.97 199.222 110.97 199.819C110.97 201.29 112.686 212.323 113.176 213.794C113.666 215.265 114.892 219.924 114.157 222.866L114.128 222.982C113.378 225.978 111.762 232.434 116.118 232.918C120.531 233.408 121.512 233.654 121.512 233.654C121.512 233.654 124.209 238.557 126.661 238.557C128.622 239.538 130.829 240.273 132.055 239.538C132.361 239.354 132.851 239.17 133.403 238.963L133.403 238.963C135.058 238.343 137.265 237.515 136.713 235.86C136.167 234.221 133.727 232.447 132.207 231.342L132.207 231.342C131.68 230.958 131.263 230.656 131.074 230.466C130.594 229.986 128.861 227.836 127.375 225.991C126.583 225.008 125.861 224.112 125.435 223.601C125.205 223.325 124.983 223.118 124.78 222.928C123.901 222.107 123.367 221.607 123.964 217.227C124.699 211.833 126.416 201.045 127.151 197.122C127.193 196.901 127.236 196.674 127.28 196.443L127.28 196.44C128.017 192.561 129.029 187.227 127.642 181.676C127.523 181.203 127.403 180.732 127.284 180.265C125.921 174.922 124.652 169.944 126.906 164.759C127.359 163.716 128.073 162.488 128.91 161.048C132.598 154.703 138.684 144.232 135.487 127.247C132.13 109.413 130.569 107.738 130.034 107.165C129.944 107.068 129.883 107.003 129.848 106.897C129.795 106.736 129.703 106.343 129.578 105.805C129.13 103.879 128.253 100.106 127.151 98.5611C127.248 97.6829 127.423 96.9214 127.568 96.2919C127.676 95.8231 127.767 95.4275 127.796 95.1115C128.169 95.7685 128.894 96.5997 129.848 96.5997C131.564 96.5997 133.281 93.6576 133.281 93.6576C133.281 93.6576 137.939 90.7154 140.881 88.5089C143.823 86.3023 153.385 81.3987 155.347 80.6632C157.308 79.9277 161.231 77.2307 164.663 73.7982C165.147 73.3142 165.675 72.8301 166.21 72.3398C169.467 69.3537 172.974 66.138 168.341 61.2942C166.281 59.1403 164.292 57.2368 162.593 55.6111ZM72.9686 71.5705L72.9685 71.5704C71.8889 70.7719 70.9984 70.1133 70.6379 69.7528C69.6572 68.7721 67.941 66.8107 67.941 66.8107C69.313 66.2373 70.5616 65.4049 71.6186 64.3589C73.3349 62.6427 76.5222 57.7392 76.5222 57.7392C76.5222 57.7392 75.7866 61.4168 76.5222 64.3589C76.9409 66.0361 81.2026 71.4359 83.209 73.9782L83.2091 73.9782C83.6342 74.5169 83.958 74.9272 84.1226 75.1467C84.8582 76.1274 86.3292 79.3147 86.3292 79.3147C86.3292 79.3147 80.445 78.334 78.4836 76.1274C77.2431 74.7319 74.826 72.9443 72.9686 71.5705ZM135.855 79.8051C136.59 79.5599 142.965 74.6564 144.191 73.4305C145.417 72.2046 148.849 68.5269 148.849 68.5269C148.849 68.5269 147.378 67.7914 145.662 67.0559C143.946 66.3203 140.513 62.1523 139.778 60.9265C139.042 59.7006 136.59 56.5133 136.59 56.5133V61.1716C136.59 64.3589 134.874 68.0366 133.894 69.2625C132.913 70.4884 128.254 77.3533 128.009 78.0888C127.914 78.3748 127.856 78.9202 127.791 79.5232C127.69 80.4713 127.573 81.5621 127.274 82.0117C127.274 82.0117 130.216 81.2761 131.197 80.7858C131.801 80.4836 133.15 80.2745 134.269 80.1012C134.966 79.9932 135.573 79.8992 135.855 79.8051Z" fill="url(#paint0_linear)"/>
<g filter="url(#filter0_d)">
<path fill-rule="evenodd" clip-rule="evenodd" d="M78.0381 121.203C78.6057 122.307 80.209 125.802 80.4644 126.625C80.7197 127.45 81.0153 129.165 80.2917 129.99C80.0973 130.212 79.92 130.401 79.7631 130.568C79.3359 131.024 79.06 131.319 79.003 131.667C78.9907 131.741 78.9788 131.824 78.9663 131.91C78.8996 132.371 78.8158 132.951 78.5608 133.156C78.2581 133.4 77.3264 134.291 77.2223 134.925C77.1183 135.559 75.8177 137.69 75.6001 136.252C75.4441 135.221 75.575 134.488 75.6747 133.93C75.714 133.71 75.7485 133.517 75.7585 133.343C75.794 132.731 74.6329 128.316 74.2711 128.302C74.1272 128.296 74.0195 128.893 73.889 129.618C73.6916 130.714 73.4419 132.1 72.9351 132.125C72.2053 132.163 72.2416 130.243 72.2746 128.501C72.293 127.528 72.3103 126.61 72.1925 126.121C72.0025 125.333 72.255 124.647 72.526 123.91C72.724 123.372 72.9318 122.807 72.9847 122.156C73.0449 121.579 73.0274 120.997 72.9327 120.425L72.954 120.406C72.3846 119.682 71.9853 118.84 71.7858 117.942C71.3129 115.104 68.4752 109.429 67.2928 107.773C66.1104 106.118 62.7998 99.2603 62.7998 96.6591C62.7998 94.0579 61.8539 88.3826 61.8539 88.3826C61.8539 88.3826 60.6716 93.3485 60.1986 94.5309C60.1464 94.6615 60.0884 94.8036 60.0268 94.9545C59.5311 96.169 58.8059 97.946 59.0163 98.7874C59.0293 98.8395 59.0445 98.8995 59.0615 98.9666C59.3527 100.118 60.1726 103.359 59.7257 104.699C59.4122 105.64 59.826 106.58 60.2096 107.452C60.4046 107.895 60.5919 108.321 60.6716 108.719C60.7437 109.08 60.948 109.573 61.1903 110.158C61.7421 111.489 62.4912 113.297 62.3269 115.104C62.0904 117.705 62.7998 123.854 63.0363 124.799C63.0601 124.895 63.1319 125.103 63.2392 125.413C64.1965 128.187 67.9767 139.139 65.6375 151.048C63.6223 161.307 61.3233 166.173 60.1698 168.614C59.8343 169.324 59.5958 169.829 59.4892 170.202C59.0911 171.67 58.8532 173.176 58.7798 174.695C58.7798 174.899 58.9167 175.612 59.1005 176.568C59.5559 178.938 60.2991 182.806 59.9622 184.154C59.8112 184.758 59.7325 185.747 59.6415 186.891C59.4474 189.332 59.1973 192.476 58.0704 194.086C56.4151 196.451 53.8139 202.363 53.5774 203.072C53.5183 203.249 53.4296 203.471 53.3335 203.711C53.0453 204.432 52.6906 205.318 52.868 205.673C52.9304 205.798 53.0092 205.824 53.0915 205.851C53.3211 205.927 53.5774 206.011 53.5774 208.274C53.5774 211.349 53.1044 220.807 52.868 221.753C52.8084 221.992 52.8539 222.41 52.9099 222.925C53.0762 224.455 53.3355 226.84 51.2126 227.902C48.375 229.32 46.4832 230.503 46.4832 230.503C46.4832 231.274 46.7191 232.675 46.9665 234.143C47.3258 236.276 47.7092 238.552 47.4291 239.252C47.3156 239.536 47.3655 240.024 47.422 240.576C47.6009 242.324 47.8451 244.71 43.1726 243.272C37.0243 241.381 37.0243 241.144 37.4972 238.543C37.7337 237.242 37.7337 236.001 37.7337 234.789C37.7337 233.577 37.7337 232.395 37.9702 231.212C38.4431 228.848 39.6255 224.118 39.6255 224.118C39.6255 224.118 38.4431 220.571 38.6796 217.97C38.9161 215.369 33.4772 201.653 32.5313 199.525C31.5854 197.397 29.4571 186.282 30.876 181.553C32.2948 176.823 32.2948 173.04 32.0583 171.385C31.8219 169.729 26.383 157.669 25.2006 155.541C24.0183 153.413 22.3629 144.9 22.1265 142.771C21.9089 140.809 21.488 130.203 21.9799 124.854C21.3603 126.783 20.9346 128.15 20.9346 128.15C21.3296 128.699 20.7265 130.818 20.256 131.641C19.7854 132.464 19.9556 134.119 19.9556 134.119C19.9556 134.119 20.0975 134.902 19.679 137.025C19.2925 138.986 18.1966 137.701 17.9264 137.384C17.904 137.358 17.8872 137.338 17.877 137.328C17.7446 137.191 17.6075 133.823 17.7021 133.428C17.7966 133.033 16.9926 132.071 16.9926 132.071C16.9926 132.071 15.9261 132.83 15.5218 133.36C15.1174 133.889 14.758 135.308 14.758 135.308L14.8667 138.661C14.8667 138.661 15.1978 138.858 15.6708 140.4C16.0207 141.549 14.4766 141.513 13.6087 140.024C12.9844 141.059 12.2655 138.144 12.0385 135.384C11.8115 132.624 12.6321 130.775 13.3368 130.245C14.0415 129.716 17.3828 125.426 17.695 125.022C17.8416 124.365 17.9411 123.699 17.9929 123.028C17.9929 122.669 17.5808 117.741 17.1714 112.846C16.9965 110.754 16.8221 108.669 16.6805 106.948L16.5741 106.475C16.5741 106.475 16.4275 104.936 16.3802 102.928C16.3187 100.178 16.444 96.5433 17.4017 94.7673C19.057 91.6932 19.53 90.2744 19.7665 89.3285C20.0029 88.3826 20.4759 79.6331 20.2394 78.4507C20.183 78.1687 19.9786 77.658 19.7097 76.986C18.8511 74.8405 17.3345 71.0507 17.8747 67.8094C17.955 67.3274 18.0293 66.8605 18.1009 66.4101C18.6619 62.8839 19.0616 60.3716 20.9488 59.5329C23.0771 58.587 26.7424 57.9958 26.7424 57.9958C26.8042 57.934 27.0918 57.8077 27.5169 57.6211C28.719 57.0932 31.0201 56.0828 32.4178 54.6852C32.8275 54.2755 33.2593 53.9212 33.6822 53.5744C35.2118 52.3198 36.6231 51.1622 36.4378 47.8274C36.2013 43.5709 35.2554 41.9156 35.2554 41.9156C35.2554 41.9156 33.8366 42.1521 33.6001 41.4427C33.5668 41.3427 33.4959 41.1627 33.4025 40.9261C32.8341 39.4843 31.4354 35.9371 32.6542 35.5308C33.8153 35.1478 34.0305 35.8525 34.0731 36.1339C33.6001 31.175 33.8792 24.4166 39.9849 23.2343C46.1332 22.0519 50.3897 25.599 50.8627 28.2002C51.3356 30.8014 51.8086 35.5308 51.8086 35.5308C51.8086 35.5308 53.7003 34.3485 52.9909 37.4226C52.2815 40.4968 51.8086 41.6791 51.3356 41.6791C51.0922 41.6791 50.7862 42.6814 50.4497 43.7831C50.1324 44.8221 49.7881 45.9495 49.4438 46.4086C48.7344 47.3545 48.9709 48.7733 48.9709 48.7733C48.9709 48.7733 50.1532 50.4286 53.2274 51.1381C55.3708 51.6327 56.5945 52.1273 57.6199 52.5418C58.0652 52.7218 58.4732 52.8867 58.9027 53.0299C59.2784 53.1551 59.9688 53.1808 60.8162 53.2124C63.1699 53.3003 66.7342 53.4333 68.1252 55.8675C70.017 59.1782 71.1993 62.4888 70.9629 65.5629C70.822 67.394 70.01 69.1411 69.3763 70.5046C68.9461 71.4302 68.5981 72.179 68.5981 72.6571C68.5981 73.8395 70.4899 84.4808 70.9629 85.4267C71.4358 86.3725 75.5741 95.4768 75.1012 98.7874C74.6282 102.098 76.2835 115.577 76.2835 115.577C76.2835 115.577 77.6882 120.519 78.0381 121.203ZM30.1939 100.251C30.3644 99.0223 30.5511 97.6781 31.1172 96.6591C32.2995 94.5309 32.7678 92.4026 32.2948 91.2202C31.8219 90.0379 29.6936 86.4908 29.6936 86.4908C29.6936 86.4908 28.5112 90.7473 28.2748 91.2202C28.174 91.4202 27.9694 93.3659 27.7305 95.6382C27.6161 96.7256 27.4939 97.8879 27.3714 98.9695C27.4211 99.0735 27.4306 102.911 27.135 106.695C27.9366 105.08 28.7264 103.678 29.2254 103.28C29.8417 102.787 30.0082 101.588 30.1939 100.251Z" fill="url(#paint1_radial)"/>
</g>
<defs>
<filter id="filter0_d" x="0" y="12" width="92.7466" height="244.714" filterUnits="userSpaceOnUse" color-interpolation-filters="sRGB">
<feFlood flood-opacity="0" result="BackgroundImageFix"/>
<feColorMatrix in="SourceAlpha" type="matrix" values="0 0 0 0 0 0 0 0 0 0 0 0 0 0 0 0 0 0 127 0"/>
<feOffset dy="1"/>
<feGaussianBlur stdDeviation="6"/>
<feColorMatrix type="matrix" values="0 0 0 0 0 0 0 0 0 0 0 0 0 0 0 0 0 0 0.5 0"/>
<feBlend mode="normal" in2="BackgroundImageFix" result="effect1_dropShadow"/>
<feBlend mode="normal" in="SourceGraphic" in2="effect1_dropShadow" result="shape"/>
</filter>
<linearGradient id="paint0_linear" x1="57.4744" y1="32.3903" x2="57.4744" y2="222.147" gradientUnits="userSpaceOnUse">
<stop stop-color="#E94295"/>
<stop offset="1" stop-color="#6407CE"/>
</linearGradient>
<radialGradient id="paint1_radial" cx="0" cy="0" r="1" gradientUnits="userSpaceOnUse" gradientTransform="translate(53.0337 61.1487) rotate(99.1779) scale(137.759 53.0684)">
<stop stop-color="#E94295"/>
<stop offset="1" stop-color="#6407CE"/>
</radialGradient>
</defs>
</svg>
