<svg width="45" height="45" viewBox="0 0 45 45" fill="none" xmlns="http://www.w3.org/2000/svg">
<path d="M22.5 0C10.0736 0 0 10.0736 0 22.5C0 34.9264 10.0736 45 22.5 45C34.9264 45 45 34.9264 45 22.5C45 16.5326 42.6295 10.8097 38.4099 6.5901C34.1903 2.37053 28.4674 0 22.5 0Z" fill="#152554"/>
<path d="M35.3345 17.1511C35.5361 16.4876 35.3345 16 34.3751 16H31.2025C30.3958 16 30.0239 16.4212 29.8222 16.8857C29.8222 16.8857 28.2088 20.7674 25.9233 23.2888C25.1838 24.0187 24.8477 24.2509 24.4443 24.2509C24.2427 24.2509 23.9508 24.0187 23.9508 23.3552V17.1511C23.9508 16.3549 23.7167 16 23.0444 16H18.0588C17.5547 16 17.2515 16.3696 17.2515 16.7198C17.2515 17.4746 18.3943 17.6487 18.5121 19.7721V24.3837C18.5121 25.3947 18.3271 25.578 17.9237 25.578C16.8482 25.578 14.232 21.679 12.6803 17.2175C12.3762 16.3503 12.0712 16 11.2604 16H8.08776C7.1813 16 7 16.4212 7 16.8857C7 17.7151 8.07559 21.829 12.0081 27.27C14.6298 30.9858 18.3235 33 21.6847 33C23.7013 33 23.9508 32.5526 23.9508 31.782V28.9737C23.9508 28.0789 24.1419 27.9004 24.7805 27.9004C25.251 27.9004 26.0577 28.1326 27.94 29.9242C30.0911 32.0475 30.4458 33 31.6557 33H34.8283C35.7348 33 36.188 32.5526 35.9266 31.6698C35.6405 30.7899 34.6134 29.5132 33.2506 27.9999C32.5111 27.1373 31.402 26.2084 31.0658 25.7438C30.5953 25.1467 30.7297 24.8813 31.0658 24.3505C31.0658 24.3505 34.9312 18.9758 35.3345 17.1511Z" fill="white"/>
</svg>
